<svg width="370" height="298" viewBox="0 0 370 298" fill="none" xmlns="http://www.w3.org/2000/svg">
<path d="M192.168 149.199L218.977 296.505H207.405C199.086 248.212 182.387 151.475 182.134 150.879L177.178 118.718L173.598 98.7017L158.627 12.6156L168.221 10.1267L186.691 117.161L192.168 149.199Z" fill="#FF8C21" stroke="#FF8C21"/>
<path d="M365.591 123.012V83.0281L351.762 109.814L365.591 123.012Z" fill="#2143FF" stroke="#2143FF"/>
<path d="M241.158 123.012V83.0281L254.987 109.814L241.158 123.012Z" fill="#2143FF" stroke="#2143FF"/>
<path d="M300.802 135.704C282.073 135.408 264.619 122.977 258.171 116.724C252.082 116.724 230.281 151.335 220.141 168.64H209.138V190.456H238.321C242.684 190.456 248.942 182.489 251.525 178.506H258.961V274.265H262.08C262.08 266.955 272.72 264.469 278.041 264.14C289.489 264.14 294.208 270.89 295.137 274.265H298.454V238.409H302.913V274.265H305.416C314.571 265.11 321.602 263.7 323.973 264.14C333.273 264.14 340.348 270.89 342.722 274.265H344.597V177.266H350.472V224.391H369.298V150.285C369.298 133.788 354.635 121.037 347.304 116.724C331.181 132.847 309.585 136.095 300.802 135.704Z" fill="#2143FF"/>
<path d="M301.481 135.709C301.254 135.709 301.028 135.707 300.802 135.704M300.802 135.704C282.073 135.408 264.619 122.977 258.171 116.724C252.082 116.724 230.281 151.335 220.141 168.64H209.138V190.456H238.321C242.684 190.456 248.941 182.489 251.525 178.506H258.961V274.265H262.08C262.08 266.955 272.72 264.469 278.041 264.14C289.489 264.14 294.208 270.89 295.137 274.265H298.454V238.409H302.913V274.265H305.416C314.571 265.11 321.602 263.7 323.973 264.14C333.273 264.14 340.348 270.89 342.722 274.265H344.597V177.266H350.472V224.391H369.298V150.285C369.298 133.788 354.635 121.037 347.304 116.724C331.181 132.847 309.585 136.095 300.802 135.704Z" stroke="#2143FF"/>
<path d="M303.019 26.3284C272.486 26.3284 254.875 51.3725 251.444 63.9517C248.813 76.1878 251.444 101.461 263.108 113.125C277.426 127.442 295.833 130.907 303.247 130.85C321.819 130.85 337.364 119.033 342.815 113.125C357.544 98.3959 357.109 74.2056 355.051 63.9517C347.389 38.5645 321.43 26.3284 303.019 26.3284Z" fill="#2143FF" stroke="#2143FF"/>
<path d="M348.328 58.314C335.686 43.7359 313.112 41.9018 304.075 42.2665C274.229 42.2665 261.673 51.8492 259.025 56.6406C252.223 65.8607 255.27 88.8843 259.025 99.8919C262.493 107.394 284.706 126.658 303.872 125.508C323.701 125.508 340.475 108.431 346.383 99.8919C353.191 93.0838 353.19 68.2675 348.328 58.314Z" fill="black" stroke="#0023EC"/>
<path d="M350.238 244.173V231.626H364.354C364.354 238.84 354.943 242.997 350.238 244.173Z" fill="#2143FF" stroke="#2143FF"/>
<path d="M343.715 288.082L304.729 288.082C304.729 273.78 317.825 270.147 324.373 270.118C337.143 270.118 343.45 281.644 343.715 288.082Z" fill="#2143FF" stroke="#2143FF"/>
<path d="M297.926 288.082L258.94 288.082C258.94 273.78 272.036 270.147 278.584 270.118C291.354 270.118 297.661 281.644 297.926 288.082Z" fill="#2143FF" stroke="#2143FF"/>
<path d="M184.251 180.482C184.251 168.769 189.095 167.432 191.623 167.194C196.467 167.194 200.565 172.909 201.283 179.696C201.283 189.783 196.37 191.924 193.913 191.782C187.153 191.782 184.655 184.249 184.251 180.482Z" fill="#2143FF" stroke="#2143FF"/>
<rect x="274.536" y="147.257" width="54.3164" height="64.4687" rx="7" stroke="#FF8C21" stroke-width="2"/>
<circle cx="301.967" cy="195.495" r="7.24158" fill="#FF8C21"/>
<path d="M0.854004 6.96887V93.9559C19.3991 87.0485 40.7209 86.849 49.0637 87.6127C51.8085 87.6127 87.2331 93.7459 104.853 96.8318C107.468 97.2898 127.777 100.114 140.715 98.9762C151.903 98.2858 168.947 94.0783 173.454 91.7376L168.421 9.56469C164.466 12.0415 141.003 16.6459 129.6 15.6137C116.246 15.6137 84.2314 8.45763 69.8933 4.87957C66.4029 4.00855 44.7738 0.532227 33.3243 0.532227C17.9296 0.532227 5.26296 4.82332 0.854004 6.96887Z" fill="#FF8C21" stroke="#FF8C21"/>
</svg>
