<svg width="343" height="135" viewBox="0 0 343 135" fill="none" xmlns="http://www.w3.org/2000/svg">
<g clip-path="url(#clip0_270_4)">
<path fill-rule="evenodd" clip-rule="evenodd" d="M40.697 0.0748886C36.0148 0.560548 32.7129 3.0184 31.3332 7.04489C30.761 8.7142 30.5689 10.1123 30.4955 13.1391C30.3885 17.5586 30.7824 21.0506 31.6812 23.6481C32.2541 25.3038 33.6459 27.9604 34.7845 29.5718C35.3495 30.3711 37.2769 32.8781 39.0679 35.143C44.8078 42.4017 45.5087 43.4711 46.1094 45.8883C46.5505 47.664 46.6895 52.113 46.3693 54.2181C46.0851 56.0856 45.6605 56.8605 44.6691 57.3194C43.4786 57.8703 41.8304 57.6292 41.0035 56.7831C39.9905 55.7464 39.844 54.5186 39.844 47.0597V41.5013H34.9093H29.9744L29.9782 48.9194C29.9802 52.9995 30.035 56.7463 30.1001 57.2459C30.3844 59.4303 31.119 61.4382 32.1877 62.9528C33.7025 65.099 36.5831 66.6172 39.9659 67.0522C41.2099 67.2122 45.019 67.2065 46.3629 67.0428C52.1191 66.3417 55.751 62.6482 56.8302 56.3981C57.1914 54.3074 57.3169 51.2662 57.1684 48.2133C56.9554 43.8368 56.4428 41.5487 55.0539 38.7763C54.0832 36.8389 52.6895 34.8636 48.5738 29.592C43.0306 22.4921 42.2089 21.3109 41.4887 19.4094C40.9896 18.0911 40.8016 16.9919 40.7305 14.9725C40.6554 12.8428 40.8295 10.9631 41.1735 10.1899C41.6056 9.219 42.7555 8.70014 44.1086 8.86535C45.2721 9.00741 45.9166 9.51221 46.2684 10.5572C46.4441 11.0789 46.4785 11.9214 46.5167 16.643L46.5613 22.1234H51.3664H56.1716L56.1708 15.7346C56.1701 8.93824 56.1084 7.98013 55.5568 6.19711C55.1136 4.76411 54.5045 3.74205 53.4962 2.74009C52.1713 1.423 50.6508 0.700917 48.2481 0.247715C47.0783 0.027049 42.2286 -0.0840106 40.697 0.0748886ZM0 33.4474V66.3294H4.99574H9.99147V51.8565V37.3835H13.4032H16.815V51.8565V66.3294H21.7497H26.6846V33.4474V0.565393H21.7497H16.815V13.706V26.8467H13.4032H9.99147V13.706V0.565393H4.99574H0V33.4474ZM60.4362 33.4474V66.3294H72.0118H83.5872V61.3637V56.3981H77.0074H70.4277V46.8303V37.2625H75.4234H80.4192V32.2969V27.3311H75.4234H70.4277V18.6717V10.0121H76.7638H83.0999V5.28877V0.565393H71.7681H60.4362V33.4474ZM101.133 0.701039C101.133 0.775766 100.01 9.83638 98.6381 20.8359C97.2661 31.8356 95.4574 46.3669 94.6194 53.1281C93.7804 59.8893 93.0617 65.6254 93.0211 65.8751L92.9477 66.3294H97.5278H102.108L102.114 66.0568C102.118 65.907 102.408 63.1411 102.759 59.9104L103.396 54.0364L107.118 54.0044L110.839 53.9725L111.119 56.6083C111.273 58.0581 111.57 60.8248 111.78 62.7565L112.161 66.2688L117.065 66.3004C119.762 66.3178 121.969 66.2899 121.969 66.2382C121.969 66.1866 120.74 56.9073 119.238 45.6175C117.735 34.3278 115.775 19.5725 114.881 12.8281L113.257 0.565635L107.195 0.565513C102.801 0.565393 101.133 0.602696 101.133 0.701039ZM123.431 33.4474V66.3294H128.488H133.545V51.5954V36.8612L135.524 36.9367C137.929 37.0282 138.583 37.193 139.189 37.8601C139.427 38.1214 139.69 38.5436 139.775 38.798C139.894 39.1527 139.947 42.1154 140.006 51.4931C140.088 64.6522 140.085 64.5799 140.727 65.8321L140.983 66.3294H146.037C150.155 66.3294 151.09 66.2997 151.09 66.1685C151.09 66.08 150.948 65.6607 150.776 65.2368C150.065 63.5007 150.085 63.9213 150.002 49.2524C149.917 34.226 149.98 35.2972 149.078 33.6896C148.47 32.6046 147.124 31.4181 145.988 30.9656L145.578 30.802L146.172 30.5027C147.034 30.068 148.393 28.6501 148.924 27.6317C149.169 27.164 149.495 26.3194 149.651 25.7545L149.933 24.7272V16.3705V8.0138L149.647 6.882C149.006 4.36106 147.692 2.6151 145.729 1.68024C143.481 0.609115 142.954 0.565393 132.299 0.565393H123.431V33.4474ZM151.699 5.28877V10.0121H155.903H160.107V38.1707V66.3294H165.042H169.977V38.1707V10.0121H174.18H178.385V5.28877V0.565393H165.042H151.699V5.28877ZM191.447 12.5858C190.623 19.197 188.801 33.844 187.398 45.1346C185.996 56.4254 184.821 65.813 184.788 65.9962L184.727 66.3294H189.28H193.836L193.911 65.754C193.951 65.4378 194.231 62.8624 194.532 60.0315C194.832 57.2006 195.11 54.6799 195.149 54.4301L195.221 53.9758H198.927C200.964 53.9758 202.632 54.0168 202.632 54.0667C202.632 54.1167 202.935 56.8826 203.302 60.2133C203.67 63.5438 203.972 66.2823 203.973 66.299C203.973 66.3158 206.194 66.3294 208.91 66.3294H213.847L213.784 66.0568C213.73 65.8189 211.736 50.9128 206.474 11.3855C205.701 5.57968 205.07 0.769952 205.07 0.697406C205.07 0.603906 203.3 0.565393 199.007 0.565393H192.945L191.447 12.5858ZM215.547 33.4474V66.3294H220.056H224.563L224.595 47.5006L224.626 28.6717L229.378 47.4994L234.13 66.3274L238.181 66.3283L242.232 66.3294V33.4474V0.565393H237.723H233.215V18.2074C233.215 27.9104 233.19 35.8239 233.159 35.7924C233.101 35.7352 229.768 22.0993 226.457 8.37713C225.477 4.31381 224.646 0.89385 224.611 0.77734C224.553 0.580411 224.229 0.565393 220.048 0.565393H215.547V33.4474ZM246.376 33.4474V66.3424L255.179 66.2967C262.984 66.2564 264.086 66.2274 264.896 66.0416C269.57 64.9702 271.997 62.0959 272.841 56.6404C272.966 55.8218 272.998 50.9931 272.998 33.0841C272.998 11.7881 272.986 10.4876 272.775 9.28544C272.301 6.58444 271.447 4.76242 269.96 3.28292C268.804 2.13307 267.63 1.49796 265.687 0.970756L264.469 0.64012L255.423 0.596397L246.376 0.552555V33.4474ZM138.002 9.7005C138.808 9.94509 139.43 10.55 139.717 11.3693C139.924 11.9611 139.941 12.5009 139.941 18.3689V24.7272L139.651 25.4539C139.292 26.3523 138.545 27.103 137.742 27.3752C137.304 27.5237 136.703 27.5734 135.35 27.5734H133.545V18.4719V9.37041L135.464 9.44135C136.655 9.48547 137.619 9.58377 138.002 9.7005ZM260.92 9.80806C261.697 10.1613 262.083 10.6665 262.42 11.7683C262.631 12.459 262.643 13.5189 262.643 33.2051V53.9154L262.349 54.6421C262.18 55.0634 261.847 55.5793 261.556 55.8701C260.842 56.5859 260.15 56.7614 258.051 56.7614H256.367V33.0659V9.37041L258.31 9.43747C260.043 9.49721 260.326 9.53735 260.92 9.80806ZM108.012 28.3607C108.515 32.9569 109.108 38.3932 109.331 40.4415L109.736 44.1658H107.08C105.618 44.1658 104.423 44.1394 104.423 44.1073C104.423 44.075 104.668 41.7725 104.968 38.9903C105.67 32.4784 106.979 20.1415 106.991 19.927C107.02 19.4295 107.18 20.7483 108.012 28.3607ZM199.352 24.2618C200.563 35.2202 201.535 44.0642 201.535 44.1126C201.535 44.1419 200.328 44.1658 198.853 44.1658H196.172L196.238 43.7117C196.303 43.2771 197.738 29.8501 198.446 23.0666C198.631 21.2872 198.802 19.8514 198.828 19.8761C198.852 19.9006 199.089 21.8741 199.352 24.2618ZM66.3373 67.902C63.1625 68.346 60.6179 69.5959 59.0553 71.4789C57.8155 72.9729 57.0609 74.6942 56.5869 77.1084C56.3976 78.0731 56.3621 78.8265 56.3679 81.7711C56.3751 85.4812 56.5131 87.3415 56.9198 89.2085C57.5619 92.1556 58.9618 95.1088 61.0883 98.0003C61.4313 98.4662 63.1931 100.729 65.0035 103.028C70.1238 109.528 70.7952 110.492 71.5326 112.392C72.1585 114.005 72.264 114.715 72.3383 117.802C72.4343 121.793 72.1852 123.441 71.3235 124.515C70.8657 125.086 70.2922 125.347 69.3567 125.41C67.472 125.536 66.2363 124.513 65.9147 122.562C65.851 122.176 65.7986 119.039 65.7982 115.592L65.7976 109.324H60.8017H55.8061L55.8071 116.561C55.8079 123.998 55.8597 125.084 56.2988 126.874C56.6127 128.154 57.6798 130.364 58.3874 131.201C59.8858 132.971 61.8524 134.07 64.5401 134.639C66.0866 134.967 70.1948 135.105 71.936 134.887C76.4993 134.316 79.459 132.32 81.3049 128.57C82.7936 125.546 83.3108 121.504 82.9929 115.38C82.6935 109.616 81.5735 106.759 77.5093 101.391C77.0048 100.725 75.3804 98.6268 73.8993 96.7288C69.2445 90.7624 68.6655 89.9576 67.8405 88.3112C66.9478 86.5294 66.6745 85.2774 66.5716 82.4978C66.4541 79.3248 66.8299 77.7168 67.8449 77.0493C68.7984 76.422 70.645 76.5303 71.3932 77.2571C72.319 78.1569 72.3773 78.6051 72.3773 84.8213V89.9462H77.2625H82.1477L82.0894 83.3154C82.0274 76.2654 81.9849 75.7034 81.3783 73.9281C80.5149 71.4003 78.8117 69.5614 76.5314 68.6953C74.7927 68.035 73.6964 67.8858 70.2449 67.8403C68.5025 67.8174 66.7442 67.8451 66.3373 67.902ZM110.045 67.9208C107.018 68.2354 104.672 69.3167 102.876 71.225C101.705 72.4691 101.001 73.6676 100.4 75.4444C99.4276 78.3133 99.4974 76.3938 99.4541 101.452C99.4267 117.122 99.455 124.146 99.5487 124.966C100.09 129.698 102.647 133.351 106.25 134.541C106.901 134.756 107.409 134.811 109.078 134.851C111.442 134.906 111.896 134.816 113.59 133.948C115.514 132.963 117.671 130.627 118.664 128.454L119.014 127.686L119.204 128.345C119.372 128.927 120.322 132.465 120.642 133.698L120.76 134.152H123.619H126.478V114.169V94.185H119.41H112.343V99.2118V104.238H114.597H116.852V112.945C116.852 121.302 116.842 121.684 116.609 122.434C116.021 124.325 114.101 125.33 112.151 124.769C111.174 124.488 110.526 123.821 110.134 122.689L109.846 121.859V100.907V79.9544L110.119 79.2883C110.64 78.0175 111.579 77.3581 112.877 77.3532C114.625 77.3466 115.617 78.1507 115.984 79.8696C116.07 80.2764 116.121 82.106 116.121 84.8654V89.22H121.055H125.99L125.989 84.5265C125.987 77.4082 125.661 75.2594 124.171 72.5281C123.324 70.973 121.533 69.4339 119.78 68.7516C117.653 67.9236 113.46 67.5657 110.045 67.9208ZM179.299 67.9127C173.531 68.685 170.228 72.0398 169.492 77.8711C169.33 79.1599 169.331 84.9013 169.496 86.4084C169.979 90.87 171.185 93.9776 173.867 97.6756C174.383 98.3868 176.12 100.631 177.725 102.663C182.533 108.746 183.372 109.902 184.183 111.581C185.102 113.476 185.33 114.903 185.325 118.71C185.32 122.482 185.044 123.877 184.134 124.744C182.988 125.835 180.51 125.592 179.616 124.3C178.824 123.157 178.823 123.138 178.779 115.894L178.738 109.324H173.748H168.759L168.76 116.379C168.76 124.806 168.844 125.817 169.742 128.268C171.088 131.949 174.202 134.232 178.665 134.813C180.462 135.048 183.774 135.051 185.393 134.823C191.253 133.994 194.665 130.348 195.763 123.737C196.017 122.205 196.132 115.943 195.942 114.004C195.476 109.256 194.149 106.164 190.534 101.404C189.92 100.598 188.094 98.2403 186.474 96.1659C182.08 90.54 181.137 89.1777 180.464 87.5044C179.712 85.634 179.665 85.3124 179.665 82.0739C179.663 78.6894 179.786 78.0192 180.536 77.2948C181.49 76.3741 183.484 76.3961 184.477 77.3382C185.302 78.1207 185.33 78.3451 185.33 84.5182V89.9462H190.203H195.078L195.075 83.9209C195.074 80.607 195.018 77.3779 194.951 76.745C194.432 71.833 192.098 69.1136 187.563 68.1401C186.561 67.9249 185.857 67.876 183.257 67.8406C181.55 67.8174 179.767 67.8498 179.299 67.9127ZM208.298 67.9603C203.281 68.7514 200.327 71.6194 199.061 76.9257C198.802 78.0155 198.802 78.0391 198.761 100.483C198.725 120.968 198.74 123.078 198.925 124.403C199.278 126.91 200.139 129.283 201.238 130.772C201.845 131.591 203.235 132.855 204.054 133.329C206.09 134.509 208.456 135 212.092 135C215.202 135 217.26 134.631 219.054 133.751C222.176 132.222 224.079 129.241 224.821 124.717C225.032 123.431 225.051 122.567 225.051 114.441V105.57H220.183H215.314L215.278 114.078C215.243 122.414 215.238 122.599 214.987 123.207C214.391 124.646 213.551 125.224 212.053 125.228C210.926 125.231 210.193 124.883 209.639 124.084C208.874 122.98 208.907 124.041 208.907 100.968C208.907 80.9159 208.917 79.9215 209.131 79.2333C209.4 78.3671 210.031 77.6806 210.737 77.4856C211.004 77.4121 211.61 77.3516 212.084 77.3514C213.2 77.3502 214.104 77.772 214.608 78.5277C215.251 79.4911 215.3 80.0802 215.301 86.9487L215.304 93.2162H220.178H225.051L225.05 85.9799C225.047 78.3478 224.993 77.3836 224.449 75.2916C223.802 72.8044 222.179 70.5762 220.134 69.3694C219.112 68.7667 217.269 68.1857 215.696 67.9706C214.02 67.7417 209.723 67.7356 208.298 67.9603ZM269.891 67.867C264.175 68.4755 260.71 71.5525 259.418 77.1676C258.853 79.6205 258.865 79.132 258.865 101.27C258.865 121.052 258.877 122.3 259.09 123.616C259.792 127.97 261.24 130.798 263.713 132.646C266.107 134.435 268.843 135.086 273.443 134.966C277.649 134.854 279.827 134.194 282.031 132.359C284.157 130.59 285.465 127.912 286.127 123.979L286.402 122.344V101.27C286.402 81.7158 286.386 80.1017 286.188 78.8798C285.341 73.692 283.576 70.831 280.188 69.1485C278.92 68.5189 277.474 68.1251 275.622 67.9053C274.658 67.7908 270.845 67.7652 269.891 67.867ZM299.744 67.9541C296.436 68.4606 294.292 69.5581 292.5 71.6616C291.238 73.1449 290.394 75.0366 289.786 77.7522L289.456 79.2279L289.413 100.361C289.385 115.26 289.412 121.889 289.508 122.828C289.754 125.243 290.234 127.007 291.156 128.884C291.854 130.305 292.572 131.239 293.739 132.245C295.983 134.182 298.814 135.003 303.232 134.998C308.102 134.992 310.985 134.033 313.284 131.651C315.312 129.548 316.41 126.597 316.811 122.17C316.893 121.247 316.922 113.764 316.897 100.241L316.856 79.7122L316.589 78.259C315.967 74.8873 314.954 72.6552 313.274 70.9588C311.867 69.5386 309.837 68.5418 307.412 68.0798C306.014 67.8135 301.18 67.7342 299.744 67.9541ZM0 101.27V134.152L7.70683 134.15C11.9457 134.149 16.0717 134.094 16.8759 134.029C22.258 133.586 25.229 130.883 26.3431 125.416L26.6237 124.039V101.089C26.6237 79.1602 26.6134 78.0837 26.3952 76.9266C25.4475 71.9025 22.9695 69.3661 18.2307 68.57C17.3394 68.4203 15.6366 68.3883 8.57427 68.3883H0V101.27ZM30.4618 101.27V134.152H42.0982H53.7346V129.126V124.099H47.0939H40.4533V114.593V105.086H45.449H50.4448V100.12V95.1538H45.449H40.4533V86.4945V77.8351H46.8503H53.2472V73.1117V68.3883H41.8545H30.4618V101.27ZM85.7805 101.27V134.152H90.8367H95.8941V101.27V68.3883H90.8367H85.7805V101.27ZM129.889 101.27V134.152H134.397H138.905L138.936 115.37L138.966 96.5894L143.709 115.37L148.45 134.152H152.512H156.574V101.27V68.3883H151.998H147.423L147.493 86.0404C147.54 97.9676 147.523 103.614 147.439 103.451C147.324 103.225 145.12 94.2247 140.742 76.1104C139.732 71.9313 138.905 68.484 138.905 68.4501C138.905 68.4161 136.877 68.3883 134.398 68.3883H129.889V101.27ZM228.343 101.27V134.152H233.337H238.334V119.679V105.206H241.684H245.035V119.679V134.152H250.031H255.026V101.27V68.3883H250.031H245.035V81.529V94.6694H241.684H238.334V81.529V68.3883H233.337H228.343V101.27ZM320.702 101.27V134.152H331.851H343V129.065V123.979H336.846H330.694V96.1835V68.3883H325.697H320.702V101.27ZM14.317 77.4762C15.0038 77.6762 15.7782 78.5102 16.0235 79.3146C16.131 79.6666 16.2694 80.5812 16.3311 81.3472C16.4845 83.2476 16.4812 118.814 16.3275 120.539C16.134 122.712 15.684 123.619 14.5146 124.189C13.8702 124.504 13.7165 124.526 11.9106 124.564L9.99147 124.606V100.901V77.195L11.9106 77.2648C12.966 77.303 14.0489 77.3983 14.317 77.4762ZM273.809 77.4912C274.405 77.6691 275.196 78.3356 275.486 78.9076C276.13 80.1792 276.105 79.2983 276.105 101.225C276.105 115.211 276.065 121.731 275.974 122.218C275.67 123.851 274.948 124.782 273.709 125.141C272.133 125.596 270.442 124.924 269.742 123.563C269.076 122.267 269.114 123.458 269.068 102.36C269.043 90.3159 269.074 82.3271 269.147 81.4641C269.304 79.6363 269.59 78.8662 270.376 78.1631C270.703 77.8716 271.152 77.5751 271.375 77.5043C271.93 77.3277 273.236 77.3207 273.809 77.4912ZM304.74 77.6872C305.36 77.9954 305.987 78.7528 306.263 79.5274C306.678 80.702 306.703 82.0344 306.665 102.178L306.629 122.102L306.345 122.883C306.04 123.724 305.605 124.402 305.154 124.74C304.999 124.856 304.517 125.044 304.083 125.157C302.198 125.649 300.486 124.676 299.893 122.775C299.698 122.149 299.683 120.641 299.683 101.149V80.1967L299.974 79.47C300.327 78.5836 301.2 77.6846 301.89 77.4944C302.679 77.2774 304.11 77.3743 304.74 77.6872Z" fill="white"/>
</g>
<defs>
<clipPath id="clip0_270_4">
<rect width="343" height="135" fill="white"/>
</clipPath>
</defs>
</svg>
