<svg width="98" height="98" viewBox="0 0 98 98" fill="none" xmlns="http://www.w3.org/2000/svg">
<path d="M77.0756 70.4829L79.6004 62.6981C78.8506 62.5724 78.1559 62.6916 77.5163 63.0559C76.8768 63.4201 76.4212 64.0208 76.1497 64.8579C75.7845 65.9841 75.8484 67.0058 76.3415 67.923L74.002 68.6016C73.6878 67.9107 73.5196 67.1328 73.4975 66.2676C73.4905 65.4074 73.6055 64.612 73.8424 63.8815C74.4594 61.979 75.5881 60.7811 77.2283 60.2876C76.7878 59.623 76.5107 58.818 76.3968 57.8726C76.2932 56.9474 76.3968 56.0053 76.7078 55.0465C77.1323 53.7376 77.7921 52.7407 78.6871 52.0556C79.5973 51.3755 80.6383 51.2257 81.81 51.6062C82.9666 51.9818 83.7334 52.6514 84.1105 53.615C84.4876 54.5786 84.4911 55.6312 84.1209 56.7726C83.5828 58.4316 82.7343 59.5439 81.5753 60.1095L83.059 60.5914C83.6068 60.7693 84.1271 60.6691 84.6199 60.2908C85.1077 59.9277 85.4799 59.3505 85.7366 58.559C86.1463 57.2958 86.0852 56.0059 85.5535 54.6893L87.8491 54.2236C88.5812 55.9081 88.6313 57.7243 87.9995 59.6724C87.3726 61.6053 86.324 62.6863 84.8536 62.9153C85.8057 64.2843 86.0053 65.8212 85.4525 67.5257C84.9588 69.0477 83.996 70.0976 82.5638 70.6755C81.142 71.2736 79.5256 71.2786 77.7147 70.6905L77.0756 70.4829ZM81.5782 63.29L79.9493 68.3124C80.5831 68.4846 81.2202 68.4392 81.8606 68.1761C82.4961 67.9283 82.9446 67.401 83.2062 66.5944C83.453 65.8334 83.3944 65.1583 83.0305 64.5691C82.6817 63.9848 82.1976 63.5584 81.5782 63.29ZM79.8176 59.5387L79.9546 59.5832C80.7965 59.2174 81.4026 58.4637 81.7728 57.3222C81.985 56.6678 82.0309 56.0855 81.9104 55.5753C81.7899 55.0652 81.4938 54.7335 81.0221 54.5803C80.5503 54.4271 80.1185 54.5139 79.7265 54.8409C79.3296 55.183 79.0299 55.6661 78.8276 56.2901C78.6005 56.9902 78.5908 57.6683 78.7985 58.3246C79.0214 58.9857 79.3611 59.3905 79.8176 59.5387Z" fill="#2143FF"/>
<path d="M59.3075 83.0377L65.9417 78.2456C65.411 77.7013 64.78 77.3873 64.0489 77.3035C63.3177 77.2198 62.5954 77.4356 61.8821 77.9509C60.9223 78.6442 60.3705 79.5066 60.2268 80.538L57.9384 79.7041C58.0929 78.9609 58.4166 78.2337 58.9096 77.5223C59.4119 76.8239 59.9744 76.2498 60.5969 75.8001C62.2182 74.629 63.8363 74.3287 65.4512 74.8991C65.4882 74.1026 65.7399 73.2892 66.2063 72.4589C66.6691 71.6509 67.309 70.9518 68.1261 70.3616C69.2416 69.5558 70.3626 69.1408 71.4893 69.1165C72.6254 69.1051 73.5538 69.599 74.2746 70.5982C74.986 71.5843 75.2093 72.5777 74.9446 73.5781C74.6798 74.5786 74.0611 75.4302 73.0883 76.1328C71.6746 77.154 70.3331 77.5506 69.0638 77.3227L69.9765 78.5878C70.3135 79.055 70.7924 79.2814 71.4134 79.2671C72.0214 79.2621 72.6627 79.016 73.3371 78.5289C74.4136 77.7512 75.1261 76.6741 75.4745 75.2974L77.6019 76.2773C77.1978 78.0692 76.1657 79.5647 74.5055 80.7639C72.8583 81.9538 71.3739 82.2069 70.0522 81.5234C70.012 83.1906 69.2656 84.5489 67.8129 85.5982C66.5159 86.5351 65.119 86.8139 63.6221 86.4345C62.1217 86.0775 60.8145 85.1269 59.7006 83.5827L59.3075 83.0377ZM67.1881 79.8914L62.908 82.9831C63.3177 83.4964 63.8586 83.836 64.5307 84.0018C65.1898 84.1771 65.863 84.0165 66.5504 83.5199C67.1989 83.0515 67.5503 82.472 67.6046 81.7814C67.6682 81.1039 67.5294 80.4739 67.1881 79.8914ZM67.9827 75.8239L68.0669 75.9407C68.9623 76.1427 69.8964 75.8923 70.8691 75.1897C71.4269 74.7868 71.8077 74.3439 72.0118 73.861C72.2158 73.3781 72.1727 72.9355 71.8826 72.5332C71.5924 72.131 71.1926 71.946 70.6833 71.9784C70.161 72.0201 69.634 72.233 69.1022 72.6171C68.5056 73.0481 68.0973 73.5897 67.8773 74.2421C67.6668 74.9073 67.7019 75.4346 67.9827 75.8239Z" fill="#2143FF"/>
<path d="M37.4679 82.6436L45.6516 82.7068C45.5454 81.954 45.2223 81.3275 44.6821 80.8273C44.1419 80.3271 43.4319 80.0736 42.5519 80.0668C41.3679 80.0577 40.4131 80.4263 39.6873 81.1727L38.3349 79.1462C38.8988 78.6386 39.5899 78.2439 40.4081 77.9622C41.2261 77.6965 42.0192 77.5666 42.7871 77.5726C44.7871 77.588 46.2696 78.3035 47.2347 79.719C47.7355 79.0988 48.4195 78.5921 49.2865 78.1988C50.1374 77.8214 51.0669 77.6365 52.0749 77.6443C53.4508 77.6549 54.6003 77.9838 55.5234 78.631C56.4463 79.2941 56.903 80.2417 56.8935 81.4737C56.8841 82.6896 56.4769 83.6225 55.6718 84.2723C54.8668 84.9221 53.8643 85.2424 52.6643 85.2331C50.9204 85.2196 49.604 84.7454 48.7152 83.8105L48.7032 85.3705C48.6987 85.9465 48.9511 86.4124 49.4604 86.7684C49.9537 87.1242 50.6163 87.3053 51.4483 87.3118C52.7762 87.322 53.9877 86.8754 55.0827 85.9718L56.2189 88.0206C54.8336 89.226 53.117 89.8207 51.069 89.8049C49.0371 89.7892 47.6902 89.1148 47.0285 87.7816C46.0103 89.1018 44.6052 89.755 42.8133 89.7411C41.2133 89.7288 39.9219 89.1268 38.9391 87.9351C37.9401 86.7594 37.448 85.2195 37.4627 83.3156L37.4679 82.6436ZM45.6837 84.7712L40.4039 84.7304C40.4308 85.3866 40.6662 85.9804 41.1101 86.5119C41.538 87.0432 42.176 87.3121 43.024 87.3187C43.8239 87.3249 44.45 87.0657 44.902 86.5412C45.354 86.0326 45.6145 85.4426 45.6837 84.7712ZM48.7295 81.9626L48.7283 82.1066C49.331 82.7993 50.2323 83.1502 51.4323 83.1595C52.1203 83.1648 52.6893 83.0332 53.1394 82.7647C53.5895 82.4962 53.8164 82.1139 53.8203 81.6179C53.8241 81.1219 53.6111 80.7363 53.1812 80.4609C52.7353 80.1855 52.1844 80.0452 51.5284 80.0402C50.7924 80.0345 50.1429 80.2295 49.5798 80.6251C49.0166 81.0368 48.7332 81.4826 48.7295 81.9626Z" fill="#2143FF"/>
<path d="M20.2184 69.4505L26.7819 74.339C27.1409 73.6687 27.2503 72.9721 27.11 72.2492C26.9697 71.5262 26.5467 70.902 25.841 70.3763C24.8914 69.6691 23.9035 69.4021 22.8773 69.5754L22.9833 67.1407C23.738 67.0644 24.5285 67.1544 25.3548 67.4107C26.1716 67.6799 26.8879 68.0438 27.5039 68.5026C29.1078 69.6972 29.8811 71.1509 29.8235 72.8637C30.5937 72.6593 31.4446 72.6546 32.3763 72.8498C33.2855 73.0482 34.1444 73.4485 34.9528 74.0506C36.0564 74.8725 36.7893 75.8174 37.1516 76.8852C37.5043 77.9659 37.313 79.0005 36.5778 79.989C35.852 80.9647 34.9726 81.4768 33.9395 81.5253C32.9064 81.5738 31.9086 81.2397 30.9463 80.5229C29.5476 79.4811 28.7659 78.3204 28.6011 77.0406L27.6701 78.2923C27.3263 78.7544 27.2547 79.2797 27.4552 79.8679C27.643 80.4466 28.0704 80.9845 28.7377 81.4815C29.8028 82.2747 31.0437 82.6304 32.4606 82.5485L32.167 84.8735C30.3377 85.0273 28.6018 84.4925 26.9593 83.2692C25.3297 82.0554 24.6417 80.715 24.8953 79.2481C23.2943 79.7115 21.7752 79.408 20.338 78.3376C19.0549 77.3819 18.3688 76.1327 18.2798 74.5902C18.1685 73.0509 18.681 71.5174 19.8173 69.9897L20.2184 69.4505ZM25.5886 76.0238L21.3541 72.8699C20.9882 73.4154 20.8274 74.0337 20.8716 74.725C20.9029 75.4067 21.2586 76.0008 21.9387 76.5073C22.5803 76.9852 23.2383 77.1461 23.9127 76.9901C24.5776 76.8468 25.1362 76.5247 25.5886 76.0238ZM29.704 75.5578L29.6181 75.6733C29.6951 76.5885 30.2148 77.4045 31.1772 78.1213C31.729 78.5323 32.2657 78.7624 32.7873 78.8118C33.3089 78.8611 33.7177 78.6868 34.0138 78.2889C34.3098 77.8909 34.3657 77.4537 34.1816 76.9774C33.9846 76.4916 33.6231 76.0527 33.097 75.6609C32.5067 75.2213 31.8677 74.9947 31.1798 74.9811C30.4824 74.9804 29.9905 75.1726 29.704 75.5578Z" fill="#2143FF"/>
<path d="M14.0677 48.6275L16.4747 56.4496C17.1605 56.1211 17.6603 55.6238 17.9743 54.9578C18.2883 54.2918 18.3159 53.5383 18.0571 52.6972C17.7089 51.5656 17.0696 50.7664 16.1392 50.2997L17.6634 48.3985C18.3174 48.783 18.902 49.3228 19.4173 50.0179C19.9172 50.7177 20.2801 51.4346 20.506 52.1687C21.0942 54.0802 20.8591 55.7097 19.8005 57.0571C20.5428 57.3475 21.232 57.8466 21.8684 58.5546C22.4848 59.252 22.9412 60.0824 23.2377 61.0459C23.6424 62.361 23.6754 63.5563 23.3367 64.6317C22.9827 65.7118 22.2171 66.4333 21.0397 66.7961C19.8776 67.1542 18.8655 67.0475 18.0032 66.476C17.141 65.9046 16.5335 65.0454 16.1805 63.8985C15.6676 62.2316 15.7228 60.8334 16.3461 59.7037L14.8553 60.1631C14.3049 60.3327 13.9367 60.714 13.7509 61.307C13.5604 61.8847 13.5875 62.5712 13.8322 63.3664C14.2228 64.6357 15.0138 65.656 16.2054 66.4273L14.5947 68.129C13.0279 67.172 11.9433 65.7147 11.341 63.7573C10.7433 61.8152 10.9803 60.3275 12.0517 59.2941C10.4862 58.7218 9.43985 57.5792 8.9128 55.8665C8.44222 54.3372 8.6268 52.9242 9.46655 51.6275C10.2863 50.3201 11.606 49.3861 13.4255 48.8254L14.0677 48.6275ZM14.5164 57.1032L12.9635 52.0567C12.346 52.2805 11.8508 52.6842 11.478 53.2679C11.1004 53.8363 11.0364 54.5257 11.2858 55.3362C11.5211 56.1008 11.9569 56.6195 12.5932 56.8922C13.2143 57.1696 13.8554 57.2399 14.5164 57.1032ZM18.1122 59.1595L17.9746 59.2019C17.4959 59.9856 17.433 60.951 17.786 62.0979C17.9883 62.7555 18.2854 63.2583 18.6771 63.6064C19.0688 63.9545 19.5016 64.0555 19.9756 63.9094C20.4496 63.7634 20.7531 63.4438 20.886 62.9508C21.0141 62.4426 20.9818 61.8749 20.7888 61.2479C20.5723 60.5445 20.1906 59.9841 19.6437 59.5666C19.0814 59.1539 18.5709 59.0182 18.1122 59.1595Z" fill="#2143FF"/>
<path d="M21.4472 28.0761L18.7456 35.8014C19.4924 35.9439 20.1897 35.8403 20.8375 35.4905C21.4852 35.1407 21.9544 34.5505 22.2449 33.7198C22.6357 32.6022 22.5951 31.5794 22.1229 30.6516L24.4775 30.0258C24.7759 30.7234 24.9264 31.5049 24.9289 32.3702C24.9163 33.2302 24.7832 34.0227 24.5297 34.7477C23.8694 36.6356 22.7137 37.8077 21.0624 38.2642C21.4877 38.9384 21.7465 39.7493 21.8389 40.6969C21.9214 41.6242 21.7963 42.5635 21.4636 43.515C21.0094 44.8139 20.327 45.7957 19.4165 46.4604C18.491 47.1198 17.4467 47.2462 16.2838 46.8395C15.1359 46.438 14.3845 45.7515 14.0293 44.7798C13.6742 43.8081 13.6947 42.7559 14.0908 41.6231C14.6665 39.9769 15.5403 38.8841 16.712 38.3446L15.2395 37.8297C14.6958 37.6395 14.1733 37.728 13.672 38.0951C13.176 38.4471 12.7907 39.0158 12.516 39.8011C12.0776 41.0547 12.1093 42.3455 12.611 43.6736L10.3051 44.0876C9.61146 42.3873 9.60269 40.5705 10.2788 38.6373C10.9495 36.7193 12.0226 35.6622 13.498 35.4663C12.5772 34.0764 12.4126 32.5357 13.0042 30.8442C13.5323 29.3338 14.519 28.3059 15.9641 27.7604C17.3993 27.1945 19.0156 27.2258 20.8129 27.8543L21.4472 28.0761ZM16.7814 35.1653L18.5244 30.1813C17.8946 29.995 17.2566 30.0261 16.6103 30.2747C15.9693 30.5081 15.5088 31.0251 15.2289 31.8256C14.9648 32.5807 15.008 33.2569 15.3585 33.8541C15.6939 34.446 16.1682 34.8831 16.7814 35.1653ZM18.4564 38.9547L18.3205 38.9071C17.4704 39.2539 16.8472 39.9937 16.4511 41.1264C16.224 41.7759 16.1648 42.3569 16.2737 42.8696C16.3826 43.3823 16.6711 43.7205 17.1393 43.8842C17.6075 44.0479 18.0413 43.9708 18.4406 43.6528C18.8453 43.3197 19.1559 42.8436 19.3724 42.2243C19.6154 41.5296 19.6405 40.8519 19.4478 40.1913C19.24 39.5253 18.9095 39.1131 18.4564 38.9547Z" fill="#2143FF"/>
<path d="M39.4551 15.918L32.7174 20.5634C33.236 21.1192 33.8599 21.447 34.5891 21.5467C35.3183 21.6464 36.0451 21.4466 36.7696 20.947C37.7443 20.275 38.3149 19.4249 38.4812 18.3968L40.7507 19.2808C40.5801 20.0204 40.2405 20.7404 39.732 21.4407C39.2144 22.128 38.6395 22.6895 38.0072 23.1255C36.3607 24.2607 34.7364 24.5255 33.1343 23.9198C33.0799 24.7153 32.8104 25.523 32.3259 26.3429C31.8455 27.1405 31.1904 27.8254 30.3605 28.3975C29.2277 29.1786 28.0978 29.5689 26.9708 29.5686C25.8348 29.555 24.9174 29.0409 24.2188 28.0261C23.5292 27.0246 23.3277 26.0266 23.6143 25.0322C23.9009 24.0378 24.5381 23.2 25.5261 22.5189C26.9619 21.5289 28.3118 21.1618 29.5757 21.4176L28.691 20.1327C28.3644 19.6583 27.8905 19.4214 27.2693 19.4221C26.6614 19.4137 26.0149 19.6457 25.3299 20.1179C24.2366 20.8717 23.5007 21.933 23.1221 23.3018L21.0168 22.2754C21.46 20.4928 22.5247 19.0203 24.2108 17.8578C25.8837 16.7044 27.3734 16.4838 28.6797 17.1962C28.7565 15.5302 29.5325 14.1887 31.0079 13.1715C32.3251 12.2633 33.7278 12.0153 35.216 12.4274C36.7083 12.8172 37.9943 13.7963 39.0741 15.3645L39.4551 15.918ZM31.5073 18.8906L35.8543 15.8936C35.4559 15.3714 34.9226 15.0201 34.2543 14.8395C33.5992 14.6498 32.9226 14.7956 32.2245 15.277C31.5658 15.7311 31.2018 16.3027 31.1324 16.9919C31.054 17.6679 31.1789 18.3008 31.5073 18.8906ZM30.6237 22.9397L30.5421 22.8211C29.6514 22.5995 28.712 22.8293 27.7241 23.5105C27.1576 23.901 26.7671 24.3354 26.5526 24.8137C26.338 25.2921 26.3713 25.7355 26.6526 26.144C26.9339 26.5525 27.3295 26.7462 27.8394 26.725C28.3625 26.6948 28.8941 26.4935 29.4342 26.1211C30.0401 25.7033 30.4602 25.1708 30.6944 24.5235C30.9195 23.8629 30.896 23.335 30.6237 22.9397Z" fill="#2143FF"/>
<path d="M61.2023 16.7867L53.0222 16.5339C53.1109 17.289 53.4195 17.9228 53.9479 18.4354C54.4764 18.9479 55.1804 19.2178 56.06 19.245C57.2434 19.2816 58.2066 18.9352 58.9494 18.2058L60.2546 20.2631C59.679 20.7575 58.979 21.1361 58.1545 21.3987C57.3305 21.6454 56.5347 21.7569 55.7671 21.7331C53.768 21.6714 52.3025 20.9217 51.3704 19.4843C50.8553 20.0926 50.1599 20.5834 49.2839 20.9565C48.4245 21.3141 47.491 21.4774 46.4835 21.4462C45.1082 21.4037 43.9666 21.0483 43.0588 20.3799C42.1515 19.6956 41.7168 18.7377 41.7548 17.5063C41.7923 16.2908 42.221 15.3676 43.0409 14.7367C43.8607 14.1057 44.8704 13.8087 46.0698 13.8458C47.813 13.8997 49.118 14.4042 49.985 15.3595L50.0331 13.8002C50.0509 13.2245 49.8093 12.7528 49.3084 12.3852C48.8235 12.018 48.1652 11.8216 47.3336 11.7959C46.0063 11.7549 44.7848 12.1733 43.6692 13.0513L42.5806 10.9767C43.9935 9.80374 45.7234 9.24892 47.7705 9.31219C49.8015 9.37496 51.1324 10.0804 51.7631 11.4285C52.8116 10.1323 54.2314 9.51187 56.0225 9.56723C57.6218 9.61666 58.8989 10.2484 59.8539 11.4625C60.8254 12.6611 61.2817 14.2119 61.223 16.115L61.2023 16.7867ZM53.0379 14.4694L58.3153 14.6325C58.3036 13.9758 58.082 13.3767 57.6505 12.8351C57.235 12.294 56.6034 12.0103 55.7558 11.9841C54.9562 11.9594 54.3244 12.204 53.8603 12.7179C53.3967 13.2159 53.1226 13.7997 53.0379 14.4694ZM49.9279 17.2066L49.9324 17.0627C49.3459 16.3562 48.4529 15.9845 47.2535 15.9474C46.5658 15.9261 45.9939 16.0445 45.5377 16.3025C45.0816 16.5606 44.8458 16.9375 44.8305 17.4332C44.8152 17.929 45.0193 18.3195 45.4427 18.6047C45.8821 18.8904 46.4296 19.0434 47.0853 19.0637C47.8209 19.0864 48.4748 18.9065 49.0469 18.524C49.6194 18.1255 49.9131 17.6864 49.9279 17.2066Z" fill="#2143FF"/>
<path d="M78.27 30.4061L71.8335 25.3516C71.4575 26.0125 71.3304 26.7061 71.4521 27.4324C71.5739 28.1587 71.9808 28.7936 72.673 29.3371C73.6041 30.0683 74.5849 30.3604 75.6152 30.2133L75.4471 32.6446C74.6907 32.7016 73.9027 32.5915 73.0833 32.3141C72.2736 32.0242 71.5668 31.642 70.9628 31.1677C69.3898 29.9325 68.654 28.4595 68.7552 26.7488C67.9801 26.9335 67.1293 26.9164 66.2029 26.6975C65.299 26.476 64.4507 26.0539 63.6579 25.4314C62.5757 24.5815 61.8672 23.6182 61.5322 22.5415C61.2072 21.4521 61.4248 20.4228 62.1851 19.4533C62.9355 18.4965 63.8277 18.007 64.8617 17.9849C65.8957 17.9628 66.8846 18.3223 67.8284 19.0634C69.2 20.1405 69.9518 21.3209 70.0838 22.6045L71.0465 21.3769C71.402 20.9237 71.487 20.4005 71.3015 19.8073C71.1286 19.224 70.715 18.6754 70.0606 18.1615C69.0162 17.3413 67.7847 16.9541 66.3662 16.9998L66.7191 14.683C68.5517 14.576 70.2733 15.1549 71.8841 16.4198C73.4822 17.6748 74.1358 19.0323 73.8448 20.4923C75.4571 20.0699 76.9679 20.412 78.3773 21.5188C79.6357 22.507 80.2896 23.7732 80.3392 25.3176C80.4112 26.8592 79.8597 28.3791 78.6847 29.8774L78.27 30.4061ZM73.0694 23.6978L77.222 26.9588C77.6017 26.4229 77.7782 25.8088 77.7517 25.1166C77.7378 24.4344 77.3974 23.8314 76.7304 23.3076C76.1012 22.8135 75.4476 22.6359 74.7694 22.7747C74.1011 22.9009 73.5344 23.2086 73.0694 23.6978ZM68.9434 24.0587L69.0323 23.9453C68.9787 23.0285 68.48 22.1995 67.5362 21.4583C66.9951 21.0334 66.4645 20.7896 65.9443 20.727C65.4241 20.6643 65.0109 20.8281 64.7048 21.2184C64.3988 21.6087 64.3317 22.0443 64.5036 22.5251C64.6881 23.0158 65.0383 23.4638 65.5542 23.8689C66.1331 24.3235 66.7661 24.5663 67.4534 24.5974C68.1506 24.616 68.6472 24.4364 68.9434 24.0587Z" fill="#2143FF"/>
<path d="M83.9412 51.2927L81.7123 43.4181C81.0193 43.7309 80.5082 44.2167 80.1792 44.8754C79.8502 45.5341 79.8055 46.2868 80.0451 47.1335C80.3676 48.2727 80.9886 49.0862 81.9082 49.5739L80.3412 51.44C79.6961 51.0408 79.1239 50.4878 78.6246 49.7812C78.1406 49.0702 77.7941 48.3453 77.5849 47.6063C77.0402 45.6819 77.3123 44.0582 78.4011 42.7351C77.6657 42.428 76.9879 41.9134 76.3677 41.1911C75.7673 40.4799 75.3298 39.6393 75.0553 38.6694C74.6806 37.3454 74.6747 36.1497 75.0377 35.0823C75.4161 34.0105 76.1979 33.3066 77.3832 32.9706C78.5532 32.639 79.5626 32.7687 80.4116 33.3596C81.2607 33.9504 81.8486 34.8232 82.1754 35.9778C82.6504 37.6559 82.5635 39.0525 81.9147 40.1677L83.4156 39.7423C83.9697 39.5853 84.3464 39.2124 84.5456 38.6238C84.7492 38.0505 84.7377 37.3636 84.5111 36.5631C84.1494 35.2853 83.3817 34.2473 82.2079 33.4491L83.8569 31.7844C85.4016 32.7768 86.4528 34.2583 87.0106 36.2289C87.564 38.184 87.2934 39.666 86.1987 40.6747C87.7509 41.2825 88.771 42.4485 89.2591 44.1728C89.6949 45.7123 89.4783 47.1207 88.6093 48.3981C87.7601 49.6865 86.4196 50.5903 84.5877 51.1095L83.9412 51.2927ZM83.685 42.8091L85.123 47.8895C85.7454 47.6798 86.2496 47.2874 86.6356 46.7124C87.0259 46.1528 87.1056 45.465 86.8747 44.649C86.6568 43.8793 86.2328 43.3508 85.6028 43.0638C84.9882 42.7723 84.3489 42.6874 83.685 42.8091ZM80.1367 40.6716L80.2753 40.6324C80.7716 39.8597 80.8563 38.8961 80.5295 37.7415C80.3421 37.0795 80.0566 36.57 79.6729 36.2132C79.2892 35.8563 78.8587 35.7454 78.3815 35.8807C77.9043 36.0159 77.5937 36.3285 77.4497 36.8183C77.31 37.3236 77.3295 37.8918 77.5082 38.523C77.7086 39.2312 78.0775 39.8001 78.6149 40.2299C79.1676 40.6553 79.6749 40.8025 80.1367 40.6716Z" fill="#2143FF"/>
</svg>
