<svg width="274" height="273" viewBox="0 0 274 273" fill="none" xmlns="http://www.w3.org/2000/svg">
<path d="M196.068 136.224C196.068 169.747 168.892 196.923 135.369 196.923C101.846 196.923 74.6699 169.747 74.6699 136.224C74.6699 102.701 101.846 75.5254 135.369 75.5254C168.892 75.5254 196.068 102.701 196.068 136.224Z" stroke="black" stroke-width="20"/>
<path d="M204.787 162.716L206.514 156.87L208.816 157.55C207.385 155.392 207.128 152.763 208.044 149.664C208.633 147.669 209.808 146.065 211.569 144.85C213.351 143.675 215.393 143.427 217.694 144.107C220.088 144.815 221.656 146.113 222.4 148.001C223.134 149.92 223.197 151.907 222.59 153.963C221.655 157.124 220.056 159.204 217.792 160.203L220.784 161.088C221.92 161.423 222.956 161.246 223.895 160.555C224.833 159.865 225.52 158.783 225.955 157.31C226.671 154.886 226.436 152.464 225.249 150.044L229.815 148.991C231.367 152.32 231.577 155.902 230.443 159.738C229.599 162.592 228.25 164.729 226.396 166.15C224.541 167.57 222.125 167.841 219.149 166.961L204.787 162.716ZM211.308 153.182C210.664 155.36 210.846 157.116 211.854 158.448L214.616 159.264C216.186 158.694 217.293 157.319 217.937 155.141C218.291 153.944 218.279 152.856 217.901 151.877C217.553 150.906 216.858 150.267 215.815 149.959C214.802 149.659 213.886 149.822 213.067 150.448C212.248 151.074 211.662 151.985 211.308 153.182ZM231.183 167.564L232.244 163.974L237.334 161.824L234.203 157.345L235.264 153.755L240.641 159.949L239.09 165.197L231.183 167.564Z" fill="#2143FF"/>
<path d="M180.967 193.99L185.609 190.037L187.165 191.864C187.145 189.275 188.366 186.933 190.826 184.837C192.41 183.489 194.271 182.786 196.409 182.731C198.544 182.72 200.389 183.629 201.945 185.456C203.563 187.356 204.168 189.3 203.759 191.287C203.326 193.296 202.293 194.995 200.661 196.385C198.151 198.522 195.676 199.39 193.233 198.99L195.256 201.366C196.024 202.267 196.989 202.685 198.152 202.619C199.315 202.554 200.481 202.023 201.651 201.027C203.575 199.388 204.702 197.231 205.029 194.556L209.429 196.168C208.91 199.804 207.129 202.919 204.083 205.512C201.818 207.442 199.52 208.495 197.19 208.671C194.861 208.848 192.69 207.755 190.677 205.391L180.967 193.99ZM191.639 189.567C189.909 191.04 189.102 192.61 189.219 194.276L191.086 196.469C192.713 196.849 194.391 196.302 196.12 194.829C197.071 194.02 197.655 193.102 197.873 192.076C198.113 191.073 197.88 190.158 197.174 189.33C196.489 188.526 195.633 188.162 194.606 188.239C193.578 188.315 192.589 188.758 191.639 189.567ZM200.427 212.472L203.277 210.044L208.715 211.025L208.54 205.563L211.39 203.136L212.51 211.261L208.344 214.809L200.427 212.472Z" fill="#2143FF"/>
<path d="M141.896 209.527L147.946 208.777L148.241 211.159C149.649 208.985 151.956 207.7 155.163 207.302C157.228 207.046 159.168 207.483 160.985 208.612C162.774 209.777 163.816 211.55 164.111 213.932C164.418 216.409 163.854 218.365 162.42 219.801C160.954 221.24 159.157 222.091 157.029 222.355C153.758 222.76 151.213 222.125 149.393 220.448L149.776 223.544C149.922 224.719 150.499 225.599 151.506 226.183C152.514 226.768 153.78 226.966 155.304 226.777C157.813 226.466 159.939 225.283 161.684 223.229L164.472 226.995C162.04 229.747 158.84 231.369 154.87 231.861C151.917 232.227 149.418 231.843 147.376 230.71C145.333 229.577 144.12 227.47 143.738 224.389L141.896 209.527ZM153.242 211.7C150.987 211.979 149.45 212.847 148.631 214.303L148.985 217.161C150.135 218.373 151.837 218.839 154.092 218.559C155.331 218.406 156.323 217.96 157.07 217.223C157.821 216.517 158.13 215.625 157.996 214.545C157.866 213.497 157.351 212.722 156.45 212.221C155.55 211.72 154.48 211.546 153.242 211.7ZM147.99 235.664L151.705 235.203L155.708 239.012L158.565 234.353L162.28 233.893L158.748 241.295L153.318 241.968L147.99 235.664Z" fill="#2143FF"/>
<path d="M100.505 201.053L105.978 203.738L104.921 205.892C107.289 204.844 109.924 205.031 112.826 206.454C114.693 207.37 116.078 208.798 116.98 210.737C117.839 212.691 117.741 214.746 116.684 216.901C115.585 219.142 114.042 220.47 112.056 220.886C110.041 221.288 108.071 221.017 106.146 220.073C103.187 218.621 101.405 216.696 100.8 214.296L99.4259 217.097C98.9046 218.16 98.9055 219.212 99.4287 220.253C99.9518 221.294 100.903 222.152 102.282 222.828C104.552 223.942 106.979 224.116 109.563 223.352L109.835 228.03C106.294 229.002 102.727 228.607 99.1357 226.845C96.4638 225.535 94.5832 223.846 93.494 221.78C92.4049 219.713 92.5437 217.286 93.9105 214.499L100.505 201.053ZM108.81 209.083C106.77 208.082 105.009 207.967 103.526 208.737L102.258 211.322C102.557 212.966 103.726 214.288 105.766 215.288C106.887 215.838 107.961 216.009 108.99 215.8C110.005 215.621 110.752 215.043 111.231 214.066C111.696 213.118 111.689 212.188 111.21 211.275C110.73 210.363 109.93 209.632 108.81 209.083ZM91.2958 226.262L94.6573 227.91L95.9222 233.289L100.863 230.954L104.225 232.602L97.2161 236.864L92.3032 234.454L91.2958 226.262Z" fill="#2143FF"/>
<path d="M70.7666 171.497L73.8864 176.734L71.8246 177.962C74.3807 178.376 76.4858 179.972 78.1399 182.748C79.2044 184.535 79.5851 186.487 79.2821 188.605C78.9352 190.711 77.7308 192.378 75.6689 193.607C73.5246 194.884 71.5069 195.155 69.6159 194.419C67.7085 193.656 66.2061 192.353 65.1088 190.511C63.422 187.679 62.9801 185.093 63.7833 182.752L61.1029 184.349C60.0857 184.955 59.5121 185.837 59.3823 186.994C59.2524 188.152 59.5805 189.39 60.3666 190.71C61.6604 192.882 63.5985 194.353 66.1809 195.124L63.8549 199.192C60.3571 198.072 57.5846 195.794 55.5375 192.358C54.0144 189.801 53.3608 187.36 53.5767 185.033C53.7926 182.707 55.2338 180.75 57.9005 179.161L70.7666 171.497ZM73.3406 182.758C72.1778 180.806 70.7652 179.748 69.1029 179.583L66.6287 181.057C65.9817 182.597 66.2396 184.343 67.4024 186.295C68.0411 187.367 68.8483 188.097 69.8239 188.484C70.7721 188.888 71.7135 188.811 72.6482 188.255C73.5554 187.714 74.0573 186.931 74.1539 185.905C74.2504 184.879 73.9793 183.83 73.3406 182.758ZM49.288 187.588L51.2041 190.805L49.3273 196.001L54.7416 196.743L56.6577 199.959L48.4595 199.703L45.659 195.002L49.288 187.588Z" fill="#2143FF"/>
<path d="M62.0266 130.198L61.7444 136.288L59.3469 136.176C61.2518 137.931 62.1294 140.422 61.9798 143.65C61.8835 145.728 61.1256 147.567 59.706 149.167C58.2559 150.734 56.3321 151.461 53.9347 151.35C51.4414 151.235 49.6084 150.349 48.4358 148.693C47.2647 147.005 46.7288 145.09 46.828 142.948C46.9806 139.656 48.0369 137.254 49.997 135.743L46.8803 135.599C45.6976 135.544 44.7331 135.964 43.9869 136.858C43.2407 137.753 42.8321 138.967 42.7609 140.501C42.6439 143.027 43.4505 145.322 45.1807 147.389L40.9984 149.501C38.6964 146.64 37.638 143.211 37.8232 139.215C37.9609 136.243 38.7608 133.845 40.2227 132.023C41.6846 130.2 43.9659 129.361 47.0666 129.505L62.0266 130.198ZM57.9695 141.014C58.0747 138.744 57.479 137.083 56.1823 136.03L53.3054 135.897C51.9169 136.825 51.1701 138.424 51.0649 140.694C51.0072 141.941 51.2787 142.994 51.8795 143.855C52.4483 144.714 53.2761 145.169 54.363 145.219C55.4178 145.268 56.2682 144.891 56.9141 144.088C57.5599 143.285 57.9118 142.261 57.9695 141.014ZM35.2361 131.792L35.0627 135.532L30.6331 138.834L34.7428 142.436L34.5695 146.176L27.8693 141.445L28.1226 135.979L35.2361 131.792Z" fill="#2143FF"/>
<path d="M77.369 90.9319L73.7831 95.8616L71.8422 94.4498C72.4678 96.9625 71.83 99.5257 69.9288 102.139C68.7052 103.821 67.0606 104.94 64.9949 105.495C62.9221 106.005 60.9153 105.555 58.9745 104.143C56.956 102.675 55.9128 100.926 55.8447 98.8984C55.7955 96.8445 56.4015 94.9506 57.6627 93.2168C59.6016 90.5514 61.805 89.1271 64.273 88.9438L61.7499 87.1085C60.7924 86.412 59.7561 86.2319 58.6409 86.5682C57.5257 86.9045 56.5163 87.6938 55.6128 88.9359C54.1257 90.9803 53.5361 93.3411 53.844 96.0185L49.1893 95.4816C48.8415 91.8255 49.844 88.3801 52.197 85.1454C53.9477 82.7388 55.9347 81.1768 58.158 80.4594C60.3814 79.7421 62.7481 80.2964 65.2583 82.1223L77.369 90.9319ZM68.0306 97.7314C69.3671 95.8941 69.7837 94.1791 69.2804 92.5862L66.9514 90.8921C65.2809 90.9037 63.7775 91.8281 62.441 93.6655C61.7069 94.6747 61.3538 95.704 61.382 96.7533C61.3842 97.7837 61.8253 98.619 62.7051 99.259C63.5591 99.8802 64.4766 100.033 65.4577 99.718C66.4388 99.4029 67.2964 98.7407 68.0306 97.7314ZM54.1211 77.5229L51.9187 80.5506L46.4028 80.8712L47.8527 86.1402L45.6503 89.1679L42.6584 81.5308L45.8773 77.1057L54.1211 77.5229Z" fill="#2143FF"/>
<path d="M111.271 66.6806L105.58 68.8649L104.72 66.6243C103.877 69.0728 101.947 70.8761 98.9298 72.0342C96.9879 72.7795 94.9994 72.8229 92.9644 72.1644C90.9477 71.4645 89.5093 69.9943 88.6494 67.7537C87.755 65.4234 87.8311 63.3891 88.8777 61.6506C89.9541 59.9007 91.4932 58.6416 93.4948 57.8734C96.5719 56.6924 99.1957 56.6965 101.366 57.8858L100.248 54.973C99.8237 53.8676 99.0523 53.1526 97.9336 52.8278C96.815 52.5031 95.5387 52.6159 94.1047 53.1663C91.7445 54.0721 89.9651 55.732 88.7664 58.1457L85.1535 55.1622C86.8513 51.9056 89.5674 49.5607 93.3018 48.1274C96.0802 47.061 98.5972 46.8319 100.853 47.44C103.109 48.0482 104.793 49.8012 105.905 52.6991L111.271 66.6806ZM99.7361 67.3031C101.857 66.489 103.14 65.2769 103.585 63.6667L102.553 60.9779C101.145 60.0786 99.3805 60.036 97.2594 60.8501C96.0943 61.2973 95.238 61.9687 94.6906 62.8643C94.1317 63.7301 94.0471 64.6708 94.437 65.6866C94.8154 66.6725 95.5019 67.3002 96.4965 67.5697C97.4911 67.8392 98.571 67.7503 99.7361 67.3031ZM99.0642 42.7795L95.5688 44.1211L90.7667 41.3883L89.1157 46.5978L85.6204 47.9393L87.2664 39.9039L92.3751 37.9432L99.0642 42.7795Z" fill="#2143FF"/>
<path d="M153.465 64.8862L147.51 63.5845L148.022 61.2399C145.973 62.8228 143.37 63.2691 140.212 62.579C138.18 62.1348 136.495 61.0786 135.156 59.4103C133.856 57.7175 133.462 55.6988 133.974 53.3541C134.507 50.9157 135.688 49.2577 137.518 48.3802C139.379 47.5095 141.357 47.303 143.451 47.7608C146.671 48.4647 148.861 49.9096 150.021 52.0958L150.687 49.0477C150.94 47.891 150.688 46.8697 149.932 45.9838C149.176 45.0979 148.047 44.4909 146.547 44.1629C144.077 43.6231 141.678 44.0323 139.351 45.3906L137.971 40.9127C141.179 39.1244 144.737 38.6574 148.644 39.5116C151.552 40.147 153.781 41.3385 155.331 43.0859C156.882 44.8334 157.326 47.2233 156.663 50.2557L153.465 64.8862ZM143.485 59.0689C145.705 59.5541 147.443 59.2461 148.699 58.1449L149.314 55.3314C148.632 53.8065 147.181 52.8015 144.961 52.3164C143.742 52.0499 142.658 52.1404 141.708 52.588C140.765 53.0043 140.178 53.7439 139.946 54.8068C139.72 55.8385 139.949 56.7401 140.632 57.5117C141.315 58.2834 142.266 58.8024 143.485 59.0689ZM156.397 38.2091L152.74 37.4096L150.229 32.4879L145.987 35.9336L142.329 35.1341L148.12 29.3245L153.465 30.493L156.397 38.2091Z" fill="#2143FF"/>
<path d="M189.69 86.5864L185.427 82.2292L187.142 80.5507C184.56 80.7489 182.139 79.6929 179.879 77.3827C178.424 75.896 177.595 74.088 177.392 71.9587C177.234 69.8298 178.013 67.9262 179.729 66.2477C181.513 64.5022 183.41 63.7648 185.421 64.0356C187.455 64.3293 189.221 65.2424 190.72 66.7749C193.026 69.1308 194.063 71.5407 193.832 74.0047L196.062 71.8227C196.909 70.9947 197.259 70.0029 197.113 68.8472C196.967 67.6915 196.357 66.5648 195.283 65.4669C193.515 63.6599 191.285 62.6852 188.594 62.5428L189.899 58.0425C193.562 58.3088 196.792 59.8714 199.59 62.7305C201.671 64.8577 202.88 67.0771 203.217 69.3889C203.554 71.7007 202.613 73.9421 200.394 76.1129L189.69 86.5864ZM184.541 76.2455C186.13 77.8695 187.752 78.566 189.406 78.3352L191.465 76.321C191.732 74.672 191.071 73.0355 189.482 71.4116C188.609 70.5196 187.653 70 186.614 69.8529C185.597 69.6834 184.7 69.9791 183.923 70.74C183.168 71.4785 182.864 72.3577 183.011 73.3776C183.159 74.3975 183.669 75.3535 184.541 76.2455ZM206.785 65.8977L204.167 63.2216L204.77 57.7294L199.333 58.2811L196.714 55.605L204.743 53.9275L208.57 57.8387L206.785 65.8977Z" fill="#2143FF"/>
<path d="M210.102 121.676L208.914 115.697L211.268 115.229C208.998 113.984 207.548 111.776 206.918 108.606C206.513 106.566 206.807 104.599 207.801 102.705C208.833 100.836 210.526 99.6676 212.88 99.1999C215.328 98.7135 217.32 99.1334 218.856 100.46C220.398 101.817 221.378 103.547 221.796 105.65C222.438 108.883 221.989 111.468 220.449 113.405L223.509 112.797C224.67 112.567 225.506 111.928 226.016 110.88C226.525 109.833 226.63 108.556 226.331 107.049C225.839 104.57 224.504 102.535 222.329 100.944L225.882 97.8892C228.803 100.115 230.654 103.189 231.433 107.112C232.013 110.031 231.812 112.551 230.831 114.671C229.849 116.791 227.836 118.153 224.791 118.758L210.102 121.676ZM211.444 110.203C211.887 112.431 212.864 113.901 214.376 114.612L217.2 114.051C218.325 112.816 218.666 111.084 218.224 108.856C217.981 107.632 217.464 106.674 216.674 105.983C215.916 105.285 215.003 105.042 213.936 105.254C212.9 105.46 212.165 106.03 211.731 106.965C211.297 107.899 211.201 108.978 211.444 110.203ZM235.727 113.698L234.997 110.026L238.505 105.756L233.65 103.246L232.921 99.5739L240.561 102.558L241.627 107.925L235.727 113.698Z" fill="#2143FF"/>
</svg>
