<svg width="98" height="98" viewBox="0 0 98 98" fill="none" xmlns="http://www.w3.org/2000/svg">
<path d="M76.8627 70.363L79.3875 62.5782C78.6377 62.4525 77.943 62.5718 77.3034 62.936C76.6639 63.3003 76.2083 63.9009 75.9368 64.738C75.5716 65.8643 75.6355 66.886 76.1286 67.8031L73.7891 68.4817C73.4749 67.7909 73.3068 67.0129 73.2846 66.1477C73.2776 65.2875 73.3926 64.4921 73.6295 63.7616C74.2465 61.8592 75.3752 60.6612 77.0154 60.1677C76.575 59.5031 76.2978 58.6982 76.1839 57.7528C76.0803 56.8275 76.1839 55.8855 76.4949 54.9266C76.9194 53.6178 77.5792 52.6208 78.4742 51.9357C79.3844 51.2556 80.4254 51.1058 81.5971 51.4864C82.7537 51.862 83.5205 52.5316 83.8976 53.4952C84.2747 54.4588 84.2782 55.5113 83.908 56.6528C83.37 58.3117 82.5214 59.424 81.3624 59.9897L82.8461 60.4715C83.3939 60.6494 83.9142 60.5492 84.407 60.1709C84.8948 59.8078 85.267 59.2306 85.5237 58.4392C85.9334 57.176 85.8723 55.886 85.3406 54.5694L87.6362 54.1037C88.3683 55.7882 88.4184 57.6045 87.7866 59.5526C87.1597 61.4855 86.1111 62.5664 84.6407 62.7955C85.5928 64.1645 85.7924 65.7013 85.2396 67.4059C84.746 68.9278 83.7831 69.9778 82.3509 70.5557C80.9291 71.1537 79.3127 71.1587 77.5018 70.5706L76.8627 70.363ZM81.3653 63.1701L79.7364 68.1926C80.3702 68.3647 81.0073 68.3193 81.6477 68.0562C82.2832 67.8084 82.7317 67.2812 82.9933 66.4745C83.2401 65.7135 83.1815 65.0384 82.8176 64.4492C82.4688 63.8649 81.9847 63.4385 81.3653 63.1701ZM79.6047 59.4189L79.7417 59.4633C80.5836 59.0975 81.1897 58.3438 81.5599 57.2024C81.7722 56.5479 81.818 55.9656 81.6975 55.4555C81.5771 54.9453 81.2809 54.6136 80.8092 54.4604C80.3374 54.3072 79.9056 54.3941 79.5136 54.721C79.1167 55.0631 78.8171 55.5462 78.6147 56.1702C78.3876 56.8703 78.3779 57.5485 78.5856 58.2047C78.8085 58.8659 79.1482 59.2706 79.6047 59.4189Z" fill="#2143FF"/>
<path d="M59.0946 82.9178L65.7288 78.1257C65.1981 77.5814 64.5671 77.2674 63.836 77.1837C63.1048 77.1 62.3826 77.3157 61.6692 77.831C60.7094 78.5243 60.1576 79.3867 60.0139 80.4182L57.7255 79.5842C57.88 78.8411 58.2037 78.1138 58.6967 77.4024C59.199 76.704 59.7615 76.13 60.384 75.6803C62.0053 74.5092 63.6234 74.2088 65.2383 74.7792C65.2753 73.9827 65.527 73.1693 65.9934 72.339C66.4562 71.531 67.0961 70.8319 67.9132 70.2417C69.0287 69.436 70.1497 69.0209 71.2764 68.9966C72.4125 68.9852 73.3409 69.4791 74.0617 70.4783C74.7731 71.4645 74.9964 72.4578 74.7317 73.4583C74.4669 74.4587 73.8482 75.3103 72.8754 76.0129C71.4617 77.0341 70.1202 77.4308 68.8509 77.2028L69.7636 78.468C70.1006 78.9351 70.5796 79.1615 71.2005 79.1472C71.8085 79.1422 72.4498 78.8962 73.1242 78.409C74.2008 77.6314 74.9132 76.5542 75.2616 75.1775L77.389 76.1574C76.9849 77.9493 75.9528 79.4449 74.2926 80.6441C72.6454 81.8339 71.161 82.087 69.8393 81.4035C69.7991 83.0708 69.0527 84.429 67.6 85.4783C66.303 86.4152 64.9061 86.694 63.4092 86.3146C61.9088 85.9576 60.6016 85.007 59.4877 83.4628L59.0946 82.9178ZM66.9753 79.7715L62.6951 82.8632C63.1048 83.3765 63.6457 83.7161 64.3178 83.882C64.9769 84.0572 65.6501 83.8966 66.3375 83.4C66.986 82.9316 67.3374 82.3521 67.3917 81.6616C67.4553 80.984 67.3165 80.354 66.9753 79.7715ZM67.7698 75.704L67.854 75.8208C68.7494 76.0228 69.6835 75.7724 70.6563 75.0698C71.214 74.6669 71.5948 74.224 71.7989 73.7411C72.0029 73.2582 71.9598 72.8156 71.6697 72.4133C71.3795 72.0111 70.9797 71.8261 70.4704 71.8585C69.9481 71.9002 69.4211 72.1132 68.8893 72.4973C68.2927 72.9282 67.8844 73.4699 67.6645 74.1222C67.4539 74.7875 67.489 75.3148 67.7698 75.704Z" fill="#2143FF"/>
<path d="M37.255 82.5239L45.4387 82.5871C45.3325 81.8343 45.0094 81.2077 44.4692 80.7075C43.929 80.2074 43.219 79.9539 42.339 79.9471C41.155 79.9379 40.2002 80.3066 39.4744 81.053L38.122 79.0265C38.6859 78.5188 39.377 78.1241 40.1952 77.8424C41.0133 77.5768 41.8063 77.4469 42.5743 77.4528C44.5742 77.4683 46.0567 78.1837 47.0218 79.5992C47.5226 78.9791 48.2066 78.4724 49.0736 78.079C49.9246 77.7016 50.854 77.5168 51.862 77.5246C53.2379 77.5352 54.3874 77.8641 55.3105 78.5112C56.2334 79.1744 56.6901 80.1219 56.6806 81.3539C56.6712 82.5699 56.264 83.5028 55.459 84.1526C54.6539 84.8024 53.6514 85.1226 52.4515 85.1133C50.7075 85.0999 49.3911 84.6257 48.5023 83.6908L48.4903 85.2507C48.4858 85.8267 48.7382 86.2927 49.2475 86.6486C49.7408 87.0045 50.4034 87.1856 51.2354 87.192C52.5633 87.2023 53.7748 86.7556 54.8698 85.8521L56.006 87.9009C54.6207 89.1062 52.9041 89.701 50.8561 89.6852C48.8242 89.6695 47.4774 88.995 46.8156 87.6619C45.7974 88.9821 44.3923 89.6352 42.6004 89.6214C41.0004 89.609 39.709 89.007 38.7262 87.8154C37.7272 86.6396 37.2351 85.0998 37.2498 83.1958L37.255 82.5239ZM45.4708 84.6514L40.191 84.6106C40.2179 85.2668 40.4533 85.8607 40.8972 86.3921C41.3252 86.9234 41.9631 87.1924 42.8111 87.1989C43.611 87.2051 44.2371 86.9459 44.6891 86.4214C45.1411 85.9129 45.4016 85.3229 45.4708 84.6514ZM48.5166 81.8428L48.5155 81.9868C49.1181 82.6795 50.0194 83.0305 51.2194 83.0398C51.9074 83.0451 52.4764 82.9135 52.9265 82.6449C53.3766 82.3764 53.6035 81.9942 53.6074 81.4982C53.6112 81.0022 53.3982 80.6165 52.9683 80.3412C52.5224 80.0657 51.9715 79.9255 51.3155 79.9204C50.5795 79.9147 49.93 80.1097 49.3669 80.5054C48.8037 80.917 48.5203 81.3629 48.5166 81.8428Z" fill="#2143FF"/>
<path d="M20.0055 69.3305L26.569 74.219C26.928 73.5487 27.0374 72.8521 26.8971 72.1292C26.7569 71.4062 26.3338 70.782 25.6281 70.2563C24.6785 69.5491 23.6906 69.2821 22.6644 69.4554L22.7704 67.0207C23.5251 66.9444 24.3156 67.0344 25.1419 67.2907C25.9587 67.5599 26.675 67.9238 27.291 68.3826C28.895 69.5773 29.6682 71.031 29.6106 72.7437C30.3808 72.5393 31.2317 72.5347 32.1634 72.7298C33.0727 72.9282 33.9315 73.3285 34.7399 73.9306C35.8435 74.7525 36.5764 75.6974 36.9387 76.7652C37.2914 77.8459 37.1001 78.8805 36.3649 79.8691C35.6391 80.8447 34.7597 81.3568 33.7266 81.4053C32.6935 81.4538 31.6958 81.1197 30.7334 80.4029C29.3347 79.3612 28.553 78.2004 28.3882 76.9206L27.4572 78.1723C27.1134 78.6344 27.0418 79.1597 27.2424 79.7479C27.4301 80.3266 27.8576 80.8645 28.5248 81.3615C29.5899 82.1547 30.8308 82.5104 32.2477 82.4285L31.9541 84.7535C30.1248 84.9073 28.3889 84.3725 26.7464 83.1492C25.1168 81.9354 24.4288 80.595 24.6824 79.1281C23.0814 79.5915 21.5623 79.288 20.1252 78.2176C18.842 77.2619 18.1559 76.0128 18.0669 74.4702C17.9556 72.9309 18.4681 71.3974 19.6044 69.8697L20.0055 69.3305ZM25.3757 75.9038L21.1412 72.7499C20.7753 73.2954 20.6145 73.9137 20.6587 74.605C20.69 75.2867 21.0457 75.8808 21.7258 76.3873C22.3674 76.8652 23.0254 77.0261 23.6998 76.8701C24.3647 76.7268 24.9233 76.4048 25.3757 75.9038ZM29.4911 75.4378L29.4052 75.5533C29.4822 76.4685 30.0019 77.2845 30.9643 78.0013C31.5161 78.4123 32.0528 78.6424 32.5744 78.6918C33.096 78.7412 33.5049 78.5668 33.8009 78.1689C34.0969 77.7709 34.1528 77.3337 33.9687 76.8575C33.7717 76.3716 33.4102 75.9328 32.8841 75.5409C32.2938 75.1013 31.6548 74.8747 30.9669 74.8611C30.2695 74.8604 29.7776 75.0526 29.4911 75.4378Z" fill="#2143FF"/>
<path d="M13.8548 48.5077L16.2619 56.3297C16.9476 56.0012 17.4474 55.504 17.7614 54.838C18.0755 54.172 18.1031 53.4184 17.8442 52.5773C17.496 51.4457 16.8567 50.6465 15.9263 50.1798L17.4505 48.2787C18.1045 48.6631 18.6892 49.2029 19.2044 49.898C19.7043 50.5978 20.0672 51.3148 20.2931 52.0488C20.8813 53.9603 20.6462 55.5898 19.5877 56.9373C20.3299 57.2276 21.0192 57.7267 21.6555 58.4347C22.2719 59.1322 22.7283 59.9626 23.0248 60.926C23.4295 62.2411 23.4625 63.4364 23.1238 64.5118C22.7698 65.592 22.0042 66.3134 20.8268 66.6762C19.6647 67.0343 18.6526 66.9276 17.7904 66.3562C16.9282 65.7847 16.3206 64.9255 15.9677 63.7786C15.4547 62.1117 15.5099 60.7135 16.1333 59.5838L14.6424 60.0432C14.092 60.2128 13.7238 60.5941 13.538 61.1872C13.3475 61.7649 13.3746 62.4513 13.6193 63.2465C14.0099 64.5158 14.8009 65.5361 15.9925 66.3074L14.3818 68.0092C12.815 67.0521 11.7304 65.5949 11.1281 63.6374C10.5305 61.6953 10.7674 60.2076 11.8389 59.1743C10.2733 58.6019 9.22695 57.4593 8.69991 55.7466C8.22933 54.2174 8.41391 52.8044 9.25366 51.5076C10.0734 50.2002 11.3931 49.2662 13.2126 48.7055L13.8548 48.5077ZM14.3035 56.9833L12.7506 51.9369C12.1331 52.1606 11.6379 52.5643 11.2651 53.148C10.8876 53.7164 10.8235 54.4058 11.0729 55.2163C11.3082 55.9809 11.744 56.4996 12.3804 56.7723C13.0014 57.0497 13.6425 57.1201 14.3035 56.9833ZM17.8993 59.0397L17.7617 59.0821C17.283 59.8658 17.2202 60.8311 17.5731 61.978C17.7754 62.6356 18.0725 63.1384 18.4642 63.4865C18.8559 63.8346 19.2887 63.9356 19.7627 63.7895C20.2367 63.6435 20.5402 63.324 20.6731 62.831C20.8012 62.3227 20.7689 61.7551 20.5759 61.1281C20.3595 60.4246 19.9777 59.8642 19.4308 59.4467C18.8685 59.034 18.358 58.8983 17.8993 59.0397Z" fill="#2143FF"/>
<path d="M21.2343 27.9563L18.5327 35.6815C19.2795 35.824 19.9768 35.7204 20.6246 35.3706C21.2724 35.0208 21.7415 34.4306 22.032 33.6C22.4228 32.4823 22.3822 31.4596 21.91 30.5317L24.2646 29.9059C24.563 30.6035 24.7135 31.385 24.716 32.2503C24.7034 33.1104 24.5703 33.9029 24.3168 34.6278C23.6565 36.5157 22.5008 37.6879 20.8495 38.1444C21.2748 38.8185 21.5337 39.6294 21.626 40.5771C21.7086 41.5043 21.5834 42.4436 21.2507 43.3951C20.7965 44.694 20.1141 45.6758 19.2036 46.3405C18.2781 46.9999 17.2338 47.1263 16.0709 46.7196C14.9231 46.3182 14.1716 45.6316 13.8164 44.6599C13.4613 43.6882 13.4818 42.636 13.8779 41.5032C14.4536 39.857 15.3274 38.7642 16.4991 38.2248L15.0266 37.7098C14.4829 37.5196 13.9604 37.6081 13.4591 37.9752C12.9631 38.3272 12.5778 38.8959 12.3031 39.6812C11.8647 40.9348 11.8964 42.2256 12.3981 43.5537L10.0922 43.9677C9.39857 42.2674 9.3898 40.4507 10.0659 38.5175C10.7367 36.5994 11.8097 35.5424 13.2851 35.3464C12.3643 33.9565 12.1997 32.4158 12.7913 30.7243C13.3194 29.214 14.3061 28.1861 15.7512 27.6405C17.1865 27.0746 18.8027 27.1059 20.6 27.7344L21.2343 27.9563ZM16.5686 35.0454L18.3115 30.0614C17.6817 29.8751 17.0437 29.9062 16.3974 30.1548C15.7564 30.3883 15.2959 30.9052 15.016 31.7057C14.7519 32.4609 14.7951 33.137 15.1456 33.7342C15.481 34.3261 15.9553 34.7632 16.5686 35.0454ZM18.2435 38.8348L18.1076 38.7873C17.2575 39.1341 16.6343 39.8738 16.2382 41.0066C16.0111 41.656 15.952 42.237 16.0608 42.7497C16.1697 43.2624 16.4582 43.6006 16.9264 43.7643C17.3946 43.9281 17.8284 43.8509 18.2277 43.533C18.6324 43.1999 18.943 42.7237 19.1595 42.1045C19.4025 41.4097 19.4276 40.732 19.2349 40.0714C19.0271 39.4054 18.6966 38.9932 18.2435 38.8348Z" fill="#2143FF"/>
<path d="M39.2423 15.7981L32.5045 20.4435C33.0231 20.9993 33.6471 21.3271 34.3762 21.4268C35.1054 21.5266 35.8322 21.3267 36.5567 20.8272C37.5315 20.1551 38.102 19.305 38.2683 18.277L40.5378 19.1609C40.3672 19.9005 40.0276 20.6205 39.5191 21.3209C39.0016 22.0081 38.4266 22.5697 37.7944 23.0056C36.1478 24.1408 34.5235 24.4056 32.9215 23.7999C32.867 24.5954 32.5975 25.4031 32.113 26.223C31.6326 27.0206 30.9775 27.7055 30.1476 28.2777C29.0148 29.0587 27.8849 29.4491 26.7579 29.4487C25.6219 29.4351 24.7045 28.921 24.0059 27.9063C23.3163 26.9047 23.1148 25.9067 23.4014 24.9123C23.688 23.9179 24.3253 23.0801 25.3132 22.399C26.749 21.409 28.0989 21.042 29.3628 21.2977L28.4782 20.0128C28.1515 19.5384 27.6776 19.3015 27.0565 19.3022C26.4485 19.2939 25.802 19.5258 25.117 19.9981C24.0237 20.7519 23.2878 21.8131 22.9092 23.1819L20.8039 22.1555C21.2471 20.3729 22.3118 18.9004 23.9979 17.7379C25.6708 16.5845 27.1605 16.364 28.4668 17.0763C28.5436 15.4104 29.3196 14.0688 30.795 13.0516C32.1122 12.1434 33.515 11.8954 35.0031 12.3075C36.4954 12.6973 37.7814 13.6764 38.8612 15.2446L39.2423 15.7981ZM31.2944 18.7708L35.6414 15.7737C35.243 15.2516 34.7097 14.9002 34.0414 14.7196C33.3864 14.5299 32.7097 14.6758 32.0116 15.1571C31.3529 15.6112 30.9889 16.1828 30.9195 16.872C30.8411 17.548 30.966 18.1809 31.2944 18.7708ZM30.4109 22.8198L30.3292 22.7012C29.4385 22.4796 28.4991 22.7094 27.5112 23.3906C26.9448 23.7811 26.5543 24.2155 26.3397 24.6939C26.1251 25.1722 26.1584 25.6156 26.4397 26.0241C26.721 26.4327 27.1166 26.6263 27.6265 26.6052C28.1496 26.5749 28.6812 26.3736 29.2213 26.0012C29.8272 25.5835 30.2473 25.0509 30.4815 24.4036C30.7066 23.7431 30.6831 23.2151 30.4109 22.8198Z" fill="#2143FF"/>
<path d="M60.9894 16.6668L52.8093 16.414C52.898 17.1691 53.2066 17.8029 53.7351 18.3155C54.2635 18.8281 54.9675 19.098 55.8471 19.1251C57.0305 19.1617 57.9937 18.8153 58.7365 18.0859L60.0417 20.1432C59.4661 20.6377 58.7661 21.0162 57.9416 21.2789C57.1176 21.5255 56.3218 21.637 55.5542 21.6133C53.5551 21.5515 52.0896 20.8019 51.1575 19.3644C50.6425 19.9728 49.947 20.4635 49.0711 20.8366C48.2116 21.1942 47.2781 21.3575 46.2706 21.3263C44.8953 21.2838 43.7537 20.9284 42.8459 20.26C41.9386 19.5757 41.5039 18.6178 41.5419 17.3864C41.5794 16.171 42.0081 15.2478 42.828 14.6168C43.6478 13.9858 44.6575 13.6889 45.8569 13.7259C47.6001 13.7798 48.9051 14.2844 49.7721 15.2396L49.8202 13.6804C49.838 13.1046 49.5964 12.6329 49.0955 12.2653C48.6106 11.8981 47.9523 11.7017 47.1207 11.676C45.7934 11.635 44.5719 12.0534 43.4563 12.9314L42.3678 10.8568C43.7806 9.68387 45.5106 9.12904 47.5576 9.19231C49.5886 9.25509 50.9195 9.96054 51.5502 11.3087C52.5987 10.0124 54.0185 9.392 55.8096 9.44736C57.4089 9.49679 58.686 10.1285 59.641 11.3426C60.6125 12.5412 61.0688 14.092 61.0101 15.9951L60.9894 16.6668ZM52.825 14.3495L58.1025 14.5126C58.0907 13.8559 57.8691 13.2568 57.4376 12.7152C57.0221 12.1741 56.3905 11.8905 55.5429 11.8643C54.7433 11.8396 54.1115 12.0842 53.6474 12.5981C53.1838 13.096 52.9097 13.6798 52.825 14.3495ZM49.715 17.0867L49.7195 16.9428C49.133 16.2363 48.2401 15.8646 47.0406 15.8275C46.353 15.8063 45.781 15.9246 45.3249 16.1827C44.8687 16.4407 44.6329 16.8176 44.6176 17.3134C44.6023 17.8091 44.8064 18.1996 45.2298 18.4848C45.6692 18.7705 46.2167 18.9235 46.8724 18.9438C47.6081 18.9665 48.2619 18.7867 48.834 18.4041C49.4066 18.0056 49.7002 17.5665 49.715 17.0867Z" fill="#2143FF"/>
<path d="M78.0571 30.286L71.6206 25.2315C71.2446 25.8924 71.1175 26.586 71.2393 27.3123C71.361 28.0386 71.768 28.6734 72.4601 29.2169C73.3913 29.9482 74.372 30.2403 75.4023 30.0932L75.2342 32.5245C74.4778 32.5815 73.6899 32.4713 72.8704 32.194C72.0607 31.9041 71.3539 31.5219 70.7499 31.0476C69.1769 29.8124 68.4411 28.3394 68.5423 26.6287C67.7672 26.8134 66.9164 26.7963 65.9901 26.5774C65.0861 26.3559 64.2378 25.9338 63.445 25.3112C62.3628 24.4614 61.6543 23.4981 61.3194 22.4214C60.9943 21.332 61.2119 20.3026 61.9722 19.3332C62.7226 18.3763 63.6148 17.8869 64.6488 17.8648C65.6828 17.8426 66.6717 18.2022 67.6155 18.9433C68.9871 20.0204 69.7389 21.2008 69.8709 22.4844L70.8336 21.2568C71.1891 20.8036 71.2741 20.2804 71.0886 19.6872C70.9157 19.1038 70.5021 18.5553 69.8478 18.0414C68.8033 17.2212 67.5718 16.834 66.1533 16.8796L66.5062 14.5629C68.3388 14.4559 70.0605 15.0348 71.6712 16.2997C73.2693 17.5547 73.9229 18.9122 73.6319 20.3722C75.2442 19.9498 76.755 20.2919 78.1644 21.3987C79.4228 22.3868 80.0767 23.6531 80.1263 25.1974C80.1983 26.7391 79.6468 28.259 78.4718 29.7572L78.0571 30.286ZM72.8565 23.5777L77.0091 26.8387C77.3888 26.3028 77.5654 25.6887 77.5388 24.9965C77.5249 24.3142 77.1845 23.7112 76.5175 23.1875C75.8883 22.6934 75.2347 22.5158 74.5565 22.6545C73.8882 22.7807 73.3215 23.0885 72.8565 23.5777ZM68.7305 23.9385L68.8194 23.8252C68.7658 22.9083 68.2671 22.0793 67.3233 21.3382C66.7822 20.9133 66.2516 20.6695 65.7314 20.6068C65.2112 20.5442 64.798 20.708 64.4919 21.0983C64.1859 21.4886 64.1188 21.9242 64.2907 22.405C64.4752 22.8957 64.8254 23.3437 65.3413 23.7488C65.9202 24.2034 66.5532 24.4462 67.2405 24.4773C67.9377 24.4958 68.4343 24.3162 68.7305 23.9385Z" fill="#2143FF"/>
<path d="M83.7283 51.1728L81.4994 43.2982C80.8064 43.611 80.2954 44.0968 79.9663 44.7555C79.6373 45.4142 79.5926 46.1669 79.8323 47.0136C80.1547 48.1529 80.7757 48.9664 81.6953 49.4541L80.1283 51.3201C79.4832 50.9209 78.911 50.368 78.4117 49.6613C77.9277 48.9504 77.5812 48.2254 77.372 47.4864C76.8273 45.562 77.0994 43.9383 78.1882 42.6153C77.4528 42.3082 76.775 41.7935 76.1548 41.0712C75.5544 40.36 75.1169 39.5194 74.8424 38.5495C74.4677 37.2255 74.4618 36.0298 74.8248 34.9624C75.2032 33.8906 75.985 33.1867 77.1704 32.8508C78.3403 32.5192 79.3497 32.6488 80.1988 33.2397C81.0478 33.8306 81.6357 34.7033 81.9625 35.858C82.4375 37.536 82.3506 38.9327 81.7018 40.0478L83.2027 39.6224C83.7568 39.4654 84.1335 39.0925 84.3327 38.5039C84.5363 37.9307 84.5248 37.2438 84.2982 36.4432C83.9365 35.1654 83.1688 34.1274 81.9951 33.3293L83.644 31.6645C85.1887 32.6569 86.2399 34.1384 86.7977 36.109C87.3511 38.0642 87.0805 39.5461 85.9858 40.5549C87.538 41.1626 88.5581 42.3286 89.0462 44.0529C89.482 45.5924 89.2654 47.0008 88.3964 48.2782C87.5472 49.5666 86.2067 50.4704 84.3748 50.9896L83.7283 51.1728ZM83.4721 42.6892L84.9101 47.7696C85.5325 47.5599 86.0367 47.1676 86.4227 46.5925C86.813 46.0329 86.8927 45.3451 86.6618 44.5291C86.4439 43.7594 86.0199 43.231 85.3899 42.9439C84.7753 42.6524 84.136 42.5675 83.4721 42.6892ZM79.9238 40.5518L80.0624 40.5125C80.5587 39.7399 80.6435 38.7762 80.3166 37.6216C80.1293 36.9596 79.8437 36.4502 79.46 36.0933C79.0763 35.7364 78.6459 35.6256 78.1686 35.7608C77.6914 35.8961 77.3808 36.2086 77.2368 36.6985C77.0971 37.2037 77.1166 37.7719 77.2953 38.4031C77.4957 39.1113 77.8646 39.6803 78.402 40.11C78.9547 40.5354 79.462 40.6827 79.9238 40.5518Z" fill="#2143FF"/>
</svg>
