<svg width="399" height="401" viewBox="0 0 399 401" fill="none" xmlns="http://www.w3.org/2000/svg">
<path d="M336.357 200.064C336.357 275.779 275.015 337.147 199.357 337.147C123.699 337.147 62.3564 275.779 62.3564 200.064C62.3564 124.35 123.699 62.9814 199.357 62.9814C275.015 62.9814 336.357 124.35 336.357 200.064Z" stroke="black" stroke-width="20"/>
<path d="M324.953 224.698L327.285 216.912L330.351 217.831C328.453 214.946 328.123 211.439 329.359 207.311C330.155 204.654 331.729 202.521 334.082 200.91C336.464 199.352 339.187 199.033 342.253 199.952C345.44 200.908 347.525 202.647 348.507 205.168C349.477 207.731 349.551 210.381 348.731 213.12C347.47 217.33 345.328 220.095 342.305 221.415L346.29 222.61C347.802 223.064 349.185 222.832 350.439 221.917C351.693 221.001 352.614 219.562 353.202 217.6C354.169 214.371 353.867 211.141 352.296 207.908L358.388 206.528C360.442 210.974 360.703 215.752 359.173 220.861C358.035 224.662 356.226 227.505 353.746 229.389C351.266 231.274 348.044 231.622 344.08 230.433L324.953 224.698ZM333.695 212.019C332.826 214.921 333.06 217.263 334.397 219.044L338.075 220.147C340.171 219.395 341.653 217.568 342.523 214.666C343 213.072 342.989 211.621 342.49 210.313C342.032 209.017 341.108 208.161 339.718 207.745C338.37 207.34 337.148 207.553 336.053 208.383C334.958 209.213 334.172 210.425 333.695 212.019ZM361.756 225.844L363.39 220.388L375.192 213.103L373.062 220.215L361.756 225.844Z" fill="#2143FF"/>
<path d="M312.287 260.325L316.799 253.564L319.46 255.342C318.491 252.027 319.203 248.577 321.595 244.992C323.134 242.685 325.265 241.107 327.986 240.257C330.72 239.466 333.417 239.959 336.078 241.736C338.845 243.585 340.329 245.859 340.528 248.558C340.704 251.292 339.999 253.848 338.412 256.226C335.973 259.882 333.115 261.898 329.837 262.274L333.297 264.585C334.609 265.461 335.999 265.646 337.467 265.138C338.934 264.63 340.236 263.525 341.373 261.821C343.243 259.017 343.902 255.84 343.348 252.288L349.576 252.755C350.236 257.608 349.086 262.253 346.126 266.689C343.923 269.99 341.361 272.178 338.438 273.253C335.515 274.328 332.333 273.716 328.892 271.417L312.287 260.325ZM324.36 250.765C322.679 253.285 322.216 255.592 322.972 257.688L326.165 259.821C328.389 259.716 330.342 258.404 332.024 255.884C332.947 254.5 333.362 253.109 333.268 251.712C333.21 250.339 332.577 249.25 331.371 248.444C330.2 247.662 328.97 247.507 327.68 247.98C326.39 248.452 325.284 249.381 324.36 250.765ZM347.134 272.212L350.296 267.474L363.714 263.968L359.593 270.144L347.134 272.212Z" fill="#2143FF"/>
<path d="M289.791 290.662L296.073 285.504L298.102 287.978C298.139 284.524 299.823 281.43 303.153 278.696C305.297 276.936 307.794 276.044 310.645 276.022C313.49 276.06 315.927 277.316 317.957 279.79C320.067 282.363 320.826 284.97 320.233 287.61C319.606 290.278 318.188 292.518 315.979 294.332C312.583 297.121 309.262 298.22 306.017 297.627L308.655 300.844C309.656 302.064 310.933 302.645 312.484 302.585C314.036 302.526 315.603 301.846 317.186 300.546C319.79 298.407 321.344 295.558 321.846 291.999L327.67 294.256C326.891 299.091 324.44 303.202 320.319 306.586C317.252 309.104 314.164 310.453 311.055 310.632C307.946 310.811 305.079 309.301 302.455 306.101L289.791 290.662ZM304.121 285.023C301.78 286.945 300.667 289.019 300.781 291.244L303.216 294.213C305.375 294.759 307.625 294.071 309.966 292.148C311.252 291.092 312.053 289.882 312.369 288.519C312.712 287.188 312.424 285.962 311.504 284.84C310.611 283.751 309.479 283.246 308.107 283.323C306.736 283.4 305.407 283.967 304.121 285.023ZM319.678 312.164L324.08 308.549L337.938 309.095L332.2 313.806L319.678 312.164Z" fill="#2143FF"/>
<path d="M259.54 313.105L267.049 309.993L268.273 312.95C269.31 309.656 271.82 307.185 275.801 305.535C278.363 304.473 281.011 304.345 283.746 305.152C286.458 306.014 288.426 307.923 289.65 310.88C290.923 313.955 290.892 316.67 289.558 319.024C288.184 321.394 286.177 323.127 283.536 324.221C279.476 325.904 275.979 325.99 273.046 324.481L274.637 328.325C275.241 329.783 276.294 330.71 277.796 331.103C279.298 331.497 280.995 331.302 282.887 330.517C286.001 329.227 288.314 326.952 289.828 323.692L294.747 327.542C292.597 331.943 289.059 335.165 284.132 337.206C280.466 338.726 277.12 339.119 274.092 338.388C271.065 337.657 268.76 335.379 267.177 331.555L259.54 313.105ZM274.891 311.87C272.092 313.03 270.425 314.691 269.888 316.853L271.357 320.401C273.264 321.55 275.617 321.545 278.416 320.385C279.953 319.748 281.071 318.823 281.769 317.61C282.484 316.436 282.564 315.179 282.009 313.839C281.47 312.538 280.534 311.725 279.199 311.401C277.864 311.077 276.428 311.233 274.891 311.87ZM281.9 342.357L287.162 340.177L300.265 344.722L293.407 347.565L281.9 342.357Z" fill="#2143FF"/>
<path d="M224.092 325.722L232.183 324.939L232.49 328.124C234.444 325.278 237.566 323.647 241.855 323.232C244.616 322.965 247.186 323.616 249.567 325.186C251.909 326.803 253.234 329.204 253.542 332.389C253.862 335.701 253.041 338.289 251.078 340.15C249.072 342.016 246.646 343.087 243.801 343.362C239.426 343.785 236.057 342.847 233.691 340.547L234.091 344.687C234.243 346.259 234.98 347.452 236.302 348.267C237.624 349.082 239.304 349.391 241.342 349.194C244.697 348.869 247.574 347.369 249.973 344.694L253.554 349.813C250.214 353.394 245.89 355.441 240.581 355.955C236.632 356.337 233.316 355.736 230.634 354.152C227.951 352.568 226.411 349.717 226.013 345.597L224.092 325.722ZM239.136 329.025C236.121 329.316 234.041 330.418 232.897 332.329L233.266 336.151C234.755 337.807 237.007 338.49 240.022 338.198C241.679 338.038 243.018 337.479 244.04 336.523C245.066 335.609 245.509 334.431 245.37 332.987C245.234 331.585 244.576 330.534 243.394 329.834C242.211 329.134 240.792 328.864 239.136 329.025ZM236.943 360.229L242.613 359.68L253.819 367.855L246.43 368.57L236.943 360.229Z" fill="#2143FF"/>
<path d="M185.956 327.412L193.922 329.027L193.287 332.163C195.986 330.012 199.448 329.364 203.671 330.22C206.389 330.771 208.657 332.145 210.476 334.343C212.245 336.573 212.811 339.257 212.176 342.393C211.515 345.655 209.974 347.889 207.553 349.096C205.09 350.295 202.458 350.61 199.657 350.042C195.35 349.169 192.4 347.286 190.809 344.395L189.984 348.472C189.67 350.02 190.027 351.376 191.053 352.542C192.079 353.708 193.596 354.494 195.603 354.901C198.907 355.571 202.096 354.977 205.171 353.119L207.102 359.061C202.863 361.51 198.129 362.205 192.902 361.145C189.013 360.357 186.017 358.813 183.914 356.515C181.811 354.216 181.171 351.039 181.992 346.983L185.956 327.412ZM199.38 334.966C196.411 334.364 194.1 334.81 192.448 336.303L191.686 340.067C192.626 342.086 194.581 343.397 197.55 343.999C199.181 344.329 200.625 344.187 201.881 343.571C203.129 342.997 203.897 341.999 204.185 340.577C204.465 339.197 204.141 338 203.215 336.985C202.289 335.97 201.01 335.297 199.38 334.966ZM188.176 364.17L193.758 365.302L202.09 376.395L194.814 374.92L188.176 364.17Z" fill="#2143FF"/>
<path d="M149.59 318.061L156.735 321.936L155.211 324.749C158.421 323.481 161.92 323.874 165.708 325.929C168.146 327.251 169.914 329.228 171.01 331.862C172.049 334.512 171.807 337.245 170.282 340.058C168.697 342.984 166.571 344.671 163.903 345.117C161.197 345.542 158.588 345.074 156.075 343.711C152.212 341.616 149.942 338.953 149.266 335.722L147.285 339.38C146.533 340.768 146.477 342.17 147.118 343.585C147.758 345 148.979 346.196 150.779 347.173C153.742 348.78 156.965 349.144 160.449 348.267L160.558 354.515C155.788 355.617 151.059 354.896 146.371 352.354C142.883 350.462 140.469 348.11 139.13 345.296C137.791 342.483 138.108 339.257 140.079 335.618L149.59 318.061ZM160.218 329.212C157.555 327.768 155.215 327.518 153.199 328.463L151.37 331.84C151.679 334.046 153.165 335.871 155.828 337.315C157.29 338.109 158.713 338.395 160.094 338.173C161.456 337.989 162.482 337.259 163.173 335.984C163.843 334.746 163.884 333.506 163.295 332.264C162.706 331.023 161.68 330.005 160.218 329.212ZM140.967 353.864L145.974 356.58L150.698 369.626L144.172 366.087L140.967 353.864Z" fill="#2143FF"/>
<path d="M117.474 298.47L123.178 304.261L120.9 306.508C124.34 306.231 127.573 307.627 130.597 310.698C132.543 312.673 133.656 315.081 133.937 317.92C134.158 320.758 133.129 323.301 130.851 325.548C128.481 327.884 125.955 328.877 123.273 328.526C120.562 328.144 118.203 326.934 116.197 324.898C113.113 321.767 111.718 318.558 112.014 315.27L109.052 318.191C107.928 319.3 107.466 320.624 107.665 322.165C107.865 323.706 108.684 325.205 110.121 326.664C112.487 329.066 115.463 330.355 119.051 330.532L117.334 336.54C112.45 336.203 108.136 334.134 104.394 330.335C101.609 327.508 99.9869 324.554 99.5267 321.472C99.0665 318.39 100.31 315.397 103.257 312.491L117.474 298.47ZM124.387 312.237C122.261 310.079 120.096 309.158 117.892 309.474L115.158 312.17C114.81 314.37 115.699 316.55 117.825 318.708C118.993 319.893 120.27 320.582 121.656 320.773C123.011 320.994 124.206 320.595 125.239 319.577C126.241 318.588 126.642 317.414 126.441 316.054C126.239 314.695 125.555 313.422 124.387 312.237ZM98.7846 330.204L102.782 334.262L103.495 348.119L98.2857 342.83L98.7846 330.204Z" fill="#2143FF"/>
<path d="M92.4801 270.493L96.2722 277.683L93.4425 279.177C96.8168 279.904 99.5093 282.173 101.52 285.985C102.814 288.438 103.186 291.064 102.636 293.863C102.029 296.645 100.311 298.782 97.4811 300.277C94.5383 301.831 91.8335 302.053 89.3667 300.943C86.8801 299.795 84.9699 297.957 83.6362 295.429C81.5858 291.542 81.176 288.067 82.4067 285.005L78.7281 286.947C77.3322 287.684 76.5078 288.819 76.255 290.352C76.0023 291.885 76.3536 293.557 77.3091 295.368C78.8817 298.35 81.3604 300.442 84.7451 301.646L81.3679 306.904C76.7885 305.173 73.2547 301.948 70.7665 297.231C68.9152 293.721 68.2135 290.425 68.6614 287.342C69.1093 284.258 71.1631 281.75 74.8228 279.818L92.4801 270.493ZM95.1299 285.668C93.7166 282.989 91.909 281.482 89.7073 281.149L86.3117 282.942C85.3442 284.949 85.5671 287.292 86.9804 289.972C87.7567 291.443 88.781 292.471 90.0531 293.053C91.2875 293.656 92.5461 293.619 93.8289 292.941C95.074 292.284 95.7962 291.275 95.9955 289.915C96.1948 288.556 95.9062 287.14 95.1299 285.668ZM65.4331 295.488L68.0906 300.526L64.7783 314L61.3146 307.433L65.4331 295.488Z" fill="#2143FF"/>
<path d="M76.6396 236.493L78.1616 244.477L75.0184 245.077C78.0323 246.76 79.9427 249.719 80.7496 253.952C81.269 256.676 80.8563 259.296 79.5115 261.811C78.1168 264.293 75.8478 265.833 72.7046 266.433C69.4356 267.057 66.7841 266.477 64.7501 264.694C62.7081 262.868 61.4195 260.551 60.8842 257.743C60.0612 253.426 60.6864 249.984 62.7596 247.416L58.6734 248.196C57.1227 248.492 56.0022 249.336 55.3118 250.727C54.6215 252.119 54.4681 253.82 54.8516 255.832C55.4828 259.143 57.2405 261.87 60.1248 264.013L55.3564 268.05C51.4842 265.053 49.0487 260.936 48.05 255.697C47.3069 251.799 47.6008 248.442 48.9315 245.625C50.2623 242.808 52.9603 241.012 57.0256 240.236L76.6396 236.493ZM74.732 251.777C74.1647 248.802 72.8772 246.832 70.8692 245.869L67.0973 246.589C65.5848 248.224 65.1121 250.529 65.6794 253.505C65.991 255.14 66.6698 256.422 67.7157 257.351C68.7197 258.289 69.9342 258.622 71.3592 258.35C72.7422 258.086 73.728 257.333 74.3166 256.092C74.9051 254.85 75.0436 253.412 74.732 251.777ZM43.4601 252.468L44.5268 258.063L37.4156 269.975L36.0254 262.683L43.4601 252.468Z" fill="#2143FF"/>
<path d="M71.3991 198.807L70.5235 206.887L67.3421 206.543C69.733 209.033 70.6963 212.421 70.2321 216.705C69.9333 219.462 68.7736 221.847 66.753 223.86C64.6946 225.826 62.0747 226.636 58.8934 226.291C55.5847 225.933 53.2182 224.604 51.7937 222.303C50.3738 219.961 49.8178 217.368 50.1258 214.526C50.5992 210.157 52.2022 207.048 54.9347 205.198L50.7989 204.75C49.2294 204.58 47.9115 205.059 46.8449 206.188C45.7784 207.317 45.1349 208.9 44.9142 210.936C44.5511 214.287 45.436 217.409 47.5689 220.301L41.8296 222.769C39.0011 218.771 37.8741 214.121 38.4487 208.819C38.8761 204.874 40.1375 201.749 42.2327 199.444C44.3278 197.139 47.4327 196.21 51.5473 196.656L71.3991 198.807ZM65.1118 212.867C65.4381 209.855 64.7817 207.596 63.1427 206.088L59.325 205.674C57.4009 206.796 56.2757 208.863 55.9494 211.874C55.7701 213.529 56.0449 214.953 56.7738 216.148C57.4602 217.338 58.5245 218.011 59.9668 218.168C61.3666 218.319 62.5292 217.888 63.4547 216.872C64.3801 215.856 64.9325 214.522 65.1118 212.867ZM35.0018 204.39L34.3881 210.053L24.1088 219.368L24.9086 211.987L35.0018 204.39Z" fill="#2143FF"/>
<path d="M77.1363 161.889L73.9436 169.363L71.0013 168.105C72.5621 171.186 72.4961 174.707 70.8034 178.67C69.7141 181.221 67.9098 183.164 65.3906 184.5C62.849 185.779 60.107 185.79 57.1647 184.532C54.1048 183.223 52.2288 181.261 51.5367 178.645C50.8615 175.99 51.0853 173.348 52.2082 170.719C53.9344 166.677 56.3738 164.17 59.5264 163.198L55.7014 161.563C54.2499 160.942 52.8496 161.016 51.5005 161.785C50.1514 162.554 49.0746 163.88 48.2702 165.763C46.9462 168.863 46.8827 172.107 48.0797 175.496L41.8712 176.182C40.331 171.533 40.6083 166.756 42.7033 161.851C44.2619 158.202 46.3791 155.581 49.0548 153.987C51.7305 152.394 54.9711 152.41 58.7764 154.038L77.1363 161.889ZM67.0248 173.505C68.2147 170.719 68.2456 168.365 67.1175 166.444L63.5868 164.935C61.4195 165.446 59.741 167.095 58.551 169.881C57.8974 171.411 57.745 172.854 58.0939 174.21C58.4035 175.549 59.2253 176.503 60.5591 177.074C61.8537 177.627 63.0916 177.554 64.2727 176.852C65.4538 176.151 66.3712 175.035 67.0248 173.505ZM40.6975 156.609L38.4601 161.847L25.9137 167.758L28.8299 160.931L40.6975 156.609Z" fill="#2143FF"/>
<path d="M93.8255 127.587L88.5799 133.796L86.1367 131.729C86.7245 135.133 85.6279 138.48 82.8468 141.772C81.0569 143.89 78.762 145.218 75.9619 145.756C73.1568 146.233 70.5326 145.438 68.0894 143.372C65.5484 141.223 64.3311 138.796 64.4374 136.092C64.5713 133.355 65.5607 130.895 67.4056 128.711C70.2418 125.354 73.3093 123.674 76.6081 123.67L73.4319 120.983C72.2266 119.964 70.8663 119.624 69.3511 119.963C67.8359 120.301 66.4174 121.253 65.0957 122.818C62.9203 125.392 61.9074 128.475 62.0571 132.067L55.921 130.9C55.8133 126.003 57.4804 121.518 60.9224 117.444C63.4833 114.413 66.2764 112.528 69.3018 111.79C72.3272 111.052 75.4199 112.019 78.5798 114.692L93.8255 127.587ZM80.7509 135.724C82.706 133.41 83.4262 131.169 82.9116 129.002L79.9797 126.522C77.7579 126.375 75.6695 127.458 73.7144 129.772C72.6405 131.043 72.0714 132.378 72.007 133.777C71.91 135.148 72.4153 136.301 73.5229 137.238C74.5979 138.148 75.8028 138.44 77.1377 138.116C78.4726 137.793 79.677 136.995 80.7509 135.724ZM60.5438 111.842L56.8678 116.193L43.1401 118.162L47.9313 112.491L60.5438 111.842Z" fill="#2143FF"/>
<path d="M118.991 100.34L112.183 104.78L110.436 102.099C110.022 105.527 108.01 108.419 104.4 110.773C102.077 112.288 99.4975 112.9 96.6609 112.611C93.8369 112.263 91.5515 110.748 89.8047 108.066C87.9881 105.278 87.5191 102.604 88.3977 100.044C89.312 97.4613 90.9664 95.389 93.3608 93.8274C97.0418 91.4266 100.463 90.6982 103.624 91.642L101.353 88.1564C100.491 86.8337 99.286 86.117 97.7372 86.0065C96.1885 85.8959 94.5564 86.4 92.841 87.5188C90.0177 89.3602 88.162 92.0223 87.2738 95.5051L81.7312 92.6252C83.0346 87.9037 85.9199 84.0862 90.3871 81.1727C93.7107 79.0051 96.9275 78.0023 100.037 78.1643C103.147 78.3264 105.832 80.1412 108.091 83.6089L118.991 100.34ZM104.13 104.378C106.667 102.723 108.001 100.784 108.13 98.5595L106.034 95.3421C103.948 94.5631 101.636 95.0011 99.0991 96.656C97.7053 97.565 96.7768 98.68 96.3134 100.001C95.8267 101.286 95.9793 102.537 96.7712 103.752C97.5397 104.932 98.6098 105.558 99.9815 105.632C101.353 105.705 102.736 105.287 104.13 104.378ZM91.6333 75.699L86.8623 78.8107L73.1475 76.7526L79.3659 72.697L91.6333 75.699Z" fill="#2143FF"/>
<path d="M151.715 81.1205L143.904 83.3663L143.02 80.2906C141.618 83.4462 138.846 85.6194 134.705 86.8101C132.039 87.5763 129.393 87.4048 126.766 86.2955C124.169 85.1333 122.428 83.0144 121.545 79.9387C120.626 76.74 120.963 74.0462 122.554 71.8574C124.186 69.6568 126.375 68.1616 129.123 67.3717C133.346 66.1574 136.831 66.4653 139.576 68.2954L138.427 64.297C137.992 62.7797 137.05 61.7409 135.601 61.1806C134.153 60.6202 132.445 60.623 130.477 61.1889C127.237 62.1202 124.682 64.1201 122.811 67.1886L118.357 62.8087C120.988 58.6781 124.867 55.876 129.993 54.4024C133.806 53.306 137.176 53.2918 140.102 54.3596C143.027 55.4275 145.061 57.9503 146.204 61.9282L151.715 81.1205ZM136.323 80.618C139.234 79.781 141.078 78.3186 141.854 76.2307L140.795 72.5399C139.029 71.183 136.69 70.923 133.779 71.76C132.18 72.2198 130.965 73.013 130.134 74.1397C129.292 75.2254 129.071 76.4654 129.471 77.8597C129.86 79.213 130.699 80.126 131.989 80.5987C133.279 81.0713 134.723 81.0778 136.323 80.618ZM132.79 49.536L127.316 51.1099L114.808 45.1166L121.943 43.0653L132.79 49.536Z" fill="#2143FF"/>
<path d="M189.119 72.3947L180.992 72.2378L181.054 69.0384C178.784 71.6404 175.496 72.8998 171.187 72.8166C168.414 72.763 165.936 71.819 163.752 69.9845C161.612 68.1081 160.573 65.5703 160.635 62.3709C160.699 59.0435 161.813 56.5685 163.978 54.9461C166.186 53.3244 168.719 52.5411 171.577 52.5963C175.971 52.6812 179.21 54.0027 181.294 56.5607L181.375 52.4015C181.405 50.8231 180.811 49.5527 179.592 48.5904C178.373 47.628 176.74 47.127 174.692 47.0875C171.322 47.0224 168.291 48.1801 165.599 50.5605L162.633 45.0622C166.364 41.891 170.896 40.3569 176.228 40.4599C180.195 40.5365 183.42 41.5163 185.901 43.3992C188.383 45.2821 189.583 48.2926 189.504 52.4305L189.119 72.3947ZM174.557 67.3766C177.585 67.4351 179.778 66.5813 181.135 64.8152L181.209 60.9759C179.921 59.1587 177.763 58.2208 174.734 58.1623C173.071 58.1302 171.676 58.53 170.55 59.3618C169.426 60.1509 168.849 61.2706 168.821 62.721C168.794 64.1288 169.327 65.2486 170.421 66.0805C171.514 66.9125 172.893 67.3445 174.557 67.3766ZM180.335 36.6345L174.64 36.5245L164.451 27.11L171.874 27.2533L180.335 36.6345Z" fill="#2143FF"/>
<path d="M226.492 74.8466L218.761 72.3363L219.748 69.2924C216.822 71.1234 213.31 71.3735 209.211 70.0426C206.573 69.186 204.476 67.5629 202.918 65.1731C201.415 62.7558 201.157 60.0253 202.144 56.9814C203.171 53.8158 204.955 51.771 207.498 50.847C210.081 49.9363 212.732 49.9223 215.451 50.8052C219.63 52.1625 222.347 54.3679 223.599 57.4212L224.882 53.4642C225.37 51.9626 225.169 50.5742 224.282 49.2992C223.395 48.0242 221.977 47.0704 220.03 46.4379C216.824 45.3969 213.588 45.6245 210.321 47.1209L209.078 40.9975C213.568 39.0463 218.35 38.8943 223.422 40.5415C227.196 41.767 229.997 43.641 231.826 46.1637C233.654 48.6863 233.929 51.916 232.653 55.8528L226.492 74.8466ZM214.013 65.8152C216.895 66.7508 219.241 66.5705 221.052 65.2745L222.236 61.6218C221.531 59.5087 219.738 57.9844 216.857 57.0488C215.274 56.5349 213.824 56.5124 212.505 56.9815C211.2 57.41 210.324 58.3142 209.876 59.6941C209.442 61.0334 209.627 62.26 210.432 63.3737C211.237 64.4874 212.431 65.3012 214.013 65.8152ZM228.462 38.0732L223.044 36.314L216.026 24.3455L223.088 26.6384L228.462 38.0732Z" fill="#2143FF"/>
<path d="M261.843 88.2614L255.185 83.5993L257.019 80.977C253.685 81.8721 250.253 81.0838 246.723 78.612C244.452 77.0212 242.921 74.8553 242.13 72.1143C241.399 69.3627 241.951 66.6759 243.785 64.0536C245.693 61.3265 247.997 59.893 250.698 59.7531C253.434 59.6377 255.973 60.3998 258.315 62.0395C261.915 64.5603 263.867 67.4639 264.172 70.7504L266.556 67.3415C267.461 66.0479 267.676 64.6616 267.2 63.1827C266.724 61.7038 265.648 60.377 263.97 59.2022C261.209 57.2689 258.048 56.5399 254.487 57.0155L255.089 50.7956C259.953 50.2431 264.57 51.4965 268.939 54.5556C272.189 56.8316 274.319 59.4433 275.33 62.3906C276.34 65.338 275.66 68.5073 273.287 71.8987L261.843 88.2614ZM252.552 75.974C255.033 77.7116 257.329 78.2255 259.44 77.5157L261.641 74.369C261.584 72.1419 260.315 70.1596 257.834 68.422C256.471 67.4675 255.09 67.0218 253.693 67.0847C252.319 67.1127 251.217 67.7211 250.385 68.9098C249.578 70.0636 249.397 71.2908 249.841 72.5914C250.285 73.892 251.189 75.0195 252.552 75.974ZM274.479 53.6692L269.813 50.4021L266.602 36.9031L272.684 41.1614L274.479 53.6692Z" fill="#2143FF"/>
<path d="M291.288 110.942L286.249 104.565L288.758 102.579C285.308 102.48 282.247 100.74 279.575 97.3584C277.856 95.1825 277.011 92.6682 277.041 89.8156C277.131 86.9701 278.43 84.5546 280.94 82.5692C283.55 80.5044 286.169 79.7927 288.796 80.4341C291.451 81.109 293.664 82.5679 295.436 84.8108C298.161 88.2589 299.197 91.6007 298.546 94.8364L301.808 92.2554C303.047 91.2759 303.65 90.0096 303.619 88.4564C303.588 86.9032 302.938 85.3232 301.668 83.7163C299.578 81.0717 296.759 79.4661 293.212 78.8994L295.574 73.114C300.392 73.9811 304.454 76.5069 307.761 80.6914C310.221 83.8047 311.512 86.9181 311.634 90.0314C311.756 93.1448 310.194 95.9854 306.948 98.5532L291.288 110.942ZM285.916 96.5045C287.794 98.8813 289.846 100.033 292.071 99.9586L295.083 97.5762C295.668 95.4266 295.022 93.1634 293.143 90.7866C292.112 89.481 290.917 88.6578 289.56 88.3168C288.237 87.9494 287.006 88.2157 285.868 89.1157C284.764 89.9893 284.238 91.1128 284.29 92.4861C284.342 93.8595 284.884 95.1989 285.916 96.5045ZM313.323 81.4328L309.791 76.9637L310.591 63.1111L315.193 68.9359L313.323 81.4328Z" fill="#2143FF"/>
<path d="M313.251 141.562L310.284 133.996L313.262 132.826C309.99 131.727 307.567 129.172 305.993 125.16C304.981 122.578 304.903 119.927 305.761 117.207C306.674 114.511 308.62 112.578 311.599 111.408C314.697 110.192 317.41 110.273 319.737 111.65C322.081 113.068 323.774 115.107 324.818 117.769C326.423 121.86 326.443 125.359 324.879 128.265L328.751 126.744C330.22 126.167 331.166 125.131 331.588 123.636C332.01 122.141 331.847 120.441 331.099 118.534C329.869 115.396 327.638 113.04 324.409 111.466L328.351 106.618C332.709 108.849 335.862 112.447 337.809 117.412C339.258 121.106 339.588 124.46 338.799 127.474C338.011 130.488 335.69 132.752 331.838 134.264L313.251 141.562ZM312.308 126.187C313.414 129.008 315.043 130.706 317.194 131.282L320.768 129.879C321.953 127.992 321.993 125.639 320.887 122.819C320.279 121.27 319.376 120.135 318.176 119.414C317.017 118.678 315.762 118.574 314.411 119.105C313.101 119.619 312.271 120.541 311.921 121.87C311.572 123.199 311.701 124.638 312.308 126.187ZM342.915 119.739L340.835 114.436L345.628 101.416L348.339 108.327L342.915 119.739Z" fill="#2143FF"/>
<path d="M324.8 180.093L324.174 171.989L327.365 171.742C324.556 169.734 322.986 166.582 322.654 162.286C322.441 159.52 323.142 156.963 324.757 154.613C326.419 152.302 328.845 151.023 332.035 150.776C335.354 150.519 337.924 151.39 339.748 153.389C341.574 155.43 342.598 157.876 342.818 160.726C343.156 165.108 342.153 168.459 339.807 170.78L343.955 170.459C345.529 170.338 346.736 169.624 347.577 168.318C348.417 167.012 348.759 165.338 348.601 163.296C348.341 159.935 346.897 157.03 344.269 154.58L349.456 151.097C352.972 154.506 354.935 158.869 355.346 164.186C355.651 168.143 354.986 171.446 353.351 174.098C351.716 176.749 348.835 178.234 344.709 178.553L324.8 180.093ZM328.393 165.115C328.627 168.136 329.687 170.236 331.576 171.417L335.405 171.121C337.089 169.664 337.815 167.425 337.582 164.405C337.454 162.746 336.921 161.396 335.985 160.356C335.091 159.312 333.921 158.846 332.475 158.958C331.071 159.067 330.008 159.705 329.285 160.874C328.562 162.043 328.265 163.456 328.393 165.115ZM359.549 167.905L359.11 162.226L367.5 151.178L368.072 158.58L359.549 167.905Z" fill="#2143FF"/>
</svg>
