<svg width="258" height="258" viewBox="0 0 258 258" fill="none" xmlns="http://www.w3.org/2000/svg">
<path d="M201.891 128.664C201.891 168.953 169.23 201.614 128.941 201.614C88.652 201.614 55.9912 168.953 55.9912 128.664C55.9912 88.375 88.652 55.7142 128.941 55.7142C169.23 55.7142 201.891 88.375 201.891 128.664Z" stroke="black" stroke-width="20"/>
<path d="M210.77 153.357L211.519 147.307L213.901 147.602C212.137 145.707 211.454 143.155 211.851 139.948C212.107 137.884 213.004 136.109 214.543 134.623C216.109 133.172 218.083 132.595 220.465 132.89C222.942 133.197 224.701 134.221 225.743 135.962C226.781 137.736 227.168 139.686 226.904 141.814C226.499 145.085 225.261 147.398 223.19 148.754L226.286 149.137C227.461 149.283 228.455 148.939 229.268 148.104C230.081 147.27 230.582 146.091 230.771 144.566C231.082 142.057 230.454 139.706 228.888 137.513L233.22 135.728C235.296 138.759 236.087 142.259 235.595 146.228C235.229 149.182 234.247 151.511 232.649 153.215C231.051 154.919 228.712 155.581 225.632 155.199L210.77 153.357ZM215.647 142.885C215.367 145.14 215.833 146.842 217.045 147.992L219.903 148.346C221.359 147.527 222.227 145.99 222.506 143.735C222.66 142.497 222.47 141.425 221.937 140.521C221.436 139.621 220.646 139.103 219.566 138.97C218.518 138.84 217.641 139.15 216.936 139.901C216.23 140.652 215.8 141.647 215.647 142.885ZM244.256 156.346L238.353 147.779L238.879 143.54L244.947 150.773L244.256 156.346Z" fill="#2143FF"/>
<path d="M193.735 182.894L196.912 177.691L198.96 178.942C198.134 176.488 198.564 173.882 200.248 171.124C201.333 169.349 202.882 168.101 204.896 167.382C206.921 166.706 208.958 166.994 211.006 168.245C213.136 169.546 214.317 171.204 214.548 173.22C214.762 175.263 214.31 177.2 213.193 179.03C211.475 181.843 209.393 183.44 206.948 183.821L209.611 185.447C210.621 186.064 211.669 186.16 212.753 185.735C213.838 185.31 214.78 184.443 215.581 183.132C216.899 180.974 217.296 178.574 216.774 175.93L221.456 176.09C222.098 179.706 221.376 183.221 219.291 186.635C217.739 189.175 215.885 190.892 213.726 191.786C211.568 192.68 209.164 192.318 206.515 190.7L193.735 182.894ZM202.495 175.364C201.311 177.303 201.034 179.046 201.664 180.594L204.122 182.095C205.786 181.949 207.21 180.906 208.394 178.967C209.045 177.902 209.314 176.848 209.201 175.804C209.116 174.777 208.609 173.98 207.68 173.413C206.779 172.863 205.852 172.784 204.9 173.177C203.947 173.57 203.146 174.299 202.495 175.364ZM223.01 199.424L221.164 189.185L223.391 185.539L225.937 194.631L223.01 199.424Z" fill="#2143FF"/>
<path d="M165.851 204.703L170.871 201.245L172.233 203.221C172.477 200.643 173.93 198.438 176.592 196.604C178.305 195.424 180.228 194.915 182.36 195.078C184.485 195.285 186.228 196.376 187.59 198.353C189.006 200.408 189.409 202.404 188.8 204.339C188.164 206.293 186.963 207.878 185.198 209.094C182.484 210.964 179.932 211.576 177.543 210.929L179.314 213.498C179.985 214.473 180.903 214.987 182.067 215.04C183.23 215.093 184.444 214.684 185.709 213.813C187.791 212.379 189.131 210.348 189.73 207.72L193.942 209.772C193.056 213.337 190.966 216.253 187.672 218.523C185.221 220.211 182.828 221.025 180.493 220.963C178.158 220.901 176.109 219.592 174.348 217.036L165.851 204.703ZM176.918 201.392C175.047 202.681 174.085 204.16 174.03 205.83L175.664 208.201C177.244 208.745 178.969 208.373 180.84 207.084C181.867 206.376 182.542 205.522 182.864 204.523C183.205 203.55 183.066 202.616 182.449 201.72C181.85 200.85 181.035 200.401 180.005 200.373C178.975 200.344 177.946 200.684 176.918 201.392ZM185.863 231.718L188.345 221.615L191.863 219.191L190.488 228.532L185.863 231.718Z" fill="#2143FF"/>
<path d="M131.457 213.153L137.453 212.057L137.885 214.418C139.165 212.167 141.395 210.751 144.574 210.169C146.62 209.795 148.582 210.12 150.461 211.143C152.314 212.203 153.456 213.913 153.888 216.274C154.337 218.729 153.886 220.715 152.537 222.23C151.156 223.751 149.411 224.704 147.302 225.09C144.06 225.683 141.482 225.194 139.568 223.625L140.129 226.694C140.342 227.859 140.969 228.704 142.008 229.23C143.048 229.755 144.323 229.88 145.834 229.604C148.32 229.149 150.376 227.846 151.999 225.695L155 229.294C152.73 232.182 149.627 233.985 145.693 234.704C142.765 235.239 140.249 235 138.144 233.986C136.04 232.972 134.708 230.938 134.15 227.885L131.457 213.153ZM142.908 214.67C140.673 215.079 139.189 216.033 138.455 217.534L138.973 220.367C140.19 221.511 141.916 221.878 144.151 221.47C145.379 221.245 146.345 220.743 147.048 219.964C147.757 219.216 148.014 218.307 147.818 217.237C147.628 216.198 147.069 215.455 146.142 215.006C145.214 214.558 144.136 214.446 142.908 214.67ZM138.633 245.998L145.039 237.8L149.241 237.032L144.157 244.988L138.633 245.998Z" fill="#2143FF"/>
<path d="M96.3286 206.643L102.242 208.126L101.658 210.454C103.754 208.934 106.37 208.567 109.505 209.353C111.523 209.859 113.175 210.966 114.462 212.674C115.711 214.406 116.043 216.436 115.459 218.764C114.852 221.185 113.621 222.806 111.766 223.627C109.879 224.441 107.896 224.587 105.816 224.066C102.619 223.264 100.474 221.753 99.3816 219.533L98.6229 222.559C98.335 223.707 98.5555 224.736 99.2844 225.645C100.013 226.553 101.123 227.194 102.613 227.568C105.065 228.182 107.475 227.846 109.843 226.56L111.085 231.078C107.825 232.767 104.254 233.126 100.374 232.153C97.4877 231.429 95.296 230.17 93.7993 228.377C92.3026 226.583 91.9317 224.18 92.6866 221.17L96.3286 206.643ZM106.127 212.762C103.923 212.209 102.177 212.464 100.887 213.527L100.187 216.32C100.822 217.865 102.242 218.914 104.446 219.466C105.656 219.77 106.743 219.712 107.706 219.294C108.661 218.906 109.27 218.185 109.535 217.13C109.792 216.105 109.59 215.197 108.931 214.405C108.272 213.613 107.337 213.065 106.127 212.762ZM89.2748 239.515L98.4983 234.701L102.642 235.74L94.7222 240.88L89.2748 239.515Z" fill="#2143FF"/>
<path d="M67.2886 186.432L72.0705 190.213L70.5819 192.095C73.1177 191.571 75.6533 192.311 78.1886 194.316C79.8202 195.606 80.8718 197.294 81.3436 199.38C81.7703 201.472 81.2395 203.459 79.7509 205.341C78.2029 207.299 76.4143 208.272 74.3852 208.258C72.3309 208.225 70.4629 207.544 68.7811 206.214C66.1956 204.17 64.8608 201.911 64.7767 199.437L62.8416 201.885C62.1073 202.814 61.8858 203.842 62.1771 204.97C62.4684 206.098 63.2165 207.138 64.4214 208.09C66.4044 209.658 68.7398 210.342 71.4273 210.142L70.7042 214.771C67.0371 214.972 63.6346 213.832 60.4969 211.351C58.1625 209.506 56.6814 207.458 56.0538 205.207C55.4263 202.957 56.075 200.614 58.0002 198.179L67.2886 186.432ZM73.708 196.035C71.9258 194.626 70.2288 194.141 68.6171 194.58L66.8309 196.839C66.7755 198.509 67.6389 200.048 69.4211 201.457C70.4 202.231 71.4143 202.625 72.4639 202.639C73.4936 202.679 74.3459 202.271 75.0207 201.418C75.6757 200.59 75.8654 199.679 75.5898 198.686C75.3143 197.693 74.687 196.809 73.708 196.035ZM47.3529 213.503L57.7396 212.904L61.0907 215.553L51.7583 216.986L47.3529 213.503Z" fill="#2143FF"/>
<path d="M49.0249 156.177L51.8503 161.579L49.7237 162.691C52.2529 163.246 54.2665 164.956 55.7645 167.82C56.7286 169.663 57.0007 171.633 56.581 173.73C56.1182 175.814 54.8234 177.412 52.6967 178.525C50.485 179.682 48.4554 179.84 46.608 179.001C44.7457 178.133 43.3178 176.75 42.324 174.85C40.7964 171.929 40.4983 169.322 41.4297 167.03L38.665 168.476C37.6159 169.024 36.9945 169.873 36.8008 171.022C36.607 172.17 36.8661 173.425 37.5781 174.786C38.7497 177.026 40.6035 178.603 43.1393 179.515L40.5918 183.448C37.1613 182.137 34.5191 179.709 32.6652 176.164C31.2859 173.527 30.7683 171.053 31.1125 168.743C31.4568 166.432 33.0041 164.557 35.7546 163.118L49.0249 156.177ZM50.9721 167.564C49.919 165.551 48.5672 164.416 46.9165 164.16L44.3645 165.495C43.6333 166.997 43.7943 168.754 44.8473 170.767C45.4257 171.873 46.1913 172.646 47.144 173.087C48.0684 173.542 49.0126 173.518 49.9767 173.014C50.9124 172.524 51.4569 171.77 51.61 170.751C51.7631 169.732 51.5505 168.67 50.9721 167.564ZM19.7857 172.771L29.5145 176.458L31.4945 180.243L22.3886 177.748L19.7857 172.771Z" fill="#2143FF"/>
<path d="M44.8075 121.049L45.1601 127.135L42.7641 127.274C44.841 128.821 45.973 131.207 46.1599 134.434C46.2802 136.51 45.7177 138.418 44.4722 140.157C43.1929 141.866 41.3552 142.79 38.9592 142.928C36.4674 143.073 34.5523 142.382 33.2138 140.857C31.8735 139.3 31.1413 137.451 31.0173 135.311C30.8267 132.021 31.6275 129.522 33.4198 127.816L30.305 127.996C29.123 128.064 28.2074 128.582 27.5583 129.549C26.9091 130.517 26.629 131.767 26.7178 133.3C26.864 135.824 27.905 138.024 29.8407 139.899L25.9008 142.435C23.3137 139.828 21.9045 136.528 21.6731 132.535C21.5009 129.564 22.0471 127.096 23.3116 125.132C24.5761 123.167 26.7577 122.095 29.8565 121.916L44.8075 121.049ZM41.8972 132.229C41.7658 129.96 41.0005 128.37 39.6014 127.457L36.7262 127.624C35.4419 128.692 34.8654 130.36 34.9968 132.628C35.069 133.874 35.4486 134.894 36.1357 135.688C36.7908 136.483 37.6614 136.849 38.7476 136.786C39.8018 136.725 40.6084 136.262 41.1672 135.396C41.7261 134.53 41.9694 133.474 41.8972 132.229ZM11.3304 124.143L18.6806 131.506L18.9277 135.771L11.6552 129.75L11.3304 124.143Z" fill="#2143FF"/>
<path d="M55.3878 87.0731L53.2034 92.7643L50.9628 91.9044C52.2188 94.1688 52.2678 96.8097 51.1097 99.8271C50.3644 101.769 49.0662 103.276 47.2152 104.348C45.3458 105.378 43.2908 105.464 41.0501 104.604C38.7199 103.709 37.2588 102.292 36.667 100.351C36.0867 98.3799 36.1806 96.3937 36.9489 94.3921C38.1299 91.3149 39.8884 89.3677 42.2243 88.5505L39.3115 87.4325C38.2061 87.0083 37.1585 87.1032 36.1688 87.7173C35.179 88.3315 34.4089 89.3555 33.8585 90.7895C32.9527 93.1497 32.9958 95.5827 33.9877 98.0885L29.3531 98.7776C28.0687 95.3369 28.1431 91.7493 29.5764 88.0149C30.6427 85.2365 32.1565 83.2125 34.1176 81.943C36.0788 80.6734 38.5083 80.5947 41.4062 81.7069L55.3878 87.0731ZM48.133 96.0625C48.9471 93.9414 48.9045 92.1769 48.0052 90.7692L45.3164 89.7373C43.7062 90.1818 42.494 91.4646 41.6799 93.5858C41.2327 94.7509 41.1588 95.8365 41.4582 96.8426C41.7277 97.8372 42.3704 98.5294 43.3861 98.9193C44.372 99.2977 45.2978 99.2074 46.1636 98.6485C47.0293 98.0896 47.6858 97.2276 48.133 96.0625ZM23.6061 76.1091L27.2728 85.8454L25.742 89.8338L21.5937 81.3522L23.6061 76.1091Z" fill="#2143FF"/>
<path d="M78.947 60.5661L74.6208 64.8609L72.9299 63.1577C73.1468 65.738 72.1084 68.1667 69.8148 70.4438C68.3387 71.9092 66.5367 72.7512 64.4089 72.9697C62.2813 73.143 60.3721 72.3781 58.6812 70.6749C56.9227 68.9035 56.1715 67.0114 56.4277 64.9985C56.7067 62.963 57.6069 61.19 59.1284 59.6795C61.4675 57.3573 63.8699 56.3026 66.3355 56.5152L64.1374 54.301C63.3032 53.4608 62.3088 53.1177 61.1543 53.2719C59.9997 53.4261 58.8774 54.0443 57.7873 55.1265C55.9933 56.9075 55.0348 59.1442 54.9119 61.8364L50.4023 60.5642C50.6419 56.8994 52.181 53.6579 55.0197 50.8398C57.1317 48.7431 59.3423 47.5179 61.6516 47.1643C63.9609 46.8106 66.209 47.7352 68.3959 49.9381L78.947 60.5661ZM68.6438 65.7896C70.2561 64.1889 70.9409 62.5622 70.698 60.9095L68.6689 58.8656C67.018 58.6107 65.3864 59.2836 63.774 60.8843C62.8883 61.7636 62.3757 62.7234 62.2362 63.7637C62.0741 64.7814 62.3763 65.6763 63.1429 66.4484C63.8868 67.1978 64.7682 67.4952 65.787 67.3405C66.8058 67.1858 67.7581 66.6688 68.6438 65.7896ZM54.4571 37.5328L53.8084 47.9165L50.7767 50.9262L50.4716 41.4894L54.4571 37.5328Z" fill="#2143FF"/>
<path d="M110.778 46.1686L105.078 48.3316L104.227 46.0877C103.375 48.5331 101.438 50.3291 98.4167 51.4759C96.472 52.2139 94.4834 52.2498 92.4508 51.5837C90.4368 50.8763 89.0039 49.4007 88.1524 47.1568C87.2668 44.8232 87.3505 42.7892 88.4036 41.0547C89.4866 39.3088 91.0303 38.0555 93.0348 37.2948C96.1164 36.1253 98.7401 36.1393 100.906 37.3367L99.7988 34.4197C99.3787 33.3128 98.61 32.5948 97.4925 32.2659C96.3751 31.937 95.0984 32.045 93.6623 32.59C91.2988 33.487 89.5132 35.1401 88.3055 37.5494L84.7037 34.5524C86.4138 31.3021 89.1386 28.9674 92.8784 27.5481C95.6608 26.4922 98.1786 26.2725 100.432 26.8891C102.685 27.5057 104.363 29.265 105.464 32.167L110.778 46.1686ZM99.2407 46.7479C101.365 45.9417 102.652 44.7344 103.103 43.1259L102.081 40.4332C100.677 39.5287 98.9124 39.4794 96.7882 40.2856C95.6214 40.7284 94.7627 41.3966 94.2119 42.2902C93.6497 43.1538 93.5617 44.0942 93.9477 45.1114C94.3224 46.0987 95.0066 46.729 96.0001 47.0022C96.9937 47.2755 98.0739 47.1907 99.2407 46.7479ZM97.779 15.1635L92.9614 24.3849L88.9674 25.9006L92.5284 17.1562L97.779 15.1635Z" fill="#2143FF"/>
<path d="M146.999 46.1172L140.916 45.7177L141.074 43.3228C139.283 45.1935 136.776 46.0229 133.55 45.8111C131.475 45.6748 129.651 44.8816 128.079 43.4314C126.54 41.9514 125.85 40.014 126.007 37.6191C126.171 35.1285 127.092 33.3129 128.77 32.1725C130.48 31.0341 132.405 30.5352 134.545 30.6757C137.833 30.8917 140.214 31.9942 141.687 33.983L141.892 30.8697C141.969 29.6882 141.568 28.7158 140.688 27.9525C139.808 27.1892 138.602 26.7572 137.069 26.6566C134.547 26.4909 132.236 27.2531 130.137 28.9431L128.105 24.7209C131.01 22.4745 134.459 21.4824 138.45 21.7445C141.42 21.9396 143.802 22.7855 145.595 24.2822C147.389 25.779 148.184 28.0761 147.981 31.1734L146.999 46.1172ZM136.264 41.8524C138.531 42.0013 140.203 41.4377 141.281 40.1617L141.47 37.2878C140.568 35.8817 138.984 35.1042 136.717 34.9553C135.471 34.8735 134.413 35.1247 133.541 35.7088C132.67 36.2609 132.2 37.0798 132.128 38.1655C132.059 39.2192 132.42 40.0767 133.21 40.7379C134.001 41.3991 135.018 41.7706 136.264 41.8524ZM148.052 12.5139L139.84 18.9014L135.577 18.6215L142.448 12.1459L148.052 12.5139Z" fill="#2143FF"/>
<path d="M179.217 60.7601L173.836 57.8948L174.964 55.7765C172.563 56.7455 169.936 56.4705 167.083 54.9514C165.247 53.9738 163.911 52.5007 163.074 50.5323C162.28 48.5507 162.447 46.5007 163.575 44.3823C164.748 42.1792 166.334 40.9029 168.333 40.5534C170.36 40.2189 172.32 40.5556 174.213 41.5633C177.122 43.1125 178.839 45.0963 179.364 47.5148L180.83 44.761C181.387 43.7159 181.421 42.6646 180.933 41.607C180.444 40.5494 179.522 39.6597 178.167 38.9377C175.935 37.7495 173.515 37.4941 170.907 38.1715L170.791 33.4874C174.363 32.6343 177.914 33.1478 181.445 35.0279C184.072 36.4266 185.895 38.177 186.915 40.2789C187.934 42.3809 187.715 44.8017 186.256 47.5415L179.217 60.7601ZM171.184 52.4584C173.19 53.5263 174.946 53.7003 176.453 52.9802L177.807 50.4382C177.563 48.7856 176.438 47.4254 174.433 46.3575C173.331 45.7709 172.263 45.5646 171.228 45.7384C170.208 45.884 169.442 46.4369 168.931 47.3973C168.434 48.3294 168.41 49.2593 168.859 50.187C169.308 51.1147 170.083 51.8718 171.184 52.4584ZM193.993 30.5615L183.88 33.0075L180.11 30.9995L189.036 27.9218L193.993 30.5615Z" fill="#2143FF"/>
<path d="M202.578 87.2308L198.832 82.4215L200.725 80.9467C198.137 80.8531 195.851 79.5314 193.865 76.9815C192.586 75.3406 191.966 73.4508 192.004 71.3121C192.087 69.1791 193.075 67.3751 194.968 65.9004C196.937 64.3666 198.906 63.8475 200.874 64.3429C202.861 64.8635 204.514 65.9696 205.831 67.6611C207.856 70.2614 208.616 72.7727 208.11 75.1952L210.571 73.278C211.505 72.5504 211.965 71.6043 211.95 70.4396C211.935 69.2749 211.456 68.0866 210.512 66.8748C208.958 64.8804 206.853 63.661 204.195 63.2165L205.998 58.8918C209.607 59.5685 212.641 61.4847 215.099 64.6404C216.928 66.9883 217.879 69.3297 217.954 71.6647C218.029 73.9998 216.841 76.121 214.393 78.0283L202.578 87.2308ZM198.625 76.3763C200.022 78.1687 201.555 79.0433 203.224 79.0001L205.497 77.2303C205.947 75.6219 205.475 73.9214 204.079 72.1289C203.312 71.1444 202.42 70.5205 201.404 70.2574C200.413 69.9746 199.488 70.1675 198.63 70.8361C197.797 71.4849 197.396 72.3244 197.428 73.3544C197.459 74.3844 197.859 75.3917 198.625 76.3763ZM228.378 65.6753L218.146 63.7879L215.521 60.4176L224.927 61.2447L228.378 65.6753Z" fill="#2143FF"/>
<path d="M213.093 121.072L211.655 115.148L213.988 114.582C211.667 113.432 210.126 111.287 209.364 108.146C208.873 106.125 209.085 104.147 209.999 102.213C210.951 100.303 212.593 99.0648 214.926 98.4989C217.351 97.9103 219.359 98.2463 220.949 99.5069C222.547 100.799 223.598 102.486 224.104 104.57C224.881 107.773 224.541 110.374 223.084 112.374L226.116 111.639C227.266 111.36 228.074 110.686 228.54 109.618C229.005 108.55 229.056 107.27 228.694 105.777C228.098 103.321 226.68 101.343 224.439 99.8454L227.861 96.6443C230.873 98.7452 232.851 101.739 233.794 105.626C234.496 108.519 234.401 111.044 233.509 113.203C232.617 115.363 230.663 116.808 227.646 117.54L213.093 121.072ZM213.953 109.552C214.488 111.76 215.526 113.187 217.066 113.835L219.865 113.155C220.937 111.874 221.205 110.13 220.67 107.922C220.375 106.709 219.819 105.774 219.001 105.116C218.214 104.451 217.292 104.247 216.234 104.504C215.208 104.753 214.498 105.353 214.103 106.305C213.708 107.257 213.658 108.339 213.953 109.552ZM245.474 112.029L236.923 106.102L235.915 101.951L244.149 106.571L245.474 112.029Z" fill="#2143FF"/>
</svg>
