<svg width="188" height="187" viewBox="0 0 188 187" fill="none" xmlns="http://www.w3.org/2000/svg">
<path d="M143.882 94.4701C143.882 122.34 121.288 144.934 93.4178 144.934C65.5475 144.934 42.9541 122.34 42.9541 94.4701C42.9541 66.5997 65.5475 44.0063 93.4178 44.0063C121.288 44.0063 143.882 66.5997 143.882 94.4701Z" stroke="black" stroke-width="20"/>
<path d="M146.237 113.578L147.676 108.706L149.594 109.273C148.402 107.475 148.187 105.284 148.951 102.701C149.442 101.039 150.421 99.7018 151.888 98.6894C153.373 97.7102 155.075 97.504 156.993 98.0708C158.988 98.6604 160.295 99.7419 160.914 101.315C161.526 102.914 161.579 104.57 161.072 106.284C160.294 108.918 158.961 110.651 157.074 111.484L159.568 112.221C160.514 112.501 161.378 112.353 162.16 111.777C162.942 111.202 163.514 110.301 163.877 109.073C164.474 107.053 164.278 105.035 163.289 103.018L167.094 102.141C168.387 104.914 168.562 107.899 167.617 111.096C166.914 113.474 165.79 115.255 164.244 116.439C162.698 117.623 160.685 117.848 158.205 117.115L146.237 113.578ZM151.671 105.633C151.135 107.448 151.286 108.911 152.126 110.022L154.428 110.702C155.736 110.226 156.659 109.081 157.195 107.265C157.49 106.268 157.48 105.361 157.165 104.545C156.876 103.737 156.296 103.204 155.427 102.947C154.583 102.697 153.82 102.833 153.137 103.355C152.455 103.876 151.966 104.635 151.671 105.633ZM172.123 118.851C171.486 119.219 170.81 119.297 170.094 119.086C169.378 118.874 168.84 118.437 168.479 117.774C168.119 117.112 168.045 116.422 168.256 115.706C168.468 114.99 168.905 114.452 169.568 114.092C170.23 113.732 170.92 113.657 171.636 113.869C172.352 114.081 172.877 114.514 173.212 115.169C173.572 115.832 173.646 116.521 173.435 117.237C173.223 117.953 172.786 118.491 172.123 118.851ZM174.527 110.719C173.89 111.087 173.213 111.165 172.497 110.954C171.781 110.742 171.243 110.305 170.883 109.642C170.515 109.005 170.437 108.329 170.648 107.613C170.86 106.896 171.284 106.355 171.921 105.987C172.584 105.626 173.286 105.556 174.028 105.775C174.744 105.987 175.269 106.42 175.604 107.075C175.964 107.738 176.039 108.427 175.827 109.143C175.615 109.859 175.182 110.384 174.527 110.719Z" fill="#2143FF"/>
<path d="M127.851 137.736L131.719 134.442L133.015 135.965C132.999 133.807 134.016 131.855 136.067 130.108C137.386 128.985 138.937 128.4 140.719 128.353C142.498 128.344 144.036 129.101 145.332 130.624C146.681 132.208 147.185 133.827 146.844 135.484C146.483 137.157 145.622 138.573 144.262 139.732C142.171 141.513 140.108 142.236 138.073 141.903L139.758 143.882C140.398 144.634 141.202 144.982 142.172 144.927C143.141 144.872 144.113 144.43 145.087 143.6C146.691 142.234 147.629 140.437 147.903 138.207L151.569 139.551C151.137 142.581 149.652 145.177 147.114 147.338C145.226 148.946 143.311 149.823 141.37 149.97C139.429 150.117 137.62 149.206 135.943 147.237L127.851 137.736ZM136.744 134.05C135.303 135.278 134.63 136.586 134.727 137.974L136.283 139.802C137.639 140.118 139.037 139.663 140.479 138.435C141.27 137.761 141.757 136.996 141.939 136.141C142.139 135.305 141.944 134.543 141.357 133.852C140.786 133.182 140.073 132.879 139.216 132.943C138.36 133.007 137.536 133.376 136.744 134.05ZM146.652 156.296C145.917 156.256 145.308 155.951 144.824 155.383C144.34 154.814 144.128 154.154 144.188 153.402C144.248 152.651 144.563 152.033 145.131 151.549C145.7 151.064 146.36 150.853 147.112 150.913C147.863 150.973 148.481 151.287 148.965 151.856C149.45 152.424 149.653 153.074 149.575 153.806C149.515 154.558 149.201 155.176 148.632 155.66C148.064 156.144 147.404 156.356 146.652 156.296ZM153.108 150.797C152.373 150.757 151.764 150.453 151.28 149.885C150.796 149.316 150.584 148.656 150.644 147.904C150.684 147.17 150.988 146.56 151.557 146.076C152.125 145.592 152.777 145.37 153.511 145.41C154.263 145.47 154.89 145.795 155.391 146.384C155.875 146.952 156.078 147.602 156.001 148.334C155.941 149.085 155.626 149.703 155.058 150.188C154.489 150.672 153.839 150.875 153.108 150.797Z" fill="#2143FF"/>
<path d="M98.5616 149.525L103.603 148.9L103.849 150.885C105.022 149.074 106.945 148.003 109.618 147.671C111.338 147.458 112.955 147.822 114.469 148.763C115.959 149.733 116.828 151.211 117.074 153.196C117.33 155.26 116.86 156.89 115.665 158.086C114.443 159.286 112.945 159.995 111.172 160.215C108.447 160.553 106.325 160.023 104.808 158.626L105.128 161.206C105.25 162.185 105.73 162.919 106.57 163.406C107.409 163.893 108.464 164.058 109.735 163.9C111.825 163.641 113.598 162.655 115.051 160.944L117.375 164.082C115.348 166.375 112.681 167.727 109.373 168.137C106.912 168.442 104.83 168.122 103.128 167.178C101.425 166.233 100.415 164.477 100.097 161.91L98.5616 149.525ZM108.016 151.336C106.137 151.569 104.856 152.292 104.174 153.505L104.469 155.887C105.427 156.897 106.846 157.285 108.725 157.052C109.757 156.924 110.584 156.553 111.207 155.939C111.832 155.35 112.089 154.607 111.978 153.707C111.87 152.833 111.44 152.188 110.69 151.77C109.94 151.353 109.048 151.208 108.016 151.336ZM104.062 175.365C103.47 174.928 103.128 174.339 103.037 173.598C102.945 172.857 103.131 172.189 103.594 171.594C104.058 170.999 104.66 170.656 105.401 170.564C106.142 170.472 106.81 170.658 107.405 171.121C108 171.585 108.343 172.187 108.435 172.928C108.527 173.669 108.34 174.324 107.873 174.893C107.409 175.487 106.807 175.831 106.066 175.923C105.325 176.015 104.657 175.829 104.062 175.365ZM112.477 174.322C111.886 173.885 111.544 173.296 111.452 172.555C111.36 171.814 111.546 171.146 112.01 170.551C112.447 169.959 113.036 169.617 113.777 169.526C114.518 169.434 115.185 169.606 115.776 170.044C116.371 170.507 116.716 171.123 116.811 171.89C116.903 172.631 116.716 173.286 116.249 173.854C115.785 174.449 115.183 174.793 114.442 174.885C113.701 174.976 113.046 174.789 112.477 174.322Z" fill="#2143FF"/>
<path d="M67.4148 143.284L71.9757 145.521L71.0951 147.317C73.0681 146.443 75.2637 146.599 77.6818 147.785C79.2381 148.548 80.3921 149.738 81.1439 151.354C81.86 152.982 81.7777 154.694 80.897 156.49C79.9811 158.358 78.6956 159.465 77.0406 159.811C75.3616 160.146 73.72 159.92 72.1159 159.133C69.6498 157.924 68.1647 156.319 67.6604 154.32L66.5155 156.654C66.081 157.54 66.0818 158.416 66.5177 159.284C66.9537 160.151 67.7463 160.866 68.8956 161.43C70.787 162.358 72.8096 162.503 74.9633 161.867L75.19 165.765C72.2385 166.574 69.2664 166.245 66.2736 164.777C64.047 163.685 62.4799 162.278 61.5722 160.556C60.6646 158.834 60.7803 156.811 61.9193 154.489L67.4148 143.284ZM74.3355 149.975C72.6356 149.141 71.1679 149.045 69.9325 149.687L68.8757 151.842C69.1247 153.211 70.0992 154.313 71.7991 155.147C72.7328 155.605 73.6284 155.747 74.4857 155.573C75.3313 155.424 75.9537 154.942 76.353 154.128C76.7405 153.338 76.7345 152.563 76.3352 151.802C75.9358 151.042 75.2692 150.433 74.3355 149.975ZM57.872 167.919C57.6162 167.229 57.6528 166.549 57.9815 165.879C58.3103 165.208 58.8316 164.751 59.5453 164.507C60.259 164.263 60.951 164.305 61.6214 164.634C62.2918 164.963 62.7489 165.484 62.9929 166.198C63.2369 166.912 63.1945 167.604 62.8657 168.274C62.5369 168.944 62.0216 169.39 61.3196 169.61C60.6059 169.854 59.9139 169.811 59.2435 169.483C58.5731 169.154 58.116 168.633 57.872 167.919ZM65.4856 171.653C65.2298 170.963 65.2663 170.283 65.5951 169.613C65.9239 168.942 66.4452 168.485 67.1589 168.241C67.8486 167.985 68.5287 168.022 69.1991 168.351C69.8694 168.68 70.3325 169.189 70.5882 169.879C70.8322 170.592 70.7839 171.296 70.4434 171.991C70.1146 172.661 69.5993 173.106 68.8973 173.326C68.1836 173.57 67.4916 173.528 66.8212 173.199C66.1508 172.87 65.7056 172.355 65.4856 171.653Z" fill="#2143FF"/>
<path d="M44.9823 121.163L47.5822 125.528L45.864 126.551C47.994 126.896 49.7483 128.226 51.1267 130.54C52.0138 132.029 52.3311 133.656 52.0786 135.42C51.7895 137.175 50.7858 138.565 49.0676 139.588C47.2806 140.653 45.5992 140.879 44.0234 140.265C42.4339 139.629 41.1819 138.544 40.2675 137.009C38.8618 134.649 38.4936 132.494 39.1629 130.543L36.9292 131.874C36.0815 132.379 35.6036 133.114 35.4954 134.078C35.3871 135.043 35.6606 136.075 36.3157 137.175C37.3938 138.985 39.0089 140.211 41.1609 140.853L39.2226 144.243C36.3077 143.31 33.9973 141.411 32.2914 138.548C31.0221 136.417 30.4775 134.383 30.6574 132.444C30.8373 130.505 32.0383 128.874 34.2606 127.55L44.9823 121.163ZM47.1273 130.548C46.1583 128.921 44.9812 128.039 43.5959 127.902L41.534 129.131C40.9949 130.414 41.2098 131.869 42.1788 133.496C42.7111 134.389 43.3837 134.997 44.1968 135.32C44.9869 135.656 45.7714 135.592 46.5503 135.128C47.3064 134.678 47.7246 134.025 47.805 133.17C47.8855 132.315 47.6596 131.441 47.1273 130.548ZM23.5373 136.592C23.6997 135.875 24.1016 135.325 24.7431 134.943C25.3845 134.561 26.0708 134.462 26.802 134.648C27.5331 134.833 28.0898 135.246 28.4719 135.888C28.854 136.529 28.9525 137.215 28.7672 137.947C28.582 138.678 28.1686 139.234 27.5272 139.617C26.8857 139.999 26.2109 140.09 25.5026 139.891C24.7715 139.706 24.2148 139.293 23.8327 138.651C23.4506 138.01 23.3521 137.324 23.5373 136.592ZM27.8773 143.878C28.0396 143.16 28.4415 142.61 29.083 142.228C29.7245 141.846 30.4108 141.748 31.1419 141.933C31.8594 142.095 32.4093 142.497 32.7914 143.139C33.1735 143.78 33.2834 144.46 33.1211 145.177C32.9359 145.908 32.511 146.472 31.8467 146.867C31.2052 147.25 30.5303 147.341 29.8221 147.142C29.091 146.957 28.5343 146.544 28.1522 145.902C27.77 145.261 27.6784 144.586 27.8773 143.878Z" fill="#2143FF"/>
<path d="M38.2925 90.173L38.0573 95.2476L36.0595 95.155C37.6468 96.6167 38.3782 98.6928 38.2535 101.383C38.1733 103.115 37.5417 104.647 36.3587 105.98C35.1503 107.286 33.5472 107.892 31.5493 107.8C29.4715 107.703 27.9441 106.965 26.9669 105.585C25.991 104.179 25.5444 102.583 25.6271 100.798C25.7542 98.0544 26.6345 96.053 28.2678 94.7939L25.6706 94.6736C24.685 94.6279 23.8813 94.9777 23.2595 95.7231C22.6376 96.4684 22.2971 97.4804 22.2378 98.759C22.1403 100.863 22.8125 102.777 24.2543 104.499L20.7691 106.259C18.8507 103.874 17.9687 101.017 18.123 97.6874C18.2378 95.2101 18.9044 93.2121 20.1226 91.6935C21.3409 90.175 23.242 89.4756 25.8259 89.5953L38.2925 90.173ZM34.9116 99.1862C34.9993 97.2949 34.5028 95.9104 33.4223 95.0328L31.0249 94.9217C29.8678 95.6956 29.2455 97.0282 29.1578 98.9195C29.1097 99.9584 29.3359 100.837 29.8366 101.554C30.3106 102.27 31.0005 102.649 31.9062 102.691C32.7852 102.732 33.4939 102.417 34.0321 101.748C34.5703 101.079 34.8635 100.225 34.9116 99.1862ZM11.8952 91.2322C12.426 90.7229 13.0643 90.4855 13.8102 90.5201C14.556 90.5546 15.183 90.8506 15.6911 91.4081C16.1992 91.9655 16.4359 92.6172 16.4013 93.3631C16.3668 94.1089 16.0708 94.7359 15.5133 95.244C14.9559 95.752 14.3042 95.9888 13.5584 95.9542C12.8125 95.9197 12.1988 95.6243 11.7174 95.0681C11.2093 94.5106 10.9726 93.859 11.0071 93.1131C11.0417 92.3672 11.3377 91.7403 11.8952 91.2322ZM11.5026 99.7031C12.0334 99.1938 12.6718 98.9564 13.4176 98.991C14.1635 99.0255 14.7905 99.3215 15.2985 99.879C15.8078 100.41 16.0452 101.048 16.0106 101.794C15.9761 102.54 15.6934 103.167 15.1626 103.677C14.6051 104.185 13.9402 104.421 13.1677 104.385C12.4218 104.351 11.8081 104.055 11.3267 103.499C10.8186 102.942 10.5819 102.29 10.6164 101.544C10.651 100.798 10.9464 100.185 11.5026 99.7031Z" fill="#2143FF"/>
<path d="M49.6892 60.6314L46.7009 64.7395L45.0835 63.563C45.6048 65.6569 45.0733 67.7929 43.4889 69.971C42.4693 71.3727 41.0988 72.3048 39.3773 72.7673C37.65 73.1926 35.9777 72.817 34.3604 71.6405C32.6783 70.4169 31.8089 68.9602 31.7522 67.2701C31.7112 65.5586 32.2162 63.9803 33.2672 62.5355C34.883 60.3143 36.7191 59.1274 38.7758 58.9747L36.6732 57.4452C35.8753 56.8648 35.0117 56.7147 34.0824 56.995C33.153 57.2753 32.3119 57.933 31.5589 58.9681C30.3197 60.6717 29.8284 62.6391 30.085 64.8702L26.206 64.4229C25.9162 61.3761 26.7517 58.5049 28.7125 55.8093C30.1713 53.8038 31.8272 52.5021 33.68 51.9043C35.5328 51.3065 37.5051 51.7684 39.5968 53.2901L49.6892 60.6314ZM41.9071 66.2977C43.0209 64.7666 43.368 63.3374 42.9486 62.01L41.0078 60.5982C39.6157 60.6079 38.3629 61.3783 37.2491 62.9094C36.6373 63.7504 36.3432 64.6081 36.3666 65.4825C36.3685 66.3413 36.736 67.0373 37.4692 67.5707C38.1809 68.0883 38.9455 68.2158 39.7631 67.9532C40.5806 67.6905 41.2953 67.1387 41.9071 66.2977ZM27.0635 46.9925C27.787 46.8592 28.4506 47.0122 29.0544 47.4514C29.6582 47.8907 30.0189 48.4828 30.1365 49.2278C30.2541 49.9728 30.0932 50.6473 29.654 51.2511C29.2148 51.8549 28.6226 52.2156 27.8776 52.3331C27.1326 52.4507 26.4582 52.2899 25.8544 51.8507C25.2505 51.4114 24.9006 50.8271 24.8046 50.0978C24.6871 49.3528 24.8479 48.6783 25.2871 48.0745C25.7264 47.4707 26.3185 47.11 27.0635 46.9925ZM22.0752 53.8501C22.7986 53.7168 23.4623 53.8698 24.0661 54.309C24.6699 54.7483 25.0306 55.3404 25.1481 56.0854C25.2814 56.8089 25.1284 57.4725 24.6892 58.0763C24.2499 58.6801 23.6686 59.0487 22.9451 59.1819C22.2001 59.2995 21.5149 59.1308 20.8895 58.6759C20.2857 58.2367 19.9358 57.6524 19.8398 56.9231C19.7222 56.178 19.8831 55.5036 20.3223 54.8998C20.7615 54.296 21.3458 53.9461 22.0752 53.8501Z" fill="#2143FF"/>
<path d="M75.0716 42.2994L70.3289 44.1196L69.6123 42.2525C68.9101 44.2929 67.3018 45.7956 64.7873 46.7607C63.1691 47.3818 61.512 47.418 59.8161 46.8692C58.1355 46.286 56.9369 45.0608 56.2203 43.1936C55.475 41.2517 55.5384 39.5564 56.4105 38.1077C57.3076 36.6494 58.5901 35.6002 60.2581 34.96C62.8224 33.9758 65.0088 33.9793 66.8174 34.9704L65.8858 32.543C65.5322 31.6219 64.8894 31.026 63.9572 30.7554C63.025 30.4848 61.9614 30.5788 60.7664 31.0374C58.7996 31.7923 57.3167 33.1755 56.3178 35.187L53.307 32.7007C54.7219 29.9869 56.9853 28.0328 60.0973 26.8384C62.4126 25.9497 64.5102 25.7588 66.3899 26.2656C68.2696 26.7723 69.6729 28.2332 70.5998 30.6481L75.0716 42.2994ZM65.4592 42.8181C67.2268 42.1397 68.2959 41.1296 68.6663 39.7878L67.8064 37.5471C66.6333 36.7977 65.1629 36.7622 63.3953 37.4406C62.4244 37.8133 61.7108 38.3728 61.2546 39.1191C60.7889 39.8406 60.7184 40.6245 61.0433 41.471C61.3586 42.2926 61.9307 42.8157 62.7596 43.0402C63.5884 43.2648 64.4883 43.1908 65.4592 42.8181ZM63.512 18.544C64.1915 18.826 64.665 19.3155 64.9325 20.0125C65.2001 20.7096 65.1805 21.4027 64.8736 22.0917C64.5668 22.7807 64.0649 23.259 63.3678 23.5266C62.6707 23.7941 61.9776 23.7745 61.2886 23.4677C60.5996 23.1608 60.1213 22.6589 59.8538 21.9618C59.5862 21.2647 59.6106 20.5841 59.927 19.92C60.2338 19.231 60.7358 18.7527 61.4329 18.4851C62.1299 18.2176 62.823 18.2372 63.512 18.544ZM55.5951 21.5826C56.2746 21.8645 56.7481 22.354 57.0156 23.0511C57.2832 23.7482 57.2635 24.4412 56.9567 25.1303C56.6748 25.8097 56.1853 26.2832 55.4882 26.5508C54.7911 26.8183 54.1029 26.8111 53.4234 26.5292C52.7344 26.2224 52.2513 25.708 51.9742 24.986C51.7067 24.2889 51.7311 23.6083 52.0474 22.9442C52.3542 22.2552 52.8562 21.7769 53.5533 21.5094C54.2504 21.2418 54.931 21.2662 55.5951 21.5826Z" fill="#2143FF"/>
<path d="M106.771 40.8068L101.808 39.7221L102.235 37.7682C100.528 39.0873 98.3583 39.4593 95.7271 38.8841C94.0337 38.514 92.6293 37.6338 91.5138 36.2435C90.43 34.8329 90.1016 33.1506 90.5287 31.1968C90.9729 29.1647 91.9573 27.7831 93.4819 27.0518C95.0327 26.3262 96.6807 26.1541 98.4262 26.5357C101.11 27.1222 102.934 28.3263 103.901 30.1481L104.456 27.6081C104.667 26.6442 104.457 25.7931 103.827 25.0548C103.197 24.3165 102.256 23.8107 101.006 23.5374C98.9479 23.0875 96.9489 23.4286 95.0092 24.5604L93.8595 20.8289C96.5327 19.3387 99.4975 18.9495 102.754 19.6613C105.177 20.1908 107.034 21.1837 108.326 22.6399C109.619 24.0961 109.989 26.0877 109.436 28.6147L106.771 40.8068ZM98.4546 35.9591C100.304 36.3634 101.752 36.1067 102.799 35.1891L103.312 32.8444C102.743 31.5737 101.534 30.7362 99.6846 30.3319C98.6686 30.1099 97.7649 30.1853 96.9737 30.5583C96.1882 30.9052 95.6986 31.5216 95.505 32.4073C95.3171 33.267 95.5077 34.0184 96.0768 34.6614C96.646 35.3044 97.4386 35.737 98.4546 35.9591ZM110.164 14.607C110.577 15.2159 110.704 15.8851 110.544 16.6145C110.385 17.344 109.988 17.9123 109.353 18.3194C108.718 18.7265 108.036 18.8504 107.306 18.691C106.577 18.5315 106.008 18.1343 105.601 17.4994C105.194 16.8645 105.07 16.1823 105.23 15.4529C105.389 14.7234 105.784 14.1681 106.413 13.7871C107.048 13.3799 107.73 13.2561 108.459 13.4155C109.189 13.5749 109.757 13.9721 110.164 14.607ZM101.88 12.7962C102.293 13.4051 102.419 14.0743 102.26 14.8037C102.1 15.5331 101.703 16.1014 101.068 16.5086C100.459 16.9214 99.7903 17.0481 99.0608 16.8887C98.3314 16.7292 97.7603 16.3451 97.3474 15.7362C96.9403 15.1013 96.8193 14.4061 96.9844 13.6506C97.1439 12.9211 97.5382 12.3659 98.1674 11.9848C98.8023 11.5776 99.4845 11.4538 100.214 11.6132C100.943 11.7727 101.499 12.167 101.88 12.7962Z" fill="#2143FF"/>
<path d="M133.507 55.8447L129.955 52.2137L131.384 50.815C129.233 50.9801 127.215 50.1001 125.332 48.175C124.119 46.936 123.429 45.4294 123.259 43.6549C123.128 41.8809 123.777 40.2945 125.206 38.8958C126.693 37.4412 128.274 36.8267 129.95 37.0524C131.645 37.2971 133.117 38.058 134.366 39.3351C136.287 41.2983 137.152 43.3066 136.96 45.36L138.818 43.5417C139.523 42.8516 139.815 42.0251 139.694 41.062C139.572 40.099 139.064 39.16 138.168 38.2451C136.695 36.7393 134.837 35.9271 132.594 35.8083L133.682 32.0581C136.734 32.28 139.426 33.5822 141.757 35.9648C143.492 37.7374 144.499 39.587 144.78 41.5135C145.061 43.44 144.277 45.3077 142.428 47.1167L133.507 55.8447ZM129.217 47.2273C130.541 48.5806 131.893 49.1611 133.271 48.9687L134.987 47.2902C135.209 45.9161 134.658 44.5523 133.334 43.199C132.607 42.4557 131.81 42.0227 130.944 41.9001C130.097 41.7589 129.349 42.0053 128.701 42.6394C128.072 43.2548 127.819 43.9875 127.942 44.8374C128.065 45.6873 128.49 46.484 129.217 47.2273ZM150.726 35.808C150.737 36.5435 150.475 37.1724 149.941 37.6946C149.408 38.2168 148.764 38.4737 148.01 38.4655C147.255 38.4573 146.617 38.1863 146.095 37.6526C145.573 37.1189 145.316 36.475 145.324 35.7208C145.332 34.9666 145.603 34.3284 146.137 33.8062C146.671 33.284 147.305 33.0364 148.04 33.0632C148.794 33.0715 149.433 33.3424 149.955 33.8761C150.477 34.4098 150.734 35.0538 150.726 35.808ZM144.795 29.7467C144.806 30.4822 144.545 31.1111 144.011 31.6333C143.477 32.1555 142.833 32.4125 142.079 32.4042C141.343 32.4151 140.715 32.1537 140.192 31.62C139.67 31.0863 139.404 30.4516 139.393 29.7161C139.401 28.9619 139.682 28.3144 140.234 27.7735C140.768 27.2513 141.402 27.0037 142.138 27.0306C142.892 27.0388 143.53 27.3097 144.052 27.8434C144.574 28.3771 144.822 29.0115 144.795 29.7467Z" fill="#2143FF"/>
<path d="M147.463 83.3238L146.473 78.3412L148.435 77.9514C146.543 76.9135 145.335 75.0737 144.81 72.432C144.472 70.7319 144.718 69.0927 145.546 67.5143C146.406 65.957 147.816 64.9834 149.778 64.5937C151.818 64.1884 153.478 64.5383 154.758 65.6434C156.043 66.7747 156.86 68.2165 157.208 69.969C157.743 72.663 157.369 74.8172 156.086 76.4315L158.636 75.9249C159.603 75.7326 160.3 75.2001 160.724 74.3272C161.149 73.4544 161.237 72.3903 160.987 71.1348C160.577 69.0685 159.465 67.3727 157.652 66.0472L160.613 63.5015C163.047 65.3559 164.59 67.9179 165.239 71.1873C165.722 73.6198 165.555 75.7193 164.737 77.4859C163.919 79.2526 162.241 80.3879 159.704 80.8919L147.463 83.3238ZM148.582 73.7626C148.951 75.6196 149.765 76.8444 151.024 77.437L153.378 76.9693C154.316 75.9403 154.6 74.4972 154.231 72.6402C154.029 71.6201 153.598 70.822 152.94 70.2459C152.308 69.6646 151.547 69.4623 150.658 69.6389C149.795 69.8104 149.182 70.2855 148.82 71.0643C148.459 71.8431 148.379 72.7425 148.582 73.7626ZM172.834 75.9588C172.441 76.5806 171.879 76.9643 171.146 77.1098C170.414 77.2553 169.734 77.1184 169.107 76.6992C168.48 76.28 168.094 75.7043 167.949 74.9719C167.803 74.2396 167.94 73.5599 168.359 72.9328C168.778 72.3058 169.354 71.9195 170.086 71.774C170.819 71.6285 171.485 71.768 172.086 72.1924C172.713 72.6115 173.099 73.1873 173.245 73.9197C173.39 74.652 173.254 75.3317 172.834 75.9588ZM171.182 67.6413C170.789 68.2631 170.226 68.6468 169.494 68.7923C168.762 68.9378 168.082 68.801 167.455 68.3818C166.833 67.9887 166.449 67.4261 166.304 66.6937C166.158 65.9613 166.282 65.2843 166.675 64.6624C167.094 64.0354 167.683 63.6465 168.442 63.4958C169.174 63.3503 169.841 63.4898 170.442 63.9141C171.069 64.3333 171.455 64.9091 171.6 65.6415C171.746 66.3738 171.606 67.0404 171.182 67.6413Z" fill="#2143FF"/>
</svg>
