<svg width="786" height="1198" viewBox="0 0 786 1198" fill="none" xmlns="http://www.w3.org/2000/svg">
<path d="M1259.27 584.025C1259.36 587.374 1259.41 590.729 1259.44 594.092L1256.94 594.114C1256.96 595.788 1256.97 597.463 1256.97 599.14C1256.97 600.818 1256.96 602.494 1256.94 604.168L1259.44 604.189C1259.41 607.552 1259.36 610.908 1259.27 614.256L1256.77 614.191C1256.68 617.526 1256.57 620.853 1256.42 624.174L1258.92 624.283C1258.77 627.633 1258.6 630.976 1258.4 634.311L1255.9 634.159C1255.7 637.5 1255.47 640.833 1255.2 644.159L1257.7 644.355C1257.43 647.695 1257.14 651.028 1256.82 654.353L1254.34 654.113C1254.02 657.435 1253.67 660.75 1253.29 664.056L1255.78 664.339C1255.4 667.677 1254.99 671.008 1254.55 674.33L1252.07 674.003C1251.63 677.311 1251.17 680.61 1250.68 683.9L1253.15 684.27C1252.65 687.585 1252.13 690.891 1251.58 694.188L1249.11 693.774C1248.56 697.072 1247.98 700.361 1247.37 703.64L1249.82 704.097C1249.21 707.391 1248.57 710.676 1247.9 713.951L1245.45 713.451C1244.78 716.72 1244.09 719.98 1243.37 723.23L1245.81 723.773C1245.08 727.05 1244.32 730.317 1243.53 733.574L1241.1 732.988C1240.32 736.23 1239.51 739.463 1238.67 742.685L1241.09 743.314C1240.25 746.557 1239.38 749.791 1238.48 753.013L1236.07 752.342C1235.17 755.56 1234.25 758.767 1233.3 761.964L1235.69 762.677C1234.74 765.888 1233.75 769.087 1232.74 772.276L1230.36 771.52C1229.35 774.701 1228.31 777.87 1227.25 781.029L1229.62 781.826C1228.55 785.005 1227.45 788.172 1226.33 791.327L1223.97 790.489C1222.86 793.63 1221.71 796.76 1220.54 799.878L1222.88 800.758C1221.7 803.895 1220.49 807.02 1219.26 810.133L1216.93 809.212C1215.71 812.316 1214.45 815.407 1213.17 818.486L1215.48 819.447C1214.19 822.539 1212.88 825.619 1211.54 828.685L1209.24 827.685C1207.91 830.742 1206.55 833.787 1205.16 836.819L1207.43 837.859C1206.04 840.907 1204.62 843.942 1203.17 846.963L1200.92 845.883C1199.48 848.891 1198.01 851.886 1196.52 854.867L1198.76 855.985C1197.26 858.982 1195.73 861.965 1194.18 864.934L1191.97 863.778C1190.42 866.736 1188.85 869.68 1187.26 872.61L1189.46 873.804C1187.86 876.747 1186.23 879.675 1184.58 882.588L1182.41 881.357C1180.76 884.26 1179.09 887.148 1177.4 890.022L1179.56 891.291C1177.86 894.178 1176.13 897.049 1174.38 899.906L1172.25 898.601C1170.51 901.446 1168.74 904.276 1166.95 907.09L1169.06 908.432C1167.27 911.258 1165.45 914.07 1163.6 916.866L1161.51 915.489C1159.68 918.274 1157.82 921.043 1155.93 923.796L1158 925.207C1156.11 927.972 1154.19 930.721 1152.25 933.454L1150.21 932.008C1148.28 934.728 1146.33 937.432 1144.36 940.121L1146.37 941.601C1144.39 944.3 1142.38 946.983 1140.36 949.65L1138.37 948.136C1136.35 950.791 1134.31 953.43 1132.24 956.052L1134.21 957.599C1132.13 960.229 1130.04 962.843 1127.93 965.44L1125.99 963.861C1123.88 966.447 1121.75 969.016 1119.6 971.568L1121.52 973.179C1119.36 975.741 1117.18 978.286 1114.98 980.813L1113.09 979.171C1110.9 981.685 1108.69 984.181 1106.46 986.66L1108.32 988.333C1106.08 990.822 1103.81 993.293 1101.53 995.746L1099.7 994.043C1097.43 996.485 1095.13 998.909 1092.82 1001.32L1094.62 1003.05C1092.3 1005.46 1089.96 1007.85 1087.6 1010.23L1085.83 1008.47C1083.48 1010.83 1081.11 1013.18 1078.72 1015.51L1080.46 1017.3C1078.06 1019.64 1075.64 1021.96 1073.2 1024.26L1071.49 1022.44C1069.06 1024.73 1066.62 1026.99 1064.16 1029.24L1065.84 1031.09C1063.37 1033.35 1060.87 1035.59 1058.36 1037.81L1056.71 1035.93C1054.21 1038.14 1051.69 1040.33 1049.15 1042.5L1050.78 1044.4C1048.23 1046.58 1045.67 1048.73 1043.09 1050.87L1041.5 1048.94C1038.93 1051.07 1036.34 1053.18 1033.73 1055.26L1035.3 1057.22C1032.68 1059.31 1030.05 1061.38 1027.4 1063.44L1025.87 1061.46C1023.24 1063.5 1020.59 1065.52 1017.92 1067.52L1019.42 1069.52C1016.74 1071.53 1014.04 1073.52 1011.33 1075.49L1009.86 1073.47C1007.16 1075.43 1004.44 1077.36 1001.71 1079.28L1003.14 1081.33C1000.4 1083.25 997.647 1085.15 994.874 1087.03L993.472 1084.96C990.71 1086.83 987.931 1088.68 985.137 1090.51L986.506 1092.6C983.705 1094.43 980.888 1096.25 978.055 1098.04L976.719 1095.92C973.902 1097.7 971.07 1099.46 968.222 1101.2L969.525 1103.34C966.666 1105.08 963.791 1106.8 960.9 1108.51L959.632 1106.35C956.759 1108.04 953.87 1109.71 950.966 1111.36L952.201 1113.54C949.292 1115.19 946.368 1116.82 943.43 1118.43L942.23 1116.23C939.303 1117.83 936.361 1119.41 933.404 1120.97L934.569 1123.18C931.608 1124.74 928.632 1126.28 925.642 1127.8L924.512 1125.57C921.541 1127.07 918.555 1128.55 915.556 1130.02L916.651 1132.26C913.639 1133.73 910.614 1135.18 907.575 1136.6L906.515 1134.33C903.496 1135.75 900.463 1137.14 897.417 1138.51L898.441 1140.79C895.39 1142.16 892.327 1143.5 889.25 1144.83L888.262 1142.53C885.197 1143.85 882.119 1145.14 879.028 1146.42L879.98 1148.73C876.886 1150 873.778 1151.26 870.659 1152.48L869.743 1150.16C866.644 1151.38 863.533 1152.57 860.41 1153.75L861.29 1156.09C858.155 1157.27 855.007 1158.42 851.847 1159.55L851.004 1157.2C847.866 1158.32 844.715 1159.43 841.553 1160.5L842.359 1162.87C839.195 1163.95 836.021 1165 832.834 1166.03L832.065 1163.65C828.89 1164.68 825.705 1165.68 822.508 1166.66L823.24 1169.05C820.04 1170.03 816.828 1170.99 813.605 1171.92L812.91 1169.52C809.713 1170.45 806.506 1171.35 803.288 1172.23L803.946 1174.64C800.715 1175.52 797.474 1176.38 794.223 1177.21L793.602 1174.79C790.371 1175.62 787.129 1176.42 783.877 1177.2L784.46 1179.63C781.213 1180.41 777.956 1181.16 774.689 1181.89L774.144 1179.46C770.889 1180.18 767.625 1180.89 764.352 1181.57L764.859 1184.01C761.579 1184.69 758.288 1185.35 754.989 1185.98L754.518 1183.53C751.253 1184.15 747.979 1184.75 744.696 1185.33L745.128 1187.79C741.833 1188.37 738.528 1188.93 735.214 1189.46L734.82 1186.99C731.521 1187.51 728.213 1188.02 724.897 1188.5L725.254 1190.97C721.953 1191.45 718.644 1191.9 715.327 1192.33L715.008 1189.85C711.703 1190.27 708.391 1190.67 705.07 1191.05L705.351 1193.53C702.018 1193.91 698.677 1194.26 695.327 1194.59L695.084 1192.1C691.778 1192.43 688.464 1192.73 685.142 1193L685.349 1195.49C682.018 1195.77 678.679 1196.02 675.334 1196.24L675.165 1193.75C671.832 1193.98 668.492 1194.18 665.145 1194.35L665.276 1196.85C661.942 1197.02 658.602 1197.17 655.255 1197.3L655.161 1194.8C651.837 1194.92 648.506 1195.02 645.168 1195.1L645.224 1197.6C641.874 1197.67 638.517 1197.72 635.154 1197.75L635.136 1195.25C633.461 1195.26 631.784 1195.27 630.105 1195.27C628.427 1195.27 626.75 1195.26 625.074 1195.25L625.056 1197.75C621.693 1197.72 618.336 1197.67 614.986 1197.6L615.042 1195.1C611.704 1195.02 608.373 1194.92 605.049 1194.8L604.955 1197.3C601.608 1197.17 598.268 1197.02 594.934 1196.85L595.065 1194.35C591.718 1194.18 588.378 1193.98 585.045 1193.75L584.876 1196.24C581.531 1196.02 578.192 1195.77 574.862 1195.49L575.068 1193C571.746 1192.73 568.433 1192.43 565.126 1192.1L564.883 1194.59C561.534 1194.26 558.192 1193.91 554.859 1193.53L555.14 1191.05C551.82 1190.67 548.507 1190.27 545.202 1189.85L544.883 1192.33C541.566 1191.9 538.257 1191.45 534.956 1190.97L535.313 1188.5C531.997 1188.02 528.69 1187.51 525.391 1186.99L524.996 1189.46C521.682 1188.93 518.378 1188.37 515.082 1187.79L515.514 1185.33C512.231 1184.75 508.957 1184.15 505.692 1183.53L505.222 1185.98C501.922 1185.35 498.632 1184.69 495.351 1184.01L495.859 1181.57C492.585 1180.89 489.321 1180.18 486.067 1179.45L485.521 1181.89C482.254 1181.16 478.997 1180.41 475.75 1179.63L476.333 1177.2C473.081 1176.42 469.839 1175.62 466.608 1174.79L465.987 1177.21C462.736 1176.38 459.495 1175.52 456.265 1174.64L456.922 1172.23C453.704 1171.35 450.497 1170.45 447.301 1169.52L446.606 1171.92C443.383 1170.99 440.171 1170.03 436.97 1169.05L437.702 1166.66C434.506 1165.68 431.32 1164.68 428.146 1163.65L427.376 1166.03C424.19 1165 421.015 1163.95 417.852 1162.87L418.658 1160.5C415.495 1159.43 412.345 1158.32 409.206 1157.2L408.363 1159.55C405.203 1158.42 402.056 1157.27 398.921 1156.09L399.8 1153.75C396.677 1152.57 393.566 1151.38 390.468 1150.16L389.552 1152.48C386.432 1151.26 383.325 1150 380.23 1148.73L381.183 1146.42C378.092 1145.14 375.014 1143.85 371.949 1142.53L370.961 1144.83C367.884 1143.5 364.82 1142.16 361.77 1140.79L362.794 1138.5C359.747 1137.14 356.714 1135.75 353.695 1134.33L352.635 1136.6C349.596 1135.18 346.571 1133.73 343.56 1132.26L344.655 1130.02C341.655 1128.55 338.67 1127.07 335.699 1125.56L334.568 1127.79C331.578 1126.28 328.603 1124.74 325.641 1123.18L326.807 1120.97C323.85 1119.41 320.908 1117.83 317.981 1116.23L316.781 1118.42C313.842 1116.82 310.918 1115.19 308.01 1113.54L309.244 1111.36C306.34 1109.71 303.452 1108.04 300.579 1106.35L299.311 1108.51C296.42 1106.8 293.545 1105.08 290.686 1103.34L291.988 1101.2C289.14 1099.46 286.308 1097.7 283.492 1095.92L282.156 1098.04C279.323 1096.25 276.505 1094.43 273.705 1092.6L275.074 1090.51C272.279 1088.68 269.501 1086.83 266.739 1084.96L265.336 1087.03C262.564 1085.15 259.807 1083.25 257.068 1081.33L258.503 1079.28C255.769 1077.36 253.053 1075.42 250.353 1073.47L248.885 1075.49C246.171 1073.52 243.473 1071.53 240.794 1069.52L242.293 1067.52C239.624 1065.52 236.973 1063.5 234.339 1061.46L232.807 1063.44C230.158 1061.38 227.526 1059.31 224.913 1057.21L226.476 1055.26C223.87 1053.18 221.282 1051.07 218.712 1048.94L217.118 1050.87C214.538 1048.73 211.977 1046.58 209.434 1044.4L211.059 1042.5C208.522 1040.33 206.003 1038.14 203.504 1035.93L201.848 1037.81C199.336 1035.59 196.843 1033.35 194.37 1031.09L196.055 1029.24C193.592 1026.99 191.148 1024.73 188.723 1022.44L187.008 1024.26C184.569 1021.96 182.15 1019.64 179.751 1017.3L181.495 1015.51C179.104 1013.18 176.733 1010.83 174.382 1008.47L172.609 1010.23C170.248 1007.85 167.908 1005.46 165.588 1003.05L167.39 1001.32C165.076 998.909 162.783 996.485 160.51 994.042L158.68 995.745C156.397 993.292 154.135 990.821 151.894 988.332L153.752 986.659C151.52 984.181 149.31 981.685 147.12 979.171L145.235 980.813C143.034 978.286 140.854 975.741 138.695 973.179L140.607 971.568C138.457 969.016 136.329 966.447 134.223 963.861L132.285 965.44C130.169 962.843 128.076 960.229 126.006 957.599L127.97 956.052C125.906 953.43 123.863 950.791 121.844 948.136L119.854 949.649C117.826 946.983 115.82 944.3 113.837 941.6L115.852 940.12C113.878 937.432 111.926 934.728 109.997 932.008L107.957 933.454C106.02 930.721 104.105 927.972 102.213 925.207L104.277 923.795C102.393 921.042 100.533 918.273 98.6962 915.489L96.6093 916.866C94.7649 914.07 92.9441 911.258 91.1472 908.431L93.257 907.09C91.4678 904.275 89.7024 901.446 87.9611 898.601L85.8288 899.906C84.0801 897.049 82.3556 894.177 80.6554 891.291L82.8095 890.022C81.1169 887.148 79.4485 884.259 77.8047 881.356L75.6293 882.588C73.9795 879.674 72.3543 876.746 70.7541 873.804L72.9503 872.609C71.3569 869.679 69.7883 866.735 68.2447 863.778L66.0284 864.934C64.4789 861.965 62.9546 858.982 61.4557 855.984L63.6916 854.866C62.2007 851.885 60.7351 848.891 59.295 845.883L57.0401 846.962C55.5938 843.941 54.1731 840.907 52.7783 837.859L55.0515 836.819C53.6639 833.787 52.302 830.742 50.9662 827.684L48.6753 828.685C47.3356 825.618 46.0219 822.539 44.7345 819.447L47.0425 818.486C45.7607 815.407 44.5051 812.316 43.2759 809.212L40.9516 810.133C39.7188 807.02 38.5125 803.895 37.333 800.758L39.6731 799.878C38.5008 796.76 37.355 793.63 36.236 790.488L33.881 791.327C32.7571 788.172 31.6601 785.004 30.5903 781.825L32.9597 781.028C31.8969 777.87 30.861 774.7 29.8523 771.519L27.4692 772.275C26.4582 769.087 25.4743 765.887 24.5179 762.677L26.9138 761.963C25.9616 758.767 25.0367 755.559 24.1395 752.341L21.7313 753.013C20.8327 749.79 19.9617 746.557 19.1185 743.313L21.5381 742.684C20.7005 739.462 19.8904 736.23 19.1082 732.987L16.6779 733.573C15.8923 730.317 15.1345 727.05 14.405 723.773L16.8452 723.23C16.1216 719.98 15.4259 716.72 14.7582 713.45L12.3088 713.951C11.6399 710.675 10.9992 707.391 10.3867 704.097L12.8446 703.64C12.2348 700.36 11.6532 697.071 11.1001 693.773L8.63455 694.187C8.08156 690.89 7.55688 687.584 7.06074 684.269L9.5332 683.899C9.04072 680.609 8.57648 677.31 8.14074 674.003L5.66216 674.329C5.2245 671.007 4.81546 667.677 4.43528 664.338L6.91923 664.055C6.54275 660.749 6.19469 657.435 5.87529 654.113L3.38677 654.352C3.06712 651.027 2.77606 647.694 2.51381 644.354L5.00615 644.159C4.74504 640.833 4.51263 637.499 4.30915 634.159L1.81377 634.311C1.61059 630.975 1.43613 627.632 1.29062 624.282L3.78826 624.173C3.64403 620.853 3.52836 617.525 3.44148 614.191L0.942324 614.256C0.855065 610.907 0.796721 607.551 0.76752 604.189L3.26743 604.167C3.25289 602.493 3.24561 600.818 3.24561 599.14C3.24561 597.463 3.25289 595.787 3.26743 594.113L0.767526 594.091C0.796731 590.729 0.855079 587.373 0.942342 584.024L3.44149 584.089C3.52838 580.755 3.64406 577.427 3.78829 574.107L1.29065 573.998C1.43617 570.648 1.61063 567.305 1.81381 563.969L4.30919 564.121C4.51268 560.781 4.74509 557.447 5.0062 554.121L2.51386 553.926C2.77611 550.586 3.06718 547.253 3.38683 543.928L5.87535 544.167C6.19475 540.845 6.54281 537.531 6.9193 534.225L4.43535 533.942C4.81553 530.603 5.22457 527.273 5.66223 523.951L8.14082 524.278C8.57656 520.97 9.0408 517.671 9.53329 514.381L7.06084 514.011C7.55698 510.696 8.08166 507.39 8.63465 504.093L11.1002 504.507C11.6533 501.209 12.2349 497.92 12.8447 494.64L10.3868 494.183C10.9993 490.889 11.6401 487.605 12.3089 484.329L14.7584 484.83C15.426 481.56 16.1218 478.3 16.8454 475.05L14.4051 474.507C15.1347 471.23 15.8924 467.963 16.6781 464.707L19.1084 465.293C19.8906 462.05 20.7006 458.818 21.5382 455.596L19.1186 454.967C19.9619 451.723 20.8329 448.49 21.7315 445.267L24.1396 445.939C25.0369 442.721 25.9618 439.513 26.914 436.317L24.5181 435.603C25.4745 432.393 26.4583 429.193 27.4694 426.005L29.8524 426.761C30.8612 423.58 31.8971 420.41 32.9599 417.252L30.5905 416.455C31.6603 413.276 32.7572 410.109 33.8811 406.953L36.2362 407.792C37.3552 404.65 38.501 401.52 39.6733 398.402L37.3332 397.523C38.5127 394.385 39.719 391.26 40.9517 388.148L43.2761 389.068C44.5052 385.965 45.7609 382.873 47.0427 379.795L44.7347 378.834C46.0221 375.742 47.3357 372.662 48.6755 369.595L50.9664 370.596C52.3022 367.538 53.6641 364.493 55.0517 361.462L52.7784 360.421C54.1733 357.374 55.594 354.339 57.0403 351.318L59.2952 352.398C60.7353 349.39 62.2009 346.395 63.6918 343.414L61.4559 342.296C62.9548 339.299 64.4791 336.315 66.0286 333.346L68.2449 334.503C69.7885 331.545 71.3571 328.601 72.9505 325.671L70.7543 324.476C72.3546 321.534 73.9797 318.606 75.6295 315.692L77.805 316.924C79.4488 314.021 81.1171 311.132 82.8098 308.258L80.6556 306.99C82.3558 304.103 84.0804 301.231 85.8291 298.374L87.9613 299.68C89.7027 296.835 91.4681 294.005 93.2572 291.19L91.1474 289.849C92.9444 287.022 94.7652 284.211 96.6096 281.415L98.6964 282.791C100.533 280.007 102.393 277.238 104.277 274.485L102.214 273.073C104.105 270.309 106.02 267.56 107.958 264.827L109.997 266.273C111.926 263.552 113.878 260.848 115.852 258.16L113.838 256.68C115.82 253.981 117.826 251.298 119.854 248.631L121.844 250.145C123.864 247.489 125.906 244.85 127.97 242.228L126.006 240.682C128.077 238.051 130.17 235.437 132.285 232.841L134.223 234.419C136.33 231.833 138.458 229.264 140.608 226.712L138.696 225.102C140.854 222.539 143.034 219.995 145.235 217.467L147.12 219.109C149.31 216.596 151.521 214.099 153.752 211.621L151.895 209.948C154.136 207.459 156.398 204.988 158.68 202.535L160.511 204.238C162.783 201.796 165.077 199.371 167.391 196.965L165.589 195.232C167.909 192.82 170.249 190.426 172.609 188.05L174.383 189.812C176.734 187.446 179.105 185.098 181.496 182.769L179.751 180.978C182.15 178.641 184.569 176.322 187.008 174.022L188.723 175.841C191.148 173.554 193.592 171.286 196.056 169.038L194.37 167.191C196.844 164.933 199.337 162.694 201.848 160.475L203.504 162.348C206.003 160.139 208.522 157.95 211.059 155.779L209.434 153.88C211.977 151.705 214.538 149.549 217.118 147.414L218.713 149.339C221.282 147.212 223.87 145.105 226.476 143.017L224.913 141.066C227.527 138.972 230.158 136.898 232.808 134.845L234.339 136.821C236.973 134.779 239.625 132.758 242.294 130.756L240.794 128.756C243.474 126.747 246.171 124.758 248.886 122.789L250.353 124.813C253.053 122.855 255.77 120.918 258.504 119.001L257.069 116.954C259.808 115.034 262.564 113.134 265.337 111.255L266.739 113.325C269.501 111.453 272.28 109.602 275.074 107.773L273.705 105.681C276.506 103.847 279.323 102.035 282.156 100.243L283.492 102.356C286.309 100.576 289.141 98.8166 291.989 97.0785L290.686 94.9445C293.545 93.1995 296.42 91.4759 299.311 89.774L300.579 91.9283C303.452 90.2366 306.341 88.5665 309.245 86.918L308.01 84.7439C310.919 83.0927 313.843 81.4631 316.781 79.8555L317.981 82.0487C320.908 80.4474 323.85 78.8679 326.807 77.3104L325.642 75.0985C328.603 73.5387 331.579 72.001 334.569 70.4855L335.699 72.7154C338.67 71.2095 341.656 69.7257 344.655 68.2642L343.56 66.0168C346.572 64.5496 349.597 63.1047 352.636 61.6826L353.696 63.9469C356.715 62.534 359.748 61.1435 362.794 59.7756L361.77 57.495C364.821 56.1255 367.884 54.7786 370.961 53.4545L371.949 55.7509C375.014 54.4321 378.092 53.1359 381.183 51.8628L380.231 49.5512C383.325 48.2766 386.433 47.025 389.552 45.7966L390.468 48.1228C393.567 46.9028 396.677 45.7058 399.801 44.532L398.921 42.1919C402.056 41.0135 405.204 39.8583 408.364 38.7267L409.207 41.0803C412.345 39.9562 415.496 38.8553 418.658 37.7779L417.852 35.4115C421.015 34.3338 424.19 33.2795 427.377 32.2489L428.146 34.6275C431.321 33.6009 434.506 32.5977 437.703 31.6184L436.971 29.228C440.171 28.2474 443.383 27.2906 446.606 26.3577L447.301 28.7591C450.498 27.8338 453.705 26.9321 456.923 26.0543L456.265 23.6424C459.496 22.7612 462.737 21.904 465.988 21.0709L466.609 23.4926C469.84 22.6646 473.082 21.8606 476.334 21.0807L475.751 18.6497C478.998 17.871 482.255 17.1163 485.522 16.3858L486.067 18.8255C489.322 18.0979 492.586 17.3943 495.859 16.715L495.351 14.2672C498.632 13.5865 501.923 12.9301 505.222 12.2982L505.692 14.7536C508.958 14.1284 512.232 13.5274 515.515 12.9506L515.082 10.4883C518.378 9.90937 521.683 9.35485 524.997 8.82495L525.391 11.2936C528.69 10.766 531.998 10.263 535.314 9.78467L534.957 7.31028C538.258 6.8342 541.567 6.3825 544.884 5.95539L545.203 8.43492C548.508 8.00942 551.82 7.60841 555.141 7.23209L554.86 4.74799C558.193 4.37024 561.534 4.01727 564.884 3.68928L565.127 6.17737C568.433 5.85359 571.747 5.55424 575.068 5.27952L574.862 2.78803C578.193 2.51251 581.532 2.26167 584.877 2.03571L585.046 4.53002C588.379 4.3049 591.719 4.10456 595.066 3.92919L594.935 1.43262C598.269 1.25797 601.609 1.108 604.956 0.982884L605.049 3.48114C608.374 3.35687 611.705 3.25722 615.043 3.18238L614.987 0.683009C618.337 0.607889 621.694 0.557668 625.056 0.532534L625.075 3.03246C626.75 3.01994 628.427 3.01367 630.105 3.01367C631.784 3.01367 633.461 3.01995 635.137 3.03247L635.155 0.53254C638.518 0.557678 641.875 0.607904 645.225 0.683029L645.169 3.1824C648.507 3.25725 651.838 3.3569 655.162 3.48117L655.256 0.982916C658.603 1.10803 661.943 1.25801 665.277 1.43266L665.146 3.92924C668.493 4.10461 671.833 4.30496 675.166 4.53008L675.335 2.03576C678.68 2.26173 682.019 2.51258 685.349 2.7881L685.143 5.27959C688.465 5.55432 691.778 5.85367 695.085 6.17746L695.328 3.68936C698.677 4.01735 702.019 4.37033 705.352 4.74808L705.071 7.23218C708.391 7.60851 711.704 8.00952 715.009 8.43502L715.328 5.95549C718.645 6.38261 721.954 6.83431 725.255 7.31039L724.898 9.78478C728.214 10.2631 731.521 10.7662 734.82 11.2937L735.215 8.82507C738.529 9.35497 741.833 9.9095 745.129 10.4885L744.697 12.9508C747.98 13.5275 751.254 14.1286 754.519 14.7538L754.989 12.2984C758.289 12.9302 761.579 13.5866 764.86 14.2673L764.352 16.7152C767.626 17.3944 770.89 18.098 774.144 18.8257L774.69 16.3859C777.957 17.1164 781.214 17.8711 784.461 18.6498L783.878 21.0809C787.13 21.8608 790.372 22.6648 793.603 23.4928L794.224 21.071C797.475 21.9041 800.716 22.7614 803.946 23.6426L803.289 26.0545C806.506 26.9323 809.714 27.834 812.91 28.7592L813.605 26.3578C816.828 27.2908 820.04 28.2476 823.241 29.2282L822.509 31.6185C825.705 32.5979 828.891 33.6011 832.065 34.6277L832.835 32.2491C836.021 33.2797 839.196 34.334 842.359 35.4117L841.553 37.7781C844.716 38.8555 847.866 39.9563 851.005 41.0805L851.848 38.7269C855.008 39.8585 858.155 41.0137 861.29 42.192L860.411 44.5322C863.534 45.706 866.645 46.903 869.743 48.1229L870.659 45.7968C873.779 47.0252 876.886 48.2768 879.981 49.5514L879.028 51.863C882.119 53.1361 885.197 54.4323 888.262 55.7511L889.25 53.4547C892.327 54.7788 895.391 56.1257 898.441 57.4952L897.417 59.7758C900.463 61.1437 903.497 62.5342 906.516 63.9471L907.575 61.6828C910.615 63.105 913.64 64.5498 916.651 66.017L915.556 68.2644C918.556 69.7259 921.541 71.2098 924.512 72.7157L925.643 70.4857C928.633 72.0012 931.608 73.5389 934.57 75.0987L933.404 77.3106C936.361 78.8681 939.303 80.4476 942.23 82.0489L943.43 79.8557C946.369 81.4633 949.293 83.0929 952.201 84.7442L950.967 86.9182C953.87 88.5667 956.759 90.2369 959.632 91.9285L960.9 89.7742C963.791 91.4761 966.666 93.1997 969.525 94.9447L968.223 97.0787C971.071 98.8168 973.903 100.576 976.719 102.357L978.055 100.244C980.888 102.035 983.705 103.848 986.506 105.681L985.137 107.773C987.932 109.603 990.71 111.453 993.472 113.325L994.875 111.255C997.647 113.134 1000.4 115.034 1003.14 116.955L1001.71 119.002C1004.44 120.918 1007.16 122.856 1009.86 124.813L1011.33 122.789C1014.04 124.758 1016.74 126.747 1019.42 128.756L1017.92 130.757C1020.59 132.758 1023.24 134.779 1025.87 136.821L1027.4 134.845C1030.05 136.899 1032.68 138.972 1035.3 141.066L1033.73 143.017C1036.34 145.105 1038.93 147.212 1041.5 149.34L1043.09 147.414C1045.67 149.55 1048.23 151.705 1050.78 153.88L1049.15 155.78C1051.69 157.95 1054.21 160.14 1056.71 162.348L1058.36 160.475C1060.87 162.695 1063.37 164.934 1065.84 167.192L1064.16 169.038C1066.62 171.287 1069.06 173.555 1071.49 175.841L1073.2 174.022C1075.64 176.322 1078.06 178.641 1080.46 180.978L1078.72 182.769C1081.11 185.098 1083.48 187.446 1085.83 189.812L1087.6 188.05C1089.96 190.426 1092.3 192.82 1094.62 195.233L1092.82 196.965C1095.13 199.372 1097.43 201.796 1099.7 204.238L1101.53 202.535C1103.81 204.988 1106.08 207.46 1108.32 209.948L1106.46 211.621C1108.69 214.1 1110.9 216.596 1113.09 219.11L1114.98 217.468C1117.18 219.995 1119.36 222.54 1121.52 225.102L1119.6 226.713C1121.75 229.265 1123.88 231.834 1125.99 234.42L1127.93 232.841C1130.04 235.438 1132.13 238.052 1134.21 240.682L1132.24 242.228C1134.31 244.851 1136.35 247.49 1138.37 250.145L1140.36 248.632C1142.39 251.298 1144.39 253.981 1146.37 256.68L1144.36 258.16C1146.33 260.849 1148.29 263.553 1150.21 266.273L1152.25 264.827C1154.19 267.56 1156.11 270.309 1158 273.074L1155.93 274.485C1157.82 277.238 1159.68 280.007 1161.51 282.792L1163.6 281.415C1165.45 284.211 1167.27 287.023 1169.06 289.849L1166.95 291.191C1168.74 294.005 1170.51 296.835 1172.25 299.68L1174.38 298.375C1176.13 301.232 1177.86 304.103 1179.56 306.99L1177.4 308.259C1179.09 311.133 1180.76 314.021 1182.41 316.924L1184.58 315.693C1186.23 318.606 1187.86 321.534 1189.46 324.477L1187.26 325.671C1188.85 328.601 1190.42 331.545 1191.97 334.503L1194.18 333.347C1195.73 336.316 1197.26 339.299 1198.76 342.296L1196.52 343.414C1198.01 346.395 1199.48 349.39 1200.92 352.398L1203.17 351.319C1204.62 354.34 1206.04 357.374 1207.43 360.422L1205.16 361.462C1206.55 364.494 1207.91 367.539 1209.24 370.597L1211.54 369.596C1212.88 372.662 1214.19 375.742 1215.48 378.834L1213.17 379.795C1214.45 382.874 1215.71 385.965 1216.94 389.069L1219.26 388.148C1220.49 391.261 1221.7 394.386 1222.88 397.523L1220.54 398.403C1221.71 401.521 1222.86 404.651 1223.97 407.792L1226.33 406.954C1227.45 410.109 1228.55 413.276 1229.62 416.455L1227.25 417.253C1228.31 420.411 1229.35 423.58 1230.36 426.761L1232.74 426.006C1233.75 429.194 1234.74 432.393 1235.69 435.604L1233.3 436.318C1234.25 439.514 1235.17 442.721 1236.07 445.939L1238.48 445.268C1239.38 448.49 1240.25 451.724 1241.09 454.968L1238.67 455.597C1239.51 458.819 1240.32 462.051 1241.1 465.294L1243.53 464.707C1244.32 467.964 1245.08 471.231 1245.81 474.508L1243.37 475.051C1244.09 478.301 1244.79 481.561 1245.45 484.83L1247.9 484.33C1248.57 487.605 1249.21 490.89 1249.82 494.184L1247.37 494.641C1247.98 497.921 1248.56 501.209 1249.11 504.507L1251.58 504.094C1252.13 507.391 1252.65 510.697 1253.15 514.011L1250.68 514.381C1251.17 517.672 1251.63 520.971 1252.07 524.278L1254.55 523.952C1254.99 527.273 1255.4 530.604 1255.78 533.943L1253.29 534.225C1253.67 537.532 1254.02 540.846 1254.34 544.168L1256.82 543.929C1257.14 547.254 1257.43 550.586 1257.7 553.926L1255.2 554.122C1255.47 557.448 1255.7 560.781 1255.9 564.122L1258.4 563.97C1258.6 567.306 1258.77 570.649 1258.92 573.999L1256.42 574.107C1256.57 577.428 1256.68 580.756 1256.77 584.09L1259.27 584.025Z" stroke="#2143FF" stroke-width="5" stroke-dasharray="10 10"/>
<path d="M1023.21 599.14C1023.21 805.46 847.33 972.926 630.105 972.926C412.881 972.926 237.001 805.46 237.001 599.14C237.001 392.821 412.881 225.355 630.105 225.355C847.33 225.355 1023.21 392.821 1023.21 599.14Z" stroke="#2143FF" stroke-width="5"/>
</svg>
