<svg width="563" height="279" viewBox="0 0 563 279" fill="none" xmlns="http://www.w3.org/2000/svg">
<path d="M102.176 32.6145C90.0459 30.3321 58.711 11.4545 44.9164 3.72751L5.49504 2.83594V12.6433L12.6301 21.2024L5.49504 28.5133L12.6301 34.9326L6.03018 43.8483L12.6301 49.0195L6.03018 59.3617L12.6301 65.2461L6.03018 74.5185L12.6301 82.8993L6.03018 90.5668L12.6301 99.4826L6.03018 107.863L12.6301 114.996L6.56531 122.663L12.6301 131.758L6.56531 139.96L12.6301 147.449L7.10044 155.117L12.6301 164.567L7.10044 170.987L12.6301 179.546L7.10044 187.57L11.5599 195.416L5.8518 203.262L11.5599 212.178L5.8518 218.597L11.5599 227.513L5.8518 233.754L11.5599 242.848L5.8518 250.159L9.59772 257.469L3.88965 266.207L9.59772 275.301L35.1057 273.696C37.0678 273.696 50.0894 269.417 57.2245 266.207C66.6428 266.207 103.84 250.634 121.262 242.848H422.006C425.217 245.522 476.887 256.816 503.703 261.214C508.876 266.564 517.914 272.686 523.503 274.588L554.005 275.836L559.535 269.238L551.508 259.431L557.216 252.477L550.259 246.236L557.216 236.072L550.259 228.226L557.216 220.202L550.259 211.643L557.216 203.797L549.189 197.021L557.216 188.283L549.189 180.972L557.216 173.127L549.189 164.924L557.216 156.365L549.189 148.341L557.216 141.208L549.189 132.114L557.216 123.733L549.189 114.639L557.216 107.15L549.189 100.552L557.216 92.5283L549.189 85.3957L557.216 78.798L549.189 70.4173L557.216 62.2148L549.189 54.1906L557.216 46.1664L549.189 33.5061L557.216 24.0554L550.259 13.8915V2.83594H517.795C512.8 7.82875 468.8 27.2056 441.449 35.8242C333.412 35.7053 114.305 34.8969 102.176 32.6145Z" stroke="white" stroke-width="5"/>
<ellipse cx="281.623" cy="138.89" rx="164.642" ry="91.4755" fill="#FF8C21"/>
<line x1="24.0488" y1="3.01367" x2="24.0488" y2="273.696" stroke="white" stroke-width="5"/>
<line x1="24.0488" y1="3.01367" x2="24.0488" y2="273.696" stroke="white" stroke-width="5"/>
<line x1="24.0488" y1="3.01367" x2="24.0488" y2="273.696" stroke="white" stroke-width="5"/>
<line x1="31.8975" y1="3.01367" x2="31.8974" y2="273.696" stroke="white" stroke-width="5"/>
<line x1="31.8975" y1="3.01367" x2="31.8974" y2="273.696" stroke="white" stroke-width="5"/>
<line x1="31.8975" y1="3.01367" x2="31.8974" y2="273.696" stroke="white" stroke-width="5"/>
<line x1="40.1025" y1="3.01367" x2="40.1025" y2="273.696" stroke="white" stroke-width="5"/>
<line x1="40.1025" y1="3.01367" x2="40.1025" y2="273.696" stroke="white" stroke-width="5"/>
<line x1="40.1025" y1="3.01367" x2="40.1025" y2="273.696" stroke="white" stroke-width="5"/>
<path d="M540.449 3.01367L540.449 274.765M523.325 3.01367L523.325 274.765M532.244 3.01367L532.244 274.765" stroke="white" stroke-width="5"/>
<path d="M540.449 3.01367L540.449 274.765M523.325 3.01367L523.325 274.765M532.244 3.01367L532.244 274.765" stroke="white" stroke-width="5"/>
<path d="M540.449 3.01367L540.449 274.765M523.325 3.01367L523.325 274.765M532.244 3.01367L532.244 274.765" stroke="white" stroke-width="5"/>
<path d="M52.2568 47.5449V46.3409H55.3858L54.5948 45.5569L55.3158 44.8709L56.9258 46.5019V47.5449H52.2568Z" fill="white"/>
<path d="M51.7634 40.8195L61.8308 46.8359L51.7634 52.8523V40.8195Z" stroke="white" stroke-width="3"/>
<path d="M47.672 66.7499C47.672 64.9259 48.224 63.4139 49.328 62.2139C50.448 61.0139 51.928 60.4139 53.768 60.4139C55.48 60.4139 56.92 60.9899 58.088 62.1419C59.256 63.3099 59.84 64.7899 59.84 66.5819C59.84 68.3259 59.248 69.7499 58.064 70.8539C56.896 71.9579 55.336 72.5099 53.384 72.5099H52.592V64.2539C52.016 64.3659 51.528 64.6779 51.128 65.1899C50.728 65.7019 50.528 66.3579 50.528 67.1579C50.528 67.6059 50.616 68.1179 50.792 68.6939C50.984 69.2859 51.224 69.7339 51.512 70.0379L49.208 71.5979C48.712 71.0379 48.328 70.3179 48.056 69.4379C47.8 68.5739 47.672 67.6779 47.672 66.7499ZM54.992 68.9819C55.504 68.9179 55.96 68.6939 56.36 68.3099C56.776 67.9259 56.984 67.3499 56.984 66.5819C56.984 65.8619 56.784 65.3099 56.384 64.9259C55.984 64.5419 55.52 64.3019 54.992 64.2059V68.9819Z" fill="white"/>
<rect x="476.946" y="95.9141" width="2.47582" height="37.6916" transform="rotate(-90 476.946 95.9141)" fill="white"/>
<rect x="476.946" y="92.8887" width="0.825273" height="37.6916" transform="rotate(-90 476.946 92.8887)" fill="white"/>
<rect x="476.946" y="91.5137" width="1.513" height="37.6916" transform="rotate(-90 476.946 91.5137)" fill="white"/>
<rect x="476.946" y="89.4492" width="0.412637" height="37.6916" transform="rotate(-90 476.946 89.4492)" fill="white"/>
<rect x="476.946" y="84.7734" width="0.412637" height="37.6916" transform="rotate(-90 476.946 84.7734)" fill="white"/>
<rect x="476.946" y="88.4883" width="1.10036" height="37.6916" transform="rotate(-90 476.946 88.4883)" fill="white"/>
<rect x="476.946" y="86.8359" width="1.513" height="37.6916" transform="rotate(-90 476.946 86.8359)" fill="white"/>
<rect x="476.946" y="83.5332" width="3.43864" height="37.6916" transform="rotate(-90 476.946 83.5332)" fill="white"/>
<rect x="476.946" y="79.2695" width="2.06318" height="37.6916" transform="rotate(-90 476.946 79.2695)" fill="white"/>
<rect x="476.946" y="76.6562" width="1.10036" height="37.6916" transform="rotate(-90 476.946 76.6562)" fill="white"/>
<rect x="476.946" y="74.7324" width="0.687728" height="37.6916" transform="rotate(-90 476.946 74.7324)" fill="white"/>
<rect x="476.946" y="68.2676" width="0.687728" height="37.6916" transform="rotate(-90 476.946 68.2676)" fill="white"/>
<rect x="476.946" y="67.0293" width="0.687728" height="37.6916" transform="rotate(-90 476.946 67.0293)" fill="white"/>
<rect x="476.946" y="62.9023" width="0.687728" height="37.6916" transform="rotate(-90 476.946 62.9023)" fill="white"/>
<rect x="476.946" y="59.7402" width="0.687728" height="37.6916" transform="rotate(-90 476.946 59.7402)" fill="white"/>
<rect x="476.946" y="58.5" width="1.23791" height="37.6916" transform="rotate(-90 476.946 58.5)" fill="white"/>
<rect x="476.946" y="56.9902" width="1.513" height="37.6916" transform="rotate(-90 476.946 56.9902)" fill="white"/>
<rect x="476.946" y="54.9238" width="0.550182" height="37.6916" transform="rotate(-90 476.946 54.9238)" fill="white"/>
<rect x="476.946" y="53.8262" width="3.98882" height="37.6916" transform="rotate(-90 476.946 53.8262)" fill="white"/>
<rect x="476.946" y="49.5625" width="0.825273" height="37.6916" transform="rotate(-90 476.946 49.5625)" fill="white"/>
<rect x="476.946" y="47.9121" width="0.550182" height="37.6916" transform="rotate(-90 476.946 47.9121)" fill="white"/>
<rect x="476.946" y="46.8105" width="1.37546" height="37.6916" transform="rotate(-90 476.946 46.8105)" fill="white"/>
<rect x="476.946" y="44.8848" width="0.962819" height="37.6916" transform="rotate(-90 476.946 44.8848)" fill="white"/>
<rect x="476.946" y="43.0957" width="0.550182" height="37.6916" transform="rotate(-90 476.946 43.0957)" fill="white"/>
<rect x="476.946" y="41.9961" width="1.37546" height="37.6916" transform="rotate(-90 476.946 41.9961)" fill="white"/>
<rect x="476.946" y="40.0703" width="0.962819" height="37.6916" transform="rotate(-90 476.946 40.0703)" fill="white"/>
<rect x="476.946" y="38.5566" width="2.20073" height="37.6916" transform="rotate(-90 476.946 38.5566)" fill="white"/>
<rect x="476.946" y="61.666" width="1.37546" height="37.6916" transform="rotate(-90 476.946 61.666)" fill="white"/>
<rect x="476.946" y="65.5176" width="1.78809" height="37.6916" transform="rotate(-90 476.946 65.5176)" fill="white"/>
<rect x="476.946" y="73.4941" width="1.10036" height="37.6916" transform="rotate(-90 476.946 73.4941)" fill="white"/>
<rect x="476.946" y="71.8438" width="1.23791" height="37.6916" transform="rotate(-90 476.946 71.8438)" fill="white"/>
<rect x="476.946" y="70.3301" width="1.513" height="37.6916" transform="rotate(-90 476.946 70.3301)" fill="white"/>
<path d="M23.1543 4.08398L29.5759 4.26273V273.339L23.3327 273.874L23.1543 4.08398Z" fill="#FF8C21"/>
<path d="M31.0029 4.26172L37.7813 4.43987V272.627L31.1912 273.16L31.0029 4.26172Z" fill="#FF8C21"/>
<path d="M524.038 3.19336L531.53 3.37281V274.053L524.216 273.875L524.038 3.19336Z" fill="#FF8C21"/>
<path d="M532.957 3.19336L539.735 3.37317V274.589L536.427 274.499L533.118 274.41L532.957 3.19336Z" fill="#FF8C21"/>
</svg>
