<svg width="551" height="279" viewBox="0 0 551 279" fill="none" xmlns="http://www.w3.org/2000/svg">
<path d="M101.526 33.1536C89.3965 30.8711 58.0615 11.9935 44.267 4.26657L4.84563 3.375V13.1823L11.9807 21.7414L4.84563 29.0523L11.9807 35.4717L5.38076 44.3874L11.9807 49.5585L5.38076 59.9008L11.9807 65.7852L5.38076 75.0576L11.9807 83.4384L5.38076 91.1059L11.9807 100.022L5.38076 108.402L11.9807 115.535L5.91589 123.203L11.9807 132.297L5.91589 140.499L11.9807 147.988L6.45103 155.656L11.9807 165.107L6.45103 171.526L11.9807 180.085L6.45103 188.109L10.9105 195.955L5.20239 203.801L10.9105 212.717L5.20239 219.136L10.9105 228.052L5.20239 234.293L10.9105 243.387L5.20239 250.698L8.94831 258.009L3.24023 266.746L8.94831 275.84L34.4563 274.235C36.4184 274.235 49.44 269.956 56.5751 266.746C65.9934 266.746 103.191 251.173 120.613 243.387H421.357C424.568 246.061 476.237 257.355 503.054 261.753C508.227 267.103 517.264 273.225 522.853 275.127L553.356 276.375L558.886 269.777L550.859 259.97L556.567 253.016L549.61 246.775L556.567 236.611L549.61 228.765L556.567 220.741L549.61 212.182L556.567 204.336L548.54 197.56L556.567 188.822L548.54 181.512L556.567 173.666L548.54 165.463L556.567 156.904L548.54 148.88L556.567 141.747L548.54 132.653L556.567 124.272L548.54 115.178L556.567 107.689L548.54 101.092L556.567 93.0674L548.54 85.9348L556.567 79.3371L548.54 70.9563L556.567 62.7538L548.54 54.7297L556.567 46.7055L548.54 34.0451L556.567 24.5945L549.61 14.4305V3.375H517.145C512.151 8.36782 468.151 27.7447 440.8 36.3632C332.763 36.2444 113.656 35.436 101.526 33.1536Z" stroke="white" stroke-width="5"/>
<ellipse cx="280.973" cy="139.429" rx="164.642" ry="91.4755" fill="#2143FF"/>
<line x1="23.3994" y1="3.55273" x2="23.3994" y2="274.235" stroke="white" stroke-width="5"/>
<line x1="23.3994" y1="3.55273" x2="23.3994" y2="274.235" stroke="white" stroke-width="5"/>
<line x1="23.3994" y1="3.55273" x2="23.3994" y2="274.235" stroke="white" stroke-width="5"/>
<line x1="31.248" y1="3.55273" x2="31.248" y2="274.235" stroke="white" stroke-width="5"/>
<line x1="31.248" y1="3.55273" x2="31.248" y2="274.235" stroke="white" stroke-width="5"/>
<line x1="31.248" y1="3.55273" x2="31.248" y2="274.235" stroke="white" stroke-width="5"/>
<line x1="39.4531" y1="3.55273" x2="39.4531" y2="274.235" stroke="white" stroke-width="5"/>
<line x1="39.4531" y1="3.55273" x2="39.4531" y2="274.235" stroke="white" stroke-width="5"/>
<line x1="39.4531" y1="3.55273" x2="39.4531" y2="274.235" stroke="white" stroke-width="5"/>
<path d="M539.799 3.55273L539.799 275.304M522.675 3.55273L522.675 275.304M531.593 3.55273L531.593 275.304" stroke="white" stroke-width="5"/>
<path d="M539.799 3.55273L539.799 275.304M522.675 3.55273L522.675 275.304M531.593 3.55273L531.593 275.304" stroke="white" stroke-width="5"/>
<path d="M539.799 3.55273L539.799 275.304M522.675 3.55273L522.675 275.304M531.593 3.55273L531.593 275.304" stroke="white" stroke-width="5"/>
<path d="M51.6074 48.084V46.88H54.7364L53.9454 46.096L54.6664 45.41L56.2764 47.041V48.084H51.6074Z" fill="white"/>
<path d="M51.114 41.3586L61.1814 47.375L51.114 53.3914V41.3586Z" stroke="white" stroke-width="3"/>
<path d="M47.0225 67.289C47.0225 65.465 47.5745 63.953 48.6785 62.753C49.7985 61.553 51.2785 60.953 53.1185 60.953C54.8305 60.953 56.2705 61.529 57.4385 62.681C58.6065 63.849 59.1905 65.329 59.1905 67.121C59.1905 68.865 58.5985 70.289 57.4145 71.393C56.2465 72.497 54.6865 73.049 52.7345 73.049H51.9425V64.793C51.3665 64.905 50.8785 65.217 50.4785 65.729C50.0785 66.241 49.8785 66.897 49.8785 67.697C49.8785 68.145 49.9665 68.657 50.1425 69.233C50.3345 69.825 50.5745 70.273 50.8625 70.577L48.5585 72.137C48.0625 71.577 47.6785 70.857 47.4065 69.977C47.1505 69.113 47.0225 68.217 47.0225 67.289ZM54.3425 69.521C54.8545 69.457 55.3105 69.233 55.7105 68.849C56.1265 68.465 56.3345 67.889 56.3345 67.121C56.3345 66.401 56.1345 65.849 55.7345 65.465C55.3345 65.081 54.8705 64.841 54.3425 64.745V69.521Z" fill="white"/>
<rect x="476.297" y="96.4531" width="2.47582" height="37.6916" transform="rotate(-90 476.297 96.4531)" fill="white"/>
<rect x="476.297" y="93.4277" width="0.825273" height="37.6916" transform="rotate(-90 476.297 93.4277)" fill="white"/>
<rect x="476.297" y="92.0527" width="1.513" height="37.6916" transform="rotate(-90 476.297 92.0527)" fill="white"/>
<rect x="476.297" y="89.9883" width="0.412637" height="37.6916" transform="rotate(-90 476.297 89.9883)" fill="white"/>
<rect x="476.297" y="85.3125" width="0.412637" height="37.6916" transform="rotate(-90 476.297 85.3125)" fill="white"/>
<rect x="476.297" y="89.0273" width="1.10036" height="37.6916" transform="rotate(-90 476.297 89.0273)" fill="white"/>
<rect x="476.297" y="87.375" width="1.513" height="37.6916" transform="rotate(-90 476.297 87.375)" fill="white"/>
<rect x="476.297" y="84.0723" width="3.43864" height="37.6916" transform="rotate(-90 476.297 84.0723)" fill="white"/>
<rect x="476.297" y="79.8086" width="2.06318" height="37.6916" transform="rotate(-90 476.297 79.8086)" fill="white"/>
<rect x="476.297" y="77.1953" width="1.10036" height="37.6916" transform="rotate(-90 476.297 77.1953)" fill="white"/>
<rect x="476.297" y="75.2715" width="0.687728" height="37.6916" transform="rotate(-90 476.297 75.2715)" fill="white"/>
<rect x="476.297" y="68.8066" width="0.687728" height="37.6916" transform="rotate(-90 476.297 68.8066)" fill="white"/>
<rect x="476.297" y="67.5684" width="0.687728" height="37.6916" transform="rotate(-90 476.297 67.5684)" fill="white"/>
<rect x="476.297" y="63.4414" width="0.687728" height="37.6916" transform="rotate(-90 476.297 63.4414)" fill="white"/>
<rect x="476.297" y="60.2793" width="0.687728" height="37.6916" transform="rotate(-90 476.297 60.2793)" fill="white"/>
<rect x="476.297" y="59.0391" width="1.23791" height="37.6916" transform="rotate(-90 476.297 59.0391)" fill="white"/>
<rect x="476.297" y="57.5293" width="1.513" height="37.6916" transform="rotate(-90 476.297 57.5293)" fill="white"/>
<rect x="476.297" y="55.4629" width="0.550182" height="37.6916" transform="rotate(-90 476.297 55.4629)" fill="white"/>
<rect x="476.297" y="54.3652" width="3.98882" height="37.6916" transform="rotate(-90 476.297 54.3652)" fill="white"/>
<rect x="476.297" y="50.1016" width="0.825273" height="37.6916" transform="rotate(-90 476.297 50.1016)" fill="white"/>
<rect x="476.297" y="48.4512" width="0.550182" height="37.6916" transform="rotate(-90 476.297 48.4512)" fill="white"/>
<rect x="476.297" y="47.3496" width="1.37546" height="37.6916" transform="rotate(-90 476.297 47.3496)" fill="white"/>
<rect x="476.297" y="45.4238" width="0.962819" height="37.6916" transform="rotate(-90 476.297 45.4238)" fill="white"/>
<rect x="476.297" y="43.6348" width="0.550182" height="37.6916" transform="rotate(-90 476.297 43.6348)" fill="white"/>
<rect x="476.297" y="42.5352" width="1.37546" height="37.6916" transform="rotate(-90 476.297 42.5352)" fill="white"/>
<rect x="476.297" y="40.6094" width="0.962819" height="37.6916" transform="rotate(-90 476.297 40.6094)" fill="white"/>
<rect x="476.297" y="39.0957" width="2.20073" height="37.6916" transform="rotate(-90 476.297 39.0957)" fill="white"/>
<rect x="476.297" y="62.2051" width="1.37546" height="37.6916" transform="rotate(-90 476.297 62.2051)" fill="white"/>
<rect x="476.297" y="66.0566" width="1.78809" height="37.6916" transform="rotate(-90 476.297 66.0566)" fill="white"/>
<rect x="476.297" y="74.0332" width="1.10036" height="37.6916" transform="rotate(-90 476.297 74.0332)" fill="white"/>
<rect x="476.297" y="72.3828" width="1.23791" height="37.6916" transform="rotate(-90 476.297 72.3828)" fill="white"/>
<rect x="476.297" y="70.8691" width="1.513" height="37.6916" transform="rotate(-90 476.297 70.8691)" fill="white"/>
<path d="M22.5049 4.62305L28.9265 4.80179V273.878L22.6833 274.413L22.5049 4.62305Z" fill="#2143FF"/>
<path d="M30.3535 4.80078L37.1319 4.97894V273.166L30.5418 273.7L30.3535 4.80078Z" fill="#2143FF"/>
<path d="M523.389 3.73242L530.881 3.91188V274.592L523.567 274.414L523.389 3.73242Z" fill="#2143FF"/>
<path d="M532.308 3.73242L539.086 3.91223V275.128L535.777 275.039L532.469 274.95L532.308 3.73242Z" fill="#2143FF"/>
</svg>
