<svg width="235" height="482" viewBox="0 0 235 482" fill="none" xmlns="http://www.w3.org/2000/svg">
<line x1="110.844" y1="0.634277" x2="110.844" y2="282.052" stroke="#FF8C21" stroke-width="5" stroke-dasharray="10 10"/>
<path d="M209.427 383.841C209.6 382.058 210.321 380.676 211.589 379.695C212.873 378.716 214.368 378.301 216.074 378.451C217.779 378.601 219.161 379.269 220.22 380.454C221.278 381.64 221.721 383.124 221.548 384.908C221.374 386.707 220.653 388.097 219.384 389.078C218.116 390.059 216.629 390.474 214.924 390.324C213.202 390.172 211.812 389.504 210.754 388.319C209.695 387.133 209.253 385.641 209.427 383.841ZM211.651 384.037C211.55 385.072 211.838 385.917 212.514 386.57C213.205 387.241 214.092 387.625 215.176 387.72C216.244 387.814 217.174 387.591 217.965 387.05C218.772 386.527 219.225 385.747 219.325 384.712C219.424 383.693 219.128 382.848 218.437 382.177C217.761 381.523 216.889 381.149 215.821 381.055C214.738 380.96 213.793 381.174 212.986 381.697C212.195 382.238 211.749 383.018 211.651 384.037Z" fill="#2143FF"/>
<path d="M206.843 397.349C207.357 395.632 208.334 394.406 209.773 393.67C211.227 392.938 212.781 392.797 214.433 393.246C216.085 393.696 217.318 394.595 218.133 395.943C218.948 397.292 219.099 398.825 218.585 400.541C218.066 402.273 217.087 403.507 215.648 404.243C214.209 404.979 212.663 405.122 211.011 404.673C209.344 404.22 208.103 403.319 207.288 401.97C206.473 400.621 206.325 399.081 206.843 397.349ZM208.997 397.935C208.699 398.931 208.82 399.809 209.36 400.569C209.911 401.349 210.712 401.882 211.762 402.167C212.796 402.448 213.756 402.394 214.64 402.005C215.536 401.635 216.133 400.952 216.431 399.956C216.725 398.975 216.596 398.094 216.045 397.315C215.504 396.555 214.717 396.034 213.682 395.753C212.633 395.467 211.66 395.509 210.764 395.879C209.88 396.268 209.291 396.954 208.997 397.935Z" fill="#2143FF"/>
<path d="M201.688 410.057C202.512 408.466 203.702 407.435 205.259 406.965C206.83 406.502 208.391 406.634 209.941 407.362C211.49 408.09 212.544 409.185 213.101 410.648C213.658 412.111 213.525 413.639 212.702 415.23C211.872 416.836 210.678 417.874 209.121 418.344C207.564 418.814 206.01 418.685 204.461 417.957C202.897 417.222 201.836 416.124 201.279 414.661C200.721 413.198 200.858 411.663 201.688 410.057ZM203.709 411.006C203.231 411.93 203.189 412.811 203.583 413.65C203.985 414.51 204.678 415.171 205.663 415.633C206.633 416.089 207.591 416.203 208.536 415.976C209.489 415.77 210.204 415.205 210.682 414.281C211.152 413.372 211.187 412.487 210.785 411.628C210.391 410.789 209.709 410.142 208.739 409.686C207.754 409.223 206.785 409.095 205.833 409.301C204.887 409.528 204.179 410.097 203.709 411.006Z" fill="#2143FF"/>
<path d="M194.102 421.824C195.197 420.406 196.556 419.602 198.177 419.412C199.812 419.231 201.33 419.632 202.731 420.615C204.133 421.599 204.979 422.856 205.27 424.388C205.561 425.92 205.159 427.395 204.063 428.813C202.958 430.243 201.594 431.054 199.973 431.244C198.352 431.434 196.84 431.038 195.439 430.055C194.024 429.062 193.171 427.8 192.88 426.268C192.589 424.736 192.996 423.255 194.102 421.824ZM195.929 423.106C195.293 423.929 195.096 424.786 195.336 425.678C195.58 426.591 196.147 427.36 197.038 427.984C197.916 428.6 198.842 428.879 199.816 428.82C200.793 428.784 201.6 428.354 202.236 427.531C202.862 426.72 203.053 425.859 202.809 424.946C202.568 424.055 202.009 423.301 201.132 422.685C200.241 422.061 199.307 421.766 198.329 421.803C197.355 421.862 196.555 422.296 195.929 423.106Z" fill="#2143FF"/>
<path d="M184.469 432.186C185.79 430.975 187.266 430.413 188.898 430.499C190.541 430.597 191.971 431.248 193.188 432.453C194.404 433.657 195.026 435.038 195.055 436.595C195.083 438.153 194.436 439.537 193.116 440.748C191.783 441.97 190.301 442.538 188.669 442.451C187.037 442.365 185.613 441.719 184.397 440.515C183.169 439.299 182.541 437.912 182.513 436.355C182.485 434.798 183.137 433.408 184.469 432.186ZM186.055 433.757C185.289 434.46 184.949 435.27 185.036 436.188C185.122 437.128 185.552 437.981 186.325 438.747C187.086 439.501 187.953 439.931 188.924 440.038C189.895 440.167 190.763 439.88 191.53 439.177C192.284 438.485 192.619 437.669 192.532 436.729C192.446 435.811 192.021 434.975 191.26 434.221C190.487 433.455 189.615 433.008 188.644 432.879C187.673 432.772 186.81 433.065 186.055 433.757Z" fill="#2143FF"/>
<path d="M173.788 441.701C175.284 440.716 176.83 440.396 178.424 440.744C180.028 441.104 181.332 441.977 182.337 443.363C183.342 444.749 183.733 446.214 183.51 447.758C183.287 449.302 182.427 450.567 180.931 451.552C179.42 452.546 177.868 452.87 176.274 452.523C174.68 452.175 173.38 451.309 172.375 449.923C171.361 448.524 170.965 447.052 171.188 445.508C171.411 443.965 172.278 442.695 173.788 441.701ZM175.098 443.508C174.229 444.08 173.764 444.827 173.701 445.748C173.635 446.691 173.921 447.603 174.56 448.484C175.189 449.352 175.974 449.917 176.914 450.178C177.849 450.461 178.752 450.317 179.62 449.745C180.476 449.182 180.936 448.429 181.003 447.486C181.065 446.564 180.782 445.67 180.152 444.802C179.514 443.921 178.726 443.339 177.791 443.056C176.851 442.794 175.953 442.945 175.098 443.508Z" fill="#2143FF"/>
<path d="M161.074 448.71C162.702 447.963 164.275 447.883 165.79 448.471C167.313 449.074 168.461 450.139 169.234 451.667C170.006 453.194 170.162 454.706 169.7 456.203C169.239 457.699 168.193 458.821 166.565 459.569C164.922 460.324 163.343 460.407 161.827 459.818C160.311 459.23 159.167 458.172 158.394 456.644C157.614 455.102 157.455 453.583 157.917 452.087C158.379 450.59 159.431 449.465 161.074 448.71ZM162.081 450.702C161.136 451.136 160.561 451.805 160.355 452.709C160.142 453.634 160.28 454.582 160.771 455.553C161.255 456.509 161.939 457.189 162.824 457.592C163.701 458.016 164.613 458.011 165.558 457.577C166.488 457.15 167.06 456.474 167.273 455.549C167.479 454.645 167.34 453.715 166.857 452.758C166.366 451.787 165.681 451.09 164.804 450.666C163.919 450.263 163.012 450.275 162.081 450.702Z" fill="#2143FF"/>
<path d="M147.381 453.811C149.102 453.314 150.663 453.472 152.062 454.283C153.466 455.11 154.427 456.339 154.946 457.971C155.464 459.602 155.378 461.125 154.686 462.54C153.994 463.955 152.788 464.911 151.066 465.408C149.329 465.909 147.761 465.754 146.362 464.943C144.963 464.131 144.004 462.91 143.485 461.278C142.962 459.631 143.046 458.1 143.738 456.686C144.429 455.271 145.644 454.313 147.381 453.811ZM148.057 455.938C147.057 456.227 146.385 456.804 146.039 457.669C145.683 458.555 145.669 459.516 145.999 460.553C146.323 461.574 146.889 462.352 147.696 462.884C148.493 463.437 149.391 463.569 150.39 463.281C151.374 462.997 152.044 462.412 152.4 461.527C152.746 460.661 152.757 459.718 152.432 458.696C152.103 457.659 151.54 456.864 150.743 456.312C149.936 455.779 149.041 455.655 148.057 455.938Z" fill="#2143FF"/>
<path d="M133.024 456.938C134.798 456.69 136.313 457.067 137.569 458.071C138.826 459.091 139.585 460.447 139.846 462.139C140.106 463.831 139.786 465.33 138.886 466.635C137.987 467.939 136.649 468.716 134.874 468.964C133.084 469.214 131.561 468.837 130.306 467.834C129.051 466.83 128.293 465.482 128.032 463.79C127.77 462.082 128.088 460.575 128.988 459.27C129.888 457.965 131.233 457.188 133.024 456.938ZM133.363 459.144C132.333 459.288 131.581 459.764 131.107 460.574C130.619 461.401 130.458 462.352 130.623 463.428C130.786 464.487 131.225 465.339 131.939 465.982C132.64 466.643 133.505 466.902 134.535 466.758C135.549 466.616 136.3 466.132 136.788 465.304C137.262 464.495 137.418 463.56 137.255 462.501C137.089 461.426 136.656 460.557 135.956 459.896C135.241 459.253 134.377 459.002 133.363 459.144Z" fill="#2143FF"/>
<path d="M117.947 458.07C119.739 458.076 121.176 458.665 122.26 459.837C123.344 461.025 123.882 462.474 123.876 464.186C123.869 465.898 123.32 467.337 122.228 468.501C121.135 469.665 119.693 470.244 117.901 470.238C116.093 470.232 114.647 469.643 113.564 468.471C112.48 467.3 111.941 465.858 111.948 464.146C111.954 462.418 112.504 460.972 113.596 459.808C114.688 458.643 116.139 458.064 117.947 458.07ZM117.938 460.302C116.898 460.299 116.081 460.664 115.486 461.398C114.875 462.148 114.568 463.067 114.564 464.155C114.56 465.227 114.86 466.132 115.466 466.87C116.055 467.624 116.87 468.003 117.91 468.006C118.933 468.01 119.751 467.636 120.362 466.886C120.956 466.152 121.256 465.25 121.26 464.178C121.264 463.09 120.971 462.169 120.382 461.415C119.777 460.676 118.962 460.306 117.938 460.302Z" fill="#2143FF"/>
<path d="M103.208 457.163C104.982 457.417 106.316 458.198 107.211 459.506C108.104 460.829 108.417 462.337 108.15 464.028C107.883 465.719 107.121 467.064 105.862 468.064C104.603 469.063 103.086 469.436 101.312 469.182C99.5227 468.926 98.1803 468.144 97.2852 466.836C96.3901 465.528 96.0759 464.028 96.3426 462.337C96.6118 460.63 97.3758 459.277 98.6348 458.277C99.8937 457.278 101.418 456.906 103.208 457.163ZM102.86 459.367C101.831 459.22 100.966 459.468 100.265 460.111C99.5459 460.768 99.1017 461.633 98.9322 462.708C98.7652 463.767 98.9253 464.703 99.4125 465.516C99.8814 466.343 100.631 466.83 101.66 466.977C102.674 467.123 103.54 466.867 104.259 466.21C104.96 465.567 105.394 464.716 105.561 463.657C105.73 462.582 105.58 461.632 105.111 460.805C104.624 459.992 103.874 459.513 102.86 459.367Z" fill="#2143FF"/>
<path d="M88.767 454.247C90.487 454.75 91.6903 455.71 92.3767 457.127C93.0583 458.559 93.1369 460.09 92.6124 461.72C92.0879 463.35 91.1245 464.568 89.7224 465.374C88.3202 466.181 86.7591 466.333 85.0391 465.83C83.3037 465.323 82.0928 464.361 81.4063 462.944C80.7198 461.527 80.6388 460.003 81.1633 458.374C81.6927 456.729 82.6585 455.503 84.0606 454.696C85.4628 453.89 87.0316 453.74 88.767 454.247ZM88.0831 456.372C87.0849 456.08 86.1889 456.202 85.3952 456.736C84.5812 457.281 84.0076 458.072 83.6743 459.108C83.3458 460.128 83.3607 461.074 83.7188 461.945C84.0566 462.827 84.7247 463.414 85.7229 463.706C86.7058 463.993 87.6042 463.864 88.4182 463.319C89.2119 462.784 89.773 462.007 90.1014 460.986C90.4347 459.95 90.4325 458.992 90.0946 458.11C89.7365 457.238 89.066 456.659 88.0831 456.372Z" fill="#2143FF"/>
<path d="M74.9361 449.342C76.562 450.095 77.6031 451.221 78.0595 452.719C78.5085 454.231 78.344 455.749 77.5659 457.274C76.7878 458.799 75.6397 459.853 74.1217 460.436C72.6036 461.019 71.0317 460.934 69.4057 460.18C67.7653 459.42 66.7169 458.291 66.2606 456.793C65.8042 455.296 65.9651 453.784 66.7432 452.259C67.5286 450.72 68.6803 449.659 70.1983 449.076C71.7164 448.493 73.2956 448.582 74.9361 449.342ZM73.9216 451.33C72.978 450.893 72.0704 450.877 71.1987 451.284C70.3053 451.698 69.6113 452.39 69.1168 453.359C68.6296 454.314 68.4945 455.247 68.7117 456.158C68.907 457.077 69.4765 457.755 70.4202 458.192C71.3493 458.623 72.2605 458.631 73.154 458.217C74.0256 457.81 74.7051 457.129 75.1923 456.174C75.6868 455.205 75.8364 454.261 75.641 453.342C75.4239 452.431 74.8507 451.76 73.9216 451.33Z" fill="#2143FF"/>
<path d="M62.049 442.489C63.5422 443.48 64.3976 444.748 64.6152 446.292C64.8233 447.85 64.4224 449.32 63.4124 450.702C62.4025 452.085 61.0997 452.947 59.504 453.288C57.9084 453.63 56.3639 453.305 54.8707 452.314C53.3641 451.315 52.5021 450.043 52.2845 448.498C52.0669 446.954 52.4631 445.49 53.4731 444.108C54.4925 442.712 55.8 441.844 57.3957 441.502C58.9913 441.161 60.5424 441.49 62.049 442.489ZM60.7323 444.292C59.8657 443.717 58.9686 443.563 58.0411 443.83C57.0909 444.101 56.2948 444.676 55.653 445.554C55.0206 446.42 54.7406 447.318 54.813 448.248C54.8627 449.183 55.3208 449.937 56.1874 450.512C57.0407 451.078 57.9425 451.226 58.8927 450.955C59.8202 450.688 60.6002 450.122 61.2326 449.256C61.8744 448.377 62.1705 447.471 62.1209 446.536C62.0484 445.606 61.5856 444.858 60.7323 444.292Z" fill="#2143FF"/>
<path d="M51.1658 433.098C52.4821 434.314 53.1234 435.7 53.0896 437.258C53.0445 438.826 52.4115 440.21 51.1906 441.41C49.9697 442.61 48.5432 443.251 46.9111 443.331C45.279 443.412 43.8047 442.844 42.4884 441.628C41.1604 440.401 40.5132 439.009 40.547 437.452C40.5807 435.895 41.208 434.517 42.4289 433.316C43.6612 432.105 45.0934 431.459 46.7255 431.379C48.3577 431.298 49.8378 431.871 51.1658 433.098ZM49.5741 434.663C48.8102 433.957 47.9484 433.661 46.9886 433.775C46.0058 433.89 45.1264 434.329 44.3505 435.091C43.586 435.843 43.1646 436.683 43.0864 437.612C42.985 438.54 43.3162 439.358 44.0801 440.063C44.8323 440.758 45.6998 441.048 46.6827 440.934C47.6424 440.82 48.5045 440.387 49.269 439.635C50.0449 438.872 50.4836 438.027 50.585 437.098C50.6632 436.169 50.3263 435.358 49.5741 434.663Z" fill="#2143FF"/>
<path d="M41.3829 422.903C42.4784 424.321 42.8807 425.796 42.5897 427.328C42.2856 428.869 41.4328 430.131 40.0313 431.114C38.6298 432.098 37.1184 432.494 35.4971 432.304C33.8757 432.114 32.5173 431.31 31.4218 429.892C30.3164 428.461 29.9092 426.98 30.2003 425.448C30.4913 423.916 31.3375 422.658 32.739 421.675C34.1536 420.683 35.6716 420.282 37.2929 420.472C38.9142 420.662 40.2775 421.473 41.3829 422.903ZM39.5557 424.185C38.9199 423.362 38.1198 422.928 37.1553 422.882C36.168 422.833 35.229 423.121 34.3383 423.745C33.4607 424.361 32.9066 425.121 32.6758 426.025C32.4221 426.925 32.6131 427.787 33.2489 428.61C33.875 429.42 34.6816 429.85 35.669 429.899C36.6334 429.945 37.5544 429.66 38.432 429.044C39.3227 428.419 39.8948 427.657 40.1485 426.756C40.3793 425.853 40.1817 424.996 39.5557 424.185Z" fill="#2143FF"/>
<path d="M33.5771 411.245C34.4004 412.837 34.5333 414.364 33.9759 415.827C33.4041 417.297 32.3434 418.396 30.7938 419.124C29.2442 419.852 27.6909 419.981 26.1339 419.511C24.5768 419.041 23.3867 418.01 22.5634 416.418C21.7328 414.812 21.5962 413.278 22.1536 411.815C22.7109 410.352 23.7644 409.257 25.314 408.529C26.8781 407.794 28.4386 407.662 29.9957 408.132C31.5527 408.602 32.7465 409.64 33.5771 411.245ZM31.5569 412.194C31.0791 411.271 30.3711 410.702 29.433 410.489C28.473 410.269 27.5006 410.39 26.5158 410.853C25.5455 411.308 24.8669 411.963 24.4801 412.816C24.0714 413.661 24.1059 414.546 24.5837 415.47C25.0541 416.379 25.7693 416.944 26.7293 417.164C27.6675 417.377 28.6217 417.256 29.592 416.8C30.5768 416.338 31.2735 415.684 31.6822 414.838C32.0691 413.985 32.0273 413.104 31.5569 412.194Z" fill="#2143FF"/>
<path d="M28.1289 398.438C28.6356 400.157 28.4787 401.689 27.658 403.035C26.822 404.384 25.577 405.281 23.9233 405.723C22.2695 406.166 20.7246 406.017 19.2887 405.275C17.8528 404.534 16.8815 403.303 16.3748 401.584C15.8636 399.85 16.0183 398.31 16.8389 396.965C17.6595 395.619 18.8967 394.725 20.5505 394.282C22.2197 393.835 23.7723 393.983 25.2082 394.724C26.6441 395.466 27.6177 396.704 28.1289 398.438ZM25.9729 399.015C25.6788 398.018 25.0926 397.33 24.2142 396.952C23.3159 396.564 22.3412 396.51 21.2902 396.791C20.2547 397.069 19.4674 397.594 18.9283 398.367C18.3693 399.13 18.2368 400.01 18.5309 401.007C18.8204 401.989 19.4144 402.675 20.3127 403.064C21.1911 403.441 22.148 403.491 23.1836 403.214C24.2346 402.933 25.0396 402.411 25.5986 401.649C26.1376 400.875 26.2624 399.997 25.9729 399.015Z" fill="#2143FF"/>
<path d="M25.3292 384.964C25.4942 386.748 25.0448 388.231 23.9811 389.412C22.9014 390.594 21.5085 391.257 19.8025 391.401C18.0965 391.544 16.6115 391.123 15.3474 390.137C14.0834 389.151 13.3688 387.766 13.2038 385.982C13.0374 384.182 13.486 382.691 14.5498 381.51C15.6135 380.329 16.9984 379.666 18.7044 379.523C20.4263 379.379 21.9193 379.799 23.1834 380.785C24.4475 381.77 25.1627 383.163 25.3292 384.964ZM23.105 385.151C23.0093 384.115 22.5674 383.333 21.7795 382.805C20.9742 382.263 20.0294 382.037 18.9452 382.128C17.877 382.218 17.0041 382.596 16.3267 383.263C15.6318 383.916 15.3323 384.76 15.428 385.795C15.5223 386.815 15.9721 387.596 16.7774 388.138C17.5654 388.666 18.4935 388.885 19.5617 388.796C20.6459 388.705 21.5354 388.333 22.2303 387.681C22.9077 387.014 23.1993 386.17 23.105 385.151Z" fill="#2143FF"/>
<path d="M25.2784 370.967C25.09 372.749 24.3572 374.125 23.0802 375.095C21.7872 376.064 20.2887 376.467 18.5845 376.303C16.8803 376.139 15.5041 375.461 14.4559 374.267C13.4076 373.074 12.9776 371.586 13.166 369.804C13.3561 368.006 14.0897 366.622 15.3667 365.651C16.6438 364.681 18.1344 364.277 19.8385 364.441C21.5586 364.606 22.9428 365.286 23.9911 366.479C25.0393 367.673 25.4684 369.169 25.2784 370.967ZM23.0566 370.753C23.1659 369.719 22.8854 368.872 22.215 368.213C21.5303 367.537 20.6465 367.147 19.5635 367.043C18.4964 366.94 17.5646 367.156 16.768 367.69C15.9572 368.207 15.4972 368.983 15.3878 370.017C15.2802 371.035 15.5687 371.883 16.2533 372.559C16.9237 373.218 17.7924 373.599 18.8595 373.701C19.9426 373.805 20.8895 373.599 21.7003 373.082C22.4968 372.548 22.9489 371.772 23.0566 370.753Z" fill="#2143FF"/>
<path d="M28.0669 357.192C27.5311 358.903 26.5389 360.117 25.0902 360.835C23.6261 361.55 22.0707 361.673 20.424 361.204C18.7774 360.736 17.555 359.822 16.7569 358.464C15.9588 357.107 15.8276 355.573 16.3633 353.863C16.9039 352.137 17.8985 350.915 19.3472 350.197C20.7959 349.478 22.3436 349.353 23.9903 349.822C25.6523 350.295 26.8824 351.21 27.6805 352.568C28.4786 353.926 28.6074 355.467 28.0669 357.192ZM25.9201 356.582C26.231 355.589 26.121 354.71 25.5901 353.944C25.0486 353.158 24.2546 352.616 23.2081 352.318C22.1771 352.025 21.2167 352.067 20.327 352.446C19.4267 352.805 18.8211 353.481 18.5101 354.473C18.204 355.451 18.3217 356.332 18.8632 357.118C19.3941 357.884 20.1751 358.414 21.2062 358.708C22.2526 359.005 23.226 358.975 24.1263 358.616C25.016 358.237 25.6139 357.559 25.9201 356.582Z" fill="#2143FF"/>
<path d="M33.2604 344.77C32.418 346.351 31.2153 347.368 29.6524 347.82C28.075 348.265 26.5158 348.114 24.9746 347.369C23.4334 346.623 22.3928 345.516 21.8528 344.047C21.3128 342.578 21.4641 341.053 22.3065 339.472C23.1564 337.876 24.3629 336.852 25.9258 336.4C27.4887 335.949 29.0408 336.096 30.582 336.841C32.1376 337.593 33.1854 338.704 33.7254 340.173C34.2654 341.642 34.1104 343.174 33.2604 344.77ZM31.2511 343.798C31.74 342.88 31.7924 342 31.4081 341.157C31.0169 340.293 30.3316 339.624 29.3522 339.15C28.3872 338.683 27.4304 338.558 26.4821 338.774C25.5268 338.969 24.8047 339.525 24.3158 340.443C23.8344 341.347 23.7893 342.231 24.1804 343.095C24.5647 343.938 25.2393 344.593 26.2044 345.06C27.1838 345.534 28.1512 345.673 29.1065 345.478C30.0548 345.262 30.7697 344.702 31.2511 343.798Z" fill="#2143FF"/>
<path d="M40.9239 333.094C39.8122 334.499 38.4446 335.288 36.821 335.46C35.1844 335.623 33.6708 335.205 32.2803 334.206C30.8899 333.207 30.0577 331.94 29.784 330.406C29.5103 328.871 29.9293 327.401 31.041 325.995C32.1626 324.577 33.5352 323.782 35.1588 323.61C36.7824 323.438 38.2894 323.852 39.6799 324.85C41.0834 325.858 41.922 327.13 42.1957 328.665C42.4694 330.199 42.0455 331.676 40.9239 333.094ZM39.1111 331.792C39.7562 330.976 39.9635 330.121 39.733 329.228C39.4994 328.312 38.9408 327.537 38.0571 326.902C37.1864 326.277 36.2636 325.988 35.2886 326.035C34.3106 326.061 33.499 326.482 32.8538 327.297C32.2186 328.1 32.0178 328.96 32.2514 329.875C32.4819 330.769 33.0325 331.529 33.9032 332.154C34.7869 332.789 35.7177 333.093 36.6958 333.068C37.6707 333.02 38.4758 332.595 39.1111 331.792Z" fill="#2143FF"/>
<path d="M50.7537 322.692C49.4199 323.888 47.9376 324.435 46.3069 324.33C44.6649 324.215 43.2423 323.548 42.039 322.33C40.8357 321.113 40.2285 319.725 40.2173 318.168C40.2062 316.61 40.8675 315.233 42.2012 314.036C43.5469 312.829 45.0351 312.277 46.6659 312.381C48.2966 312.485 49.7136 313.146 50.9169 314.364C52.1315 315.593 52.7443 316.987 52.7555 318.544C52.7666 320.102 52.0993 321.484 50.7537 322.692ZM49.1849 321.104C49.9589 320.409 50.3076 319.603 50.2309 318.684C50.1549 317.743 49.7346 316.885 48.9698 316.111C48.2164 315.349 47.3547 314.909 46.3849 314.791C45.4157 314.652 44.5441 314.929 43.77 315.624C43.0079 316.308 42.6648 317.12 42.7408 318.061C42.8175 318.98 43.2326 319.821 43.986 320.583C44.7508 321.357 45.6177 321.814 46.5869 321.954C47.5567 322.071 48.4227 321.788 49.1849 321.104Z" fill="#2143FF"/>
<path d="M61.5258 313.262C60.0189 314.232 58.4703 314.535 56.88 314.171C55.2805 313.794 53.9858 312.907 52.9959 311.51C52.0061 310.113 51.6309 308.644 51.8705 307.102C52.1101 305.56 52.9833 304.304 54.4902 303.335C56.0106 302.356 57.5659 302.049 59.1562 302.413C60.7464 302.777 62.0365 303.658 63.0264 305.055C64.0255 306.465 64.4053 307.94 64.1657 309.482C63.9261 311.024 63.0462 312.284 61.5258 313.262ZM60.2352 311.441C61.1098 310.879 61.5832 310.137 61.6555 309.216C61.7319 308.273 61.4556 307.358 60.8265 306.47C60.2067 305.596 59.4284 305.023 58.4915 304.751C57.5589 304.458 56.6553 304.593 55.7808 305.156C54.9197 305.71 54.4509 306.458 54.3744 307.401C54.3022 308.322 54.5759 309.22 55.1958 310.094C55.8249 310.982 56.6057 311.572 57.5383 311.865C58.4752 312.137 59.3741 311.996 60.2352 311.441Z" fill="#2143FF"/>
<path d="M74.17 306.413C72.534 307.144 70.9614 307.208 69.4524 306.604C67.9363 305.985 66.8003 304.908 66.0444 303.372C65.2885 301.836 65.1494 300.322 65.627 298.83C66.1047 297.338 67.1615 296.226 68.7976 295.495C70.4483 294.758 72.0281 294.691 73.5372 295.295C75.0462 295.899 76.1787 296.969 76.9345 298.505C77.6975 300.056 77.8402 301.577 77.3625 303.069C76.8849 304.561 75.8207 305.675 74.17 306.413ZM73.1846 304.41C74.1341 303.986 74.7166 303.323 74.9321 302.421C75.1552 301.498 75.0265 300.549 74.5462 299.573C74.0729 298.611 73.3962 297.924 72.5161 297.511C71.6436 297.078 70.7326 297.074 69.7831 297.498C68.8482 297.916 68.2692 298.586 68.0461 299.509C67.8306 300.411 67.9595 301.343 68.4328 302.305C68.9132 303.281 69.5896 303.985 70.4621 304.419C71.3422 304.831 72.2497 304.828 73.1846 304.41Z" fill="#2143FF"/>
<path d="M87.6965 301.457C85.9714 301.942 84.4124 301.774 83.0195 300.953C81.6218 300.117 80.6697 298.881 80.1632 297.245C79.6567 295.61 79.7543 294.087 80.4561 292.677C81.1579 291.267 82.3713 290.319 84.0964 289.834C85.8368 289.344 87.4035 289.51 88.7965 290.331C90.1894 291.152 91.1391 292.38 91.6457 294.016C92.1569 295.666 92.0617 297.197 91.3599 298.607C90.6581 300.017 89.437 300.967 87.6965 301.457ZM87.0361 299.325C88.0373 299.043 88.7139 298.471 89.066 297.607C89.4288 296.724 89.4493 295.763 89.1274 294.724C88.8102 293.7 88.2501 292.919 87.4471 292.38C86.6547 291.822 85.7579 291.684 84.7568 291.966C83.771 292.243 83.0967 292.823 82.7339 293.706C82.3818 294.569 82.3643 295.513 82.6815 296.537C83.0034 297.576 83.5605 298.375 84.3529 298.933C85.156 299.472 86.0504 299.602 87.0361 299.325Z" fill="#2143FF"/>
<path d="M101.9 298.412C100.124 298.648 98.6121 298.26 97.3645 297.247C96.1146 296.219 95.3657 294.858 95.1179 293.164C94.87 291.47 95.2008 289.974 96.1103 288.675C97.0197 287.376 98.3626 286.608 100.139 286.372C101.931 286.134 103.451 286.521 104.699 287.534C105.946 288.546 106.694 289.899 106.942 291.593C107.192 293.303 106.862 294.807 105.953 296.106C105.044 297.405 103.693 298.174 101.9 298.412ZM101.577 296.203C102.608 296.066 103.364 295.595 103.844 294.789C104.338 293.965 104.506 293.014 104.349 291.938C104.194 290.877 103.761 290.022 103.052 289.374C102.356 288.708 101.493 288.444 100.462 288.581C99.4471 288.715 98.6926 289.195 98.1987 290.019C97.7184 290.825 97.5559 291.759 97.7111 292.819C97.8686 293.896 98.2952 294.767 98.9909 295.433C99.7001 296.082 100.562 296.338 101.577 296.203Z" fill="#2143FF"/>
<path d="M117.014 297.317C115.222 297.299 113.788 296.7 112.713 295.521C111.639 294.326 111.111 292.873 111.13 291.161C111.149 289.449 111.709 288.014 112.81 286.858C113.911 285.701 115.358 285.131 117.15 285.15C118.958 285.168 120.399 285.767 121.474 286.946C122.549 288.125 123.077 289.57 123.058 291.282C123.038 293.01 122.478 294.452 121.377 295.609C120.276 296.766 118.821 297.335 117.014 297.317ZM117.039 295.085C118.079 295.095 118.899 294.736 119.499 294.006C120.115 293.26 120.429 292.343 120.442 291.255C120.454 290.183 120.16 289.276 119.56 288.534C118.977 287.776 118.165 287.392 117.125 287.381C116.101 287.371 115.281 287.739 114.664 288.484C114.064 289.214 113.758 290.115 113.746 291.187C113.734 292.275 114.019 293.198 114.603 293.956C115.203 294.698 116.015 295.075 117.039 295.085Z" fill="#2143FF"/>
<path d="M131.67 298.252C129.898 297.986 128.569 297.197 127.684 295.883C126.801 294.553 126.499 293.044 126.778 291.355C127.057 289.665 127.83 288.325 129.097 287.335C130.363 286.344 131.882 285.981 133.655 286.247C135.443 286.516 136.779 287.307 137.665 288.621C138.55 289.935 138.853 291.436 138.574 293.125C138.292 294.83 137.518 296.178 136.252 297.169C134.985 298.16 133.458 298.521 131.67 298.252ZM132.034 296.05C133.063 296.205 133.93 295.963 134.635 295.325C135.359 294.673 135.81 293.81 135.987 292.737C136.162 291.679 136.009 290.742 135.527 289.926C135.065 289.096 134.319 288.604 133.291 288.45C132.278 288.298 131.41 288.547 130.686 289.199C129.98 289.837 129.54 290.685 129.365 291.743C129.188 292.816 129.33 293.768 129.793 294.598C130.274 295.414 131.021 295.898 132.034 296.05Z" fill="#2143FF"/>
<path d="M146.547 301.325C144.833 300.805 143.64 299.833 142.968 298.409C142.302 296.97 142.241 295.439 142.783 293.815C143.325 292.191 144.302 290.984 145.713 290.192C147.125 289.399 148.688 289.264 150.402 289.784C152.133 290.309 153.333 291.283 154.004 292.706C154.675 294.13 154.74 295.654 154.197 297.278C153.65 298.917 152.671 300.132 151.259 300.924C149.848 301.716 148.278 301.85 146.547 301.325ZM147.255 299.208C148.25 299.51 149.147 299.398 149.947 298.871C150.767 298.335 151.349 297.55 151.694 296.518C152.034 295.501 152.029 294.556 151.681 293.681C151.352 292.796 150.69 292.203 149.695 291.901C148.715 291.604 147.815 291.723 146.995 292.26C146.196 292.786 145.626 293.558 145.286 294.575C144.942 295.607 144.933 296.565 145.262 297.45C145.61 298.325 146.275 298.911 147.255 299.208Z" fill="#2143FF"/>
<path d="M160.098 306.215C158.478 305.451 157.445 304.318 156.999 302.817C156.561 301.302 156.736 299.785 157.525 298.266C158.314 296.747 159.47 295.701 160.993 295.129C162.515 294.556 164.087 294.652 165.707 295.417C167.342 296.188 168.383 297.324 168.829 298.825C169.274 300.325 169.102 301.835 168.313 303.355C167.517 304.888 166.357 305.941 164.835 306.513C163.312 307.086 161.734 306.986 160.098 306.215ZM161.127 304.234C162.068 304.678 162.976 304.699 163.85 304.299C164.747 303.891 165.446 303.204 165.947 302.239C166.441 301.287 166.583 300.355 166.373 299.443C166.184 298.523 165.619 297.841 164.678 297.398C163.752 296.961 162.841 296.946 161.944 297.354C161.07 297.755 160.385 298.431 159.891 299.382C159.39 300.348 159.233 301.29 159.422 302.21C159.633 303.123 160.201 303.797 161.127 304.234Z" fill="#2143FF"/>
<path d="M173.335 313.37C171.853 312.364 171.011 311.087 170.81 309.541C170.618 307.981 171.035 306.516 172.06 305.145C173.085 303.773 174.397 302.925 175.996 302.601C177.596 302.276 179.137 302.617 180.62 303.623C182.116 304.639 182.964 305.92 183.165 307.466C183.366 309.013 182.954 310.472 181.929 311.843C180.895 313.227 179.578 314.082 177.978 314.406C176.379 314.731 174.831 314.385 173.335 313.37ZM174.671 311.582C175.532 312.166 176.427 312.33 177.358 312.073C178.311 311.812 179.114 311.246 179.765 310.374C180.407 309.515 180.696 308.621 180.634 307.69C180.594 306.755 180.144 305.995 179.283 305.411C178.436 304.836 177.536 304.679 176.583 304.94C175.652 305.197 174.866 305.755 174.224 306.614C173.573 307.485 173.267 308.388 173.307 309.323C173.369 310.254 173.824 311.007 174.671 311.582Z" fill="#2143FF"/>
<path d="M184.108 322.846C182.805 321.615 182.179 320.222 182.23 318.665C182.292 317.098 182.94 315.72 184.174 314.534C185.408 313.347 186.841 312.722 188.474 312.659C190.107 312.597 191.575 313.181 192.878 314.411C194.193 315.652 194.825 317.051 194.774 318.608C194.723 320.164 194.081 321.536 192.847 322.723C191.601 323.92 190.162 324.551 188.529 324.613C186.896 324.676 185.423 324.087 184.108 322.846ZM185.717 321.298C186.473 322.012 187.331 322.318 188.292 322.214C189.276 322.11 190.161 321.681 190.945 320.927C191.717 320.184 192.148 319.348 192.236 318.421C192.348 317.493 192.026 316.672 191.269 315.958C190.525 315.255 189.66 314.955 188.676 315.059C187.715 315.163 186.849 315.587 186.076 316.33C185.292 317.084 184.844 317.925 184.732 318.853C184.644 319.78 184.972 320.595 185.717 321.298Z" fill="#2143FF"/>
<path d="M193.646 332.948C192.567 331.518 192.182 330.038 192.49 328.509C192.811 326.972 193.678 325.719 195.091 324.751C196.503 323.784 198.019 323.404 199.637 323.613C201.256 323.821 202.605 324.641 203.685 326.071C204.773 327.515 205.164 329.001 204.855 330.529C204.547 332.058 203.687 333.306 202.274 334.274C200.849 335.25 199.327 335.634 197.708 335.426C196.089 335.217 194.735 334.392 193.646 332.948ZM195.488 331.687C196.114 332.517 196.909 332.96 197.873 333.017C198.859 333.077 199.801 332.8 200.699 332.185C201.583 331.579 202.146 330.826 202.387 329.924C202.651 329.027 202.47 328.163 201.843 327.333C201.226 326.515 200.425 326.076 199.438 326.016C198.475 325.959 197.551 326.234 196.666 326.84C195.769 327.455 195.188 328.211 194.924 329.109C194.683 330.01 194.871 330.869 195.488 331.687Z" fill="#2143FF"/>
<path d="M201.41 344.762C200.606 343.161 200.491 341.632 201.066 340.175C201.655 338.711 202.729 337.625 204.287 336.915C205.845 336.204 207.399 336.093 208.95 336.581C210.501 337.069 211.678 338.114 212.482 339.716C213.293 341.332 213.411 342.868 212.836 344.325C212.262 345.781 211.195 346.865 209.638 347.575C208.065 348.292 206.504 348.406 204.953 347.918C203.402 347.43 202.221 346.378 201.41 344.762ZM203.441 343.837C203.907 344.766 204.608 345.343 205.544 345.567C206.501 345.798 207.474 345.688 208.464 345.237C209.44 344.792 210.126 344.146 210.523 343.297C210.941 342.456 210.918 341.571 210.451 340.641C209.992 339.726 209.283 339.153 208.326 338.921C207.391 338.698 206.436 338.808 205.46 339.253C204.47 339.704 203.766 340.35 203.347 341.191C202.95 342.04 202.981 342.921 203.441 343.837Z" fill="#2143FF"/>
<path d="M206.766 357.745C206.281 356.02 206.458 354.49 207.295 353.153C208.148 351.813 209.404 350.931 211.063 350.508C212.722 350.085 214.264 350.253 215.69 351.011C217.116 351.77 218.072 353.012 218.556 354.737C219.045 356.478 218.871 358.016 218.034 359.352C217.196 360.689 215.948 361.568 214.289 361.992C212.615 362.419 211.065 362.253 209.639 361.494C208.213 360.736 207.255 359.486 206.766 357.745ZM208.929 357.194C209.21 358.195 209.787 358.889 210.661 359.277C211.554 359.677 212.527 359.742 213.582 359.473C214.62 359.208 215.414 358.692 215.963 357.925C216.531 357.169 216.675 356.29 216.394 355.289C216.117 354.303 215.532 353.611 214.638 353.211C213.765 352.823 212.809 352.762 211.77 353.027C210.716 353.296 209.905 353.808 209.336 354.564C208.788 355.331 208.652 356.208 208.929 357.194Z" fill="#2143FF"/>
<path d="M209.41 371.328C209.269 369.542 209.738 368.064 210.817 366.896C211.912 365.726 213.313 365.08 215.021 364.957C216.728 364.834 218.208 365.273 219.458 366.274C220.709 367.275 221.406 368.669 221.547 370.455C221.69 372.257 221.222 373.743 220.143 374.911C219.064 376.079 217.67 376.725 215.963 376.848C214.239 376.972 212.752 376.534 211.501 375.533C210.25 374.532 209.553 373.13 209.41 371.328ZM211.637 371.168C211.719 372.205 212.15 372.992 212.931 373.529C213.729 374.081 214.671 374.318 215.756 374.24C216.825 374.163 217.703 373.795 218.389 373.136C219.092 372.492 219.403 371.652 219.321 370.615C219.24 369.594 218.8 368.808 218.002 368.256C217.222 367.718 216.297 367.488 215.227 367.565C214.142 367.643 213.248 368.004 212.545 368.648C211.858 369.307 211.556 370.147 211.637 371.168Z" fill="#2143FF"/>
<path d="M77.151 312.707C75.9466 311.38 75.4295 309.942 75.5995 308.394C75.7819 306.835 76.5337 305.511 77.8547 304.422C79.1758 303.333 80.6526 302.82 82.2852 302.883C83.9177 302.946 85.3361 303.64 86.5405 304.967C87.7557 306.306 88.2782 307.75 88.1082 309.298C87.9381 310.847 87.1925 312.166 85.8715 313.254C84.538 314.354 83.0551 314.872 81.4225 314.809C79.79 314.746 78.3661 314.045 77.151 312.707ZM78.8733 311.287C79.5723 312.057 80.4047 312.427 81.3705 312.398C82.3595 312.369 83.2737 312.009 84.1133 311.317C84.9405 310.636 85.4337 309.835 85.593 308.917C85.7755 308 85.5172 307.157 84.8182 306.387C84.13 305.629 83.2914 305.264 82.3025 305.292C81.3367 305.322 80.4401 305.677 79.6129 306.359C78.7734 307.051 78.2624 307.856 78.08 308.772C77.9207 309.691 78.1851 310.529 78.8733 311.287Z" fill="#2143FF"/>
<path d="M81.1906 317.894C81.336 316.108 82.0351 314.715 83.2882 313.717C84.5572 312.72 86.0454 312.284 87.7527 312.41C89.4601 312.537 90.8521 313.185 91.9286 314.355C93.0052 315.526 93.4709 317.004 93.3256 318.79C93.179 320.592 92.4791 321.992 91.2261 322.991C89.973 323.989 88.4928 324.425 86.7855 324.299C85.0622 324.172 83.6622 323.523 82.5856 322.352C81.509 321.182 81.044 319.696 81.1906 317.894ZM83.4166 318.058C83.3322 319.095 83.6331 319.935 84.3191 320.579C85.0197 321.241 85.9126 321.612 86.9976 321.692C88.0667 321.771 88.9929 321.534 89.7762 320.983C90.5742 320.448 91.0153 319.662 91.0996 318.626C91.1827 317.605 90.8739 316.764 90.1732 316.103C89.4872 315.458 88.6097 315.097 87.5406 315.018C86.4556 314.938 85.5141 315.165 84.7161 315.699C83.9328 316.251 83.4996 317.037 83.4166 318.058Z" fill="#2143FF"/>
<path d="M91.7917 334.766C90.1794 333.984 89.1591 332.84 88.7306 331.335C88.3097 329.816 88.5026 328.301 89.3094 326.791C90.1161 325.281 91.2841 324.249 92.8134 323.693C94.3427 323.138 95.9134 323.252 97.5257 324.034C99.1524 324.823 100.18 325.97 100.608 327.475C101.037 328.98 100.848 330.488 100.041 331.998C99.2266 333.522 98.0549 334.562 96.5256 335.117C94.9963 335.672 93.4183 335.555 91.7917 334.766ZM92.8435 332.798C93.7792 333.251 94.6867 333.283 95.5662 332.892C96.4676 332.494 97.1746 331.816 97.6873 330.856C98.1925 329.911 98.345 328.981 98.1448 328.066C97.9666 327.144 97.4096 326.457 96.4739 326.003C95.5526 325.556 94.6413 325.531 93.7399 325.929C92.8604 326.32 92.1681 326.988 91.663 327.933C91.1503 328.893 90.983 329.833 91.1613 330.755C91.3615 331.67 91.9222 332.351 92.8435 332.798Z" fill="#2143FF"/>
<path d="M96.081 335.668C97.1717 334.246 98.5273 333.437 100.148 333.241C101.782 333.055 103.301 333.451 104.706 334.429C106.11 335.408 106.961 336.663 107.257 338.194C107.553 339.725 107.156 341.201 106.065 342.623C104.965 344.057 103.604 344.872 101.984 345.068C100.363 345.264 98.8505 344.872 97.4457 343.894C96.0278 342.906 95.1708 341.647 94.8746 340.116C94.5784 338.585 94.9806 337.102 96.081 335.668ZM97.9124 336.943C97.2794 337.769 97.0847 338.626 97.3283 339.517C97.5753 340.429 98.1452 341.196 99.0379 341.818C99.9176 342.431 100.844 342.706 101.818 342.645C102.796 342.605 103.601 342.172 104.234 341.347C104.857 340.534 105.045 339.672 104.798 338.76C104.555 337.869 103.993 337.118 103.113 336.505C102.221 335.883 101.286 335.592 100.308 335.632C99.3343 335.694 98.5357 336.131 97.9124 336.943Z" fill="#2143FF"/>
<path d="M86.7628 344.371C88.068 343.143 89.5371 342.562 91.1699 342.628C92.8142 342.705 94.2522 343.338 95.4839 344.527C96.7156 345.716 97.3553 347.089 97.4032 348.645C97.451 350.202 96.8223 351.594 95.517 352.822C94.2001 354.061 92.7252 354.647 91.0924 354.582C89.4596 354.516 88.0273 353.888 86.7957 352.699C85.5525 351.499 84.9069 350.121 84.8591 348.564C84.8113 347.007 85.4458 345.61 86.7628 344.371ZM88.3686 345.921C87.611 346.634 87.2814 347.448 87.3797 348.365C87.4779 349.304 87.9184 350.151 88.7011 350.907C89.4724 351.652 90.3442 352.071 91.3165 352.166C92.2888 352.282 93.1537 351.984 93.9112 351.272C94.6571 350.57 94.9809 349.75 94.8827 348.811C94.7844 347.894 94.3497 347.064 93.5784 346.319C92.7957 345.563 91.9182 345.127 90.9459 345.011C89.9736 344.916 89.1144 345.219 88.3686 345.921Z" fill="#2143FF"/>
<path d="M79.8245 367.07C78.3926 365.992 77.6147 364.677 77.4906 363.123C77.3767 361.557 77.8659 360.115 78.9583 358.797C80.0507 357.479 81.4042 356.697 83.0188 356.452C84.6334 356.207 86.1566 356.623 87.5885 357.701C89.0331 358.788 89.8175 360.108 89.9416 361.662C90.0657 363.215 89.5815 364.651 88.4891 365.969C87.3866 367.3 86.028 368.088 84.4134 368.333C82.7988 368.578 81.2691 368.157 79.8245 367.07ZM81.2487 365.351C82.0796 365.977 82.9665 366.184 83.9091 365.973C84.8747 365.76 85.7047 365.234 86.3989 364.396C87.0829 363.571 87.4168 362.692 87.4006 361.76C87.4074 360.825 86.9953 360.045 86.1643 359.419C85.3461 358.804 84.4542 358.602 83.4885 358.816C82.5459 359.027 81.7326 359.545 81.0486 360.37C80.3544 361.208 80.0039 362.094 79.9971 363.029C80.0132 363.961 80.4304 364.736 81.2487 365.351Z" fill="#2143FF"/>
<path d="M96.8666 377.458C95.0765 377.375 93.6677 376.725 92.6402 375.509C91.6136 374.276 91.1437 372.805 91.2307 371.095C91.3177 369.385 91.9343 367.972 93.0805 366.856C94.2267 365.74 95.6949 365.223 97.4849 365.306C99.291 365.389 100.708 366.039 101.735 367.256C102.763 368.472 103.233 369.936 103.146 371.646C103.058 373.371 102.441 374.792 101.295 375.909C100.149 377.025 98.6727 377.541 96.8666 377.458ZM96.98 375.229C98.0189 375.277 98.8527 374.947 99.4815 374.239C100.127 373.516 100.478 372.611 100.533 371.525C100.587 370.454 100.33 369.537 99.7596 368.774C99.2064 367.996 98.4104 367.583 97.3715 367.535C96.3486 367.487 95.5144 367.825 94.8688 368.548C94.24 369.256 93.8984 370.145 93.8439 371.216C93.7886 372.302 94.0376 373.235 94.5907 374.013C95.1607 374.776 95.9571 375.181 96.98 375.229Z" fill="#2143FF"/>
<path d="M111.101 379.289C109.353 378.897 108.088 378.014 107.306 376.642C106.529 375.255 106.345 373.73 106.756 372.068C107.167 370.406 108.043 369.127 109.385 368.231C110.726 367.335 112.272 367.084 114.02 367.476C115.784 367.872 117.057 368.756 117.838 370.128C118.62 371.5 118.805 373.017 118.395 374.679C117.98 376.357 117.102 377.643 115.76 378.539C114.419 379.435 112.866 379.685 111.101 379.289ZM111.637 377.122C112.652 377.35 113.536 377.171 114.29 376.586C115.064 375.989 115.581 375.163 115.842 374.106C116.099 373.066 116.019 372.121 115.603 371.274C115.205 370.414 114.499 369.871 113.485 369.643C112.486 369.419 111.599 369.605 110.826 370.202C110.071 370.787 109.566 371.6 109.309 372.64C109.048 373.697 109.116 374.655 109.513 375.514C109.93 376.362 110.638 376.898 111.637 377.122Z" fill="#2143FF"/>
<path d="M120.803 377.571C120.394 375.826 120.636 374.303 121.53 373C122.44 371.694 123.732 370.863 125.406 370.506C127.081 370.15 128.613 370.379 130.004 371.195C131.395 372.011 132.295 373.292 132.704 375.036C133.117 376.797 132.876 378.328 131.982 379.631C131.088 380.933 129.804 381.763 128.13 382.119C126.44 382.479 124.899 382.251 123.508 381.435C122.118 380.619 121.216 379.331 120.803 377.571ZM122.986 377.106C123.224 378.119 123.77 378.836 124.625 379.259C125.499 379.695 126.468 379.799 127.532 379.572C128.581 379.349 129.396 378.865 129.977 378.12C130.577 377.387 130.759 376.514 130.521 375.501C130.287 374.504 129.733 373.788 128.859 373.353C128.004 372.93 127.052 372.83 126.004 373.053C124.94 373.28 124.107 373.76 123.507 374.493C122.926 375.238 122.752 376.109 122.986 377.106Z" fill="#2143FF"/>
<path d="M118.481 382.744C119.796 381.527 121.27 380.958 122.902 381.036C124.546 381.126 125.979 381.771 127.201 382.969C128.423 384.168 129.052 385.546 129.087 387.103C129.123 388.66 128.483 390.048 127.168 391.265C125.841 392.493 124.362 393.068 122.73 392.989C121.097 392.911 119.67 392.272 118.448 391.073C117.214 389.863 116.58 388.479 116.544 386.922C116.509 385.365 117.155 383.973 118.481 382.744ZM120.075 384.307C119.312 385.014 118.975 385.826 119.066 386.744C119.157 387.683 119.591 388.534 120.368 389.296C121.133 390.046 122.001 390.473 122.973 390.575C123.944 390.7 124.811 390.409 125.575 389.702C126.326 389.006 126.656 388.189 126.566 387.249C126.475 386.331 126.046 385.497 125.281 384.747C124.504 383.985 123.63 383.542 122.659 383.417C121.688 383.315 120.826 383.612 120.075 384.307Z" fill="#2143FF"/>
<path d="M108.125 400.296C108.179 398.504 108.807 397.081 110.008 396.026C111.225 394.971 112.689 394.468 114.4 394.515C116.111 394.563 117.534 395.146 118.669 396.266C119.803 397.386 120.343 398.841 120.288 400.633C120.233 402.44 119.605 403.871 118.404 404.926C117.204 405.981 115.748 406.485 114.036 406.438C112.309 406.39 110.878 405.806 109.744 404.686C108.609 403.566 108.07 402.103 108.125 400.296ZM110.356 400.357C110.324 401.397 110.667 402.223 111.385 402.835C112.118 403.463 113.028 403.793 114.116 403.823C115.188 403.853 116.1 403.574 116.855 402.986C117.625 402.415 118.025 401.61 118.057 400.571C118.088 399.547 117.737 398.721 117.004 398.093C116.286 397.481 115.392 397.16 114.32 397.13C113.233 397.1 112.304 397.37 111.534 397.941C110.78 398.528 110.387 399.334 110.356 400.357Z" fill="#2143FF"/>
<path d="M107.662 415.469C107.717 413.678 108.344 412.255 109.545 411.2C110.762 410.145 112.226 409.641 113.937 409.689C115.648 409.736 117.071 410.32 118.206 411.44C119.34 412.559 119.88 414.015 119.825 415.806C119.77 417.613 119.142 419.044 117.941 420.1C116.741 421.155 115.285 421.659 113.573 421.611C111.846 421.563 110.415 420.979 109.281 419.86C108.146 418.74 107.607 417.276 107.662 415.469ZM109.893 415.531C109.861 416.57 110.204 417.396 110.922 418.008C111.655 418.637 112.566 418.966 113.653 418.996C114.725 419.026 115.638 418.747 116.392 418.16C117.162 417.589 117.562 416.784 117.594 415.744C117.625 414.721 117.274 413.895 116.541 413.266C115.824 412.654 114.929 412.333 113.857 412.304C112.77 412.273 111.841 412.544 111.071 413.115C110.317 413.702 109.924 414.507 109.893 415.531Z" fill="#2143FF"/>
<path d="M103.49 426.199C104.359 424.631 105.578 423.634 107.149 423.208C108.734 422.788 110.291 422.963 111.821 423.733C113.35 424.502 114.373 425.625 114.889 427.102C115.405 428.579 115.228 430.101 114.36 431.668C113.483 433.25 112.26 434.254 110.689 434.68C109.119 435.107 107.569 434.936 106.039 434.166C104.496 433.389 103.466 432.263 102.95 430.786C102.434 429.309 102.614 427.78 103.49 426.199ZM105.484 427.202C104.98 428.112 104.913 428.991 105.284 429.84C105.661 430.709 106.335 431.389 107.307 431.878C108.265 432.36 109.22 432.5 110.172 432.299C111.13 432.119 111.862 431.575 112.366 430.665C112.862 429.769 112.922 428.887 112.545 428.017C112.174 427.168 111.51 426.503 110.553 426.021C109.581 425.532 108.615 425.377 107.657 425.557C106.705 425.758 105.98 426.306 105.484 427.202Z" fill="#2143FF"/>
<path d="M96.067 439.596C96.9355 438.029 98.1551 437.032 99.7258 436.605C101.311 436.185 102.868 436.36 104.397 437.13C105.927 437.9 106.949 439.023 107.465 440.499C107.981 441.976 107.805 443.498 106.936 445.065C106.06 446.647 104.837 447.651 103.266 448.078C101.695 448.504 100.145 448.333 98.6159 447.563C97.0723 446.787 96.0425 445.66 95.5265 444.183C95.0105 442.706 95.1907 441.177 96.067 439.596ZM98.0608 440.599C97.5567 441.509 97.4899 442.388 97.8604 443.237C98.2375 444.107 98.912 444.786 99.8839 445.275C100.841 445.757 101.796 445.897 102.748 445.696C103.707 445.517 104.439 444.972 104.943 444.062C105.439 443.167 105.499 442.284 105.121 441.414C104.751 440.565 104.087 439.9 103.129 439.418C102.157 438.929 101.192 438.774 100.233 438.954C99.2813 439.155 98.5571 439.704 98.0608 440.599Z" fill="#2143FF"/>
<path d="M96.4675 456.779C94.6755 456.779 93.2355 456.195 92.1475 455.027C91.0595 453.843 90.5155 452.395 90.5155 450.683C90.5155 448.971 91.0595 447.531 92.1475 446.363C93.2355 445.195 94.6755 444.611 96.4675 444.611C98.2755 444.611 99.7235 445.195 100.812 446.363C101.9 447.531 102.444 448.971 102.444 450.683C102.444 452.411 101.9 453.859 100.812 455.027C99.7235 456.195 98.2755 456.779 96.4675 456.779ZM96.4675 454.547C97.5075 454.547 98.3235 454.179 98.9155 453.443C99.5235 452.691 99.8275 451.771 99.8275 450.683C99.8275 449.611 99.5235 448.707 98.9155 447.971C98.3235 447.219 97.5075 446.843 96.4675 446.843C95.4435 446.843 94.6275 447.219 94.0195 447.971C93.4275 448.707 93.1315 449.611 93.1315 450.683C93.1315 451.771 93.4275 452.691 94.0195 453.443C94.6275 454.179 95.4435 454.547 96.4675 454.547Z" fill="#2143FF"/>
<path d="M94.9831 438.786C95.3374 440.543 95.0477 442.059 94.1139 443.336C93.1644 444.616 91.8477 445.41 90.1637 445.719C88.4797 446.027 86.9557 445.753 85.5917 444.897C84.2277 444.041 83.3685 442.735 83.0142 440.978C82.6567 439.206 82.9449 437.681 83.8787 436.404C84.8124 435.127 86.1213 434.335 87.8053 434.026C89.505 433.715 91.0369 433.987 92.4009 434.843C93.7649 435.699 94.6256 437.014 94.9831 438.786ZM92.7876 439.188C92.582 438.169 92.0587 437.435 91.2177 436.987C90.3578 436.527 89.3927 436.395 88.3225 436.591C87.2681 436.784 86.439 437.245 85.8352 437.973C85.2126 438.689 85.0041 439.557 85.2097 440.576C85.4122 441.58 85.9433 442.312 86.8033 442.773C87.6443 443.22 88.592 443.348 89.6464 443.154C90.7166 442.958 91.5631 442.502 92.1857 441.787C92.7895 441.058 92.9901 440.192 92.7876 439.188Z" fill="#2143FF"/>
<path d="M88.3638 421.439C89.5236 422.805 89.9932 424.259 89.7724 425.802C89.539 427.354 88.7444 428.653 87.3886 429.698C86.0329 430.744 84.5404 431.208 82.9112 431.092C81.2821 430.976 79.8875 430.235 78.7277 428.869C77.5574 427.491 77.0827 426.03 77.3035 424.488C77.5242 422.945 78.3125 421.651 79.6683 420.606C81.0367 419.551 82.5355 419.081 84.1647 419.197C85.7939 419.313 87.1936 420.061 88.3638 421.439ZM86.5962 422.802C85.9231 422.009 85.1035 421.612 84.1375 421.61C83.1484 421.606 82.2231 421.936 81.3615 422.6C80.5125 423.255 79.9934 424.038 79.8041 424.951C79.5917 425.862 79.8221 426.713 80.4952 427.506C81.158 428.287 81.9839 428.679 82.973 428.683C83.939 428.685 84.8465 428.359 85.6954 427.704C86.557 427.04 87.094 426.252 87.3064 425.342C87.4957 424.429 87.259 423.582 86.5962 422.802Z" fill="#2143FF"/>
<path d="M82.321 413.027C82.4246 414.816 81.9247 416.284 80.8212 417.432C79.7017 418.58 78.2872 419.199 76.5775 419.289C74.8679 419.379 73.3984 418.912 72.1691 417.887C70.9398 416.862 70.2734 415.455 70.1698 413.666C70.0652 411.861 70.5647 410.385 71.6682 409.237C72.7717 408.09 74.1782 407.471 75.8879 407.381C77.6135 407.291 79.0909 407.758 80.3202 408.782C81.5495 409.807 82.2164 411.222 82.321 413.027ZM80.0921 413.144C80.0319 412.106 79.6173 411.311 78.848 410.758C78.0619 410.191 77.1256 409.936 76.0391 409.993C74.9686 410.049 74.0834 410.4 73.3836 411.046C72.6669 411.676 72.3386 412.511 72.3987 413.549C72.4579 414.571 72.8806 415.366 73.6667 415.934C74.4359 416.486 75.3558 416.734 76.4263 416.678C77.5128 416.621 78.4144 416.277 79.1311 415.646C79.831 415.001 80.1513 414.167 80.0921 413.144Z" fill="#2143FF"/>
<path d="M81.446 397.922C81.5496 399.711 81.0497 401.18 79.9462 402.327C78.8267 403.476 77.4122 404.095 75.7025 404.185C73.9929 404.275 72.5234 403.807 71.2941 402.782C70.0648 401.757 69.3984 400.35 69.2948 398.561C69.1902 396.756 69.6897 395.28 70.7932 394.133C71.8967 392.985 73.3032 392.366 75.0129 392.277C76.7385 392.186 78.2159 392.653 79.4452 393.678C80.6745 394.702 81.3414 396.117 81.446 397.922ZM79.2171 398.04C79.1569 397.001 78.7423 396.206 77.973 395.654C77.1869 395.086 76.2506 394.831 75.1641 394.888C74.0936 394.944 73.2084 395.295 72.5086 395.941C71.7919 396.572 71.4636 397.406 71.5237 398.444C71.5829 399.467 72.0056 400.261 72.7917 400.829C73.5609 401.381 74.4808 401.629 75.5513 401.573C76.6378 401.516 77.5394 401.172 78.2561 400.541C78.956 399.896 79.2763 399.062 79.2171 398.04Z" fill="#2143FF"/>
<path d="M73.9384 380.042C75.1361 381.375 75.6461 382.815 75.4683 384.363C75.2782 385.921 74.5199 387.241 73.1934 388.323C71.867 389.406 70.3877 389.911 68.7555 389.84C67.1234 389.77 65.7085 389.068 64.5107 387.735C63.3023 386.39 62.787 384.944 62.9647 383.396C63.1425 381.848 63.8946 380.533 65.2211 379.451C66.5599 378.358 68.0454 377.848 69.6775 377.918C71.3097 377.989 72.73 378.697 73.9384 380.042ZM72.209 381.453C71.5139 380.68 70.6834 380.305 69.7175 380.33C68.7285 380.353 67.8125 380.709 66.9695 381.397C66.1389 382.074 65.6417 382.872 65.4778 383.79C65.2909 384.705 65.545 385.55 66.2401 386.324C66.9245 387.085 67.7612 387.455 68.7502 387.431C69.7161 387.406 70.6144 387.055 71.445 386.377C72.2879 385.69 72.8029 384.888 72.9899 383.972C73.1537 383.054 72.8935 382.215 72.209 381.453Z" fill="#2143FF"/>
<path d="M65.1068 369.947C66.3046 371.28 66.8145 372.72 66.6368 374.268C66.4466 375.826 65.6883 377.146 64.3619 378.228C63.0354 379.311 61.5561 379.816 59.924 379.746C58.2919 379.675 56.8769 378.973 55.6792 377.64C54.4708 376.295 53.9554 374.849 54.1332 373.301C54.311 371.753 55.0631 370.438 56.3895 369.356C57.7283 368.263 59.2138 367.753 60.846 367.823C62.4781 367.894 63.8984 368.602 65.1068 369.947ZM63.3775 371.358C62.6824 370.585 61.8519 370.21 60.886 370.235C59.8969 370.258 58.9809 370.614 58.138 371.302C57.3074 371.979 56.8102 372.777 56.6463 373.695C56.4593 374.61 56.7134 375.455 57.4085 376.229C58.0929 376.99 58.9297 377.36 59.9187 377.336C60.8846 377.312 61.7828 376.96 62.6134 376.282C63.4564 375.595 63.9713 374.793 64.1583 373.877C64.3222 372.959 64.0619 372.12 63.3775 371.358Z" fill="#2143FF"/>
<path d="M65.75 365.767C64.543 367.091 63.1232 367.783 61.4905 367.843C59.8455 367.892 58.3635 367.371 57.0445 366.28C55.7256 365.188 54.9825 363.868 54.8155 362.319C54.6484 360.771 55.1684 359.334 56.3753 358.009C57.5931 356.673 59.0183 355.975 60.651 355.915C62.2836 355.856 63.7595 356.372 65.0785 357.463C66.4098 358.565 67.159 359.89 67.326 361.439C67.4931 362.988 66.9677 364.43 65.75 365.767ZM64.0304 364.344C64.7309 363.575 64.9969 362.737 64.8286 361.83C64.6588 360.902 64.1547 360.09 63.3165 359.397C62.4906 358.713 61.5894 358.362 60.6128 358.342C59.6347 358.3 58.7954 358.664 58.095 359.432C57.4053 360.189 57.1453 361.032 57.3152 361.961C57.4835 362.868 57.9806 363.663 58.8065 364.346C59.6447 365.04 60.5529 365.408 61.531 365.449C62.5076 365.469 63.3407 365.101 64.0304 364.344Z" fill="#2143FF"/>
<path d="M56.2595 343.739C57.6957 344.811 58.479 346.124 58.6094 347.677C58.7296 349.242 58.2463 350.686 57.1593 352.009C56.0724 353.332 54.7222 354.119 53.1086 354.371C51.4951 354.622 49.9703 354.212 48.5341 353.14C47.0851 352.059 46.2954 350.742 46.165 349.189C46.0346 347.636 46.5128 346.198 47.5998 344.875C48.6969 343.54 50.0522 342.747 51.6657 342.495C53.2792 342.243 54.8105 342.658 56.2595 343.739ZM54.8424 345.464C54.0089 344.842 53.1213 344.638 52.1796 344.853C51.2148 345.07 50.3871 345.599 49.6963 346.44C49.0157 347.268 48.6854 348.148 48.7054 349.08C48.7024 350.015 49.1177 350.794 49.9512 351.416C50.7718 352.028 51.6645 352.226 52.6293 352.009C53.571 351.794 54.3822 351.273 55.0628 350.444C55.7535 349.604 56.1004 348.716 56.1034 347.781C56.0834 346.849 55.6631 346.076 54.8424 345.464Z" fill="#2143FF"/>
<path d="M43.7121 334.376C45.1483 335.448 45.9316 336.761 46.062 338.314C46.1823 339.879 45.6989 341.323 44.612 342.646C43.525 343.969 42.1748 344.756 40.5613 345.008C38.9477 345.259 37.4229 344.849 35.9867 343.777C34.5377 342.696 33.748 341.379 33.6176 339.826C33.4872 338.273 33.9655 336.835 35.0524 335.512C36.1495 334.177 37.5048 333.384 39.1184 333.132C40.7319 332.88 42.2631 333.295 43.7121 334.376ZM42.2951 336.101C41.4616 335.479 40.5739 335.275 39.6322 335.49C38.6675 335.707 37.8397 336.236 37.149 337.077C36.4684 337.905 36.1381 338.785 36.158 339.717C36.1551 340.652 36.5703 341.431 37.4038 342.053C38.2245 342.665 39.1172 342.863 40.0819 342.646C41.0236 342.431 41.8348 341.91 42.5154 341.081C43.2062 340.241 43.5531 339.353 43.556 338.418C43.5361 337.486 43.1157 336.713 42.2951 336.101Z" fill="#2143FF"/>
<path d="M134.728 302.78C135.815 301.355 137.169 300.543 138.789 300.343C140.422 300.152 141.942 300.544 143.35 301.519C144.757 302.494 145.61 303.747 145.911 305.277C146.211 306.807 145.817 308.284 144.73 309.709C143.634 311.147 142.275 311.965 140.655 312.165C139.035 312.365 137.522 311.977 136.114 311.002C134.694 310.018 133.834 308.761 133.534 307.231C133.233 305.701 133.632 304.217 134.728 302.78ZM136.563 304.051C135.932 304.877 135.74 305.736 135.986 306.626C136.235 307.537 136.807 308.303 137.701 308.923C138.582 309.533 139.51 309.806 140.484 309.742C141.461 309.7 142.265 309.265 142.896 308.438C143.517 307.624 143.703 306.761 143.453 305.849C143.207 304.96 142.644 304.209 141.763 303.599C140.868 302.979 139.933 302.691 138.955 302.733C137.982 302.797 137.184 303.237 136.563 304.051Z" fill="#2143FF"/>
<path d="M125.366 315.051C126.453 313.626 127.807 312.814 129.427 312.614C131.06 312.424 132.58 312.816 133.987 313.791C135.394 314.766 136.248 316.018 136.548 317.548C136.848 319.078 136.455 320.556 135.368 321.981C134.271 323.418 132.913 324.237 131.293 324.437C129.673 324.636 128.159 324.249 126.752 323.274C125.332 322.29 124.471 321.033 124.171 319.502C123.871 317.972 124.269 316.488 125.366 315.051ZM127.201 316.322C126.57 317.149 126.378 318.007 126.623 318.897C126.873 319.809 127.445 320.574 128.339 321.194C129.22 321.804 130.148 322.078 131.121 322.013C132.099 321.971 132.903 321.536 133.533 320.71C134.155 319.895 134.34 319.033 134.091 318.121C133.845 317.231 133.282 316.481 132.4 315.87C131.506 315.251 130.57 314.962 129.593 315.005C128.619 315.069 127.822 315.508 127.201 316.322Z" fill="#2143FF"/>
<path d="M121.114 334.787C120.773 333.028 121.074 331.513 122.018 330.242C122.977 328.969 124.299 328.184 125.985 327.887C127.671 327.59 129.193 327.874 130.55 328.74C131.908 329.606 132.757 330.918 133.098 332.677C133.442 334.452 133.143 335.975 132.199 337.246C131.256 338.516 129.942 339.3 128.255 339.597C126.554 339.896 125.024 339.613 123.667 338.748C122.309 337.882 121.458 336.562 121.114 334.787ZM123.313 334.4C123.511 335.421 124.028 336.158 124.866 336.612C125.722 337.078 126.686 337.217 127.758 337.029C128.813 336.843 129.646 336.388 130.255 335.663C130.883 334.951 131.098 334.085 130.9 333.064C130.705 332.059 130.179 331.323 129.323 330.857C128.485 330.403 127.539 330.269 126.483 330.455C125.412 330.644 124.562 331.094 123.934 331.805C123.325 332.53 123.118 333.395 123.313 334.4Z" fill="#2143FF"/>
<path d="M140.094 348.835C138.302 348.835 136.862 348.251 135.774 347.083C134.686 345.899 134.142 344.451 134.142 342.739C134.142 341.027 134.686 339.587 135.774 338.419C136.862 337.251 138.302 336.667 140.094 336.667C141.902 336.667 143.35 337.251 144.438 338.419C145.526 339.587 146.07 341.027 146.07 342.739C146.07 344.467 145.526 345.915 144.438 347.083C143.35 348.251 141.902 348.835 140.094 348.835ZM140.094 346.603C141.134 346.603 141.95 346.235 142.542 345.499C143.15 344.747 143.454 343.827 143.454 342.739C143.454 341.667 143.15 340.763 142.542 340.027C141.95 339.275 141.134 338.899 140.094 338.899C139.07 338.899 138.254 339.275 137.646 340.027C137.054 340.763 136.758 341.667 136.758 342.739C136.758 343.827 137.054 344.747 137.646 345.499C138.254 346.235 139.07 346.603 140.094 346.603Z" fill="#2143FF"/>
<path d="M156.038 348.835C154.246 348.835 152.806 348.251 151.718 347.083C150.63 345.899 150.086 344.451 150.086 342.739C150.086 341.027 150.63 339.587 151.718 338.419C152.806 337.251 154.246 336.667 156.038 336.667C157.846 336.667 159.294 337.251 160.382 338.419C161.47 339.587 162.014 341.027 162.014 342.739C162.014 344.467 161.47 345.915 160.382 347.083C159.294 348.251 157.846 348.835 156.038 348.835ZM156.038 346.603C157.078 346.603 157.894 346.235 158.486 345.499C159.094 344.747 159.398 343.827 159.398 342.739C159.398 341.667 159.094 340.763 158.486 340.027C157.894 339.275 157.078 338.899 156.038 338.899C155.014 338.899 154.198 339.275 153.59 340.027C152.998 340.763 152.702 341.667 152.702 342.739C152.702 343.827 152.998 344.747 153.59 345.499C154.198 346.235 155.014 346.603 156.038 346.603Z" fill="#2143FF"/>
<path d="M174.992 340.626C173.6 341.755 172.092 342.226 170.469 342.039C168.836 341.841 167.449 341.103 166.309 339.826C165.169 338.548 164.633 337.132 164.701 335.575C164.768 334.019 165.498 332.676 166.89 331.548C168.295 330.41 169.809 329.934 171.432 330.12C173.055 330.307 174.436 331.038 175.576 332.316C176.727 333.605 177.268 335.028 177.201 336.584C177.133 338.141 176.397 339.488 174.992 340.626ZM173.506 338.961C174.314 338.306 174.703 337.518 174.673 336.596C174.645 335.652 174.268 334.775 173.544 333.963C172.83 333.163 171.992 332.68 171.029 332.514C170.069 332.325 169.185 332.558 168.377 333.213C167.581 333.858 167.197 334.652 167.226 335.596C167.256 336.518 167.628 337.379 168.342 338.179C169.066 338.99 169.909 339.49 170.869 339.679C171.832 339.845 172.711 339.606 173.506 338.961Z" fill="#2143FF"/>
<path d="M187.174 326.085C186.448 327.724 185.323 328.822 183.799 329.381C182.259 329.934 180.696 329.891 179.107 329.252C177.519 328.613 176.403 327.579 175.761 326.148C175.118 324.717 175.159 323.183 175.885 321.544C176.617 319.891 177.745 318.785 179.269 318.226C180.794 317.667 182.35 317.707 183.938 318.346C185.541 318.991 186.665 320.029 187.307 321.46C187.95 322.89 187.906 324.432 187.174 326.085ZM185.103 325.252C185.524 324.301 185.513 323.418 185.07 322.602C184.619 321.765 183.888 321.144 182.879 320.738C181.884 320.338 180.922 320.279 179.993 320.56C179.056 320.821 178.377 321.426 177.955 322.377C177.541 323.314 177.559 324.2 178.01 325.036C178.454 325.852 179.172 326.46 180.167 326.86C181.176 327.266 182.15 327.339 183.087 327.079C184.016 326.797 184.688 326.189 185.103 325.252Z" fill="#2143FF"/>
<path d="M202.761 378.307C204.545 378.133 206.04 378.574 207.248 379.63C208.457 380.701 209.153 382.088 209.336 383.79C209.519 385.493 209.131 386.977 208.173 388.244C207.215 389.511 205.844 390.231 204.061 390.405C202.261 390.581 200.758 390.141 199.55 389.085C198.343 388.03 197.647 386.651 197.465 384.948C197.28 383.23 197.667 381.738 198.625 380.471C199.583 379.204 200.962 378.483 202.761 378.307ZM203 380.526C201.964 380.627 201.192 381.072 200.681 381.862C200.156 382.668 199.952 383.613 200.068 384.694C200.183 385.76 200.582 386.63 201.266 387.302C201.935 387.993 202.787 388.287 203.822 388.186C204.842 388.087 205.614 387.634 206.138 386.827C206.649 386.038 206.847 385.11 206.733 384.044C206.616 382.963 206.223 382.077 205.554 381.386C204.87 380.714 204.019 380.427 203 380.526Z" fill="#2143FF"/>
<path d="M184.84 386.374C186.261 385.282 187.78 384.851 189.397 385.08C191.025 385.321 192.391 386.095 193.497 387.402C194.603 388.709 195.101 390.14 194.993 391.695C194.884 393.249 194.12 394.572 192.699 395.664C191.265 396.765 189.739 397.202 188.122 396.973C186.505 396.744 185.144 395.976 184.038 394.669C182.922 393.349 182.418 391.913 182.527 390.358C182.635 388.804 183.406 387.476 184.84 386.374ZM186.281 388.078C185.457 388.712 185.047 389.49 185.053 390.412C185.057 391.357 185.41 392.244 186.113 393.075C186.805 393.894 187.63 394.399 188.587 394.59C189.542 394.804 190.432 394.593 191.257 393.96C192.069 393.336 192.473 392.552 192.47 391.607C192.464 390.685 192.115 389.814 191.423 388.996C190.72 388.165 189.891 387.643 188.936 387.43C187.978 387.238 187.094 387.454 186.281 388.078Z" fill="#2143FF"/>
<path d="M174.633 402.383C175.298 400.719 176.381 399.581 177.883 398.969C179.4 398.363 180.963 398.352 182.572 398.936C184.181 399.52 185.333 400.516 186.027 401.925C186.721 403.334 186.736 404.87 186.071 406.534C185.4 408.213 184.314 409.359 182.812 409.97C181.31 410.582 179.755 410.596 178.145 410.012C176.521 409.423 175.362 408.423 174.668 407.015C173.974 405.606 173.962 404.062 174.633 402.383ZM176.731 403.145C176.345 404.11 176.388 404.994 176.86 405.794C177.342 406.616 178.094 407.212 179.116 407.583C180.124 407.949 181.087 407.975 182.004 407.661C182.931 407.368 183.587 406.739 183.973 405.773C184.353 404.822 184.302 403.936 183.821 403.115C183.349 402.314 182.609 401.731 181.601 401.365C180.579 400.994 179.604 400.955 178.677 401.248C177.76 401.562 177.111 402.194 176.731 403.145Z" fill="#2143FF"/>
<path d="M171.105 418.649C171.435 416.887 172.276 415.57 173.628 414.696C174.995 413.825 176.523 413.533 178.211 413.82C179.898 414.107 181.218 414.883 182.169 416.148C183.12 417.414 183.431 418.927 183.101 420.688C182.768 422.465 181.926 423.791 180.575 424.664C179.223 425.538 177.703 425.831 176.015 425.544C174.312 425.255 172.984 424.477 172.033 423.212C171.082 421.947 170.773 420.426 171.105 418.649ZM173.306 419.023C173.114 420.045 173.327 420.909 173.944 421.614C174.573 422.338 175.424 422.791 176.497 422.973C177.554 423.153 178.501 423.006 179.338 422.531C180.189 422.075 180.709 421.336 180.901 420.314C181.089 419.308 180.869 418.443 180.239 417.719C179.623 417.014 178.786 416.571 177.729 416.391C176.656 416.209 175.695 416.346 174.845 416.802C174.007 417.276 173.494 418.016 173.306 419.023Z" fill="#2143FF"/>
<path d="M170.768 435.399C170.701 433.608 171.231 432.149 172.358 431.023C173.5 429.895 174.927 429.303 176.638 429.245C178.349 429.186 179.809 429.681 181.017 430.729C182.224 431.777 182.862 433.196 182.929 434.987C182.996 436.793 182.467 438.26 181.34 439.387C180.213 440.514 178.794 441.106 177.083 441.164C175.356 441.223 173.889 440.728 172.681 439.681C171.473 438.633 170.835 437.206 170.768 435.399ZM172.998 435.323C173.037 436.363 173.436 437.166 174.193 437.732C174.967 438.314 175.898 438.587 176.986 438.55C178.057 438.514 178.949 438.179 179.662 437.547C180.392 436.93 180.737 436.101 180.698 435.062C180.66 434.039 180.254 433.236 179.479 432.654C178.722 432.088 177.807 431.822 176.736 431.859C175.648 431.896 174.74 432.223 174.01 432.84C173.298 433.472 172.96 434.3 172.998 435.323Z" fill="#2143FF"/>
</svg>
