<svg width="222" height="697" viewBox="0 0 222 697" fill="none" xmlns="http://www.w3.org/2000/svg">
<line x1="112.346" y1="0.73877" x2="112.346" y2="499.409" stroke="#FF8C21" stroke-width="5" stroke-dasharray="10 10"/>
<path d="M197.95 607.674L198.203 605.167L206.226 605.975L198.549 601.728L198.65 600.726L207.022 598.071L198.999 597.263L199.251 594.756L210.785 595.918L210.455 599.189L202.683 601.638L209.816 605.541L209.484 608.836L197.95 607.674Z" fill="#2143FF"/>
<path d="M193.514 622.644L194.284 620.245L201.962 622.708L195.34 616.954L195.647 615.994L204.389 615.144L196.71 612.68L197.48 610.281L208.518 613.822L207.514 616.953L199.401 617.728L205.564 623.031L204.552 626.185L193.514 622.644Z" fill="#2143FF"/>
<path d="M186.192 636.287L187.428 634.091L194.456 638.045L189.123 631.079L189.617 630.201L198.351 631.122L191.323 627.168L192.559 624.971L202.662 630.655L201.049 633.521L192.946 632.652L197.919 639.085L196.295 641.971L186.192 636.287Z" fill="#2143FF"/>
<path d="M176.314 648.33L177.948 646.412L184.087 651.641L180.189 643.781L180.842 643.014L189.238 645.594L183.099 640.365L184.733 638.446L193.558 645.963L191.425 648.466L183.64 646.059L187.286 653.326L185.138 655.847L176.314 648.33Z" fill="#2143FF"/>
<path d="M164.3 658.41L166.26 656.826L171.328 663.098L168.948 654.654L169.732 654.02L177.507 658.105L172.439 651.833L174.399 650.249L181.684 659.266L179.127 661.332L171.919 657.529L174.161 665.345L171.585 667.426L164.3 658.41Z" fill="#2143FF"/>
<path d="M150.676 666.219L152.885 665.006L156.765 672.076L155.915 663.344L156.799 662.859L163.729 668.254L159.849 661.184L162.059 659.972L167.636 670.134L164.753 671.716L158.331 666.699L159.157 674.787L156.254 676.381L150.676 666.219Z" fill="#2143FF"/>
<path d="M135.893 671.61L138.274 670.787L140.909 678.408L141.541 669.658L142.494 669.329L148.417 675.813L145.783 668.192L148.164 667.368L151.952 678.324L148.844 679.398L143.358 673.372L142.81 681.484L139.68 682.566L135.893 671.61Z" fill="#2143FF"/>
<path d="M120.386 674.432L122.873 674.022L124.184 681.979L126.283 673.46L127.277 673.296L132.022 680.687L130.711 672.73L133.197 672.321L135.082 683.758L131.838 684.293L127.447 677.428L125.539 685.331L122.271 685.87L120.386 674.432Z" fill="#2143FF"/>
<path d="M104.246 674.68L106.766 674.689L106.737 682.753L110.222 674.701L111.23 674.705L114.681 682.781L114.71 674.717L117.23 674.726L117.189 686.318L113.901 686.306L110.711 678.807L107.517 686.284L104.205 686.272L104.246 674.68Z" fill="#2143FF"/>
<path d="M88.6312 672.343L91.1162 672.762L89.7768 680.714L94.5242 673.336L95.5182 673.503L97.6105 682.033L98.9499 674.081L101.435 674.5L99.5095 685.931L96.2672 685.384L94.3396 677.466L89.9719 684.324L86.7059 683.774L88.6312 672.343Z" fill="#2143FF"/>
<path d="M73.6489 667.457L76.0306 668.28L73.3959 675.902L79.2969 669.41L80.2496 669.739L80.9039 678.497L83.5386 670.876L85.9203 671.699L82.133 682.655L79.0254 681.581L78.4324 673.453L72.9918 679.495L69.8615 678.413L73.6489 667.457Z" fill="#2143FF"/>
<path d="M59.7637 660.092L61.9685 661.312L58.0638 668.368L64.9923 662.986L65.8743 663.474L65.0143 672.214L68.9191 665.159L71.1239 666.379L65.5108 676.522L62.634 674.929L63.4461 666.821L57.0484 671.838L54.1505 670.234L59.7637 660.092Z" fill="#2143FF"/>
<path d="M47.4117 650.426L49.3661 652.016L44.2756 658.271L52.0465 654.198L52.8282 654.834L50.4366 663.285L55.5272 657.031L57.4816 658.622L50.1639 667.612L47.6139 665.537L49.8466 657.699L42.6627 661.507L40.094 659.416L47.4117 650.426Z" fill="#2143FF"/>
<path d="M37.0974 638.768L38.7314 640.686L32.5926 645.915L40.9724 643.317L41.6261 644.084L37.7438 651.962L43.8826 646.733L45.5167 648.652L36.6921 656.169L34.5601 653.666L38.175 646.362L30.4204 648.806L28.2728 646.284L37.0974 638.768Z" fill="#2143FF"/>
<path d="M29.1968 625.276L30.424 627.477L23.3807 631.404L32.107 630.495L32.5978 631.376L27.2492 638.342L34.2925 634.415L35.5196 636.616L25.3949 642.261L23.7938 639.39L28.7679 632.934L20.685 633.814L19.0722 630.921L29.1968 625.276Z" fill="#2143FF"/>
<path d="M24.2211 610.65L24.9811 613.053L17.2926 615.485L26.0235 616.348L26.3275 617.309L19.6886 623.059L27.3771 620.627L28.1371 623.03L17.0849 626.526L16.0932 623.391L22.2626 618.066L14.1678 617.304L13.1689 614.146L24.2211 610.65Z" fill="#2143FF"/>
<path d="M22.3753 595.453L22.6279 597.961L14.6045 598.769L22.9743 601.399L23.0754 602.402L15.4008 606.673L23.4242 605.865L23.6768 608.372L12.1432 609.534L11.8136 606.262L18.9415 602.312L11.1737 599.911L10.8417 596.615L22.3753 595.453Z" fill="#2143FF"/>
<path d="M23.7777 579.58L23.4938 582.084L15.4812 581.175L23.1044 585.518L22.9908 586.519L14.5861 589.068L22.5987 589.977L22.3148 592.481L10.7966 591.175L11.1671 587.908L18.9698 585.556L11.8864 581.564L12.2596 578.274L23.7777 579.58Z" fill="#2143FF"/>
<path d="M28.244 565.031L27.4548 567.425L19.7964 564.899L26.3725 570.707L26.0569 571.664L17.3087 572.444L24.9671 574.969L24.1779 577.362L13.169 573.732L14.1987 570.61L22.3171 569.9L16.1979 564.547L17.2351 561.401L28.244 565.031Z" fill="#2143FF"/>
<path d="M35.837 551.165L34.5759 553.347L27.5942 549.311L32.8464 556.339L32.342 557.211L23.6189 556.189L30.6005 560.224L29.3395 562.406L19.3033 556.605L20.9487 553.759L29.041 554.721L24.1434 548.231L25.8008 545.364L35.837 551.165Z" fill="#2143FF"/>
<path d="M45.7754 539.293L44.1201 541.193L38.0397 535.896L41.8501 543.799L41.188 544.559L32.8217 541.886L38.9021 547.183L37.2468 549.083L28.5062 541.469L30.666 538.99L38.4245 541.483L34.8593 534.176L37.0348 531.679L45.7754 539.293Z" fill="#2143FF"/>
<path d="M57.5456 529.551L55.5741 531.121L50.5511 524.812L52.8705 533.274L52.0819 533.901L44.3365 529.761L49.3595 536.069L47.3881 537.639L40.1675 528.57L42.7397 526.522L49.9199 530.377L47.734 522.546L50.325 520.483L57.5456 529.551Z" fill="#2143FF"/>
<path d="M71.2899 521.743L69.0723 522.94L65.2424 515.844L66.0309 524.582L65.1439 525.06L58.2515 519.617L62.0814 526.713L59.8637 527.91L54.3583 517.709L57.2518 516.147L63.6383 521.209L62.8699 513.115L65.7845 511.542L71.2899 521.743Z" fill="#2143FF"/>
<path d="M86.2805 516.387L83.8902 517.185L81.3362 509.536L80.6121 518.279L79.656 518.599L73.8012 512.052L76.3552 519.701L73.9649 520.499L70.2936 509.504L73.4123 508.462L78.8343 514.546L79.4677 506.44L82.6092 505.391L86.2805 516.387Z" fill="#2143FF"/>
<path d="M101.957 513.925L99.4672 514.317L98.2124 506.351L96.0533 514.855L95.0576 515.012L90.3652 507.587L91.62 515.553L89.1307 515.945L87.3269 504.495L90.5748 503.983L94.9169 510.879L96.8811 502.99L100.153 502.474L101.957 513.925Z" fill="#2143FF"/>
<path d="M117.776 513.504L115.257 513.477L115.343 505.413L111.801 513.44L110.793 513.429L107.399 505.329L107.313 513.392L104.793 513.365L104.917 501.774L108.205 501.809L111.341 509.331L114.588 501.877L117.9 501.912L117.776 513.504Z" fill="#2143FF"/>
<path d="M85.845 547.148L83.6333 548.356L79.7682 541.279L80.6001 550.012L79.7155 550.496L72.7962 545.086L76.6612 552.164L74.4496 553.371L68.8935 543.198L71.7792 541.622L78.1908 546.652L77.3822 538.562L80.289 536.974L85.845 547.148Z" fill="#2143FF"/>
<path d="M52.6495 602.138L53.9102 604.32L46.9278 608.354L55.6391 607.312L56.1434 608.185L50.9019 615.232L57.8843 611.198L59.1449 613.38L49.1077 619.179L47.4629 616.332L52.3377 609.802L44.2692 610.805L42.6123 607.937L52.6495 602.138Z" fill="#2143FF"/>
<path d="M136.601 580.502L134.329 579.41L137.823 572.142L131.215 577.913L130.306 577.476L130.663 568.7L127.17 575.968L124.898 574.877L129.92 564.429L132.884 565.853L132.538 573.995L138.638 568.619L141.623 570.054L136.601 580.502Z" fill="#2143FF"/>
<path d="M169.548 625.482L168.634 627.83L161.12 624.905L167.381 631.051L167.015 631.99L158.238 632.308L165.753 635.233L164.839 637.581L154.036 633.377L155.229 630.312L163.373 630.032L157.545 624.363L158.746 621.277L169.548 625.482Z" fill="#2143FF"/>
<path d="M97.2437 637.449L99.6907 636.847L101.617 644.678L103.047 636.022L104.026 635.781L109.331 642.78L107.405 634.95L109.852 634.348L112.621 645.604L109.428 646.389L104.516 639.886L103.229 647.914L100.012 648.705L97.2437 637.449Z" fill="#2143FF"/>
<path d="M133.363 515.913L130.881 515.477L132.277 507.535L127.477 514.879L126.485 514.704L124.453 506.16L123.057 514.102L120.575 513.666L122.581 502.249L125.82 502.818L127.691 510.749L132.107 503.923L135.369 504.496L133.363 515.913Z" fill="#2143FF"/>
<path d="M148.597 520.992L146.224 520.144L148.939 512.55L142.97 518.98L142.02 518.641L141.459 509.876L138.744 517.469L136.371 516.62L140.274 505.705L143.37 506.812L143.877 514.946L149.381 508.962L152.5 510.077L148.597 520.992Z" fill="#2143FF"/>
<path d="M161.993 528.205L159.797 526.969L163.751 519.941L156.785 525.274L155.906 524.78L156.828 516.046L152.873 523.073L150.677 521.838L156.362 511.735L159.227 513.348L158.358 521.45L164.791 516.478L167.677 518.102L161.993 528.205Z" fill="#2143FF"/>
<path d="M174.4 537.977L172.457 536.372L177.592 530.154L169.793 534.171L169.015 533.529L171.468 525.095L166.332 531.313L164.389 529.708L171.771 520.771L174.306 522.864L172.017 530.686L179.229 526.93L181.782 529.039L174.4 537.977Z" fill="#2143FF"/>
<path d="M184.81 549.892L183.197 547.955L189.394 542.795L180.986 545.3L180.341 544.525L184.31 536.691L178.114 541.851L176.501 539.915L185.409 532.497L187.513 535.023L183.817 542.286L191.598 539.929L193.718 542.474L184.81 549.892Z" fill="#2143FF"/>
<path d="M192.553 563.307L191.342 561.097L198.416 557.225L189.683 558.066L189.199 557.181L194.601 550.257L187.528 554.129L186.318 551.918L196.486 546.352L198.065 549.236L193.041 555.653L201.13 554.836L202.721 557.741L192.553 563.307Z" fill="#2143FF"/>
<path d="M197.434 577.968L196.693 575.56L204.401 573.19L195.678 572.256L195.382 571.293L202.067 565.597L194.359 567.966L193.618 565.558L204.699 562.151L205.665 565.294L199.452 570.568L207.541 571.396L208.514 574.562L197.434 577.968Z" fill="#2143FF"/>
<path d="M199.189 593.582L198.968 591.072L207.001 590.364L198.665 587.629L198.576 586.625L206.303 582.451L198.271 583.159L198.049 580.648L209.597 579.631L209.885 582.906L202.708 586.767L210.446 589.266L210.736 592.565L199.189 593.582Z" fill="#2143FF"/>
</svg>
