<svg width="241" height="789" viewBox="0 0 241 789" fill="none" xmlns="http://www.w3.org/2000/svg">
<line x1="119.998" y1="0.259582" x2="120.49" y2="575.475" stroke="#FF8C21" stroke-width="5" stroke-dasharray="10 10"/>
<path d="M73.5931 608.72C71.9298 608.144 70.7369 607.139 70.0144 605.704C69.3123 604.259 69.2568 602.682 69.848 600.973C70.4025 599.37 71.3924 598.198 72.8176 597.455C74.2632 596.702 75.7873 596.603 77.3901 597.158C79.008 597.717 80.1148 598.727 80.7105 600.186C81.3214 601.65 81.326 603.251 80.7244 604.99L80.5282 605.557L72.0682 602.63C71.8608 603.524 71.9676 604.365 72.3888 605.154C72.8099 605.943 73.5195 606.51 74.5174 606.855C75.0769 607.049 75.673 607.137 76.3057 607.118C76.9535 607.106 77.5318 606.976 78.0406 606.728L78.5878 608.67C77.1178 609.346 75.4529 609.363 73.5931 608.72ZM78.7954 603.078C79.0268 602.312 78.9798 601.542 78.6546 600.77C78.3446 600.002 77.6981 599.448 76.7153 599.108C75.7778 598.784 74.9424 598.825 74.2092 599.231C73.4812 599.623 72.9535 600.194 72.6262 600.944L78.7954 603.078Z" fill="#2143FF"/>
<path d="M89.7692 604.508C88.0092 604.508 86.5532 603.948 85.4012 602.828C84.2652 601.692 83.6972 600.22 83.6972 598.412C83.6972 596.716 84.2492 595.284 85.3532 594.116C86.4732 592.932 87.8812 592.34 89.5772 592.34C91.2892 592.34 92.6652 592.932 93.7052 594.116C94.7612 595.3 95.2892 596.812 95.2892 598.652V599.252H86.3372C86.4332 600.164 86.8092 600.924 87.4652 601.532C88.1212 602.14 88.9772 602.444 90.0332 602.444C90.6252 602.444 91.2172 602.332 91.8092 602.108C92.4172 601.884 92.9212 601.572 93.3212 601.172L94.4732 602.828C93.3052 603.948 91.7372 604.508 89.7692 604.508ZM92.8412 597.476C92.8092 596.676 92.5132 595.964 91.9532 595.34C91.4092 594.716 90.6172 594.404 89.5772 594.404C88.5852 594.404 87.8092 594.716 87.2492 595.34C86.6892 595.948 86.3772 596.66 86.3132 597.476H92.8412Z" fill="#2143FF"/>
<path d="M103.85 604.508C102.09 604.508 100.634 603.948 99.4822 602.828C98.3462 601.692 97.7782 600.22 97.7782 598.412C97.7782 596.716 98.3302 595.284 99.4342 594.116C100.554 592.932 101.962 592.34 103.658 592.34C105.37 592.34 106.746 592.932 107.786 594.116C108.842 595.3 109.37 596.812 109.37 598.652V599.252H100.418C100.514 600.164 100.89 600.924 101.546 601.532C102.202 602.14 103.058 602.444 104.114 602.444C104.706 602.444 105.298 602.332 105.89 602.108C106.498 601.884 107.002 601.572 107.402 601.172L108.554 602.828C107.386 603.948 105.818 604.508 103.85 604.508ZM106.922 597.476C106.89 596.676 106.594 595.964 106.034 595.34C105.49 594.716 104.698 594.404 103.658 594.404C102.666 594.404 101.89 594.716 101.33 595.34C100.77 595.948 100.458 596.66 100.394 597.476H106.922Z" fill="#2143FF"/>
<path d="M117.901 604.508C116.141 604.508 114.685 603.948 113.533 602.828C112.397 601.692 111.829 600.22 111.829 598.412C111.829 596.716 112.381 595.284 113.485 594.116C114.605 592.932 116.013 592.34 117.709 592.34C119.421 592.34 120.797 592.932 121.837 594.116C122.893 595.3 123.421 596.812 123.421 598.652V599.252H114.469C114.565 600.164 114.941 600.924 115.597 601.532C116.253 602.14 117.109 602.444 118.165 602.444C118.757 602.444 119.349 602.332 119.941 602.108C120.549 601.884 121.053 601.572 121.453 601.172L122.605 602.828C121.437 603.948 119.869 604.508 117.901 604.508ZM120.973 597.476C120.941 596.676 120.645 595.964 120.085 595.34C119.541 594.716 118.749 594.404 117.709 594.404C116.717 594.404 115.941 594.716 115.381 595.34C114.821 595.948 114.509 596.66 114.445 597.476H120.973Z" fill="#2143FF"/>
<path d="M129.309 607.135C127.619 606.642 126.378 605.697 125.586 604.299C124.814 602.89 124.681 601.318 125.187 599.582C125.662 597.954 126.593 596.734 127.98 595.922C129.386 595.099 130.904 594.925 132.532 595.4C134.175 595.879 135.331 596.833 135.997 598.261C136.68 599.693 136.763 601.292 136.248 603.059L136.08 603.635L127.486 601.128C127.323 602.03 127.471 602.865 127.93 603.633C128.39 604.4 129.127 604.932 130.14 605.227C130.709 605.393 131.308 605.451 131.939 605.402C132.586 605.357 133.157 605.199 133.653 604.927L134.295 606.839C132.86 607.587 131.198 607.686 129.309 607.135ZM134.227 601.244C134.42 600.467 134.336 599.701 133.973 598.945C133.625 598.194 132.952 597.672 131.954 597.381C131.002 597.103 130.169 597.186 129.457 597.628C128.749 598.055 128.25 598.651 127.96 599.416L134.227 601.244Z" fill="#2143FF"/>
<path d="M144.439 608.831C142.679 608.831 141.223 608.271 140.071 607.151C138.935 606.015 138.367 604.543 138.367 602.735C138.367 601.039 138.919 599.607 140.023 598.439C141.143 597.255 142.551 596.663 144.247 596.663C145.959 596.663 147.335 597.255 148.375 598.439C149.431 599.623 149.959 601.135 149.959 602.975V603.575H141.007C141.103 604.487 141.479 605.247 142.135 605.855C142.791 606.463 143.647 606.767 144.703 606.767C145.295 606.767 145.887 606.655 146.479 606.431C147.087 606.207 147.591 605.895 147.991 605.495L149.143 607.151C147.975 608.271 146.407 608.831 144.439 608.831ZM147.511 601.799C147.479 600.999 147.183 600.287 146.623 599.663C146.079 599.039 145.287 598.727 144.247 598.727C143.255 598.727 142.479 599.039 141.919 599.663C141.359 600.271 141.047 600.983 140.983 601.799H147.511Z" fill="#2143FF"/>
<path d="M154.711 609.253C153.239 608.288 152.329 607.021 151.981 605.452C151.654 603.879 151.987 602.337 152.979 600.825C153.91 599.407 155.157 598.513 156.721 598.142C158.307 597.767 159.809 598.045 161.227 598.975C162.658 599.915 163.484 601.165 163.703 602.725C163.937 604.294 163.548 605.848 162.539 607.387L162.209 607.888L154.725 602.976C154.305 603.791 154.203 604.633 154.417 605.501C154.632 606.369 155.181 607.093 156.064 607.673C156.559 607.997 157.115 608.229 157.733 608.366C158.364 608.513 158.957 608.528 159.511 608.413L159.565 610.43C157.974 610.725 156.356 610.333 154.711 609.253ZM161.137 605.06C161.55 604.374 161.693 603.616 161.567 602.787C161.455 601.967 160.964 601.272 160.094 600.701C159.265 600.157 158.445 599.992 157.634 600.206C156.833 600.407 156.181 600.831 155.68 601.478L161.137 605.06Z" fill="#2143FF"/>
<path d="M159.727 612.751C161.482 612.615 162.977 613.061 164.212 614.089C165.432 615.133 166.112 616.557 166.252 618.36C166.383 620.051 165.943 621.521 164.933 622.771C163.908 624.038 162.55 624.737 160.859 624.868C159.152 625 157.734 624.516 156.606 623.416C155.461 622.317 154.818 620.85 154.676 619.016L154.63 618.418L163.555 617.726C163.389 616.824 162.955 616.096 162.254 615.54C161.553 614.985 160.676 614.748 159.623 614.829C159.033 614.875 158.452 615.032 157.879 615.301C157.29 615.572 156.811 615.922 156.443 616.351L155.167 614.789C156.245 613.582 157.765 612.903 159.727 612.751ZM157.208 619.999C157.301 620.794 157.651 621.481 158.258 622.06C158.849 622.64 159.662 622.89 160.699 622.81C161.688 622.733 162.438 622.362 162.948 621.697C163.459 621.047 163.715 620.314 163.716 619.495L157.208 619.999Z" fill="#2143FF"/>
<path d="M145.348 612.751C147.103 612.615 148.597 613.061 149.832 614.089C151.053 615.133 151.733 616.557 151.873 618.36C152.004 620.051 151.564 621.521 150.553 622.771C149.528 624.038 148.17 624.737 146.479 624.868C144.772 625 143.355 624.516 142.226 623.416C141.082 622.317 140.439 620.85 140.297 619.016L140.25 618.418L149.176 617.726C149.009 616.824 148.576 616.096 147.875 615.54C147.174 614.985 146.297 614.748 145.244 614.829C144.654 614.875 144.072 615.032 143.499 615.301C142.91 615.572 142.432 615.922 142.064 616.351L140.788 614.789C141.866 613.582 143.386 612.903 145.348 612.751ZM142.828 619.999C142.922 620.794 143.272 621.481 143.879 622.06C144.469 622.64 145.283 622.89 146.32 622.81C147.309 622.733 148.058 622.362 148.568 621.697C149.08 621.047 149.336 620.314 149.337 619.495L142.828 619.999Z" fill="#2143FF"/>
<path d="M132.369 611.616C134.112 611.864 135.474 612.623 136.457 613.894C137.422 615.178 137.778 616.716 137.523 618.506C137.285 620.185 136.537 621.525 135.28 622.526C134.004 623.541 132.527 623.929 130.848 623.69C129.153 623.45 127.874 622.67 127.011 621.351C126.132 620.031 125.821 618.459 126.08 616.638L126.165 616.044L135.028 617.303C135.061 616.386 134.796 615.581 134.232 614.887C133.668 614.193 132.863 613.771 131.817 613.623C131.231 613.539 130.629 613.567 130.012 613.706C129.378 613.842 128.835 614.08 128.383 614.42L127.475 612.618C128.789 611.673 130.421 611.34 132.369 611.616ZM128.339 618.146C128.258 618.943 128.451 619.689 128.917 620.386C129.368 621.08 130.108 621.501 131.138 621.647C132.12 621.786 132.932 621.587 133.575 621.048C134.214 620.524 134.624 619.863 134.802 619.064L128.339 618.146Z" fill="#2143FF"/>
<path d="M116.791 611.085C118.515 610.733 120.054 610.989 121.407 611.856C122.748 612.741 123.599 614.069 123.962 615.841C124.301 617.502 124.048 619.016 123.2 620.381C122.34 621.766 121.079 622.628 119.418 622.968C117.74 623.311 116.274 623.007 115.018 622.055C113.746 621.107 112.925 619.731 112.557 617.929L112.436 617.341L121.207 615.547C120.93 614.673 120.409 614.003 119.645 613.539C118.88 613.075 117.981 612.949 116.946 613.16C116.366 613.279 115.809 613.507 115.273 613.845C114.723 614.187 114.291 614.593 113.98 615.065L112.519 613.674C113.439 612.343 114.863 611.48 116.791 611.085ZM115.191 618.59C115.382 619.368 115.815 620.006 116.489 620.505C117.147 621.007 117.985 621.154 119.004 620.946C119.976 620.747 120.674 620.286 121.097 619.562C121.524 618.854 121.687 618.094 121.586 617.282L115.191 618.59Z" fill="#2143FF"/>
<path d="M104.956 611.647C106.71 611.789 108.116 612.464 109.174 613.673C110.215 614.897 110.663 616.41 110.517 618.212C110.38 619.903 109.715 621.286 108.52 622.361C107.308 623.451 105.857 623.928 104.167 623.791C102.46 623.653 101.137 622.952 100.195 621.688C99.2382 620.423 98.8337 618.873 98.982 617.039L99.0304 616.441L107.953 617.162C107.931 616.246 107.618 615.458 107.013 614.799C106.408 614.14 105.579 613.768 104.527 613.683C103.936 613.635 103.337 613.699 102.729 613.875C102.105 614.049 101.578 614.319 101.147 614.686L100.132 612.942C101.386 611.92 102.994 611.488 104.956 611.647ZM101.327 618.408C101.295 619.208 101.532 619.942 102.04 620.609C102.532 621.275 103.296 621.65 104.333 621.734C105.322 621.813 106.12 621.565 106.729 620.988C107.336 620.427 107.705 619.743 107.834 618.935L101.327 618.408Z" fill="#2143FF"/>
<path d="M91.0019 611.887C92.7562 612.029 94.1623 612.704 95.2203 613.913C96.2611 615.137 96.7086 616.65 96.5629 618.452C96.4262 620.143 95.7606 621.526 94.5661 622.601C93.3543 623.691 91.9031 624.167 90.2127 624.031C88.5062 623.893 87.1824 623.192 86.2412 621.928C85.2841 620.662 84.8796 619.113 85.0279 617.279L85.0763 616.681L93.9992 617.402C93.977 616.485 93.6634 615.698 93.0586 615.039C92.4537 614.38 91.625 614.008 90.5724 613.923C89.9824 613.875 89.3833 613.939 88.7751 614.114C88.1511 614.289 87.6236 614.559 87.1926 614.926L86.1778 613.182C87.4323 612.16 89.0403 611.728 91.0019 611.887ZM87.3732 618.648C87.3406 619.448 87.5783 620.182 88.0862 620.849C88.5781 621.515 89.3424 621.889 90.379 621.973C91.3678 622.053 92.1664 621.805 92.7749 621.228C93.382 620.667 93.7504 619.983 93.88 619.174L87.3732 618.648Z" fill="#2143FF"/>
<path d="M76.7845 611.545C78.5428 611.622 79.9728 612.245 81.0747 613.415C82.1598 614.599 82.6627 616.095 82.5835 617.901C82.5092 619.595 81.895 621.002 80.7409 622.12C79.5701 623.254 78.1375 623.784 76.4431 623.71C74.7328 623.635 73.384 622.983 72.3969 621.754C71.3938 620.525 70.9325 618.992 71.0132 617.153L71.0395 616.554L79.9829 616.946C79.9269 616.031 79.5846 615.255 78.9558 614.619C78.3271 613.983 77.4853 613.642 76.4303 613.595C75.8388 613.569 75.2425 613.655 74.6413 613.853C74.024 614.05 73.5068 614.34 73.0897 614.722L72.0114 613.017C73.2273 611.949 74.8183 611.459 76.7845 611.545ZM73.4073 618.435C73.4042 619.236 73.6687 619.96 74.2008 620.608C74.717 621.256 75.4945 621.602 76.5335 621.648C77.5246 621.691 78.3135 621.413 78.9003 620.814C79.4864 620.232 79.8293 619.534 79.929 618.721L73.4073 618.435Z" fill="#2143FF"/>
<path d="M62.0242 606.896C63.7825 606.973 65.2126 607.597 66.3144 608.766C67.3995 609.951 67.9025 611.446 67.8233 613.252C67.749 614.947 67.1347 616.353 65.9806 617.472C64.8098 618.605 63.3772 619.135 61.6829 619.061C59.9725 618.986 58.6238 618.334 57.6366 617.106C56.6335 615.877 56.1723 614.343 56.2529 612.505L56.2792 611.905L65.2226 612.297C65.1667 611.382 64.8243 610.606 64.1956 609.97C63.5669 609.334 62.725 608.993 61.67 608.947C61.0786 608.921 60.4823 609.007 59.881 609.204C59.2638 609.402 58.7466 609.691 58.3294 610.073L57.2511 608.368C58.4671 607.301 60.0581 606.81 62.0242 606.896ZM58.647 613.787C58.6439 614.587 58.9085 615.312 59.4406 615.96C59.9567 616.607 60.7343 616.953 61.7733 616.999C62.7643 617.042 63.5533 616.765 64.1401 616.166C64.7262 615.583 65.0691 614.885 65.1688 614.073L58.647 613.787Z" fill="#2143FF"/>
<path d="M206.494 650.969C208.162 650.408 209.721 650.475 211.169 651.169C212.608 651.884 213.616 653.098 214.192 654.812C214.733 656.419 214.666 657.953 213.992 659.412C213.308 660.891 212.162 661.901 210.555 662.441C208.932 662.987 207.439 662.865 206.076 662.074C204.697 661.288 203.715 660.024 203.129 658.28L202.937 657.711L211.422 654.857C211.041 654.023 210.442 653.423 209.626 653.056C208.811 652.689 207.902 652.673 206.902 653.01C206.34 653.199 205.815 653.494 205.325 653.895C204.82 654.301 204.442 654.757 204.191 655.264L202.571 654.061C203.321 652.627 204.628 651.597 206.494 650.969ZM205.824 658.614C206.109 659.362 206.617 659.942 207.346 660.355C208.061 660.773 208.911 660.817 209.897 660.485C210.837 660.169 211.473 659.626 211.805 658.856C212.142 658.101 212.211 657.327 212.011 656.533L205.824 658.614Z" fill="#2143FF"/>
<path d="M193.224 655.432C194.892 654.871 196.451 654.938 197.899 655.632C199.338 656.347 200.346 657.561 200.922 659.275C201.463 660.882 201.396 662.416 200.722 663.875C200.038 665.354 198.892 666.364 197.285 666.904C195.662 667.45 194.169 667.328 192.806 666.537C191.427 665.751 190.445 664.486 189.859 662.742L189.667 662.174L198.152 659.32C197.771 658.486 197.172 657.886 196.356 657.519C195.541 657.151 194.632 657.136 193.632 657.473C193.07 657.662 192.545 657.956 192.055 658.357C191.55 658.764 191.172 659.22 190.921 659.727L189.301 658.524C190.051 657.09 191.358 656.06 193.224 655.432ZM192.554 663.077C192.839 663.825 193.347 664.405 194.076 664.818C194.791 665.236 195.641 665.28 196.627 664.948C197.567 664.632 198.203 664.089 198.535 663.319C198.872 662.564 198.941 661.79 198.741 660.996L192.554 663.077Z" fill="#2143FF"/>
<path d="M181.975 672.635C180.215 672.635 178.759 672.075 177.607 670.955C176.471 669.819 175.903 668.347 175.903 666.539C175.903 664.843 176.455 663.411 177.559 662.243C178.679 661.059 180.087 660.467 181.783 660.467C183.495 660.467 184.871 661.059 185.911 662.243C186.967 663.427 187.495 664.939 187.495 666.779V667.379H178.543C178.639 668.291 179.015 669.051 179.671 669.659C180.327 670.267 181.183 670.571 182.239 670.571C182.831 670.571 183.423 670.459 184.015 670.235C184.623 670.011 185.127 669.699 185.527 669.299L186.679 670.955C185.511 672.075 183.943 672.635 181.975 672.635ZM185.047 665.603C185.015 664.803 184.719 664.091 184.159 663.467C183.615 662.843 182.823 662.531 181.783 662.531C180.791 662.531 180.015 662.843 179.455 663.467C178.895 664.075 178.583 664.787 178.519 665.603H185.047Z" fill="#2143FF"/>
<path d="M168.032 672.635C166.272 672.635 164.816 672.075 163.664 670.955C162.528 669.819 161.96 668.347 161.96 666.539C161.96 664.843 162.512 663.411 163.616 662.243C164.736 661.059 166.144 660.467 167.84 660.467C169.552 660.467 170.928 661.059 171.968 662.243C173.024 663.427 173.552 664.939 173.552 666.779V667.379H164.6C164.696 668.291 165.072 669.051 165.728 669.659C166.384 670.267 167.24 670.571 168.296 670.571C168.888 670.571 169.48 670.459 170.072 670.235C170.68 670.011 171.184 669.699 171.584 669.299L172.736 670.955C171.568 672.075 170 672.635 168.032 672.635ZM171.104 665.603C171.072 664.803 170.776 664.091 170.216 663.467C169.672 662.843 168.88 662.531 167.84 662.531C166.848 662.531 166.072 662.843 165.512 663.467C164.952 664.075 164.64 664.787 164.576 665.603H171.104Z" fill="#2143FF"/>
<path d="M153.929 672.635C152.169 672.635 150.713 672.075 149.561 670.955C148.425 669.819 147.857 668.347 147.857 666.539C147.857 664.843 148.409 663.411 149.513 662.243C150.633 661.059 152.041 660.467 153.737 660.467C155.449 660.467 156.825 661.059 157.865 662.243C158.921 663.427 159.449 664.939 159.449 666.779V667.379H150.497C150.593 668.291 150.969 669.051 151.625 669.659C152.281 670.267 153.137 670.571 154.193 670.571C154.785 670.571 155.377 670.459 155.969 670.235C156.577 670.011 157.081 669.699 157.481 669.299L158.633 670.955C157.465 672.075 155.897 672.635 153.929 672.635ZM157.001 665.603C156.969 664.803 156.673 664.091 156.113 663.467C155.569 662.843 154.777 662.531 153.737 662.531C152.745 662.531 151.969 662.843 151.409 663.467C150.849 664.075 150.537 664.787 150.473 665.603H157.001Z" fill="#2143FF"/>
<path d="M139.973 672.635C138.213 672.635 136.757 672.075 135.605 670.955C134.469 669.819 133.901 668.347 133.901 666.539C133.901 664.843 134.453 663.411 135.557 662.243C136.677 661.059 138.085 660.467 139.781 660.467C141.493 660.467 142.869 661.059 143.909 662.243C144.965 663.427 145.493 664.939 145.493 666.779V667.379H136.541C136.637 668.291 137.013 669.051 137.669 669.659C138.325 670.267 139.181 670.571 140.237 670.571C140.829 670.571 141.421 670.459 142.013 670.235C142.621 670.011 143.125 669.699 143.525 669.299L144.677 670.955C143.509 672.075 141.941 672.635 139.973 672.635ZM143.045 665.603C143.013 664.803 142.717 664.091 142.157 663.467C141.613 662.843 140.821 662.531 139.781 662.531C138.789 662.531 138.013 662.843 137.453 663.467C136.893 664.075 136.581 664.787 136.517 665.603H143.045Z" fill="#2143FF"/>
<path d="M124.341 679.883C122.976 678.773 122.2 677.419 122.013 675.824C121.848 674.225 122.337 672.725 123.478 671.323C124.548 670.007 125.88 669.245 127.474 669.035C129.09 668.824 130.555 669.253 131.871 670.324C133.199 671.404 133.893 672.732 133.952 674.306C134.024 675.891 133.48 677.397 132.318 678.825L131.94 679.29L124.996 673.64C124.495 674.408 124.307 675.235 124.432 676.121C124.557 677.007 125.029 677.783 125.848 678.449C126.307 678.823 126.837 679.109 127.438 679.309C128.051 679.519 128.639 679.595 129.201 679.537L129.05 681.549C127.437 681.681 125.867 681.125 124.341 679.883ZM131.162 676.367C131.642 675.727 131.861 674.988 131.821 674.15C131.793 673.323 131.375 672.581 130.568 671.925C129.799 671.299 129 671.051 128.172 671.181C127.354 671.3 126.662 671.655 126.098 672.248L131.162 676.367Z" fill="#2143FF"/>
<path d="M141.094 688.47C139.334 688.47 137.878 687.91 136.726 686.79C135.59 685.654 135.022 684.182 135.022 682.374C135.022 680.678 135.574 679.246 136.678 678.078C137.798 676.894 139.206 676.302 140.902 676.302C142.614 676.302 143.99 676.894 145.03 678.078C146.086 679.262 146.614 680.774 146.614 682.614V683.214H137.662C137.758 684.126 138.134 684.886 138.79 685.494C139.446 686.102 140.302 686.406 141.358 686.406C141.95 686.406 142.542 686.294 143.134 686.07C143.742 685.846 144.246 685.534 144.646 685.134L145.798 686.79C144.63 687.91 143.062 688.47 141.094 688.47ZM144.166 681.438C144.134 680.638 143.838 679.926 143.278 679.302C142.734 678.678 141.942 678.366 140.902 678.366C139.91 678.366 139.134 678.678 138.574 679.302C138.014 679.91 137.702 680.622 137.638 681.438H144.166Z" fill="#2143FF"/>
<path d="M155.094 688.47C153.334 688.47 151.878 687.91 150.726 686.79C149.59 685.654 149.022 684.182 149.022 682.374C149.022 680.678 149.574 679.246 150.678 678.078C151.798 676.894 153.206 676.302 154.902 676.302C156.614 676.302 157.99 676.894 159.03 678.078C160.086 679.262 160.614 680.774 160.614 682.614V683.214H151.662C151.758 684.126 152.134 684.886 152.79 685.494C153.446 686.102 154.302 686.406 155.358 686.406C155.95 686.406 156.542 686.294 157.134 686.07C157.742 685.846 158.246 685.534 158.646 685.134L159.798 686.79C158.63 687.91 157.062 688.47 155.094 688.47ZM158.166 681.438C158.134 680.638 157.838 679.926 157.278 679.302C156.734 678.678 155.942 678.366 154.902 678.366C153.91 678.366 153.134 678.678 152.574 679.302C152.014 679.91 151.702 680.622 151.638 681.438H158.166Z" fill="#2143FF"/>
<path d="M169.226 688.47C167.466 688.47 166.01 687.91 164.858 686.79C163.722 685.654 163.154 684.182 163.154 682.374C163.154 680.678 163.706 679.246 164.81 678.078C165.93 676.894 167.338 676.302 169.034 676.302C170.746 676.302 172.122 676.894 173.162 678.078C174.218 679.262 174.746 680.774 174.746 682.614V683.214H165.794C165.89 684.126 166.266 684.886 166.922 685.494C167.578 686.102 168.434 686.406 169.49 686.406C170.082 686.406 170.674 686.294 171.266 686.07C171.874 685.846 172.378 685.534 172.778 685.134L173.93 686.79C172.762 687.91 171.194 688.47 169.226 688.47ZM172.298 681.438C172.266 680.638 171.97 679.926 171.41 679.302C170.866 678.678 170.074 678.366 169.034 678.366C168.042 678.366 167.266 678.678 166.706 679.302C166.146 679.91 165.834 680.622 165.77 681.438H172.298Z" fill="#2143FF"/>
<path d="M183.226 688.47C181.466 688.47 180.01 687.91 178.858 686.79C177.722 685.654 177.154 684.182 177.154 682.374C177.154 680.678 177.706 679.246 178.81 678.078C179.93 676.894 181.338 676.302 183.034 676.302C184.746 676.302 186.122 676.894 187.162 678.078C188.218 679.262 188.746 680.774 188.746 682.614V683.214H179.794C179.89 684.126 180.266 684.886 180.922 685.494C181.578 686.102 182.434 686.406 183.49 686.406C184.082 686.406 184.674 686.294 185.266 686.07C185.874 685.846 186.378 685.534 186.778 685.134L187.93 686.79C186.762 687.91 185.194 688.47 183.226 688.47ZM186.298 681.438C186.266 680.638 185.97 679.926 185.41 679.302C184.866 678.678 184.074 678.366 183.034 678.366C182.042 678.366 181.266 678.678 180.706 679.302C180.146 679.91 179.834 680.622 179.77 681.438H186.298Z" fill="#2143FF"/>
<path d="M197.096 686.162C195.336 686.162 193.88 685.602 192.728 684.482C191.592 683.346 191.024 681.874 191.024 680.066C191.024 678.37 191.576 676.938 192.68 675.77C193.8 674.586 195.208 673.994 196.904 673.994C198.616 673.994 199.992 674.586 201.032 675.77C202.088 676.954 202.616 678.466 202.616 680.306V680.906H193.664C193.76 681.818 194.136 682.578 194.792 683.186C195.448 683.794 196.304 684.098 197.36 684.098C197.952 684.098 198.544 683.986 199.136 683.762C199.744 683.538 200.248 683.226 200.648 682.826L201.8 684.482C200.632 685.602 199.064 686.162 197.096 686.162ZM200.168 679.13C200.136 678.33 199.84 677.618 199.28 676.994C198.736 676.37 197.944 676.058 196.904 676.058C195.912 676.058 195.136 676.37 194.576 676.994C194.016 677.602 193.704 678.314 193.64 679.13H200.168Z" fill="#2143FF"/>
<path d="M212.889 681.736C211.194 682.212 209.641 682.068 208.229 681.302C206.828 680.516 205.882 679.253 205.392 677.512C204.933 675.88 205.076 674.352 205.823 672.928C206.58 671.485 207.775 670.534 209.408 670.075C211.056 669.611 212.541 669.808 213.862 670.666C215.2 671.52 216.118 672.832 216.616 674.603L216.778 675.181L208.161 677.606C208.501 678.458 209.068 679.087 209.865 679.495C210.661 679.903 211.567 679.963 212.584 679.677C213.153 679.517 213.693 679.249 214.202 678.873C214.727 678.492 215.127 678.056 215.404 677.562L216.962 678.844C216.141 680.239 214.783 681.203 212.889 681.736ZM213.941 674.134C213.693 673.373 213.216 672.768 212.508 672.319C211.815 671.865 210.968 671.78 209.967 672.061C209.012 672.33 208.349 672.841 207.979 673.593C207.605 674.33 207.498 675.1 207.657 675.903L213.941 674.134Z" fill="#2143FF"/>
<path d="M38.9612 648.243C37.2068 648.103 35.7996 647.43 34.7399 646.222C33.6973 645 33.2476 643.488 33.3906 641.685C33.5248 639.995 34.1884 638.611 35.3814 637.534C36.5915 636.442 38.042 635.963 39.7326 636.098C41.4393 636.233 42.7641 636.932 43.7072 638.195C44.6662 639.459 45.0729 641.008 44.9273 642.842L44.8798 643.44L35.9559 642.732C35.9794 643.648 36.2941 644.436 36.8999 645.094C37.5058 645.752 38.335 646.122 39.3877 646.206C39.9779 646.253 40.5769 646.188 41.1848 646.012C41.8086 645.836 42.3357 645.565 42.7661 645.198L43.7834 646.94C42.5305 647.964 40.9231 648.398 38.9612 648.243ZM42.58 641.476C42.6114 640.676 42.3727 639.943 41.8638 639.276C41.3709 638.611 40.6061 638.237 39.5693 638.155C38.5804 638.077 37.7822 638.326 37.1746 638.904C36.5682 639.466 36.2009 640.151 36.0725 640.959L42.58 641.476Z" fill="#2143FF"/>
<path d="M54.9495 649.35C53.195 649.211 51.7879 648.538 50.7282 647.33C49.6856 646.108 49.2359 644.595 49.3789 642.793C49.5131 641.102 50.1767 639.718 51.3696 638.641C52.5798 637.55 54.0302 637.071 55.7209 637.205C57.4276 637.341 58.7524 638.04 59.6955 639.302C60.6545 640.566 61.0612 642.115 60.9156 643.949L60.8681 644.548L51.9442 643.839C51.9677 644.756 52.2824 645.543 52.8882 646.201C53.4941 646.859 54.3233 647.23 55.376 647.314C55.9662 647.361 56.5652 647.296 57.173 647.119C57.7968 646.944 58.324 646.673 58.7544 646.306L59.7717 648.048C58.5187 649.072 56.9114 649.506 54.9495 649.35ZM58.5683 642.583C58.5997 641.783 58.361 641.05 57.8521 640.384C57.3592 639.719 56.5944 639.345 55.5576 639.263C54.5687 639.184 53.7705 639.434 53.1629 640.012C52.5565 640.573 52.1891 641.259 52.0608 642.067L58.5683 642.583Z" fill="#2143FF"/>
<path d="M70.3001 650.691C68.5677 650.38 67.2335 649.572 66.2974 648.266C65.3799 646.947 65.0809 645.398 65.4002 643.618C65.6997 641.949 66.496 640.637 67.7889 639.682C69.1004 638.715 70.5908 638.381 72.2602 638.68C73.9453 638.983 75.1951 639.808 76.0096 641.157C76.8399 642.509 77.0925 644.091 76.7676 645.902L76.6616 646.492L67.8503 644.911C67.7837 645.826 68.0196 646.64 68.5579 647.355C69.0962 648.069 69.8851 648.519 70.9245 648.706C71.5071 648.811 72.1096 648.805 72.7319 648.689C73.3699 648.576 73.9211 648.358 74.3854 648.035L75.2268 649.868C73.8794 650.764 72.2371 651.038 70.3001 650.691ZM74.5657 644.312C74.6755 643.519 74.5099 642.766 74.069 642.053C73.6437 641.342 72.9193 640.896 71.8956 640.712C70.9192 640.537 70.1003 640.707 69.4389 641.222C68.7803 641.721 68.3475 642.367 68.1404 643.159L74.5657 644.312Z" fill="#2143FF"/>
<path d="M85.8522 651.757C84.0922 651.757 82.6362 651.197 81.4842 650.077C80.3482 648.941 79.7802 647.469 79.7802 645.661C79.7802 643.965 80.3322 642.533 81.4362 641.365C82.5562 640.181 83.9642 639.589 85.6602 639.589C87.3722 639.589 88.7482 640.181 89.7882 641.365C90.8442 642.549 91.3722 644.061 91.3722 645.901V646.501H82.4202C82.5162 647.413 82.8922 648.173 83.5482 648.781C84.2042 649.389 85.0602 649.693 86.1162 649.693C86.7082 649.693 87.3002 649.581 87.8922 649.357C88.5002 649.133 89.0042 648.821 89.4042 648.421L90.5562 650.077C89.3882 651.197 87.8202 651.757 85.8522 651.757ZM88.9242 644.725C88.8922 643.925 88.5962 643.213 88.0362 642.589C87.4922 641.965 86.7002 641.653 85.6602 641.653C84.6682 641.653 83.8922 641.965 83.3322 642.589C82.7722 643.197 82.4602 643.909 82.3962 644.725H88.9242Z" fill="#2143FF"/>
<path d="M95.361 649.94C94.3601 648.492 93.9927 646.976 94.2588 645.391C94.5472 643.811 95.4349 642.506 96.9221 641.478C98.3171 640.514 99.809 640.153 101.398 640.397C103.008 640.645 104.296 641.467 105.261 642.862C106.234 644.27 106.53 645.738 106.147 647.267C105.774 648.809 104.83 650.103 103.317 651.15L102.823 651.491L97.7325 644.127C97.0369 644.725 96.6256 645.467 96.4986 646.352C96.3715 647.237 96.6083 648.114 97.2088 648.983C97.5455 649.47 97.9743 649.893 98.4952 650.253C99.0252 650.625 99.5685 650.863 100.125 650.964L99.418 652.853C97.8325 652.53 96.4801 651.558 95.361 649.94ZM102.892 648.467C103.532 647.986 103.949 647.338 104.144 646.522C104.348 645.72 104.154 644.891 103.563 644.036C102.999 643.22 102.301 642.759 101.469 642.653C100.65 642.538 99.8873 642.686 99.1797 643.098L102.892 648.467Z" fill="#2143FF"/>
<path d="M99.2261 655.881C100.833 655.164 102.391 655.082 103.9 655.635C105.4 656.209 106.519 657.322 107.255 658.973C107.947 660.522 108.026 662.055 107.494 663.571C106.954 665.109 105.909 666.223 104.361 666.915C102.797 667.612 101.3 667.632 99.8672 666.975C98.4204 666.324 97.322 665.159 96.5721 663.479L96.3275 662.931L104.502 659.282C104.043 658.488 103.39 657.948 102.543 657.66C101.696 657.372 100.791 657.443 99.8263 657.874C99.2857 658.115 98.7907 658.458 98.3414 658.904C97.8775 659.357 97.5444 659.847 97.3421 660.375L95.6152 659.333C96.2254 657.834 97.429 656.683 99.2261 655.881ZM99.2868 663.555C99.6421 664.272 100.203 664.802 100.968 665.143C101.719 665.491 102.57 665.454 103.519 665.03C104.425 664.625 105.007 664.024 105.264 663.226C105.527 662.443 105.522 661.665 105.248 660.894L99.2868 663.555Z" fill="#2143FF"/>
<path d="M88.1261 667.812C86.3661 667.812 84.9101 667.252 83.7581 666.132C82.6221 664.996 82.0541 663.524 82.0541 661.716C82.0541 660.02 82.6061 658.588 83.7101 657.42C84.8301 656.236 86.2381 655.644 87.9341 655.644C89.6461 655.644 91.0221 656.236 92.0621 657.42C93.1181 658.604 93.6461 660.116 93.6461 661.956V662.556H84.6941C84.7901 663.468 85.1661 664.228 85.8221 664.836C86.4781 665.444 87.3341 665.748 88.3901 665.748C88.9821 665.748 89.5741 665.636 90.1661 665.412C90.7741 665.188 91.2781 664.876 91.6781 664.476L92.8301 666.132C91.6621 667.252 90.0941 667.812 88.1261 667.812ZM91.1981 660.78C91.1661 659.98 90.8701 659.268 90.3101 658.644C89.7661 658.02 88.9741 657.708 87.9341 657.708C86.9421 657.708 86.1661 658.02 85.6061 658.644C85.0461 659.252 84.7341 659.964 84.6701 660.78H91.1981Z" fill="#2143FF"/>
<path d="M74.1261 667.812C72.3661 667.812 70.9101 667.252 69.7581 666.132C68.6221 664.996 68.0541 663.524 68.0541 661.716C68.0541 660.02 68.6061 658.588 69.7101 657.42C70.8301 656.236 72.2381 655.644 73.9341 655.644C75.6461 655.644 77.0221 656.236 78.0621 657.42C79.1181 658.604 79.6461 660.116 79.6461 661.956V662.556H70.6941C70.7901 663.468 71.1661 664.228 71.8221 664.836C72.4781 665.444 73.3341 665.748 74.3901 665.748C74.9821 665.748 75.5741 665.636 76.1661 665.412C76.7741 665.188 77.2781 664.876 77.6781 664.476L78.8301 666.132C77.6621 667.252 76.0941 667.812 74.1261 667.812ZM77.1981 660.78C77.1661 659.98 76.8701 659.268 76.3101 658.644C75.7661 658.02 74.9741 657.708 73.9341 657.708C72.9421 657.708 72.1661 658.02 71.6061 658.644C71.0461 659.252 70.7341 659.964 70.6701 660.78H77.1981Z" fill="#2143FF"/>
<path d="M60.6684 654.644C62.4257 654.742 63.8481 655.383 64.9356 656.565C66.0063 657.763 66.4911 659.265 66.39 661.07C66.2951 662.763 65.6639 664.162 64.4963 665.266C63.3119 666.386 61.873 666.898 60.1796 666.803C58.4703 666.708 57.1296 666.04 56.1574 664.799C55.1693 663.558 54.7267 662.019 54.8296 660.182L54.8631 659.583L63.8011 660.083C63.7563 659.167 63.4233 658.388 62.8024 657.744C62.1814 657.1 61.3437 656.749 60.2894 656.69C59.6983 656.657 59.101 656.735 58.4974 656.926C57.8778 657.115 57.3572 657.399 56.9354 657.776L55.8778 656.058C57.1066 655.005 58.7035 654.534 60.6684 654.644ZM57.208 661.493C57.1952 662.293 57.4509 663.021 57.9751 663.675C58.4834 664.329 59.2567 664.684 60.295 664.743C61.2855 664.798 62.0777 664.53 62.6717 663.938C63.2649 663.363 63.6162 662.669 63.7257 661.858L57.208 661.493Z" fill="#2143FF"/>
<path d="M41.7524 655.367C43.1021 654.238 44.5781 653.733 46.1803 653.853C47.7806 653.995 49.1609 654.759 50.3212 656.146C51.4096 657.446 51.9053 658.899 51.8082 660.503C51.7092 662.13 51.0093 663.487 49.7086 664.576C48.3957 665.675 46.9605 666.104 45.4031 665.863C43.8334 665.633 42.4581 664.812 41.2773 663.401L40.8922 662.941L47.7575 657.196C47.0986 656.558 46.3225 656.216 45.4292 656.171C44.5359 656.126 43.6844 656.442 42.8745 657.12C42.4205 657.5 42.0384 657.966 41.7281 658.517C41.4056 659.079 41.2193 659.642 41.1693 660.205L39.223 659.675C39.4 658.066 40.2431 656.63 41.7524 655.367ZM43.9094 662.732C44.4473 663.325 45.1313 663.681 45.9612 663.8C46.7788 663.929 47.5865 663.66 48.384 662.993C49.1448 662.356 49.5397 661.619 49.5687 660.781C49.6079 659.956 49.3903 659.209 48.9157 658.542L43.9094 662.732Z" fill="#2143FF"/>
<path d="M31.5509 668.266C29.7909 668.266 28.3349 667.706 27.1829 666.586C26.0469 665.45 25.4789 663.978 25.4789 662.17C25.4789 660.474 26.0309 659.042 27.1349 657.874C28.2549 656.69 29.6629 656.098 31.3589 656.098C33.0709 656.098 34.4469 656.69 35.4869 657.874C36.5429 659.058 37.0709 660.57 37.0709 662.41V663.01H28.1189C28.2149 663.922 28.5909 664.682 29.2469 665.29C29.9029 665.898 30.7589 666.202 31.8149 666.202C32.4069 666.202 32.9989 666.09 33.5909 665.866C34.1989 665.642 34.7029 665.33 35.1029 664.93L36.2549 666.586C35.0869 667.706 33.5189 668.266 31.5509 668.266ZM34.6229 661.234C34.5909 660.434 34.2949 659.722 33.7349 659.098C33.1909 658.474 32.3989 658.162 31.3589 658.162C30.3669 658.162 29.5909 658.474 29.0309 659.098C28.4709 659.706 28.1589 660.418 28.0949 661.234H34.6229Z" fill="#2143FF"/>
<path d="M47.327 705.002C45.7933 705.866 44.2497 706.092 42.6965 705.681C41.1494 705.248 39.9324 704.244 39.0457 702.668C38.2139 701.19 37.9926 699.671 38.3819 698.112C38.7772 696.531 39.7139 695.324 41.1919 694.493C42.6839 693.653 44.1734 693.494 45.6604 694.016C47.1614 694.53 48.3631 695.588 49.2655 697.192L49.5598 697.715L41.7584 702.105C42.2893 702.853 42.9897 703.331 43.8596 703.539C44.7295 703.747 45.6246 703.592 46.5448 703.074C47.0607 702.784 47.5217 702.396 47.9278 701.91C48.3478 701.417 48.634 700.898 48.7864 700.353L50.6025 701.231C50.1339 702.78 49.0421 704.037 47.327 705.002ZM46.5554 697.368C46.1351 696.686 45.528 696.211 44.7339 695.942C43.9538 695.665 43.1106 695.781 42.2042 696.291C41.3397 696.778 40.8165 697.43 40.6345 698.249C40.4447 699.053 40.522 699.827 40.8664 700.569L46.5554 697.368Z" fill="#2143FF"/>
<path d="M56.357 698.793C54.597 698.793 53.141 698.233 51.989 697.113C50.853 695.977 50.285 694.505 50.285 692.697C50.285 691.001 50.837 689.569 51.941 688.401C53.061 687.217 54.469 686.625 56.165 686.625C57.877 686.625 59.253 687.217 60.293 688.401C61.349 689.585 61.877 691.097 61.877 692.937V693.537H52.925C53.021 694.449 53.397 695.209 54.053 695.817C54.709 696.425 55.565 696.729 56.621 696.729C57.213 696.729 57.805 696.617 58.397 696.393C59.005 696.169 59.509 695.857 59.909 695.457L61.061 697.113C59.893 698.233 58.325 698.793 56.357 698.793ZM59.429 691.761C59.397 690.961 59.101 690.249 58.541 689.625C57.997 689.001 57.205 688.689 56.165 688.689C55.173 688.689 54.397 689.001 53.837 689.625C53.277 690.233 52.965 690.945 52.901 691.761H59.429Z" fill="#2143FF"/>
<path d="M70.5226 698.153C68.7626 698.153 67.3066 697.593 66.1546 696.473C65.0186 695.337 64.4506 693.865 64.4506 692.057C64.4506 690.361 65.0026 688.929 66.1066 687.761C67.2266 686.577 68.6346 685.985 70.3306 685.985C72.0426 685.985 73.4186 686.577 74.4586 687.761C75.5146 688.945 76.0426 690.457 76.0426 692.297V692.897H67.0906C67.1866 693.809 67.5626 694.569 68.2186 695.177C68.8746 695.785 69.7306 696.089 70.7866 696.089C71.3786 696.089 71.9706 695.977 72.5626 695.753C73.1706 695.529 73.6746 695.217 74.0746 694.817L75.2266 696.473C74.0586 697.593 72.4906 698.153 70.5226 698.153ZM73.5946 691.121C73.5626 690.321 73.2666 689.609 72.7066 688.985C72.1626 688.361 71.3706 688.049 70.3306 688.049C69.3386 688.049 68.5626 688.361 68.0026 688.985C67.4426 689.593 67.1306 690.305 67.0666 691.121H73.5946Z" fill="#2143FF"/>
<path d="M81.8683 701.457C80.2144 700.855 79.0376 699.831 78.338 698.384C77.6588 696.929 77.6284 695.351 78.2466 693.652C78.8264 692.058 79.8348 690.901 81.2716 690.181C82.7289 689.451 84.2545 689.376 85.8483 689.956C87.4571 690.542 88.5478 691.569 89.1203 693.037C89.7078 694.51 89.687 696.112 89.0579 697.841L88.8527 698.405L80.4402 695.344C80.2186 696.234 80.3121 697.077 80.7207 697.872C81.1293 698.668 81.8297 699.246 82.8221 699.607C83.3784 699.81 83.973 699.907 84.6059 699.899C85.2539 699.896 85.8342 699.775 86.3469 699.536L86.8632 701.486C85.3827 702.139 83.7177 702.13 81.8683 701.457ZM87.1595 695.899C87.403 695.136 87.3682 694.366 87.0553 693.588C86.7575 692.816 86.1199 692.252 85.1426 691.896C84.2104 691.557 83.3744 691.585 82.6348 691.98C81.9007 692.359 81.3641 692.922 81.0249 693.667L87.1595 695.899Z" fill="#2143FF"/>
<path d="M96.7125 707.114C94.9525 707.114 93.4965 706.554 92.3445 705.434C91.2085 704.298 90.6405 702.826 90.6405 701.018C90.6405 699.322 91.1925 697.89 92.2965 696.722C93.4165 695.538 94.8245 694.946 96.5205 694.946C98.2325 694.946 99.6085 695.538 100.649 696.722C101.705 697.906 102.233 699.418 102.233 701.258V701.858H93.2805C93.3765 702.77 93.7525 703.53 94.4085 704.138C95.0645 704.746 95.9205 705.05 96.9765 705.05C97.5685 705.05 98.1605 704.938 98.7525 704.714C99.3605 704.49 99.8645 704.178 100.265 703.778L101.417 705.434C100.249 706.554 98.6805 707.114 96.7125 707.114ZM99.7845 700.082C99.7525 699.282 99.4565 698.57 98.8965 697.946C98.3525 697.322 97.5605 697.01 96.5205 697.01C95.5285 697.01 94.7525 697.322 94.1925 697.946C93.6325 698.554 93.3205 699.266 93.2565 700.082H99.7845Z" fill="#2143FF"/>
<path d="M109.609 707.114C107.849 707.114 106.393 706.554 105.241 705.434C104.105 704.298 103.537 702.826 103.537 701.018C103.537 699.322 104.089 697.89 105.193 696.722C106.313 695.538 107.721 694.946 109.417 694.946C111.129 694.946 112.505 695.538 113.545 696.722C114.601 697.906 115.129 699.418 115.129 701.258V701.858H106.177C106.273 702.77 106.649 703.53 107.305 704.138C107.961 704.746 108.817 705.05 109.873 705.05C110.465 705.05 111.057 704.938 111.649 704.714C112.257 704.49 112.761 704.178 113.161 703.778L114.313 705.434C113.145 706.554 111.577 707.114 109.609 707.114ZM112.681 700.082C112.649 699.282 112.353 698.57 111.793 697.946C111.249 697.322 110.457 697.01 109.417 697.01C108.425 697.01 107.649 697.322 107.089 697.946C106.529 698.554 106.217 699.266 106.153 700.082H112.681Z" fill="#2143FF"/>
<path d="M122.707 707.114C120.947 707.114 119.491 706.554 118.339 705.434C117.203 704.298 116.635 702.826 116.635 701.018C116.635 699.322 117.187 697.89 118.291 696.722C119.411 695.538 120.819 694.946 122.515 694.946C124.227 694.946 125.603 695.538 126.643 696.722C127.699 697.906 128.227 699.418 128.227 701.258V701.858H119.275C119.371 702.77 119.747 703.53 120.403 704.138C121.059 704.746 121.915 705.05 122.971 705.05C123.563 705.05 124.155 704.938 124.747 704.714C125.355 704.49 125.859 704.178 126.259 703.778L127.411 705.434C126.243 706.554 124.675 707.114 122.707 707.114ZM125.779 700.082C125.747 699.282 125.451 698.57 124.891 697.946C124.347 697.322 123.555 697.01 122.515 697.01C121.523 697.01 120.747 697.322 120.187 697.946C119.627 698.554 119.315 699.266 119.251 700.082H125.779Z" fill="#2143FF"/>
<path d="M134.794 708.128C133.048 707.909 131.673 707.172 130.67 705.917C129.684 704.648 129.304 703.117 129.53 701.323C129.741 699.64 130.467 698.288 131.708 697.267C132.967 696.232 134.438 695.82 136.121 696.031C137.82 696.245 139.111 697.003 139.995 698.308C140.895 699.614 141.231 701.18 141.001 703.006L140.927 703.601L132.044 702.485C132.026 703.402 132.304 704.203 132.879 704.888C133.454 705.573 134.266 705.981 135.314 706.113C135.901 706.187 136.502 706.15 137.118 706.001C137.749 705.855 138.288 705.608 138.735 705.261L139.671 707.048C138.373 708.013 136.747 708.373 134.794 708.128ZM138.719 701.534C138.787 700.736 138.582 699.993 138.104 699.304C137.642 698.617 136.895 698.209 135.864 698.079C134.879 697.955 134.07 698.168 133.437 698.717C132.806 699.251 132.407 699.918 132.242 700.72L138.719 701.534Z" fill="#2143FF"/>
<path d="M148.748 708.397C146.988 708.397 145.532 707.837 144.38 706.717C143.244 705.581 142.676 704.109 142.676 702.301C142.676 700.605 143.228 699.173 144.332 698.005C145.452 696.821 146.86 696.229 148.556 696.229C150.268 696.229 151.644 696.821 152.684 698.005C153.74 699.189 154.268 700.701 154.268 702.541V703.141H145.316C145.412 704.053 145.788 704.813 146.444 705.421C147.1 706.029 147.956 706.333 149.012 706.333C149.604 706.333 150.196 706.221 150.788 705.997C151.396 705.773 151.9 705.461 152.3 705.061L153.452 706.717C152.284 707.837 150.716 708.397 148.748 708.397ZM151.82 701.365C151.788 700.565 151.492 699.853 150.932 699.229C150.388 698.605 149.596 698.293 148.556 698.293C147.564 698.293 146.788 698.605 146.228 699.229C145.668 699.837 145.356 700.549 145.292 701.365H151.82Z" fill="#2143FF"/>
<path d="M161.809 708.397C160.049 708.397 158.593 707.837 157.441 706.717C156.305 705.581 155.737 704.109 155.737 702.301C155.737 700.605 156.289 699.173 157.393 698.005C158.513 696.821 159.921 696.229 161.617 696.229C163.329 696.229 164.705 696.821 165.745 698.005C166.801 699.189 167.329 700.701 167.329 702.541V703.141H158.377C158.473 704.053 158.849 704.813 159.505 705.421C160.161 706.029 161.017 706.333 162.073 706.333C162.665 706.333 163.257 706.221 163.849 705.997C164.457 705.773 164.961 705.461 165.361 705.061L166.513 706.717C165.345 707.837 163.777 708.397 161.809 708.397ZM164.881 701.365C164.849 700.565 164.553 699.853 163.993 699.229C163.449 698.605 162.657 698.293 161.617 698.293C160.625 698.293 159.849 698.605 159.289 699.229C158.729 699.837 158.417 700.549 158.353 701.365H164.881Z" fill="#2143FF"/>
<path d="M160.978 711.884C162.243 710.659 163.678 710.049 165.285 710.052C166.891 710.077 168.323 710.739 169.581 712.038C170.761 713.256 171.361 714.669 171.381 716.276C171.4 717.906 170.8 719.311 169.582 720.491C168.352 721.682 166.952 722.214 165.381 722.087C163.799 721.971 162.368 721.252 161.088 719.931L160.67 719.5L167.1 713.271C166.397 712.683 165.598 712.399 164.704 712.418C163.81 712.438 162.983 712.815 162.225 713.55C161.8 713.962 161.452 714.454 161.183 715.027C160.902 715.611 160.757 716.186 160.748 716.751L158.768 716.363C158.828 714.746 159.565 713.253 160.978 711.884ZM163.664 719.072C164.244 719.624 164.952 719.93 165.788 719.989C166.613 720.058 167.399 719.731 168.146 719.008C168.859 718.318 169.199 717.554 169.167 716.716C169.146 715.89 168.875 715.161 168.353 714.53L163.664 719.072Z" fill="#2143FF"/>
<path d="M154.928 716.967C156.683 717.099 158.093 717.767 159.157 718.97C160.205 720.188 160.661 721.699 160.525 723.502C160.397 725.193 159.739 726.579 158.55 727.661C157.345 728.758 155.896 729.242 154.205 729.115C152.498 728.986 151.17 728.292 150.222 727.033C149.258 725.773 148.845 724.226 148.983 722.391L149.029 721.793L157.955 722.466C157.928 721.549 157.61 720.763 157.002 720.107C156.393 719.452 155.563 719.084 154.51 719.005C153.919 718.96 153.321 719.028 152.713 719.206C152.09 719.384 151.564 719.657 151.135 720.026L150.111 718.288C151.36 717.259 152.966 716.819 154.928 716.967ZM151.336 723.748C151.308 724.548 151.55 725.28 152.061 725.944C152.557 726.608 153.323 726.978 154.36 727.056C155.349 727.131 156.146 726.878 156.752 726.298C157.356 725.734 157.721 725.047 157.846 724.238L151.336 723.748Z" fill="#2143FF"/>
<path d="M140.482 722.622C142.121 721.981 143.681 721.971 145.162 722.594C146.634 723.238 147.7 724.402 148.359 726.085C148.977 727.664 148.985 729.199 148.383 730.689C147.771 732.2 146.676 733.265 145.097 733.883C143.503 734.507 142.006 734.457 140.606 733.734C139.191 733.016 138.148 731.801 137.477 730.088L137.258 729.529L145.594 726.265C145.172 725.451 144.545 724.881 143.713 724.554C142.88 724.226 141.972 724.255 140.989 724.64C140.438 724.856 139.927 725.176 139.458 725.601C138.973 726.031 138.617 726.505 138.391 727.024L136.714 725.902C137.394 724.433 138.65 723.34 140.482 722.622ZM140.185 730.29C140.507 731.024 141.042 731.579 141.791 731.956C142.525 732.338 143.376 732.34 144.344 731.961C145.268 731.599 145.877 731.026 146.171 730.241C146.471 729.47 146.502 728.694 146.264 727.91L140.185 730.29Z" fill="#2143FF"/>
<path d="M130.401 724.458C132.093 724.943 133.338 725.882 134.137 727.276C134.917 728.681 135.058 730.252 134.56 731.99C134.093 733.621 133.169 734.845 131.786 735.665C130.383 736.495 128.867 736.676 127.236 736.209C125.59 735.738 124.43 734.79 123.756 733.366C123.067 731.937 122.976 730.338 123.482 728.569L123.647 727.992L132.253 730.456C132.412 729.553 132.26 728.719 131.797 727.954C131.333 727.189 130.594 726.661 129.579 726.37C129.01 726.207 128.41 726.152 127.779 726.204C127.133 726.252 126.562 726.414 126.068 726.688L125.416 724.779C126.847 724.024 128.509 723.917 130.401 724.458ZM125.512 730.373C125.322 731.151 125.411 731.917 125.778 732.671C126.129 733.421 126.804 733.939 127.804 734.225C128.758 734.498 129.59 734.412 130.3 733.966C131.006 733.536 131.502 732.937 131.788 732.17L125.512 730.373Z" fill="#2143FF"/>
<path d="M117.11 723.028C118.7 723.781 119.776 724.91 120.338 726.416C120.878 727.929 120.762 729.502 119.988 731.136C119.262 732.669 118.15 733.727 116.652 734.31C115.133 734.9 113.607 734.833 112.074 734.107C110.527 733.374 109.537 732.25 109.104 730.734C108.657 729.212 108.827 727.62 109.614 725.957L109.871 725.415L117.961 729.247C118.265 728.382 118.251 727.534 117.918 726.703C117.585 725.873 116.942 725.232 115.988 724.78C115.453 724.527 114.87 724.374 114.239 724.323C113.593 724.265 113.004 724.332 112.472 724.522L112.139 722.532C113.674 722.02 115.331 722.185 117.11 723.028ZM111.323 728.068C111.01 728.804 110.972 729.575 111.211 730.378C111.436 731.175 112.018 731.796 112.958 732.241C113.854 732.666 114.689 732.716 115.463 732.392C116.229 732.082 116.816 731.572 117.223 730.862L111.323 728.068Z" fill="#2143FF"/>
<path d="M105.198 718.729C106.798 719.463 107.888 720.578 108.469 722.077C109.028 723.583 108.931 725.157 108.178 726.801C107.471 728.343 106.373 729.414 104.883 730.016C103.371 730.626 101.844 730.577 100.303 729.871C98.7464 729.157 97.7422 728.046 97.2901 726.536C96.8235 725.02 96.9735 723.425 97.7402 721.753L97.9902 721.207L106.128 724.937C106.421 724.068 106.396 723.221 106.053 722.395C105.71 721.569 105.058 720.936 104.098 720.496C103.56 720.249 102.975 720.104 102.344 720.061C101.698 720.011 101.11 720.085 100.579 720.282L100.222 718.296C101.751 717.765 103.409 717.909 105.198 718.729ZM99.4756 723.842C99.1713 724.582 99.1437 725.353 99.3928 726.154C99.6273 726.947 100.217 727.561 101.163 727.994C102.065 728.408 102.9 728.447 103.669 728.114C104.431 727.794 105.012 727.277 105.41 726.562L99.4756 723.842Z" fill="#2143FF"/>
<path d="M93.3809 713.473C94.9808 714.207 96.0711 715.323 96.6516 716.821C97.211 718.327 97.114 719.902 96.3606 721.545C95.6539 723.087 94.5555 724.159 93.0652 724.76C91.5537 725.37 90.0271 725.322 88.4853 724.615C86.929 723.901 85.9248 722.79 85.4728 721.28C85.0061 719.764 85.1562 718.169 85.9228 716.497L86.1729 715.951L94.3107 719.681C94.6035 718.812 94.5783 717.965 94.2353 717.139C93.8923 716.313 93.2408 715.68 92.2809 715.24C91.7427 714.993 91.1579 714.848 90.5264 714.805C89.8803 714.755 89.2922 714.829 88.7619 715.026L88.4047 713.041C89.9331 712.509 91.5919 712.653 93.3809 713.473ZM87.6582 718.586C87.354 719.326 87.3264 720.097 87.5754 720.898C87.8099 721.692 88.3999 722.305 89.3453 722.739C90.2471 723.152 91.0825 723.192 91.8516 722.858C92.614 722.538 93.1943 722.021 93.5925 721.306L87.6582 718.586Z" fill="#2143FF"/>
<path d="M80.6678 709.41C82.286 710.103 83.4044 711.19 84.0232 712.673C84.6209 714.164 84.5643 715.741 83.8533 717.403C83.1863 718.962 82.1157 720.062 80.6413 720.702C79.1459 721.35 77.6185 721.341 76.0592 720.674C74.4851 720 73.4528 718.915 72.9622 717.417C72.4569 715.913 72.566 714.316 73.2896 712.624L73.5256 712.072L81.7563 715.593C82.0267 714.716 81.9799 713.87 81.6158 713.053C81.2518 712.236 80.5843 711.62 79.6134 711.204C79.0691 710.972 78.4807 710.842 77.8483 710.815C77.2012 710.782 76.6151 710.87 76.0901 711.081L75.6821 709.105C77.1965 708.535 78.8583 708.637 80.6678 709.41ZM75.0779 714.668C74.7927 715.416 74.7849 716.187 75.0544 716.981C75.3092 717.769 75.9147 718.367 76.8709 718.776C77.7829 719.166 78.6191 719.184 79.3794 718.831C80.1334 718.492 80.7002 717.96 81.08 717.235L75.0779 714.668Z" fill="#2143FF"/>
<path d="M66.4011 707.458C68.1483 707.67 69.5263 708.401 70.5351 709.652C71.526 710.916 71.9127 712.446 71.695 714.241C71.4908 715.924 70.7704 717.28 69.5338 718.306C68.2794 719.347 66.8104 719.765 65.1267 719.561C63.4272 719.355 62.1325 718.601 61.2426 717.301C60.3368 715.998 59.9947 714.433 60.2162 712.607L60.2885 712.011L69.1753 713.089C69.1898 712.172 68.9081 711.372 68.3301 710.69C67.752 710.007 66.9389 709.602 65.8905 709.475C65.3028 709.404 64.7017 709.444 64.087 709.595C63.4565 709.744 62.9186 709.993 62.4733 710.342L61.5291 708.559C62.8234 707.588 64.4474 707.221 66.4011 707.458ZM62.5048 714.069C62.4403 714.867 62.6484 715.61 63.1292 716.296C63.5941 716.981 64.3428 717.386 65.3752 717.512C66.36 717.631 67.1679 717.415 67.799 716.863C68.4281 716.327 68.8236 715.657 68.9853 714.855L62.5048 714.069Z" fill="#2143FF"/>
<path d="M58.5736 709.81C58.9689 711.525 58.7502 713.07 57.9175 714.444C57.0656 715.806 55.7588 716.69 53.9969 717.096C52.3443 717.477 50.8249 717.261 49.4388 716.447C48.0335 715.622 47.1404 714.383 46.7595 712.73C46.3751 711.062 46.6429 709.588 47.5631 708.309C48.4797 707.014 49.8346 706.16 51.6276 705.747L52.2122 705.612L54.2226 714.335C55.0898 714.037 55.7459 713.5 56.1911 712.724C56.6362 711.948 56.7402 711.046 56.5031 710.017C56.3701 709.44 56.128 708.888 55.7768 708.362C55.422 707.819 55.0048 707.398 54.5251 707.098L55.8801 705.604C57.2338 706.491 58.1317 707.893 58.5736 709.81ZM51.0313 708.396C50.259 708.607 49.6316 709.055 49.1493 709.741C48.6634 710.411 48.5373 711.253 48.7708 712.267C48.9936 713.233 49.4719 713.919 50.2057 714.325C50.924 714.734 51.6878 714.878 52.4974 714.757L51.0313 708.396Z" fill="#2143FF"/>
<path d="M174.111 737.665C175.868 737.763 177.29 738.403 178.378 739.585C179.449 740.783 179.934 742.284 179.834 744.089C179.739 745.783 179.108 747.182 177.941 748.287C176.757 749.406 175.318 749.919 173.625 749.825C171.915 749.729 170.574 749.061 169.602 747.821C168.613 746.58 168.171 745.041 168.273 743.204L168.306 742.605L177.245 743.104C177.199 742.188 176.866 741.408 176.245 740.764C175.624 740.121 174.786 739.77 173.732 739.711C173.141 739.678 172.544 739.757 171.94 739.947C171.321 740.137 170.8 740.421 170.378 740.798L169.32 739.08C170.549 738.027 172.146 737.555 174.111 737.665ZM170.652 744.515C170.639 745.315 170.895 746.043 171.419 746.697C171.928 747.35 172.701 747.706 173.74 747.764C174.73 747.819 175.522 747.551 176.116 746.959C176.709 746.383 177.06 745.689 177.17 744.878L170.652 744.515Z" fill="#2143FF"/>
<path d="M156.993 737.437C158.674 736.916 160.231 737.019 161.663 737.748C163.084 738.497 164.062 739.735 164.598 741.462C165.1 743.082 164.996 744.613 164.288 746.055C163.568 747.518 162.399 748.5 160.779 749.002C159.143 749.509 157.654 749.351 156.31 748.528C154.951 747.71 153.999 746.422 153.454 744.664L153.276 744.091L161.827 741.441C161.465 740.598 160.881 739.984 160.075 739.597C159.268 739.211 158.361 739.174 157.352 739.486C156.786 739.662 156.254 739.944 155.755 740.333C155.241 740.727 154.851 741.174 154.588 741.675L152.997 740.434C153.781 739.018 155.113 738.019 156.993 737.437ZM156.141 745.063C156.408 745.818 156.901 746.41 157.621 746.84C158.325 747.275 159.174 747.339 160.168 747.031C161.115 746.737 161.764 746.209 162.114 745.448C162.469 744.701 162.556 743.929 162.376 743.13L156.141 745.063Z" fill="#2143FF"/>
<path d="M143.771 741.344C145.468 740.877 147.02 741.03 148.428 741.804C149.825 742.597 150.764 743.866 151.244 745.609C151.694 747.244 151.543 748.771 150.788 750.19C150.023 751.629 148.823 752.574 147.188 753.024C145.537 753.479 144.054 753.274 142.736 752.409C141.404 751.548 140.493 750.23 140.005 748.456L139.845 747.878L148.476 745.5C148.141 744.646 147.576 744.013 146.783 743.601C145.989 743.19 145.083 743.124 144.065 743.404C143.494 743.562 142.953 743.827 142.442 744.2C141.915 744.577 141.512 745.012 141.233 745.504L139.682 744.213C140.511 742.823 141.874 741.867 143.771 741.344ZM142.677 748.94C142.92 749.702 143.395 750.31 144.1 750.763C144.791 751.22 145.637 751.311 146.64 751.034C147.596 750.771 148.261 750.264 148.635 749.514C149.014 748.779 149.126 748.01 148.97 747.206L142.677 748.94Z" fill="#2143FF"/>
<path d="M131.47 744.04C133.223 743.883 134.723 744.311 135.97 745.324C137.203 746.355 137.9 747.77 138.061 749.571C138.212 751.26 137.79 752.736 136.794 753.997C135.784 755.276 134.434 755.991 132.745 756.142C131.04 756.295 129.616 755.828 128.475 754.741C127.318 753.656 126.657 752.197 126.494 750.364L126.44 749.767L135.357 748.969C135.18 748.07 134.738 747.346 134.03 746.799C133.322 746.252 132.443 746.025 131.391 746.119C130.801 746.172 130.222 746.336 129.652 746.612C129.066 746.889 128.592 747.245 128.229 747.679L126.934 746.132C127.998 744.913 129.51 744.215 131.47 744.04ZM129.037 751.318C129.14 752.112 129.498 752.794 130.111 753.366C130.709 753.939 131.525 754.179 132.561 754.087C133.549 753.998 134.294 753.618 134.797 752.947C135.3 752.292 135.548 751.555 135.539 750.736L129.037 751.318Z" fill="#2143FF"/>
<path d="M119.387 744.371C121.127 744.636 122.483 745.409 123.453 746.689C124.405 747.983 124.745 749.524 124.473 751.311C124.218 752.988 123.457 754.321 122.19 755.309C120.905 756.311 119.424 756.685 117.747 756.43C116.054 756.172 114.783 755.38 113.933 754.053C113.067 752.724 112.773 751.149 113.049 749.33L113.14 748.737L121.99 750.084C122.032 749.168 121.775 748.36 121.218 747.66C120.661 746.96 119.86 746.531 118.816 746.372C118.231 746.283 117.629 746.305 117.01 746.437C116.375 746.567 115.83 746.8 115.374 747.135L114.484 745.325C115.807 744.393 117.442 744.075 119.387 744.371ZM115.293 750.861C115.204 751.657 115.39 752.405 115.849 753.107C116.293 753.805 117.029 754.233 118.057 754.389C119.038 754.538 119.852 754.347 120.5 753.814C121.145 753.297 121.56 752.64 121.746 751.843L115.293 750.861Z" fill="#2143FF"/>
<path d="M103.688 742.835C105.443 742.693 106.939 743.134 108.177 744.157C109.401 745.198 110.086 746.62 110.232 748.422C110.369 750.112 109.934 751.584 108.927 752.837C107.907 754.108 106.551 754.811 104.86 754.948C103.154 755.086 101.735 754.607 100.603 753.51C99.4546 752.415 98.8065 750.951 98.6582 749.117L98.6099 748.519L107.533 747.797C107.364 746.896 106.928 746.169 106.225 745.616C105.522 745.062 104.644 744.828 103.592 744.913C103.001 744.961 102.42 745.121 101.848 745.391C101.26 745.664 100.783 746.015 100.417 746.446L99.135 744.889C100.209 743.678 101.727 742.993 103.688 742.835ZM101.193 750.092C101.289 750.886 101.642 751.572 102.25 752.149C102.843 752.727 103.657 752.974 104.694 752.891C105.683 752.811 106.431 752.437 106.939 751.77C107.448 751.119 107.702 750.384 107.7 749.565L101.193 750.092Z" fill="#2143FF"/>
<path d="M90.9454 743.317C92.6999 743.456 94.1072 744.129 95.1673 745.337C96.2101 746.559 96.6602 748.071 96.5176 749.873C96.3838 751.564 95.7206 752.948 94.5279 754.025C93.3179 755.117 91.8676 755.596 90.1769 755.462C88.4702 755.327 87.1452 754.629 86.2019 753.366C85.2426 752.103 84.8355 750.554 84.9806 748.719L85.028 748.121L93.9521 748.828C93.9283 747.911 93.6135 747.124 93.0075 746.466C92.4015 745.808 91.5721 745.437 90.5194 745.354C89.9293 745.307 89.3303 745.372 88.7224 745.549C88.0987 745.724 87.5716 745.995 87.1413 746.363L86.1235 744.621C87.3762 743.596 88.9835 743.162 90.9454 743.317ZM87.3282 750.085C87.297 750.885 87.5359 751.618 88.045 752.284C88.5381 752.949 89.303 753.323 90.3397 753.405C91.3286 753.483 92.1268 753.233 92.7343 752.655C93.3405 752.093 93.7077 751.408 93.8359 750.6L87.3282 750.085Z" fill="#2143FF"/>
<path d="M70.4815 747.715C71.1298 746.079 72.1868 744.932 73.6524 744.273C75.127 743.635 76.7047 743.65 78.3856 744.316C79.9623 744.94 81.0903 745.981 81.7695 747.438C82.4576 748.915 82.4893 750.442 81.8646 752.019C81.2339 753.611 80.1767 754.672 78.6929 755.202C77.2031 755.748 75.6029 755.682 73.8923 755.004L73.3345 754.783L76.6321 746.461C75.7489 746.214 74.9039 746.283 74.097 746.669C73.2901 747.055 72.6921 747.739 72.3031 748.721C72.085 749.271 71.9711 749.863 71.9613 750.496C71.9456 751.143 72.05 751.727 72.2745 752.246L70.3106 752.707C69.6996 751.209 69.7566 749.545 70.4815 747.715ZM75.8874 753.161C76.6429 753.426 77.4139 753.413 78.2003 753.123C78.9808 752.847 79.5626 752.225 79.9457 751.259C80.3111 750.336 80.3069 749.5 79.9331 748.749C79.5741 748.005 79.0271 747.453 78.2921 747.092L75.8874 753.161Z" fill="#2143FF"/>
<path d="M218.228 682.776C218.36 681.021 219.028 679.611 220.231 678.547C221.449 677.499 222.96 677.043 224.763 677.179C226.454 677.307 227.84 677.965 228.922 679.154C230.019 680.36 230.503 681.808 230.376 683.499C230.247 685.206 229.553 686.534 228.294 687.482C227.034 688.446 225.487 688.859 223.652 688.721L223.054 688.675L223.727 679.749C222.81 679.776 222.024 680.094 221.368 680.702C220.713 681.311 220.345 682.141 220.266 683.194C220.221 683.785 220.289 684.383 220.467 684.991C220.645 685.614 220.918 686.14 221.287 686.569L219.549 687.593C218.52 686.344 218.08 684.738 218.228 682.776ZM225.009 686.368C225.809 686.396 226.541 686.155 227.205 685.643C227.869 685.147 228.239 684.381 228.317 683.344C228.392 682.355 228.139 681.558 227.559 680.952C226.995 680.348 226.308 679.984 225.499 679.858L225.009 686.368Z" fill="#2143FF"/>
<path d="M216.303 695.334C216.701 693.62 217.577 692.329 218.928 691.461C220.292 690.611 221.855 690.392 223.616 690.801C225.268 691.186 226.537 692.048 227.425 693.388C228.324 694.747 228.582 696.252 228.198 697.904C227.81 699.572 226.921 700.778 225.533 701.522C224.14 702.283 222.548 702.454 220.756 702.038L220.171 701.902L222.199 693.182C221.289 693.069 220.464 693.263 219.723 693.765C218.982 694.266 218.492 695.031 218.253 696.059C218.119 696.636 218.094 697.238 218.178 697.865C218.258 698.508 218.448 699.07 218.747 699.55L216.873 700.297C216.047 698.905 215.857 697.251 216.303 695.334ZM222.456 699.92C223.242 700.07 224.003 699.943 224.737 699.539C225.468 699.15 225.952 698.449 226.187 697.437C226.412 696.47 226.284 695.644 225.803 694.957C225.338 694.274 224.715 693.809 223.935 693.561L222.456 699.92Z" fill="#2143FF"/>
<path d="M212.43 707.573C213.087 705.94 214.149 704.798 215.618 704.147C217.096 703.517 218.674 703.539 220.351 704.214C221.925 704.846 223.047 705.893 223.719 707.353C224.4 708.834 224.424 710.361 223.791 711.934C223.152 713.523 222.09 714.579 220.603 715.102C219.111 715.64 217.511 715.566 215.804 714.879L215.247 714.655L218.587 706.35C217.705 706.099 216.859 706.164 216.051 706.546C215.242 706.927 214.64 707.608 214.246 708.588C214.026 709.137 213.909 709.728 213.896 710.361C213.877 711.009 213.978 711.593 214.2 712.113L212.234 712.564C211.63 711.063 211.696 709.399 212.43 707.573ZM217.808 713.047C218.562 713.315 219.333 713.306 220.121 713.02C220.903 712.748 221.488 712.129 221.876 711.164C222.246 710.244 222.246 709.408 221.876 708.655C221.521 707.909 220.977 707.354 220.244 706.99L217.808 713.047Z" fill="#2143FF"/>
<path d="M206.752 719.075C207.644 717.558 208.864 716.586 210.414 716.16C211.969 715.756 213.525 716.012 215.084 716.928C216.547 717.787 217.502 718.988 217.949 720.532C218.403 722.097 218.2 723.611 217.341 725.074C216.473 726.55 215.266 727.436 213.718 727.733C212.163 728.044 210.591 727.733 209.005 726.801L208.488 726.497L213.023 718.779C212.188 718.399 211.342 718.339 210.485 718.596C209.629 718.854 208.933 719.438 208.398 720.348C208.098 720.859 207.895 721.426 207.788 722.05C207.673 722.687 207.687 723.28 207.829 723.828L205.818 723.982C205.444 722.407 205.755 720.772 206.752 719.075ZM211.259 725.286C211.965 725.664 212.729 725.769 213.551 725.602C214.364 725.45 215.034 724.925 215.561 724.028C216.064 723.173 216.188 722.346 215.934 721.547C215.693 720.756 215.237 720.126 214.566 719.658L211.259 725.286Z" fill="#2143FF"/>
<path d="M199.346 729.754C200.451 728.384 201.801 727.603 203.396 727.409C204.994 727.238 206.496 727.721 207.903 728.856C209.223 729.921 209.991 731.25 210.207 732.842C210.425 734.458 210.002 735.925 208.937 737.245C207.862 738.577 206.537 739.277 204.962 739.343C203.378 739.421 201.869 738.882 200.437 737.727L199.97 737.35L205.592 730.383C204.822 729.885 203.994 729.701 203.109 729.829C202.224 729.958 201.45 730.434 200.787 731.255C200.415 731.716 200.13 732.247 199.933 732.849C199.725 733.462 199.652 734.051 199.712 734.613L197.7 734.47C197.561 732.858 198.11 731.286 199.346 729.754ZM202.89 736.56C203.533 737.038 204.273 737.254 205.11 737.21C205.937 737.179 206.677 736.758 207.33 735.949C207.953 735.177 208.198 734.377 208.064 733.549C207.942 732.732 207.584 732.042 206.989 731.48L202.89 736.56Z" fill="#2143FF"/>
<path d="M190.511 739.203C191.792 737.996 193.236 737.404 194.842 737.429C196.448 737.476 197.871 738.158 199.111 739.473C200.275 740.707 200.856 742.128 200.854 743.735C200.851 745.365 200.233 746.761 198.999 747.925C197.753 749.099 196.346 749.612 194.777 749.464C193.196 749.327 191.775 748.589 190.512 747.251L190.101 746.814L196.614 740.673C195.919 740.075 195.124 739.78 194.229 739.788C193.335 739.795 192.504 740.162 191.735 740.886C191.305 741.292 190.951 741.78 190.674 742.349C190.385 742.929 190.232 743.502 190.216 744.067L188.241 743.652C188.323 742.036 189.08 740.553 190.511 739.203ZM193.1 746.427C193.672 746.987 194.376 747.302 195.212 747.372C196.036 747.453 196.826 747.136 197.583 746.423C198.304 745.742 198.655 744.983 198.634 744.145C198.625 743.318 198.363 742.586 197.85 741.949L193.1 746.427Z" fill="#2143FF"/>
<path d="M181.051 747.927C182.484 746.905 183.995 746.516 185.583 746.759C187.167 747.024 188.484 747.893 189.534 749.365C190.519 750.745 190.901 752.232 190.68 753.824C190.456 755.438 189.653 756.738 188.272 757.722C186.879 758.716 185.415 759.033 183.88 758.673C182.333 758.322 181.025 757.398 179.957 755.9L179.609 755.411L186.897 750.214C186.289 749.527 185.542 749.126 184.655 749.012C183.768 748.898 182.894 749.148 182.034 749.761C181.552 750.104 181.136 750.539 180.784 751.065C180.419 751.601 180.189 752.148 180.096 752.705L178.197 752.026C178.497 750.436 179.449 749.07 181.051 747.927ZM182.633 755.436C183.123 756.069 183.778 756.477 184.596 756.659C185.401 756.852 186.227 756.646 187.074 756.042C187.882 755.466 188.332 754.761 188.426 753.928C188.529 753.108 188.369 752.347 187.948 751.646L182.633 755.436Z" fill="#2143FF"/>
<path d="M169.499 754.205C171.053 753.379 172.602 753.191 174.145 753.639C175.681 754.109 176.873 755.143 177.721 756.739C178.517 758.237 178.702 759.761 178.275 761.31C177.841 762.881 176.875 764.065 175.378 764.86C173.866 765.664 172.373 765.786 170.899 765.229C169.411 764.679 168.235 763.591 167.372 761.966L167.09 761.436L174.996 757.236C174.483 756.476 173.795 755.981 172.93 755.752C172.065 755.523 171.167 755.656 170.234 756.152C169.711 756.429 169.241 756.806 168.824 757.282C168.392 757.765 168.093 758.277 167.927 758.818L166.133 757.896C166.639 756.359 167.761 755.128 169.499 754.205ZM170.086 761.856C170.489 762.548 171.085 763.038 171.872 763.326C172.645 763.622 173.491 763.526 174.409 763.038C175.285 762.572 175.824 761.933 176.026 761.119C176.235 760.319 176.177 759.544 175.85 758.793L170.086 761.856Z" fill="#2143FF"/>
<path d="M157.645 759.541C159.291 758.919 160.851 758.928 162.324 759.568C163.789 760.229 164.841 761.405 165.48 763.096C166.08 764.683 166.07 766.217 165.45 767.7C164.821 769.204 163.714 770.255 162.127 770.855C160.526 771.461 159.029 771.394 157.638 770.654C156.231 769.92 155.203 768.692 154.552 766.971L154.34 766.41L162.714 763.244C162.301 762.425 161.681 761.847 160.852 761.51C160.023 761.174 159.115 761.192 158.128 761.565C157.574 761.775 157.06 762.089 156.585 762.508C156.096 762.932 155.735 763.402 155.502 763.918L153.839 762.776C154.535 761.316 155.804 760.237 157.645 759.541ZM157.258 767.205C157.571 767.942 158.099 768.504 158.844 768.889C159.573 769.281 160.424 769.292 161.397 768.925C162.325 768.574 162.941 768.008 163.244 767.226C163.553 766.459 163.593 765.683 163.364 764.897L157.258 767.205Z" fill="#2143FF"/>
<path d="M145.195 763.336C146.906 762.927 148.453 763.134 149.833 763.956C151.202 764.797 152.096 766.096 152.516 767.855C152.91 769.505 152.706 771.026 151.903 772.418C151.089 773.83 149.857 774.733 148.207 775.127C146.542 775.524 145.066 775.268 143.779 774.358C142.477 773.451 141.613 772.103 141.185 770.314L141.046 769.73L149.753 767.651C149.448 766.786 148.906 766.134 148.127 765.695C147.347 765.256 146.444 765.159 145.417 765.405C144.841 765.542 144.291 765.789 143.768 766.144C143.228 766.503 142.811 766.924 142.514 767.406L141.009 766.062C141.885 764.702 143.28 763.793 145.195 763.336ZM143.84 770.889C144.056 771.66 144.51 772.283 145.199 772.76C145.873 773.241 146.716 773.361 147.728 773.119C148.693 772.889 149.375 772.405 149.775 771.668C150.178 770.947 150.316 770.182 150.189 769.373L143.84 770.889Z" fill="#2143FF"/>
<path d="M132.355 765.553C134.104 765.359 135.613 765.755 136.882 766.742C138.136 767.746 138.862 769.146 139.061 770.943C139.248 772.629 138.857 774.113 137.888 775.395C136.905 776.696 135.571 777.439 133.885 777.626C132.184 777.814 130.751 777.377 129.587 776.315C128.407 775.254 127.716 773.81 127.513 771.981L127.447 771.384L136.345 770.399C136.149 769.503 135.692 768.789 134.973 768.257C134.254 767.725 133.37 767.517 132.32 767.633C131.732 767.698 131.155 767.875 130.592 768.163C130.012 768.452 129.545 768.818 129.192 769.259L127.865 767.74C128.902 766.499 130.399 765.769 132.355 765.553ZM130.076 772.88C130.196 773.672 130.568 774.347 131.194 774.905C131.803 775.466 132.624 775.689 133.658 775.574C134.644 775.465 135.381 775.069 135.869 774.388C136.359 773.722 136.59 772.98 136.564 772.162L130.076 772.88Z" fill="#2143FF"/>
<path d="M118.931 766.181C120.691 766.206 122.139 766.787 123.275 767.923C124.395 769.075 124.942 770.555 124.916 772.363C124.892 774.059 124.319 775.483 123.199 776.635C122.062 777.803 120.646 778.375 118.95 778.351C117.238 778.326 115.871 777.715 114.848 776.516C113.809 775.317 113.302 773.798 113.328 771.958L113.337 771.358L122.288 771.486C122.205 770.572 121.84 769.807 121.193 769.19C120.545 768.572 119.694 768.256 118.638 768.241C118.046 768.233 117.452 768.336 116.857 768.552C116.246 768.767 115.738 769.072 115.332 769.466L114.204 767.794C115.388 766.691 116.964 766.153 118.931 766.181ZM115.759 773.169C115.78 773.969 116.066 774.685 116.617 775.317C117.152 775.949 117.94 776.272 118.979 776.287C119.971 776.301 120.752 776 121.32 775.384C121.889 774.784 122.211 774.077 122.287 773.262L115.759 773.169Z" fill="#2143FF"/>
<path d="M105.92 765.194C107.664 765.431 109.032 766.182 110.022 767.447C110.995 768.726 111.359 770.261 111.116 772.053C110.887 773.733 110.147 775.078 108.896 776.086C107.626 777.108 106.152 777.505 104.471 777.277C102.775 777.046 101.491 776.274 100.62 774.961C99.7331 773.645 99.4136 772.076 99.6616 770.253L99.7424 769.658L108.613 770.864C108.641 769.948 108.37 769.144 107.802 768.453C107.234 767.762 106.427 767.346 105.381 767.204C104.794 767.124 104.192 767.155 103.576 767.297C102.943 767.437 102.401 767.678 101.951 768.021L101.033 766.225C102.341 765.272 103.97 764.929 105.92 765.194ZM101.929 771.748C101.853 772.545 102.05 773.29 102.521 773.984C102.976 774.676 103.719 775.092 104.749 775.232C105.732 775.365 106.543 775.161 107.182 774.618C107.819 774.091 108.224 773.427 108.397 772.627L101.929 771.748Z" fill="#2143FF"/>
<path d="M93.1558 762.623C94.857 763.074 96.1209 763.988 96.9475 765.366C97.7545 766.755 97.9264 768.324 97.4631 770.071C97.0285 771.711 96.128 772.954 94.7616 773.8C93.3756 774.657 91.863 774.869 90.2236 774.434C88.5687 773.995 87.3903 773.071 86.6884 771.66C85.9711 770.245 85.8481 768.648 86.3196 766.869L86.4733 766.289L95.1265 768.583C95.2673 767.677 95.0986 766.846 94.6203 766.09C94.142 765.334 93.3925 764.821 92.3717 764.551C91.7995 764.399 91.1985 764.355 90.5689 764.42C89.9238 764.481 89.3567 764.653 88.8676 764.938L88.1783 763.042C89.5943 762.258 91.2535 762.119 93.1558 762.623ZM88.3845 768.633C88.2105 769.415 88.3142 770.179 88.6956 770.925C89.0615 771.668 89.7471 772.173 90.7524 772.439C91.7113 772.693 92.5413 772.59 93.2425 772.131C93.9396 771.687 94.4236 771.078 94.6946 770.306L88.3845 768.633Z" fill="#2143FF"/>
<path d="M80.4679 758.878C82.0983 759.541 83.2362 760.608 83.8816 762.08C84.5061 763.56 84.478 765.137 83.7971 766.812C83.1583 768.383 82.1077 769.502 80.6451 770.168C79.1617 770.843 77.6344 770.861 76.0632 770.223C74.4773 769.578 73.4255 768.511 72.908 767.023C72.3757 765.528 72.456 763.929 73.1489 762.224L73.3749 761.668L81.6678 765.04C81.9223 764.159 81.8602 763.313 81.4815 762.503C81.1028 761.693 80.4243 761.089 79.446 760.691C78.8976 760.468 78.307 760.349 77.6742 760.333C77.0266 760.312 76.4422 760.411 75.9211 760.631L75.4775 758.663C76.9813 758.065 78.6448 758.137 80.4679 758.878ZM74.9738 764.236C74.7022 764.989 74.7082 765.76 74.992 766.549C75.2609 767.332 75.8771 767.919 76.8405 768.311C77.7595 768.684 78.5959 768.687 79.3497 768.32C80.0974 767.968 80.6546 767.426 81.0212 766.694L74.9738 764.236Z" fill="#2143FF"/>
<path d="M69.1645 752.827C70.6978 753.691 71.6914 754.894 72.1453 756.435C72.5773 757.982 72.3496 759.544 71.4621 761.119C70.6295 762.596 69.4456 763.573 67.9104 764.049C66.3535 764.53 64.8362 764.355 63.3586 763.522C61.8671 762.682 60.9589 761.491 60.634 759.949C60.2952 758.399 60.5774 756.822 61.4807 755.219L61.7752 754.697L69.5744 759.091C69.9384 758.249 69.9839 757.403 69.7109 756.551C69.4378 755.699 68.8413 755.014 67.9213 754.496C67.4055 754.205 66.8348 754.012 66.209 753.917C65.5694 753.813 64.9771 753.838 64.4323 753.99L64.2415 751.982C65.8089 751.579 67.4499 751.861 69.1645 752.827ZM63.0361 757.446C62.6713 758.158 62.5797 758.924 62.7612 759.742C62.9289 760.553 63.4657 761.214 64.3718 761.724C65.236 762.211 66.0653 762.32 66.8595 762.052C67.6458 761.797 68.2671 761.33 68.7235 760.65L63.0361 757.446Z" fill="#2143FF"/>
<path d="M58.3528 745.722C59.7598 746.779 60.5873 748.102 60.8354 749.689C61.061 751.28 60.6308 752.798 59.5446 754.243C58.5256 755.599 57.2241 756.412 55.6398 756.683C54.0331 756.956 52.5519 756.584 51.1961 755.565C49.8275 754.536 49.0831 753.236 48.963 751.665C48.8302 750.084 49.3164 748.558 50.4219 747.087L50.7823 746.608L57.9387 751.986C58.4099 751.199 58.5659 750.366 58.4068 749.485C58.2476 748.605 57.7459 747.848 56.9018 747.213C56.4285 746.858 55.888 746.592 55.2801 746.415C54.6595 746.229 54.0692 746.176 53.5091 746.255L53.583 744.239C55.1896 744.045 56.7795 744.54 58.3528 745.722ZM51.6723 749.498C51.2173 750.157 51.0262 750.904 51.099 751.739C51.159 752.565 51.6047 753.29 52.4361 753.915C53.2291 754.511 54.0369 754.728 54.8594 754.565C55.6724 754.416 56.3496 754.034 56.8909 753.42L51.6723 749.498Z" fill="#2143FF"/>
<path d="M48.582 737.243C49.8315 738.482 50.4706 739.905 50.4996 741.512C50.506 743.118 49.8724 744.563 48.599 745.847C47.4045 747.051 46.0041 747.679 44.3977 747.73C42.7688 747.782 41.3523 747.211 40.1483 746.016C38.933 744.81 38.3731 743.421 38.4687 741.848C38.553 740.264 39.2431 738.818 40.539 737.512L40.9616 737.086L47.3165 743.391C47.8907 742.676 48.1591 741.872 48.1216 740.978C48.0841 740.085 47.6906 739.266 46.9409 738.522C46.5207 738.105 46.0215 737.768 45.4435 737.51C44.8541 737.241 44.2766 737.107 43.7109 737.109L44.0595 735.122C45.6774 735.15 47.185 735.857 48.582 737.243ZM41.4485 740.071C40.9078 740.662 40.6165 741.376 40.5745 742.213C40.5212 743.039 40.8637 743.818 41.602 744.551C42.3062 745.25 43.0768 745.575 43.9139 745.526C44.7396 745.489 45.4626 745.203 46.0827 744.669L41.4485 740.071Z" fill="#2143FF"/>
<path d="M40.1037 727.544C41.1674 728.946 41.6012 730.445 41.4051 732.039C41.1867 733.631 40.3572 734.973 38.9168 736.066C37.5656 737.091 36.0911 737.517 34.4933 737.343C32.8731 737.166 31.5505 736.402 30.5255 735.051C29.4908 733.687 29.1308 732.233 29.4455 730.689C29.7506 729.132 30.6361 727.798 32.102 726.686L32.58 726.323L37.9904 733.455C38.659 732.827 39.0373 732.068 39.1252 731.178C39.2131 730.288 38.9379 729.422 38.2997 728.581C37.9419 728.11 37.4949 727.706 36.9586 727.369C36.4127 727.02 35.8595 726.807 35.2991 726.73L35.9222 724.812C37.5204 725.065 38.9142 725.976 40.1037 727.544ZM32.6446 729.347C32.0266 729.856 31.6383 730.522 31.4796 731.345C31.3112 732.156 31.5413 732.975 32.1699 733.804C32.7694 734.594 33.487 735.024 34.3226 735.093C35.1454 735.171 35.9012 734.99 36.59 734.547L32.6446 729.347Z" fill="#2143FF"/>
<path d="M33.1303 716.805C33.9805 718.346 34.1935 719.891 33.7694 721.441C33.3235 722.984 32.3091 724.193 30.726 725.066C29.241 725.885 27.7205 726.094 26.1646 725.691C24.5868 725.283 23.3883 724.336 22.569 722.851C21.742 721.352 21.5956 719.861 22.1299 718.379C22.6564 716.882 23.7252 715.689 25.3363 714.8L25.8616 714.51L30.1862 722.349C30.9383 721.824 31.4221 721.128 31.6376 720.26C31.853 719.391 31.7057 718.495 31.1955 717.571C30.9095 717.052 30.5255 716.588 30.0434 716.178C29.5535 715.754 29.0369 715.463 28.4934 715.306L29.3869 713.497C30.9318 713.979 32.1796 715.081 33.1303 716.805ZM25.4892 717.512C24.8042 717.926 24.3238 718.529 24.0479 719.321C23.7644 720.099 23.8738 720.943 24.3762 721.854C24.8554 722.722 25.5035 723.251 26.3203 723.44C27.1232 723.637 27.8973 723.566 28.6427 723.228L25.4892 717.512Z" fill="#2143FF"/>
<path d="M27.8362 705.214C28.4468 706.864 28.4268 708.424 27.7761 709.893C27.1048 711.353 25.9213 712.396 24.2256 713.024C22.635 713.612 21.1004 713.591 19.6219 712.961C18.1229 712.321 17.0792 711.206 16.4907 709.616C15.8967 708.01 15.9745 706.514 16.7241 705.128C17.4682 703.727 18.703 702.707 20.4287 702.069L20.9914 701.86L24.0975 710.256C24.9195 709.85 25.5018 709.233 25.8445 708.407C26.1871 707.581 26.1752 706.673 25.8088 705.682C25.6034 705.127 25.293 704.611 24.8775 704.133C24.4564 703.641 23.9889 703.276 23.475 703.04L24.6284 701.385C26.0841 702.092 27.1534 703.368 27.8362 705.214ZM20.1751 704.772C19.4359 705.08 18.8709 705.605 18.4799 706.346C18.0835 707.073 18.0656 707.924 18.4265 708.9C18.7707 709.83 19.3325 710.449 20.1121 710.758C20.8766 711.072 21.6526 711.118 22.4401 710.895L20.1751 704.772Z" fill="#2143FF"/>
<path d="M24.3505 692.929C24.6998 694.654 24.4398 696.192 23.5707 697.543C22.6827 698.882 21.3527 699.731 19.5806 700.09C17.9184 700.426 16.4053 700.17 15.0415 699.319C13.6588 698.456 12.7991 697.194 12.4626 695.532C12.1229 693.854 12.43 692.388 13.3841 691.133C14.335 689.863 15.7122 689.046 17.5156 688.681L18.1037 688.562L19.8801 697.336C20.7549 697.061 21.4251 696.541 21.8909 695.778C22.3566 695.014 22.4847 694.115 22.2752 693.08C22.1577 692.5 21.9304 691.942 21.5934 691.406C21.2532 690.854 20.8474 690.422 20.376 690.11L21.7705 688.652C23.1 689.574 23.96 691 24.3505 692.929ZM16.8488 691.313C16.071 691.504 15.4319 691.935 14.9314 692.608C14.4278 693.265 14.2792 694.103 14.4855 695.122C14.6824 696.094 15.1422 696.793 15.8649 697.218C16.5719 697.646 17.3317 697.811 18.1441 697.712L16.8488 691.313Z" fill="#2143FF"/>
<path d="M22.8021 680.354C22.883 682.112 22.3906 683.593 21.3248 684.795C20.2422 685.982 18.7979 686.617 16.9918 686.7C15.2976 686.778 13.8417 686.293 12.6242 685.244C11.3899 684.179 10.7338 682.8 10.6558 681.106C10.577 679.395 11.1051 677.994 12.24 676.9C13.3742 675.791 14.8603 675.194 16.6984 675.109L17.2977 675.082L17.7095 684.024C18.6161 683.886 19.358 683.476 19.9352 682.793C20.5124 682.109 20.7767 681.24 20.7281 680.185C20.7009 679.594 20.5618 679.008 20.3108 678.427C20.0591 677.83 19.7242 677.341 19.3062 676.959L20.9075 675.732C22.08 676.848 22.7116 678.388 22.8021 680.354ZM15.6362 677.609C14.8385 677.678 14.1409 678.006 13.5433 678.594C12.945 679.166 12.6698 679.972 12.7176 681.011C12.7632 682.002 13.1106 682.763 13.7597 683.293C14.3928 683.825 15.1184 684.104 15.9365 684.13L15.6362 677.609Z" fill="#2143FF"/>
<path d="M23.1472 667.385C22.9491 669.134 22.2288 670.517 20.9863 671.536C19.7297 672.537 18.2031 672.936 16.4066 672.732C14.7214 672.541 13.3606 671.832 12.3243 670.603C11.2738 669.357 10.844 667.892 11.0348 666.206C11.2275 664.505 11.9706 663.205 13.2641 662.304C14.5594 661.388 16.1212 661.034 17.9495 661.241L18.5457 661.308L17.5384 670.203C18.4554 670.211 19.2529 669.923 19.9308 669.339C20.6088 668.756 21.0072 667.939 21.126 666.89C21.1926 666.302 21.1479 665.701 20.992 665.088C20.8378 664.458 20.5845 663.922 20.232 663.48L22.0072 662.522C22.9886 663.808 23.3686 665.429 23.1472 667.385ZM16.5055 663.541C15.707 663.483 14.9662 663.697 14.2831 664.183C13.6019 664.653 13.2028 665.405 13.0857 666.439C12.9741 667.424 13.1968 668.23 13.7538 668.857C14.295 669.482 14.9673 669.872 15.7709 670.027L16.5055 663.541Z" fill="#2143FF"/>
<path d="M25.6857 654.481C25.2172 656.178 24.2898 657.432 22.9036 658.244C21.5062 659.037 19.9361 659.193 18.1933 658.711C16.5585 658.26 15.3251 657.347 14.4931 655.971C13.65 654.577 13.4541 653.062 13.9056 651.427C14.3613 649.777 15.2982 648.608 16.7163 647.921C18.1387 647.218 19.7367 647.112 21.5103 647.601L22.0887 647.761L19.7058 656.39C20.6104 656.54 21.4431 656.38 22.2038 655.91C22.9645 655.439 23.4854 654.695 23.7664 653.677C23.924 653.107 23.9737 652.506 23.9153 651.876C23.8612 651.23 23.6947 650.661 23.4156 650.169L25.3185 649.5C26.0871 650.924 26.2096 652.584 25.6857 654.481ZM19.7251 649.648C18.9455 649.466 18.1804 649.562 17.4298 649.935C16.6835 650.294 16.172 650.974 15.8951 651.977C15.6311 652.933 15.7253 653.764 16.1777 654.47C16.6147 655.171 17.2179 655.662 17.9875 655.941L19.7251 649.648Z" fill="#2143FF"/>
<path d="M29.5702 642.109C28.8494 643.715 27.7422 644.814 26.2486 645.406C24.747 645.977 23.1714 645.892 21.5221 645.152C19.9748 644.457 18.8945 643.367 18.2812 641.881C17.6598 640.375 17.6964 638.848 18.391 637.301C19.0922 635.739 20.1959 634.726 21.702 634.262C23.2146 633.784 24.8102 633.921 26.4888 634.675L27.0362 634.921L23.3696 643.087C24.241 643.373 25.0883 643.342 25.9116 642.992C26.735 642.643 27.3629 641.986 27.7954 641.023C28.0379 640.483 28.1782 639.897 28.2163 639.265C28.261 638.619 28.1828 638.031 27.9817 637.502L29.9643 637.13C30.5076 638.654 30.3763 640.314 29.5702 642.109ZM24.4133 636.426C23.6704 636.128 22.8996 636.106 22.101 636.362C21.3089 636.602 20.6999 637.197 20.274 638.146C19.8677 639.051 19.8345 639.887 20.1744 640.653C20.4997 641.413 21.0214 641.989 21.7396 642.382L24.4133 636.426Z" fill="#2143FF"/>
<path d="M36.0397 631.302C35.0906 632.784 33.8338 633.708 32.2694 634.075C30.7001 634.419 29.1542 634.103 27.6316 633.128C26.2034 632.214 25.2951 630.977 24.9068 629.417C24.5137 627.835 24.7744 626.33 25.689 624.902C26.6122 623.46 27.8528 622.621 29.4107 622.383C30.9773 622.133 32.5353 622.503 34.0848 623.496L34.5901 623.819L29.7627 631.358C30.5825 631.769 31.4253 631.862 32.291 631.638C33.1568 631.413 33.8744 630.856 34.4439 629.967C34.7631 629.468 34.988 628.909 35.1187 628.29C35.2579 627.657 35.2669 627.064 35.1458 626.512L37.1616 626.435C37.4749 628.022 37.101 629.645 36.0397 631.302ZM31.7744 624.923C31.0834 624.519 30.3242 624.384 29.4967 624.519C28.6779 624.641 27.988 625.139 27.4272 626.015C26.8922 626.851 26.7365 627.672 26.96 628.48C27.1701 629.28 27.6014 629.927 28.2541 630.42L31.7744 624.923Z" fill="#2143FF"/>
<path d="M43.6793 621.035C42.5291 622.367 41.1536 623.103 39.553 623.243C37.9508 623.361 36.4654 622.829 35.097 621.647C33.8133 620.539 33.0903 619.185 32.9278 617.586C32.7636 615.964 33.2357 614.512 34.3442 613.228C35.4631 611.932 36.8104 611.278 38.3863 611.264C39.9726 611.239 41.462 611.828 42.8547 613.03L43.3088 613.422L37.4582 620.198C38.2112 620.721 39.0322 620.933 39.9211 620.834C40.81 620.735 41.5995 620.286 42.2897 619.487C42.6766 619.038 42.9787 618.517 43.1961 617.923C43.4239 617.316 43.5172 616.731 43.4758 616.167L45.4821 616.377C45.5665 617.993 44.9655 619.546 43.6793 621.035ZM40.3647 614.114C39.7383 613.616 39.0059 613.374 38.1676 613.39C37.3398 613.394 36.5861 613.79 35.9064 614.577C35.258 615.328 34.987 616.119 35.0933 616.951C35.1875 617.772 35.5225 618.474 36.0983 619.055L40.3647 614.114Z" fill="#2143FF"/>
<path d="M52.8414 611.782C51.518 612.942 50.054 613.481 48.4494 613.398C46.8463 613.293 45.4488 612.561 44.2569 611.201C43.1388 609.926 42.6098 608.485 42.6699 606.879C42.7315 605.251 43.3999 603.877 44.6752 602.759C45.9625 601.631 47.3874 601.169 48.9499 601.373C50.5245 601.567 51.9183 602.356 53.1314 603.74L53.5269 604.191L46.7957 610.092C47.4691 610.715 48.2529 611.039 49.147 611.063C50.0411 611.088 50.8851 610.752 51.6792 610.056C52.1243 609.666 52.4956 609.191 52.7931 608.633C53.1026 608.063 53.2758 607.496 53.3129 606.932L55.2708 607.418C55.131 609.03 54.3211 610.485 52.8414 611.782ZM50.5154 604.469C49.9639 603.889 49.272 603.549 48.4395 603.449C47.6191 603.338 46.8179 603.626 46.0359 604.311C45.29 604.965 44.9122 605.711 44.9025 606.55C44.8822 607.376 45.117 608.117 45.6068 608.773L50.5154 604.469Z" fill="#2143FF"/>
<path d="M62.9108 604.041C61.4459 605.017 59.9237 605.358 58.344 605.064C56.7688 604.748 55.4802 603.838 54.4781 602.333C53.538 600.921 53.2037 599.423 53.4752 597.839C53.7512 596.233 54.595 594.96 56.0066 594.02C57.4316 593.071 58.905 592.801 60.4269 593.21C61.9621 593.61 63.2396 594.576 64.2595 596.108L64.5921 596.607L57.141 601.569C57.7264 602.275 58.4606 602.699 59.3436 602.841C60.2266 602.984 61.1076 602.762 61.9866 602.177C62.4793 601.849 62.91 601.428 63.2785 600.913C63.6604 600.39 63.907 599.851 64.0182 599.296L65.895 600.036C65.5436 601.615 64.5489 602.95 62.9108 604.041ZM61.5701 596.486C61.1001 595.837 60.459 595.409 59.6471 595.2C58.8484 594.982 58.0163 595.161 57.1506 595.738C56.325 596.288 55.852 596.977 55.7318 597.807C55.6027 598.624 55.7376 599.389 56.1366 600.104L61.5701 596.486Z" fill="#2143FF"/>
<path d="M73.9137 597.395C72.334 598.171 70.7803 598.31 69.2525 597.813C67.732 597.294 66.5731 596.224 65.7759 594.601C65.0281 593.079 64.8921 591.55 65.368 590.015C65.8512 588.458 66.8539 587.306 68.3762 586.558C69.9128 585.803 71.4088 585.728 72.8643 586.332C74.3342 586.929 75.4748 588.054 76.2861 589.705L76.5506 590.244L68.5158 594.191C69.0041 594.967 69.6767 595.483 70.5336 595.74C71.3904 595.996 72.2928 595.892 73.2406 595.426C73.7719 595.165 74.2539 594.803 74.6865 594.341C75.1334 593.872 75.4482 593.37 75.6308 592.835L77.395 593.813C76.8405 595.333 75.6801 596.527 73.9137 597.395ZM73.5703 589.729C73.1889 589.025 72.6093 588.516 71.8315 588.203C71.0681 587.883 70.2197 587.952 69.2862 588.411C68.3959 588.848 67.837 589.47 67.6095 590.277C67.3749 591.07 67.4088 591.847 67.7112 592.607L73.5703 589.729Z" fill="#2143FF"/>
<path d="M86.0673 592.553C84.4021 593.123 82.8432 593.065 81.3907 592.378C79.948 591.671 78.934 590.462 78.3486 588.752C77.7995 587.147 77.8581 585.613 78.5245 584.151C79.2008 582.668 80.3413 581.652 81.9459 581.103C83.5657 580.549 85.0593 580.663 86.4266 581.447C87.8091 582.225 88.7982 583.485 89.3939 585.225L89.5882 585.793L81.1184 588.692C81.5045 589.523 82.1063 590.121 82.9239 590.483C83.7414 590.846 84.6497 590.857 85.6488 590.515C86.2089 590.323 86.7328 590.026 87.2204 589.622C87.7231 589.213 88.0989 588.755 88.3479 588.247L89.974 589.441C89.2315 590.878 87.9293 591.916 86.0673 592.553ZM86.697 584.905C86.4077 584.159 85.8971 583.581 85.1653 583.172C84.4485 582.758 83.5982 582.719 82.6142 583.056C81.6756 583.377 81.0425 583.923 80.7147 584.695C80.3817 585.452 80.317 586.226 80.5207 587.019L86.697 584.905Z" fill="#2143FF"/>
<path d="M98.9683 589.01C97.2443 589.364 95.7054 589.108 94.3517 588.243C93.0104 587.359 92.1579 586.031 91.7943 584.26C91.4531 582.599 91.7058 581.085 92.5523 579.719C93.4113 578.334 94.6714 577.47 96.3328 577.129C98.0098 576.785 99.4767 577.088 100.734 578.039C102.006 578.986 102.828 580.361 103.198 582.163L103.318 582.751L94.5493 584.552C94.8267 585.426 95.3479 586.095 96.1128 586.558C96.8777 587.022 97.7773 587.147 98.8118 586.935C99.3917 586.816 99.949 586.587 100.484 586.249C101.034 585.907 101.465 585.5 101.777 585.028L103.238 586.418C102.319 587.75 100.896 588.614 98.9683 589.01ZM100.563 581.504C100.371 580.727 99.9377 580.089 99.2636 579.59C98.6052 579.088 97.7667 578.942 96.7479 579.151C95.7762 579.351 95.0788 579.812 94.6558 580.536C94.2295 581.244 94.0671 582.005 94.1685 582.817L100.563 581.504Z" fill="#2143FF"/>
<path d="M111.335 587.209C109.581 587.353 108.084 586.914 106.845 585.892C105.619 584.853 104.933 583.432 104.785 581.63C104.647 579.94 105.08 578.468 106.084 577.213C107.104 575.942 108.459 575.237 110.149 575.098C111.855 574.958 113.275 575.435 114.408 576.53C115.558 577.624 116.208 579.088 116.358 580.922L116.407 581.52L107.485 582.252C107.655 583.153 108.092 583.879 108.796 584.432C109.499 584.984 110.377 585.217 111.43 585.131C112.02 585.082 112.601 584.922 113.172 584.651C113.76 584.378 114.237 584.026 114.603 583.594L115.886 585.15C114.814 586.362 113.297 587.049 111.335 587.209ZM113.822 579.95C113.725 579.155 113.372 578.47 112.762 577.894C112.169 577.316 111.354 577.07 110.318 577.155C109.329 577.236 108.581 577.61 108.074 578.278C107.566 578.93 107.313 579.665 107.316 580.484L113.822 579.95Z" fill="#2143FF"/>
<path d="M124.87 586.898C123.112 586.823 121.681 586.202 120.578 585.033C119.492 583.85 118.987 582.355 119.064 580.549C119.137 578.854 119.749 577.447 120.902 576.327C122.072 575.192 123.504 574.661 125.198 574.733C126.909 574.807 128.258 575.457 129.247 576.684C130.251 577.912 130.714 579.445 130.635 581.284L130.61 581.883L121.666 581.501C121.723 582.416 122.066 583.191 122.696 583.827C123.325 584.462 124.167 584.803 125.222 584.848C125.814 584.873 126.41 584.786 127.011 584.588C127.628 584.39 128.145 584.1 128.562 583.717L129.642 585.421C128.427 586.49 126.837 586.983 124.87 586.898ZM128.24 580.004C128.242 579.203 127.977 578.479 127.444 577.832C126.927 577.185 126.149 576.84 125.11 576.796C124.119 576.753 123.33 577.032 122.744 577.631C122.159 578.215 121.817 578.913 121.718 579.725L128.24 580.004Z" fill="#2143FF"/>
<path d="M138.299 588.279C136.564 587.987 135.221 587.192 134.271 585.896C133.34 584.587 133.025 583.041 133.326 581.258C133.608 579.586 134.39 578.266 135.673 577.298C136.974 576.316 138.461 575.967 140.133 576.249C141.822 576.534 143.08 577.346 143.909 578.687C144.753 580.03 145.022 581.608 144.716 583.423L144.616 584.014L135.789 582.526C135.732 583.441 135.976 584.253 136.522 584.962C137.068 585.67 137.861 586.112 138.903 586.288C139.486 586.386 140.089 586.374 140.71 586.252C141.347 586.132 141.896 585.908 142.356 585.58L143.217 587.405C141.879 588.315 140.24 588.607 138.299 588.279ZM142.498 581.856C142.599 581.062 142.426 580.311 141.977 579.602C141.545 578.896 140.816 578.457 139.79 578.284C138.812 578.119 137.995 578.298 137.339 578.82C136.686 579.326 136.26 579.976 136.061 580.77L142.498 581.856Z" fill="#2143FF"/>
<path d="M150.79 591.166C149.104 590.661 147.869 589.707 147.087 588.304C146.325 586.89 146.203 585.317 146.721 583.585C147.208 581.96 148.147 580.747 149.54 579.944C150.952 579.131 152.471 578.968 154.096 579.454C155.736 579.945 156.884 580.907 157.541 582.34C158.213 583.777 158.285 585.377 157.757 587.14L157.585 587.714L149.009 585.147C148.84 586.048 148.982 586.884 149.436 587.654C149.89 588.425 150.623 588.962 151.635 589.265C152.202 589.434 152.801 589.497 153.432 589.452C154.079 589.412 154.651 589.258 155.149 588.989L155.778 590.906C154.338 591.644 152.675 591.731 150.79 591.166ZM155.749 585.311C155.948 584.535 155.869 583.768 155.511 583.01C155.169 582.256 154.5 581.73 153.504 581.432C152.553 581.147 151.721 581.223 151.005 581.661C150.294 582.082 149.791 582.675 149.496 583.438L155.749 585.311Z" fill="#2143FF"/>
<path d="M162.997 595.651C161.388 594.937 160.285 593.834 159.687 592.343C159.109 590.844 159.187 589.268 159.921 587.615C160.609 586.065 161.695 584.98 163.178 584.361C164.682 583.733 166.209 583.764 167.759 584.452C169.324 585.146 170.341 586.246 170.811 587.75C171.296 589.261 171.165 590.857 170.418 592.539L170.175 593.087L161.993 589.454C161.711 590.327 161.746 591.174 162.099 591.996C162.452 592.818 163.111 593.443 164.076 593.872C164.617 594.112 165.203 594.25 165.835 594.285C166.482 594.327 167.069 594.246 167.597 594.043L167.978 596.024C166.456 596.574 164.796 596.449 162.997 595.651ZM168.658 590.47C168.954 589.726 168.972 588.955 168.713 588.158C168.469 587.367 167.872 586.76 166.922 586.338C166.015 585.936 165.179 585.906 164.414 586.249C163.656 586.577 163.081 587.102 162.692 587.821L168.658 590.47Z" fill="#2143FF"/>
<path d="M174.722 601.777C173.221 600.859 172.27 599.622 171.871 598.066C171.494 596.504 171.777 594.952 172.72 593.409C173.604 591.962 174.822 591.028 176.373 590.607C177.946 590.18 179.456 590.409 180.903 591.294C182.364 592.186 183.229 593.409 183.499 594.961C183.783 596.522 183.445 598.088 182.486 599.658L182.173 600.17L174.534 595.502C174.141 596.331 174.065 597.175 174.308 598.036C174.551 598.897 175.123 599.603 176.024 600.153C176.529 600.462 177.093 600.675 177.715 600.793C178.35 600.918 178.943 600.915 179.493 600.782L179.612 602.796C178.032 603.143 176.402 602.803 174.722 601.777ZM181.01 597.378C181.4 596.679 181.519 595.917 181.366 595.092C181.227 594.276 180.714 593.597 179.827 593.055C178.98 592.538 178.155 592.399 177.352 592.64C176.557 592.867 175.92 593.311 175.44 593.974L181.01 597.378Z" fill="#2143FF"/>
<path d="M185.217 609.156C183.848 608.049 183.069 606.698 182.878 605.102C182.709 603.505 183.193 602.003 184.33 600.597C185.397 599.279 186.727 598.513 188.32 598.299C189.935 598.083 191.402 598.509 192.721 599.576C194.052 600.652 194.749 601.978 194.813 603.553C194.889 605.137 194.349 606.645 193.191 608.075L192.814 608.542L185.854 602.911C185.355 603.68 185.17 604.508 185.297 605.393C185.425 606.278 185.899 607.053 186.72 607.717C187.18 608.09 187.711 608.375 188.312 608.573C188.926 608.781 189.514 608.856 190.076 608.797L189.93 610.809C188.318 610.945 186.746 610.394 185.217 609.156ZM192.028 605.621C192.506 604.979 192.724 604.24 192.681 603.402C192.651 602.575 192.231 601.834 191.423 601.18C190.651 600.556 189.852 600.311 189.024 600.443C188.206 600.564 187.516 600.921 186.953 601.515L192.028 605.621Z" fill="#2143FF"/>
<path d="M194.848 618.087C193.644 616.803 193.058 615.357 193.087 613.751C193.14 612.145 193.826 610.724 195.145 609.488C196.383 608.329 197.805 607.752 199.413 607.76C201.042 607.767 202.437 608.39 203.596 609.628C204.767 610.877 205.276 612.286 205.123 613.855C204.98 615.435 204.238 616.854 202.895 618.112L202.457 618.522L196.337 611.989C195.737 612.683 195.44 613.477 195.444 614.371C195.449 615.265 195.813 616.098 196.534 616.869C196.939 617.301 197.426 617.656 197.994 617.935C198.573 618.226 199.145 618.38 199.711 618.398L199.29 620.371C197.674 620.285 196.193 619.523 194.848 618.087ZM202.08 615.521C202.642 614.951 202.959 614.248 203.032 613.413C203.115 612.589 202.801 611.798 202.09 611.039C201.412 610.315 200.654 609.962 199.816 609.98C198.989 609.987 198.256 610.246 197.617 610.757L202.08 615.521Z" fill="#2143FF"/>
<path d="M202.977 628.077C201.967 626.636 201.589 625.122 201.845 623.536C202.124 621.954 203.003 620.644 204.483 619.606C205.872 618.632 207.362 618.263 208.952 618.496C210.564 618.734 211.857 619.547 212.831 620.936C213.813 622.338 214.118 623.804 213.746 625.336C213.382 626.88 212.447 628.18 210.94 629.236L210.449 629.581L205.311 622.25C204.619 622.852 204.213 623.596 204.091 624.482C203.97 625.368 204.212 626.244 204.818 627.109C205.158 627.593 205.59 628.014 206.113 628.37C206.645 628.739 207.19 628.973 207.747 629.071L207.052 630.965C205.465 630.651 204.106 629.689 202.977 628.077ZM210.498 626.557C211.135 626.071 211.548 625.42 211.738 624.603C211.936 623.8 211.737 622.972 211.14 622.12C210.571 621.308 209.87 620.852 209.038 620.751C208.218 620.642 207.456 620.795 206.751 621.211L210.498 626.557Z" fill="#2143FF"/>
<path d="M209.527 639.018C208.737 637.445 208.585 635.892 209.069 634.36C209.574 632.835 210.635 631.667 212.251 630.856C213.767 630.095 215.294 629.946 216.833 630.409C218.394 630.879 219.555 631.871 220.316 633.387C221.084 634.917 221.172 636.413 220.58 637.873C219.996 639.348 218.882 640.498 217.237 641.324L216.701 641.593L212.685 633.592C211.913 634.087 211.402 634.764 211.153 635.623C210.904 636.482 211.016 637.384 211.49 638.328C211.756 638.857 212.121 639.336 212.587 639.764C213.06 640.207 213.565 640.517 214.102 640.695L213.139 642.468C211.614 641.927 210.41 640.776 209.527 639.018ZM217.19 638.608C217.89 638.221 218.394 637.637 218.7 636.856C219.014 636.09 218.938 635.243 218.471 634.313C218.026 633.427 217.399 632.873 216.59 632.652C215.795 632.425 215.019 632.465 214.261 632.774L217.19 638.608Z" fill="#2143FF"/>
<path d="M214.048 652.605C213.505 650.932 213.587 649.374 214.297 647.932C215.026 646.501 216.251 645.506 217.97 644.947C219.583 644.423 221.116 644.506 222.568 645.195C224.04 645.894 225.038 647.051 225.562 648.664C226.091 650.292 225.953 651.783 225.148 653.138C224.348 654.508 223.073 655.478 221.323 656.046L220.753 656.232L217.987 647.718C217.149 648.091 216.543 648.683 216.167 649.495C215.791 650.306 215.767 651.215 216.093 652.219C216.276 652.782 216.565 653.31 216.961 653.804C217.362 654.313 217.814 654.696 218.318 654.953L217.099 656.56C215.673 655.795 214.656 654.477 214.048 652.605ZM221.685 653.355C222.436 653.077 223.022 652.576 223.443 651.85C223.868 651.14 223.92 650.29 223.599 649.301C223.292 648.358 222.756 647.716 221.989 647.376C221.238 647.032 220.464 646.955 219.669 647.146L221.685 653.355Z" fill="#2143FF"/>
<path d="M217.862 667.189C217.584 665.451 217.907 663.925 218.831 662.611C219.774 661.31 221.138 660.517 222.923 660.231C224.598 659.964 226.099 660.283 227.427 661.189C228.773 662.108 229.579 663.405 229.847 665.08C230.117 666.77 229.75 668.223 228.745 669.436C227.742 670.666 226.332 671.426 224.515 671.716L223.923 671.811L222.51 662.971C221.625 663.21 220.934 663.701 220.437 664.445C219.94 665.188 219.775 666.082 219.941 667.124C220.035 667.709 220.239 668.276 220.553 668.825C220.871 669.39 221.258 669.839 221.716 670.17L220.263 671.569C218.973 670.593 218.172 669.133 217.862 667.189ZM225.29 669.113C226.075 668.955 226.732 668.551 227.259 667.899C227.79 667.264 227.973 666.432 227.809 665.405C227.652 664.426 227.222 663.709 226.517 663.254C225.828 662.797 225.076 662.601 224.26 662.667L225.29 669.113Z" fill="#2143FF"/>
</svg>
