<svg width="219" height="698" viewBox="0 0 219 698" fill="none" xmlns="http://www.w3.org/2000/svg">
<line x1="111.927" y1="0.907413" x2="107.41" y2="499.578" stroke="#FF8C21" stroke-width="5" stroke-dasharray="10 10"/>
<path d="M195.998 604.886L196.196 602.061L200.668 599.368L196.618 596.052L196.815 593.251L202.455 597.905L208.361 594.302L208.163 597.127L204.044 599.605L207.778 602.609L207.58 605.434L202.235 601.042L195.998 604.886Z" fill="#2143FF"/>
<path d="M193.642 615.535L194.241 612.767L199.051 610.739L195.516 606.879L196.11 604.135L201.028 609.546L207.389 606.822L206.789 609.59L202.359 611.455L205.627 614.961L205.028 617.729L200.363 612.619L193.642 615.535Z" fill="#2143FF"/>
<path d="M189.745 625.829L190.736 623.176L195.788 621.861L192.845 617.533L193.827 614.903L197.916 620.965L204.602 619.184L203.611 621.837L198.958 623.045L201.688 626.986L200.697 629.639L196.816 623.91L189.745 625.829Z" fill="#2143FF"/>
<path d="M184.461 635.437L185.814 632.949L191 632.354L188.692 627.656L190.033 625.189L193.233 631.765L200.102 630.938L198.749 633.426L193.973 633.97L196.124 638.254L194.771 640.742L191.731 634.527L184.461 635.437Z" fill="#2143FF"/>
<path d="M177.9 644.257L179.579 641.976L184.798 642.092L183.15 637.125L184.814 634.863L187.09 641.813L194.008 641.928L192.329 644.209L187.523 644.098L189.071 648.635L187.393 650.916L185.226 644.345L177.9 644.257Z" fill="#2143FF"/>
<path d="M170.196 652.163L172.162 650.125L177.319 650.932L176.344 645.79L178.294 643.769L179.628 650.959L186.47 651.99L184.504 654.028L179.755 653.282L180.688 657.984L178.722 660.022L177.445 653.221L170.196 652.163Z" fill="#2143FF"/>
<path d="M161.503 659.029L163.718 657.263L168.727 658.734L168.428 653.508L170.624 651.758L171.012 659.06L177.662 660.972L175.448 662.737L170.836 661.38L171.15 666.163L168.936 667.928L168.554 661.02L161.503 659.029Z" fill="#2143FF"/>
<path d="M152.028 664.749L154.446 663.273L159.232 665.358L159.588 660.136L161.985 658.673L161.459 665.967L167.818 668.693L165.401 670.168L160.995 668.246L160.709 673.031L158.292 674.506L158.775 667.604L152.028 664.749Z" fill="#2143FF"/>
<path d="M141.885 669.256L144.467 668.092L148.957 670.755L149.959 665.618L152.519 664.464L151.091 671.636L157.062 675.132L154.48 676.295L150.347 673.84L149.469 678.553L146.887 679.716L148.225 672.927L141.885 669.256Z" fill="#2143FF"/>
<path d="M131.261 672.478L133.968 671.645L138.092 674.845L139.726 669.873L142.41 669.047L140.1 675.985L145.589 680.197L142.883 681.03L139.087 678.08L137.63 682.646L134.923 683.479L137.095 676.91L131.261 672.478Z" fill="#2143FF"/>
<path d="M120.308 674.426L123.094 673.919L126.812 677.583L129.021 672.838L131.783 672.335L128.671 678.952L133.626 683.782L130.84 684.29L127.419 680.913L125.433 685.275L122.647 685.783L125.578 679.516L120.308 674.426Z" fill="#2143FF"/>
<path d="M109.196 675.046L112.023 674.872L115.279 678.952L118.036 674.503L120.838 674.33L116.963 680.532L121.31 685.915L118.483 686.089L115.487 682.33L112.998 686.426L110.171 686.6L113.825 680.725L109.196 675.046Z" fill="#2143FF"/>
<path d="M97.7504 674.314L100.577 674.487L103.309 678.936L106.59 674.857L109.392 675.029L104.787 680.71L108.442 686.585L105.615 686.411L103.102 682.313L100.129 686.074L97.3025 685.9L101.649 680.517L97.7504 674.314Z" fill="#2143FF"/>
<path d="M86.8147 672.287L89.6008 672.795L91.7861 677.535L95.5271 673.875L98.2896 674.378L93.0432 679.472L95.975 685.739L93.1889 685.232L91.1794 680.864L87.7819 684.246L84.9958 683.738L89.9502 678.908L86.8147 672.287Z" fill="#2143FF"/>
<path d="M76.206 668.97L78.9128 669.803L80.5237 674.769L84.6704 671.575L87.3542 672.401L81.5435 676.84L83.7155 683.41L81.0088 682.577L79.5284 678.003L75.7558 680.96L73.0491 680.127L78.5386 675.916L76.206 668.97Z" fill="#2143FF"/>
<path d="M66.1225 664.365L68.7046 665.528L69.685 670.656L74.1969 668.003L76.7571 669.156L70.4391 672.838L71.7766 679.627L69.1946 678.463L68.295 673.741L64.1837 676.206L61.6016 675.042L67.5726 671.547L66.1225 664.365Z" fill="#2143FF"/>
<path d="M56.6893 658.558L59.1067 660.034L59.4424 665.243L64.249 663.171L66.646 664.634L59.9195 667.502L60.4031 674.404L57.9856 672.929L57.6798 668.132L53.294 670.066L50.8766 668.591L57.2357 665.864L56.6893 658.558Z" fill="#2143FF"/>
<path d="M48.0871 651.637L50.3015 653.402L49.9843 658.613L55.0119 657.158L57.2076 658.908L50.1757 660.914L49.7939 667.823L47.5794 666.057L47.8749 661.259L43.2819 662.631L41.0675 660.866L47.7173 658.954L48.0871 651.637Z" fill="#2143FF"/>
<path d="M40.4566 643.653L42.4229 645.691L41.4313 650.816L46.6053 650.027L48.5549 652.047L41.322 653.123L40.0457 659.923L38.0795 657.885L38.9959 653.166L34.2636 653.93L32.2973 651.891L39.1391 650.86L40.4566 643.653Z" fill="#2143FF"/>
<path d="M33.9747 634.763L35.6535 637.044L33.9912 641.993L39.2243 641.896L40.8888 644.157L33.5771 644.264L31.4106 650.835L29.7319 648.554L31.2658 643.998L26.4741 644.128L24.7953 641.847L31.7135 641.732L33.9747 634.763Z" fill="#2143FF"/>
<path d="M28.7911 625.118L30.1438 627.606L27.8238 632.282L33.0214 632.898L34.3627 635.365L27.1045 634.476L24.0641 640.692L22.7113 638.204L24.8508 633.899L20.086 633.375L18.7332 630.887L25.6027 631.714L28.7911 625.118Z" fill="#2143FF"/>
<path d="M25.0235 614.871L26.0146 617.524L23.0626 621.829L28.1227 623.167L29.1054 625.798L22.0432 623.901L18.1624 629.63L17.1714 626.977L19.8926 623.014L15.248 621.828L14.2569 619.175L20.9429 620.956L25.0235 614.871Z" fill="#2143FF"/>
<path d="M22.7564 604.152L23.3556 606.92L19.815 610.756L24.6301 612.808L25.2242 615.552L18.5081 612.66L13.8438 617.77L13.2446 615.002L16.5076 611.472L12.0818 609.631L11.4827 606.863L17.843 609.587L22.7564 604.152Z" fill="#2143FF"/>
<path d="M22.0529 593.321L22.2511 596.146L18.1996 599.437L22.6728 602.155L22.8693 604.956L16.6346 601.135L11.2889 605.528L11.0907 602.703L14.8239 599.674L10.706 597.22L10.5078 594.395L16.4145 597.999L22.0529 593.321Z" fill="#2143FF"/>
<path d="M22.9571 581.988L22.7357 584.811L18.2422 587.468L22.2646 590.817L22.045 593.616L16.4434 588.916L10.5073 592.47L10.7288 589.647L14.8685 587.203L11.1585 584.168L11.38 581.345L16.6893 585.781L22.9571 581.988Z" fill="#2143FF"/>
<path d="M25.3801 571.437L24.7585 574.2L19.9322 576.189L23.4363 580.077L22.82 582.816L17.9455 577.366L11.5633 580.038L12.1849 577.275L16.6307 575.446L13.3912 571.913L14.0128 569.15L18.6355 574.298L25.3801 571.437Z" fill="#2143FF"/>
<path d="M29.3414 561.185L28.3294 563.83L23.2674 565.106L26.1766 569.457L25.1732 572.079L21.1323 565.985L14.4324 567.712L15.4444 565.067L20.1068 563.896L17.4085 559.934L18.4205 557.289L22.2558 563.048L29.3414 561.185Z" fill="#2143FF"/>
<path d="M34.6545 551.672L33.2826 554.15L28.0921 554.705L30.3645 559.42L29.0043 561.876L25.855 555.277L18.9794 556.051L20.3513 553.573L25.1316 553.065L23.0136 548.765L24.3855 546.288L27.378 552.526L34.6545 551.672Z" fill="#2143FF"/>
<path d="M41.2055 542.965L39.5098 545.233L34.2919 545.078L35.9028 550.058L34.2214 552.307L31.9979 545.341L25.0808 545.174L26.7766 542.906L31.5816 543.052L30.0674 538.504L31.7631 536.236L33.8804 542.823L41.2055 542.965Z" fill="#2143FF"/>
<path d="M48.9093 535.125L46.9282 537.149L41.7769 536.305L42.7142 541.454L40.7499 543.461L39.4683 536.261L32.6342 535.18L34.6153 533.156L39.3587 533.937L38.4599 529.229L40.441 527.205L41.6676 534.015L48.9093 535.125Z" fill="#2143FF"/>
<path d="M57.7016 528.231L55.4746 529.98L50.4765 528.474L50.7374 533.702L48.5292 535.436L48.193 528.131L41.5572 526.172L43.7842 524.423L48.386 525.813L48.1062 521.028L50.3333 519.278L50.6654 526.189L57.7016 528.231Z" fill="#2143FF"/>
<path d="M67.0007 522.676L64.5727 524.134L59.8016 522.016L59.4082 527.235L57.0009 528.681L57.5788 521.391L51.2393 518.619L53.6672 517.161L58.0596 519.115L58.379 514.332L60.807 512.874L60.2742 519.773L67.0007 522.676Z" fill="#2143FF"/>
<path d="M77.1696 518.182L74.5793 519.327L70.1083 516.632L69.0695 521.762L66.5012 522.897L67.9804 515.736L62.0344 512.198L64.6247 511.053L68.7403 513.537L69.6516 508.831L72.2418 507.686L70.856 514.465L77.1696 518.182Z" fill="#2143FF"/>
<path d="M88.1819 514.867L85.4693 515.681L81.3685 512.451L79.6992 517.412L77.0095 518.218L79.3687 511.297L73.9094 507.046L76.622 506.232L80.3964 509.21L81.8864 504.653L84.599 503.84L82.3801 510.394L88.1819 514.867Z" fill="#2143FF"/>
<path d="M98.6475 513.077L95.8578 513.564L92.1669 509.873L89.9239 514.602L87.1578 515.086L90.3172 508.491L85.3977 503.626L88.1874 503.138L91.584 506.54L93.6013 502.191L96.3909 501.703L93.4142 507.949L98.6475 513.077Z" fill="#2143FF"/>
<path d="M109.768 512.468L106.94 512.621L103.713 508.518L100.925 512.947L98.1214 513.099L102.041 506.926L97.7332 501.511L100.561 501.358L103.53 505.139L106.049 501.06L108.877 500.907L105.18 506.756L109.768 512.468Z" fill="#2143FF"/>
<path d="M121.664 513.243L118.838 513.048L116.138 508.581L112.829 512.635L110.027 512.443L114.673 506.796L111.061 500.895L113.887 501.089L116.37 505.205L119.37 501.466L122.195 501.66L117.81 507.012L121.664 513.243Z" fill="#2143FF"/>
<path d="M132.539 515.325L129.757 514.797L127.606 510.041L123.839 513.674L121.08 513.151L126.363 508.095L123.476 501.807L126.258 502.335L128.236 506.716L131.658 503.359L134.44 503.887L129.451 508.681L132.539 515.325Z" fill="#2143FF"/>
<path d="M143.236 518.756L140.538 517.894L138.981 512.912L134.8 516.061L132.125 515.206L137.983 510.829L135.882 504.237L138.579 505.099L140.01 509.688L143.814 506.772L146.512 507.634L140.978 511.786L143.236 518.756Z" fill="#2143FF"/>
<path d="M153.048 523.298L150.474 522.117L149.53 516.983L145 519.603L142.448 518.432L148.792 514.795L147.503 507.997L150.076 509.179L150.942 513.907L155.071 511.472L157.645 512.654L151.649 516.107L153.048 523.298Z" fill="#2143FF"/>
<path d="M162.483 529.158L160.076 527.666L159.777 522.454L154.956 524.492L152.57 523.012L159.316 520.192L158.882 513.286L161.289 514.779L161.561 519.578L165.96 517.675L168.367 519.167L161.988 521.849L162.483 529.158Z" fill="#2143FF"/>
<path d="M170.894 535.989L168.693 534.208L169.047 529L164.009 530.419L161.826 528.653L168.872 526.698L169.304 519.792L171.506 521.573L171.176 526.369L175.778 525.03L177.98 526.811L171.317 528.675L170.894 535.989Z" fill="#2143FF"/>
<path d="M178.608 544.097L176.656 542.044L177.685 536.927L172.506 537.678L170.571 535.643L177.812 534.621L179.138 527.83L181.089 529.883L180.138 534.595L184.876 533.866L186.827 535.918L179.978 536.9L178.608 544.097Z" fill="#2143FF"/>
<path d="M185.066 553.032L183.404 550.738L185.104 545.802L179.87 545.86L178.222 543.586L185.535 543.534L187.75 536.979L189.412 539.273L187.844 543.817L192.636 543.723L194.298 546.016L187.379 546.08L185.066 553.032Z" fill="#2143FF"/>
<path d="M190.203 562.697L188.869 560.199L191.225 555.54L186.033 554.884L184.71 552.407L191.962 553.352L195.05 547.16L196.383 549.658L194.211 553.947L198.971 554.507L200.305 557.005L193.442 556.125L190.203 562.697Z" fill="#2143FF"/>
<path d="M193.937 573.004L192.967 570.343L195.953 566.061L190.904 564.683L189.942 562.045L196.989 563.998L200.915 558.3L201.885 560.961L199.132 564.902L203.767 566.124L204.737 568.785L198.066 566.951L193.937 573.004Z" fill="#2143FF"/>
<path d="M196.169 583.848L195.592 581.075L199.164 577.268L194.366 575.177L193.794 572.428L200.486 575.375L205.192 570.302L205.769 573.075L202.477 576.579L206.888 578.456L207.464 581.229L201.126 578.453L196.169 583.848Z" fill="#2143FF"/>
<path d="M196.801 594.75L196.626 591.924L200.704 588.666L196.254 585.911L196.08 583.109L202.283 586.981L207.665 582.632L207.84 585.459L204.082 588.457L208.179 590.944L208.354 593.771L202.477 590.119L196.801 594.75Z" fill="#2143FF"/>
<path d="M51.3568 556.385H48.5248L45.5248 552.113L42.5008 556.385H39.6928L43.9408 550.433L39.9328 544.793H42.7648L45.5248 548.729L48.2608 544.793H51.0928L47.0848 550.433L51.3568 556.385Z" fill="#2143FF"/>
<path d="M63.8785 558.38L61.0573 558.132L58.4422 553.614L55.0563 557.606L52.2591 557.36L57.0111 551.802L53.5114 545.834L56.3326 546.081L58.738 550.243L61.8075 546.562L64.6287 546.809L60.143 552.077L63.8785 558.38Z" fill="#2143FF"/>
<path d="M76.7369 558.384L73.9157 558.137L71.3006 553.619L67.9147 557.61L65.1175 557.365L69.8695 551.807L66.3698 545.838L69.191 546.086L71.5964 550.248L74.6659 546.566L77.4871 546.814L73.0014 552.082L76.7369 558.384Z" fill="#2143FF"/>
<path d="M90.3139 557.618L87.5 557.938L84.0365 554.032L81.5146 558.618L78.7246 558.936L82.2728 552.542L77.6531 547.391L80.4669 547.071L83.654 550.67L85.9277 546.45L88.7416 546.13L85.3966 552.187L90.3139 557.618Z" fill="#2143FF"/>
<path d="M102.177 556.269L99.3633 556.589L95.8998 552.683L93.3779 557.269L90.5879 557.587L94.1361 551.193L89.5163 546.042L92.3302 545.722L95.5173 549.321L97.791 545.101L100.605 544.781L97.2599 550.837L102.177 556.269Z" fill="#2143FF"/>
<path d="M114.366 554.452L111.565 554.868L107.97 551.083L105.606 555.754L102.829 556.166L106.156 549.655L101.362 544.665L104.164 544.249L107.472 547.736L109.6 543.441L112.401 543.025L109.266 549.192L114.366 554.452Z" fill="#2143FF"/>
<path d="M126.211 552.692L123.41 553.108L119.814 549.324L117.451 553.994L114.674 554.407L118.001 547.895L113.207 542.905L116.008 542.489L119.317 545.976L121.445 541.681L124.246 541.265L121.11 547.433L126.211 552.692Z" fill="#2143FF"/>
<path d="M137.589 554.029L134.764 553.82L132.086 549.339L128.757 553.378L125.956 553.171L130.63 547.548L127.048 541.628L129.872 541.836L132.335 545.965L135.353 542.24L138.177 542.449L133.766 547.779L137.589 554.029Z" fill="#2143FF"/>
<path d="M150.144 554.584L147.319 554.376L144.642 549.895L141.312 553.933L138.511 553.726L143.185 548.103L139.603 542.183L142.427 542.392L144.89 546.52L147.908 542.796L150.733 543.004L146.321 548.334L150.144 554.584Z" fill="#2143FF"/>
<path d="M164.188 550.511L161.418 551.1L157.595 547.546L155.526 552.353L152.779 552.937L155.696 546.232L150.603 541.548L153.373 540.96L156.891 544.236L158.749 539.817L161.519 539.228L158.772 545.578L164.188 550.511Z" fill="#2143FF"/>
<path d="M175.838 550.035H173.006L170.006 545.763L166.982 550.035H164.174L168.422 544.083L164.414 538.443H167.246L170.006 542.379L172.742 538.443H175.574L171.566 544.083L175.838 550.035Z" fill="#2143FF"/>
<path d="M35.2249 600.572L32.3949 600.678L29.236 596.522L26.3752 600.905L23.5691 601.011L27.5898 594.903L23.3721 589.418L26.2021 589.312L29.1085 593.141L31.6942 589.104L34.5242 588.998L30.7316 594.785L35.2249 600.572Z" fill="#2143FF"/>
<path d="M47.5545 600.119L44.7245 600.226L41.5656 596.07L38.7047 600.453L35.8987 600.559L39.9194 594.451L35.7017 588.966L38.5317 588.859L41.4381 592.689L44.0238 588.652L46.8538 588.546L43.0612 594.333L47.5545 600.119Z" fill="#2143FF"/>
<path d="M61.1253 599.667L58.2953 599.774L55.1364 595.618L52.2755 600.001L49.4695 600.107L53.4902 593.999L49.2725 588.514L52.1025 588.407L55.0089 592.236L57.5946 588.2L60.4246 588.093L56.632 593.88L61.1253 599.667Z" fill="#2143FF"/>
<path d="M74.2414 596.822L71.4855 597.474L67.5823 594.008L65.6235 598.861L62.8909 599.508L65.654 592.738L60.4548 588.172L63.2107 587.52L66.803 590.715L68.559 586.254L71.3148 585.602L68.7135 592.014L74.2414 596.822Z" fill="#2143FF"/>
<path d="M86.2307 593.527L83.4748 594.179L79.5716 590.712L77.6127 595.566L74.8802 596.213L77.6432 589.442L72.4441 584.877L75.2 584.225L78.7922 587.419L80.5482 582.959L83.3041 582.307L80.7027 588.718L86.2307 593.527Z" fill="#2143FF"/>
<path d="M98.9202 593.295H96.0882L93.0882 589.023L90.0642 593.295H87.2562L91.5042 587.343L87.4962 581.703H90.3282L93.0882 585.639L95.8242 581.703H98.6562L94.6482 587.343L98.9202 593.295Z" fill="#2143FF"/>
<path d="M110.92 593.289H108.088L105.088 589.017L102.064 593.289H99.2562L103.504 587.337L99.4962 581.697H102.328L105.088 585.633L107.824 581.697H110.656L106.648 587.337L110.92 593.289Z" fill="#2143FF"/>
<path d="M122.848 593.289H120.016L117.016 589.017L113.992 593.289H111.184L115.432 587.337L111.424 581.697H114.256L117.016 585.633L119.752 581.697H122.584L118.576 587.337L122.848 593.289Z" fill="#2143FF"/>
<path d="M134.776 593.289H131.944L128.944 589.017L125.92 593.289H123.112L127.36 587.337L123.352 581.697H126.184L128.944 585.633L131.68 581.697H134.512L130.504 587.337L134.776 593.289Z" fill="#2143FF"/>
<path d="M148.976 589.371L146.322 590.358L142.021 587.4L140.676 592.458L138.044 593.437L139.951 586.377L134.228 582.488L136.882 581.501L140.841 584.228L142.034 579.585L144.688 578.598L142.897 585.281L148.976 589.371Z" fill="#2143FF"/>
<path d="M160.253 585.177L157.599 586.164L153.298 583.206L151.953 588.264L149.321 589.243L151.228 582.183L145.505 578.294L148.159 577.307L152.118 580.034L153.311 575.391L155.965 574.404L154.174 581.088L160.253 585.177Z" fill="#2143FF"/>
<path d="M171.529 580.983L168.875 581.97L164.574 579.012L163.229 584.07L160.597 585.049L162.504 577.99L156.781 574.1L159.436 573.113L163.395 575.84L164.587 571.198L167.241 570.21L165.451 576.894L171.529 580.983Z" fill="#2143FF"/>
<path d="M182.872 576.092L180.257 577.179L175.847 574.386L174.695 579.491L172.102 580.569L173.739 573.443L167.874 569.773L170.489 568.686L174.548 571.261L175.564 566.576L178.179 565.489L176.643 572.236L182.872 576.092Z" fill="#2143FF"/>
<path d="M191.607 574.35H188.775L185.775 570.078L182.751 574.35H179.943L184.191 568.398L180.183 562.758H183.015L185.775 566.694L188.511 562.758H191.343L187.335 568.398L191.607 574.35Z" fill="#2143FF"/>
<path d="M40.3641 631.09H37.5321L34.5321 626.818L31.5081 631.09H28.7001L32.9481 625.138L28.9401 619.498H31.7721L34.5321 623.434L37.2681 619.498H40.1001L36.0921 625.138L40.3641 631.09Z" fill="#2143FF"/>
<path d="M52.4007 631.09H49.5687L46.5687 626.818L43.5447 631.09H40.7367L44.9847 625.138L40.9767 619.498H43.8087L46.5687 623.434L49.3047 619.498H52.1367L48.1287 625.138L52.4007 631.09Z" fill="#2143FF"/>
<path d="M63.1899 633.117L60.3893 632.697L58.0561 628.027L54.4319 631.803L51.655 631.387L56.7388 626.131L53.6116 619.959L56.4123 620.379L58.558 624.681L61.8475 621.194L64.6482 621.614L59.848 626.597L63.1899 633.117Z" fill="#2143FF"/>
<path d="M75.0186 634.891L72.2179 634.471L69.8847 629.801L66.2605 633.577L63.4836 633.161L68.5674 627.905L65.4402 621.733L68.2409 622.153L70.3866 626.455L73.6761 622.968L76.4768 623.388L71.6766 628.371L75.0186 634.891Z" fill="#2143FF"/>
<path d="M89.1905 631.677L86.3952 632.132L82.7486 628.396L80.4493 633.098L77.6777 633.549L80.9155 626.992L76.0544 622.069L78.8497 621.614L82.2055 625.056L84.2744 620.732L87.0697 620.278L84.0188 626.488L89.1905 631.677Z" fill="#2143FF"/>
<path d="M101.013 629.755L98.2175 630.209L94.5708 626.474L92.2716 631.176L89.5 631.627L92.7378 625.07L87.8766 620.146L90.6719 619.692L94.0278 623.134L96.0967 618.81L98.892 618.355L95.841 624.565L101.013 629.755Z" fill="#2143FF"/>
<path d="M112.836 627.833L110.04 628.287L106.394 624.552L104.094 629.254L101.323 629.705L104.561 623.148L99.6994 618.224L102.495 617.77L105.851 621.212L107.919 616.888L110.715 616.433L107.664 622.644L112.836 627.833Z" fill="#2143FF"/>
<path d="M123.837 628.752H121.005L118.005 624.48L114.981 628.752H112.173L116.421 622.8L112.413 617.16H115.245L118.005 621.096L120.741 617.16H123.573L119.565 622.8L123.837 628.752Z" fill="#2143FF"/>
<path d="M135.92 628.752H133.088L130.088 624.48L127.064 628.752H124.256L128.504 622.8L124.496 617.16H127.328L130.088 621.096L132.824 617.16H135.656L131.648 622.8L135.92 628.752Z" fill="#2143FF"/>
<path d="M149.588 623.739L146.904 624.643L142.697 621.552L141.195 626.566L138.534 627.462L140.66 620.466L135.061 616.4L137.745 615.496L141.617 618.345L142.954 613.742L145.638 612.838L143.639 619.462L149.588 623.739Z" fill="#2143FF"/>
<path d="M160.919 619.922L158.236 620.826L154.029 617.735L152.527 622.749L149.866 623.646L151.991 616.649L146.393 612.583L149.077 611.679L152.949 614.528L154.285 609.925L156.969 609.021L154.971 615.645L160.919 619.922Z" fill="#2143FF"/>
<path d="M170.664 620.802H167.832L164.832 616.53L161.808 620.802H159L163.248 614.85L159.24 609.21H162.072L164.832 613.146L167.568 609.21H170.4L166.392 614.85L170.664 620.802Z" fill="#2143FF"/>
<path d="M182.756 620.802H179.924L176.924 616.53L173.9 620.802H171.092L175.34 614.85L171.332 609.21H174.164L176.924 613.146L179.66 609.21H182.492L178.484 614.85L182.756 620.802Z" fill="#2143FF"/>
<path d="M194.822 620.802H191.99L188.99 616.53L185.966 620.802H183.158L187.406 614.85L183.398 609.21H186.23L188.99 613.146L191.726 609.21H194.558L190.55 614.85L194.822 620.802Z" fill="#2143FF"/>
<path d="M87.7744 666.999L85.1323 668.018L80.7953 665.113L79.5124 670.187L76.8927 671.198L78.7127 664.116L72.9428 660.298L75.5848 659.278L79.5769 661.956L80.7122 657.299L83.3542 656.279L81.6458 662.984L87.7744 666.999Z" fill="#2143FF"/>
<path d="M98.937 662.69L96.2949 663.71L91.9579 660.805L90.675 665.879L88.0553 666.89L89.8753 659.808L84.1054 655.989L86.7474 654.969L90.7395 657.648L91.8748 652.99L94.5168 651.971L92.8084 658.676L98.937 662.69Z" fill="#2143FF"/>
<path d="M108.54 664.49H105.708L102.708 660.218L99.6843 664.49H96.8763L101.124 658.538L97.1163 652.898H99.9483L102.708 656.834L105.444 652.898H108.276L104.268 658.538L108.54 664.49Z" fill="#2143FF"/>
<path d="M120.548 664.49H117.716L114.716 660.218L111.692 664.49H108.884L113.132 658.538L109.124 652.898H111.956L114.716 656.834L117.452 652.898H120.284L116.276 658.538L120.548 664.49Z" fill="#2143FF"/>
<path d="M134.302 662.441L131.565 663.169L127.569 659.811L125.744 664.716L123.03 665.437L125.606 658.594L120.284 654.172L123.021 653.445L126.7 656.54L128.333 652.033L131.07 651.306L128.645 657.786L134.302 662.441Z" fill="#2143FF"/>
<path d="M145.832 659.377L143.095 660.105L139.098 656.747L137.273 661.652L134.559 662.373L137.136 655.53L131.814 651.108L134.551 650.381L138.229 653.476L139.862 648.969L142.599 648.242L140.174 654.722L145.832 659.377Z" fill="#2143FF"/>
<path d="M157.485 656.281L154.748 657.008L150.751 653.65L148.926 658.555L146.212 659.277L148.789 652.433L143.466 648.012L146.203 647.284L149.882 650.379L151.515 645.873L154.252 645.145L151.827 651.626L157.485 656.281Z" fill="#2143FF"/>
<path d="M168.561 655.466L165.751 655.817L162.244 651.95L159.773 656.564L156.987 656.912L160.464 650.479L155.788 645.38L158.598 645.029L161.825 648.592L164.052 644.347L166.862 643.996L163.584 650.09L168.561 655.466Z" fill="#2143FF"/>
</svg>
