<svg width="764" height="1175" viewBox="0 0 764 1175" fill="none" xmlns="http://www.w3.org/2000/svg">
<path d="M170.318 698.183L92.9214 771.84" stroke="#2143FF" stroke-width="5"/>
<path d="M196.49 947.944L106.008 1030.95" stroke="#2143FF" stroke-width="5"/>
<path d="M23.7505 1104.61L28.8265 1105.84C33.6614 1107.01 38.5771 1107.82 43.5325 1108.26L44.993 1108.39C50.2655 1108.86 55.5669 1108.91 60.8473 1108.54L74.2262 1107.6L92.5471 1103.86" stroke="#2143FF" stroke-width="5"/>
<path d="M20.3857 1085.16L39.8283 1087.41H62.2619L72.767 1086.79C78.4656 1086.45 84.125 1085.63 89.6832 1084.33L98.9036 1082.17" stroke="#2143FF" stroke-width="5"/>
<path d="M93.295 772.588L81.5808 732.582L65.9112 695.566L58.5228 682.106L51.0449 695.566L37.7875 724.361C35.2692 729.83 33.2501 735.516 31.7548 741.349L23.746 772.588L10.9254 842.507L2.8125 913.173V965.144L10.9254 1033.57L19.6378 1085.54L25.6201 1118.44L28.7809 1137.68C29.2467 1140.51 30.3948 1143.19 32.1263 1145.49C33.5543 1147.38 35.3471 1148.96 37.3985 1150.15L39.6338 1151.44C42.5185 1153.11 45.6572 1154.29 48.9249 1154.95L52.154 1155.59C57.7797 1156.71 63.5802 1156.62 69.1668 1155.31L70.8143 1154.93C73.5725 1154.29 76.2209 1153.24 78.6741 1151.83L81.4112 1150.25C83.5698 1149 85.4014 1147.26 86.7552 1145.17C88.1047 1143.08 88.9409 1140.71 89.1953 1138.24L91.4255 1116.57L97.4078 1085.54L106.381 1033.57L114.981 965.144L116.26 920.677C116.404 915.681 116.173 910.682 115.57 905.72L107.877 842.507L93.295 772.588Z" stroke="#2143FF" stroke-width="5"/>
<path d="M668.345 1120.3L673.421 1121.53C678.256 1122.7 683.171 1123.51 688.127 1123.95L689.587 1124.08C694.86 1124.55 700.161 1124.6 705.442 1124.23L718.82 1123.29L737.141 1119.55" stroke="#2143FF" stroke-width="5"/>
<path d="M664.98 1100.86L684.422 1103.1H706.856L717.361 1102.48C723.06 1102.15 728.719 1101.32 734.277 1100.02L743.498 1097.86" stroke="#2143FF" stroke-width="5"/>
<path d="M737.889 788.28L726.175 748.274L710.505 711.258L703.117 697.798L695.639 711.258L682.382 740.053C679.863 745.522 677.844 751.208 676.349 757.041L668.34 788.28L655.52 858.199L647.407 928.865V980.836L655.52 1049.26L664.232 1101.23L670.214 1134.13L673.375 1153.37C673.841 1156.21 674.989 1158.89 676.721 1161.18C678.149 1163.07 679.941 1164.66 681.993 1165.84L684.228 1167.13C687.113 1168.8 690.251 1169.99 693.519 1170.64L696.748 1171.28C702.374 1172.4 708.174 1172.31 713.761 1171.01L715.408 1170.62C718.167 1169.98 720.815 1168.93 723.268 1167.52L726.005 1165.94C728.164 1164.69 729.996 1162.95 731.349 1160.86C732.699 1158.78 733.535 1156.4 733.789 1153.93L736.02 1132.26L742.002 1101.23L750.976 1049.26L759.575 980.836L760.855 936.369C760.998 931.373 760.768 926.373 760.164 921.412L752.471 858.199L737.889 788.28Z" stroke="#2143FF" stroke-width="5"/>
<path d="M668.344 1103.11L673.42 1104.34C678.255 1105.51 683.171 1106.32 688.126 1106.76L689.587 1106.89C694.859 1107.36 700.161 1107.41 705.441 1107.04L718.82 1106.1L737.141 1102.36" stroke="#2143FF" stroke-width="5"/>
<path d="M664.979 1083.67L684.422 1085.91H706.856L717.361 1085.29C723.059 1084.96 728.719 1084.13 734.277 1082.83L743.497 1080.68" stroke="#2143FF" stroke-width="5"/>
<path d="M198.359 973.369H577.488" stroke="#2143FF" stroke-width="5"/>
<path d="M234.627 210.251L258.471 218.425C265.098 220.696 271.945 222.265 278.901 223.106L328.755 229.131L387.76 233.064L441.083 229.131L485.136 221.842L533.305 210.251" stroke="#2143FF" stroke-width="5"/>
<path d="M283.981 1144.99L292.084 1114.2C292.898 1111.1 294.551 1108.3 296.862 1106.09C300.111 1102.98 304.442 1101.26 308.938 1101.28L482.048 1102.33C485.252 1102.35 488.347 1103.49 490.798 1105.56C492.953 1107.37 494.497 1109.81 495.22 1112.53L503.831 1144.99H283.981Z" stroke="#2143FF" stroke-width="5"/>
<path d="M302.302 1102.36L300.806 1065.72L487.753 1067.59V1102.36H302.302Z" stroke="#2143FF" stroke-width="5"/>
<path d="M196.864 956.918L204.715 1066.09H569.262L591.779 828.298L609.643 605.083V519.461L603.116 436.457L588.042 363.581C587.007 358.581 585.592 353.667 583.807 348.883L537.107 223.711L492.89 135.377C490.679 130.96 488.143 126.712 485.304 122.669L451.253 74.1826C448.517 70.2872 445.507 66.5921 442.245 63.1254L386.401 3.77754L324.211 68.332L283.386 122.577C280.298 126.681 277.53 131.016 275.107 135.545L239.537 202.047C237.015 206.761 234.876 211.669 233.139 216.724L185.273 356.069L169.569 436.457L157.979 519.461V605.083L169.569 697.435L185.273 828.298L196.864 956.918Z" stroke="#2143FF" stroke-width="5"/>
<path d="M489.979 414.324C489.979 473.643 442.421 521.683 383.811 521.683C325.201 521.683 277.642 473.643 277.642 414.324C277.642 355.005 325.201 306.964 383.811 306.964C442.421 306.964 489.979 355.005 489.979 414.324Z" stroke="#2143FF" stroke-width="5"/>
<path d="M476.88 412.835C476.88 464.743 435.064 506.797 383.513 506.797C331.963 506.797 290.146 464.743 290.146 412.835C290.146 360.926 331.963 318.873 383.513 318.873C435.064 318.873 476.88 360.926 476.88 412.835Z" stroke="#2143FF" stroke-width="5"/>
<rect x="264.795" y="1145.24" width="258.969" height="13.6947" stroke="#2143FF" stroke-width="5"/>
<path d="M602.166 708.278L671.234 777.973" stroke="#2143FF" stroke-width="5"/>
<path d="M578.983 961.03L653.015 1029.83" stroke="#2143FF" stroke-width="5"/>
</svg>
