<svg width="309" height="657" viewBox="0 0 309 657" fill="none" xmlns="http://www.w3.org/2000/svg">
<rect x="134.887" y="0.0102539" width="6.50375" height="78.5844" fill="white"/>
<rect x="142.836" y="0.0102539" width="2.16792" height="78.5844" fill="white"/>
<rect x="146.449" y="0.0102539" width="3.97452" height="78.5844" fill="white"/>
<rect x="151.869" y="0.0102539" width="1.08396" height="78.5844" fill="white"/>
<rect x="164.153" y="0.0102539" width="1.08396" height="78.5844" fill="white"/>
<rect x="154.398" y="0.0102539" width="2.89056" height="78.5844" fill="white"/>
<rect x="158.734" y="0.0102539" width="3.97452" height="78.5844" fill="white"/>
<rect x="167.405" y="0.0102539" width="9.03299" height="78.5844" fill="white"/>
<rect x="178.606" y="0.0102539" width="5.41979" height="78.5844" fill="white"/>
<rect x="185.472" y="0.0102539" width="2.89056" height="78.5844" fill="white"/>
<rect x="190.53" y="0.0102539" width="1.8066" height="78.5844" fill="white"/>
<rect x="207.512" y="0.0102539" width="1.8066" height="78.5844" fill="white"/>
<rect x="210.764" y="0.0102539" width="1.8066" height="78.5844" fill="white"/>
<rect x="221.604" y="0.0102539" width="1.8066" height="78.5844" fill="white"/>
<rect x="229.914" y="0.0102539" width="1.8066" height="78.5844" fill="white"/>
<rect x="233.166" y="0.0102539" width="3.25188" height="78.5844" fill="white"/>
<rect x="237.14" y="0.0102539" width="3.97452" height="78.5844" fill="white"/>
<rect x="242.56" y="0.0102539" width="1.44528" height="78.5844" fill="white"/>
<rect x="245.451" y="0.0102539" width="10.4783" height="78.5844" fill="white"/>
<rect x="256.651" y="0.0102539" width="2.16792" height="78.5844" fill="white"/>
<rect x="260.987" y="0.0102539" width="1.44528" height="78.5844" fill="white"/>
<rect x="263.878" y="0.0102539" width="3.6132" height="78.5844" fill="white"/>
<rect x="268.937" y="0.0102539" width="2.52924" height="78.5844" fill="white"/>
<rect x="273.633" y="0.0102539" width="1.44528" height="78.5844" fill="white"/>
<rect x="276.524" y="0.0102539" width="3.6132" height="78.5844" fill="white"/>
<rect x="281.583" y="0.0102539" width="2.52924" height="78.5844" fill="white"/>
<rect x="285.557" y="0.0102539" width="5.78111" height="78.5844" fill="white"/>
<rect x="224.855" y="0.0102539" width="3.6132" height="78.5844" fill="white"/>
<rect x="214.738" y="0.0102539" width="4.69716" height="78.5844" fill="white"/>
<rect x="193.782" y="0.0102539" width="2.89056" height="78.5844" fill="white"/>
<rect x="198.118" y="0.0102539" width="3.25188" height="78.5844" fill="white"/>
<rect x="202.092" y="0.0102539" width="3.97452" height="78.5844" fill="white"/>
<rect x="238.224" y="187.551" width="11.5622" height="12.5279" fill="#F5F5F5"/>
<rect x="240.031" y="189.829" width="7.58771" height="8.35196" fill="#282828"/>
<rect x="241.42" y="191.493" width="5" height="5" fill="#F5F5F5"/>
<rect x="237.42" y="247.493" width="11.5622" height="12.5279" fill="#F5F5F5"/>
<rect x="239.227" y="249.77" width="7.58771" height="8.35196" fill="#282828"/>
<rect x="240.617" y="251.434" width="5" height="5" fill="#F5F5F5"/>
<rect x="296.42" y="246.493" width="11.5622" height="12.5279" fill="#F5F5F5"/>
<rect x="298.227" y="248.77" width="7.58771" height="8.35196" fill="#282828"/>
<rect x="299.617" y="250.434" width="5" height="5" fill="#F5F5F5"/>
<rect x="296.42" y="187.493" width="11.5622" height="12.5279" fill="#F5F5F5"/>
<rect x="298.227" y="189.77" width="7.58771" height="8.35196" fill="#282828"/>
<rect x="299.617" y="191.434" width="5" height="5" fill="#F5F5F5"/>
<rect x="254.484" y="189.829" width="3.25188" height="7.59269" fill="white"/>
<rect x="257.736" y="184.514" width="3.25188" height="5.31489" fill="white"/>
<rect x="260.987" y="189.829" width="2.89056" height="3.03708" fill="white"/>
<rect x="266.046" y="189.829" width="2.89056" height="3.03708" fill="white"/>
<rect x="269.659" y="184.514" width="2.89056" height="3.03708" fill="white"/>
<rect x="272.55" y="187.551" width="2.89056" height="3.03708" fill="white"/>
<rect x="278.331" y="196.663" width="2.89056" height="3.03708" fill="white"/>
<rect x="284.112" y="205.393" width="2.89056" height="3.03708" fill="white"/>
<rect x="293.145" y="205.014" width="2.89056" height="3.03708" fill="white"/>
<rect x="298.926" y="205.014" width="2.89056" height="3.03708" fill="white"/>
<rect x="304.346" y="211.088" width="4.33584" height="3.03708" fill="white"/>
<rect x="290.255" y="208.051" width="2.89056" height="3.03708" fill="white"/>
<rect x="285.558" y="212.606" width="2.89056" height="3.03708" fill="white"/>
<rect x="288.448" y="215.643" width="2.89056" height="3.03708" fill="white"/>
<rect x="283.751" y="223.995" width="2.89056" height="4.17598" fill="white"/>
<rect x="275.079" y="223.995" width="2.89056" height="9.8705" fill="white"/>
<rect x="291.338" y="218.682" width="2.89056" height="12.1483" fill="white"/>
<rect x="294.229" y="215.643" width="2.89056" height="3.03708" fill="white"/>
<rect x="297.12" y="218.682" width="2.89056" height="3.03708" fill="white"/>
<rect x="295.313" y="225.514" width="2.89056" height="3.03708" fill="white"/>
<rect x="305.791" y="228.551" width="2.89056" height="3.03708" fill="white"/>
<rect x="302.901" y="231.588" width="2.89056" height="3.03708" fill="white"/>
<rect x="305.791" y="234.625" width="2.89056" height="3.03708" fill="white"/>
<rect x="300.01" y="234.625" width="2.89056" height="5.69452" fill="white"/>
<rect x="298.204" y="228.551" width="4.69716" height="3.03708" fill="white"/>
<rect x="296.397" y="234.625" width="4.69716" height="3.03708" fill="white"/>
<rect x="282.667" y="236.145" width="11.9235" height="3.03708" fill="white"/>
<rect x="278.331" y="243.358" width="10.117" height="3.03708" fill="white"/>
<rect x="277.97" y="220.959" width="8.67167" height="3.03708" fill="white"/>
<rect x="277.97" y="220.959" width="8.67167" height="3.03708" fill="white"/>
<rect x="277.97" y="230.829" width="13.3688" height="3.03708" fill="white"/>
<rect x="302.901" y="217.922" width="2.89056" height="4.55562" fill="white"/>
<rect x="302.54" y="215.643" width="6.14243" height="3.03708" fill="white"/>
<rect x="300.01" y="222.477" width="8.67167" height="3.03708" fill="white"/>
<rect x="300.01" y="212.987" width="2.89056" height="5.69452" fill="white"/>
<rect x="293.145" y="211.088" width="2.89056" height="3.03708" fill="white"/>
<rect x="296.036" y="208.051" width="8.31035" height="3.03708" fill="white"/>
<rect x="277.97" y="214.883" width="3.25188" height="3.03708" fill="white"/>
<rect x="281.222" y="208.43" width="2.89056" height="6.45379" fill="white"/>
<rect x="283.751" y="193.625" width="2.89056" height="3.03708" fill="white"/>
<rect x="286.642" y="196.663" width="2.89056" height="8.35196" fill="white"/>
<rect x="281.222" y="199.7" width="2.89056" height="5.69452" fill="white"/>
<rect x="283.751" y="184.514" width="2.89056" height="5.31489" fill="white"/>
<rect x="280.86" y="189.829" width="2.89056" height="6.83343" fill="white"/>
<rect x="275.44" y="199.7" width="2.89056" height="3.03708" fill="white"/>
<rect x="275.079" y="211.848" width="2.89056" height="3.03708" fill="white"/>
<rect x="275.079" y="217.922" width="2.89056" height="3.03708" fill="white"/>
<rect x="268.214" y="213.745" width="3.97452" height="3.03708" fill="white"/>
<rect x="275.44" y="190.586" width="2.89056" height="6.07416" fill="white"/>
<rect x="268.937" y="192.866" width="2.89056" height="7.21306" fill="white"/>
<rect x="263.517" y="192.866" width="2.89056" height="16.3243" fill="white"/>
<rect x="272.188" y="201.598" width="2.89056" height="15.1854" fill="white"/>
<rect x="253.039" y="203.116" width="2.89056" height="3.03708" fill="white"/>
<rect x="255.929" y="206.153" width="7.94903" height="3.03708" fill="white"/>
<rect x="260.987" y="210.709" width="7.58771" height="3.03708" fill="white"/>
<rect x="254.484" y="213.745" width="6.50375" height="3.03708" fill="white"/>
<rect x="238.947" y="216.403" width="7.22639" height="3.03708" fill="white"/>
<rect x="246.174" y="219.44" width="19.5113" height="3.03708" fill="white"/>
<rect x="237.863" y="209.19" width="11.9235" height="3.03708" fill="white"/>
<rect x="266.407" y="201.598" width="8.31035" height="3.03708" fill="white"/>
<rect x="249.787" y="206.153" width="2.89056" height="3.03708" fill="white"/>
<rect x="236.057" y="213.366" width="2.89056" height="3.03708" fill="white"/>
<rect x="236.057" y="219.44" width="2.89056" height="3.03708" fill="white"/>
<rect x="243.283" y="222.477" width="2.89056" height="3.03708" fill="white"/>
<rect x="243.283" y="228.551" width="2.89056" height="3.03708" fill="white"/>
<rect x="234.973" y="231.588" width="8.31035" height="3.03708" fill="white"/>
<rect x="234.973" y="225.514" width="8.31035" height="3.03708" fill="white"/>
<rect x="249.064" y="229.311" width="6.14243" height="2.27781" fill="white"/>
<rect x="265.685" y="222.477" width="2.89056" height="3.03708" fill="white"/>
<rect x="246.174" y="231.588" width="2.89056" height="3.03708" fill="white"/>
<rect x="235.334" y="237.663" width="2.89056" height="3.03708" fill="white"/>
<rect x="249.064" y="234.625" width="2.89056" height="3.03708" fill="white"/>
<rect x="257.375" y="231.588" width="2.89056" height="3.03708" fill="white"/>
<rect x="257.375" y="234.625" width="2.89056" height="3.03708" fill="white"/>
<rect x="257.375" y="237.663" width="2.89056" height="3.03708" fill="white"/>
<rect x="254.484" y="237.663" width="2.89056" height="3.03708" fill="white"/>
<rect x="265.685" y="237.284" width="2.89056" height="3.03708" fill="white"/>
<rect x="255.568" y="252.848" width="7.58771" height="3.03708" fill="white"/>
<rect x="264.962" y="246.393" width="7.58771" height="3.03708" fill="white"/>
<rect x="251.955" y="243.358" width="10.8396" height="3.03708" fill="white"/>
<rect x="262.794" y="237.284" width="2.89056" height="6.07416" fill="white"/>
<rect x="272.55" y="249.432" width="2.89056" height="8.35196" fill="white"/>
<rect x="262.794" y="246.393" width="2.89056" height="14.0465" fill="white"/>
<rect x="253.039" y="237.663" width="2.89056" height="3.03708" fill="white"/>
<rect x="268.575" y="225.514" width="2.89056" height="3.03708" fill="white"/>
<rect x="275.44" y="246.393" width="2.89056" height="3.03708" fill="white"/>
<rect x="279.776" y="239.18" width="2.89056" height="4.55562" fill="white"/>
<rect x="281.222" y="244.875" width="2.89056" height="4.55562" fill="white"/>
<rect x="278.331" y="249.432" width="2.89056" height="3.03708" fill="white"/>
<rect x="278.331" y="255.504" width="2.89056" height="3.03708" fill="white"/>
<rect x="287.726" y="255.504" width="2.89056" height="3.03708" fill="white"/>
<rect x="281.222" y="252.469" width="6.50375" height="3.03708" fill="white"/>
<rect x="268.575" y="240.319" width="4.33584" height="3.03708" fill="white"/>
<rect x="267.853" y="254.747" width="4.69716" height="3.03708" fill="white"/>
<rect x="265.685" y="228.551" width="2.89056" height="3.03708" fill="white"/>
<rect x="261.71" y="231.588" width="6.86507" height="3.03708" fill="white"/>
<rect x="239.67" y="237.663" width="9.39431" height="3.03708" fill="white"/>
<rect x="258.097" y="225.514" width="7.58771" height="3.03708" fill="white"/>
<rect x="265.685" y="216.784" width="2.52924" height="2.65744" fill="white"/>
<rect x="257.736" y="197.42" width="3.25188" height="7.59269" fill="white"/>
<rect x="249.787" y="212.227" width="3.25188" height="7.59269" fill="white"/>
<rect x="254.123" y="220.2" width="3.25188" height="11.389" fill="white"/>
<path d="M290.561 374.327C290.561 402.313 269.304 424.834 243.283 424.834C217.261 424.834 196.004 402.313 196.004 374.327C196.004 346.341 217.261 323.821 243.283 323.821C269.304 323.821 290.561 346.341 290.561 374.327Z" stroke="white" stroke-width="3"/>
<path d="M241.926 366.013C241.926 372.303 236.908 377.364 230.764 377.364C224.62 377.364 219.602 372.303 219.602 366.013C219.602 359.723 224.62 354.663 230.764 354.663C236.908 354.663 241.926 359.723 241.926 366.013Z" stroke="white" stroke-width="3"/>
<path d="M264.373 406.983C264.373 411.357 260.897 414.856 256.664 414.856C252.432 414.856 248.956 411.357 248.956 406.983C248.956 402.61 252.432 399.11 256.664 399.11C260.897 399.11 264.373 402.61 264.373 406.983Z" stroke="white" stroke-width="3"/>
<path d="M260.344 378.107C260.344 379.986 258.969 381.294 257.528 381.294C256.086 381.294 254.711 379.986 254.711 378.107C254.711 376.229 256.086 374.92 257.528 374.92C258.969 374.92 260.344 376.229 260.344 378.107Z" stroke="white" stroke-width="3"/>
<path d="M263.222 349.534C263.222 351.988 261.404 353.779 259.398 353.779C257.392 353.779 255.574 351.988 255.574 349.534C255.574 347.081 257.392 345.29 259.398 345.29C261.404 345.29 263.222 347.081 263.222 349.534Z" stroke="white" stroke-width="3"/>
<path d="M286.593 351.954L283.096 353.918C279.939 355.69 277.375 358.433 275.791 361.689V361.689C275.23 362.844 274.791 364.077 274.501 365.328V365.328C273.844 368.154 273.917 371.106 274.714 373.896V373.896C275.054 375.088 275.523 376.239 276.112 377.33L277.187 379.321C277.888 380.618 278.816 381.78 279.925 382.752V382.752C282.183 384.729 285.081 385.818 288.082 385.818H290.046" stroke="white" stroke-width="3"/>
<path d="M197.958 357.094L200.796 358.779C203.183 360.197 204.789 362.632 205.153 365.385V365.385C205.248 366.104 205.257 366.832 205.178 367.553L204.993 369.259C204.814 370.902 204.244 372.477 203.331 373.854V373.854C202.085 375.732 200.261 377.151 198.134 377.896L195.368 378.864" stroke="white" stroke-width="3"/>
<path d="M205.152 405.018L208.553 401.655C209.542 400.677 210.675 399.858 211.913 399.227L211.994 399.185C214.017 398.152 216.273 397.661 218.542 397.758V397.758C220.892 397.859 223.172 398.587 225.144 399.868L225.716 400.239C226.585 400.803 227.389 401.461 228.113 402.201V402.201C230.816 404.964 232.262 408.718 232.112 412.58L232.059 413.938L231.916 415.752L231.484 419.229L230.764 423.462" stroke="white" stroke-width="3"/>
<path d="M171.898 89.3227C171.531 89.516 171.111 89.6127 170.638 89.6127C170.164 89.6127 169.741 89.516 169.368 89.3227C169.001 89.1293 168.701 88.8693 168.468 88.5427C168.241 88.216 168.068 87.8527 167.948 87.4527C167.834 87.046 167.778 86.616 167.778 86.1627C167.778 85.5493 167.878 84.9893 168.078 84.4827C168.278 83.976 168.598 83.556 169.038 83.2227C169.484 82.8893 170.018 82.7227 170.638 82.7227C171.258 82.7227 171.788 82.8893 172.228 83.2227C172.674 83.556 172.998 83.976 173.198 84.4827C173.398 84.9893 173.498 85.5493 173.498 86.1627C173.498 86.616 173.438 87.046 173.318 87.4527C173.204 87.8527 173.031 88.216 172.798 88.5427C172.571 88.8693 172.271 89.1293 171.898 89.3227ZM169.518 86.1627C169.518 87.4493 169.891 88.0927 170.638 88.0927C171.384 88.0927 171.758 87.4493 171.758 86.1627C171.758 84.8827 171.384 84.2427 170.638 84.2427C169.891 84.2427 169.518 84.8827 169.518 86.1627ZM178.138 89.3227C177.771 89.516 177.351 89.6127 176.878 89.6127C176.404 89.6127 175.981 89.516 175.608 89.3227C175.241 89.1293 174.941 88.8693 174.708 88.5427C174.481 88.216 174.308 87.8527 174.188 87.4527C174.074 87.046 174.018 86.616 174.018 86.1627C174.018 85.5493 174.118 84.9893 174.318 84.4827C174.518 83.976 174.838 83.556 175.278 83.2227C175.724 82.8893 176.258 82.7227 176.878 82.7227C177.498 82.7227 178.028 82.8893 178.468 83.2227C178.914 83.556 179.238 83.976 179.438 84.4827C179.638 84.9893 179.738 85.5493 179.738 86.1627C179.738 86.616 179.678 87.046 179.558 87.4527C179.444 87.8527 179.271 88.216 179.038 88.5427C178.811 88.8693 178.511 89.1293 178.138 89.3227ZM175.758 86.1627C175.758 87.4493 176.131 88.0927 176.878 88.0927C177.624 88.0927 177.998 87.4493 177.998 86.1627C177.998 84.8827 177.624 84.2427 176.878 84.2427C176.131 84.2427 175.758 84.8827 175.758 86.1627ZM184.378 89.3227C184.011 89.516 183.591 89.6127 183.118 89.6127C182.645 89.6127 182.221 89.516 181.848 89.3227C181.481 89.1293 181.181 88.8693 180.948 88.5427C180.721 88.216 180.548 87.8527 180.428 87.4527C180.315 87.046 180.258 86.616 180.258 86.1627C180.258 85.5493 180.358 84.9893 180.558 84.4827C180.758 83.976 181.078 83.556 181.518 83.2227C181.965 82.8893 182.498 82.7227 183.118 82.7227C183.738 82.7227 184.268 82.8893 184.708 83.2227C185.155 83.556 185.478 83.976 185.678 84.4827C185.878 84.9893 185.978 85.5493 185.978 86.1627C185.978 86.616 185.918 87.046 185.798 87.4527C185.685 87.8527 185.511 88.216 185.278 88.5427C185.051 88.8693 184.751 89.1293 184.378 89.3227ZM181.998 86.1627C181.998 87.4493 182.371 88.0927 183.118 88.0927C183.865 88.0927 184.238 87.4493 184.238 86.1627C184.238 84.8827 183.865 84.2427 183.118 84.2427C182.371 84.2427 181.998 84.8827 181.998 86.1627ZM190.618 89.3227C190.252 89.516 189.832 89.6127 189.358 89.6127C188.885 89.6127 188.462 89.516 188.088 89.3227C187.722 89.1293 187.422 88.8693 187.188 88.5427C186.962 88.216 186.788 87.8527 186.668 87.4527C186.555 87.046 186.498 86.616 186.498 86.1627C186.498 85.5493 186.598 84.9893 186.798 84.4827C186.998 83.976 187.318 83.556 187.758 83.2227C188.205 82.8893 188.738 82.7227 189.358 82.7227C189.978 82.7227 190.508 82.8893 190.948 83.2227C191.395 83.556 191.718 83.976 191.918 84.4827C192.118 84.9893 192.218 85.5493 192.218 86.1627C192.218 86.616 192.158 87.046 192.038 87.4527C191.925 87.8527 191.752 88.216 191.518 88.5427C191.292 88.8693 190.992 89.1293 190.618 89.3227ZM188.238 86.1627C188.238 87.4493 188.612 88.0927 189.358 88.0927C190.105 88.0927 190.478 87.4493 190.478 86.1627C190.478 84.8827 190.105 84.2427 189.358 84.2427C188.612 84.2427 188.238 84.8827 188.238 86.1627ZM196.859 89.3227C196.492 89.516 196.072 89.6127 195.599 89.6127C195.125 89.6127 194.702 89.516 194.329 89.3227C193.962 89.1293 193.662 88.8693 193.429 88.5427C193.202 88.216 193.029 87.8527 192.909 87.4527C192.795 87.046 192.739 86.616 192.739 86.1627C192.739 85.5493 192.839 84.9893 193.039 84.4827C193.239 83.976 193.559 83.556 193.999 83.2227C194.445 82.8893 194.979 82.7227 195.599 82.7227C196.219 82.7227 196.749 82.8893 197.189 83.2227C197.635 83.556 197.959 83.976 198.159 84.4827C198.359 84.9893 198.459 85.5493 198.459 86.1627C198.459 86.616 198.399 87.046 198.279 87.4527C198.165 87.8527 197.992 88.216 197.759 88.5427C197.532 88.8693 197.232 89.1293 196.859 89.3227ZM194.479 86.1627C194.479 87.4493 194.852 88.0927 195.599 88.0927C196.345 88.0927 196.719 87.4493 196.719 86.1627C196.719 84.8827 196.345 84.2427 195.599 84.2427C194.852 84.2427 194.479 84.8827 194.479 86.1627ZM203.099 89.3227C202.732 89.516 202.312 89.6127 201.839 89.6127C201.365 89.6127 200.942 89.516 200.569 89.3227C200.202 89.1293 199.902 88.8693 199.669 88.5427C199.442 88.216 199.269 87.8527 199.149 87.4527C199.035 87.046 198.979 86.616 198.979 86.1627C198.979 85.5493 199.079 84.9893 199.279 84.4827C199.479 83.976 199.799 83.556 200.239 83.2227C200.685 82.8893 201.219 82.7227 201.839 82.7227C202.459 82.7227 202.989 82.8893 203.429 83.2227C203.875 83.556 204.199 83.976 204.399 84.4827C204.599 84.9893 204.699 85.5493 204.699 86.1627C204.699 86.616 204.639 87.046 204.519 87.4527C204.405 87.8527 204.232 88.216 203.999 88.5427C203.772 88.8693 203.472 89.1293 203.099 89.3227ZM200.719 86.1627C200.719 87.4493 201.092 88.0927 201.839 88.0927C202.585 88.0927 202.959 87.4493 202.959 86.1627C202.959 84.8827 202.585 84.2427 201.839 84.2427C201.092 84.2427 200.719 84.8827 200.719 86.1627ZM209.339 89.3227C208.972 89.516 208.552 89.6127 208.079 89.6127C207.606 89.6127 207.182 89.516 206.809 89.3227C206.442 89.1293 206.142 88.8693 205.909 88.5427C205.682 88.216 205.509 87.8527 205.389 87.4527C205.276 87.046 205.219 86.616 205.219 86.1627C205.219 85.5493 205.319 84.9893 205.519 84.4827C205.719 83.976 206.039 83.556 206.479 83.2227C206.926 82.8893 207.459 82.7227 208.079 82.7227C208.699 82.7227 209.229 82.8893 209.669 83.2227C210.116 83.556 210.439 83.976 210.639 84.4827C210.839 84.9893 210.939 85.5493 210.939 86.1627C210.939 86.616 210.879 87.046 210.759 87.4527C210.646 87.8527 210.472 88.216 210.239 88.5427C210.012 88.8693 209.712 89.1293 209.339 89.3227ZM206.959 86.1627C206.959 87.4493 207.332 88.0927 208.079 88.0927C208.826 88.0927 209.199 87.4493 209.199 86.1627C209.199 84.8827 208.826 84.2427 208.079 84.2427C207.332 84.2427 206.959 84.8827 206.959 86.1627ZM215.579 89.3227C215.213 89.516 214.793 89.6127 214.319 89.6127C213.846 89.6127 213.423 89.516 213.049 89.3227C212.683 89.1293 212.383 88.8693 212.149 88.5427C211.923 88.216 211.749 87.8527 211.629 87.4527C211.516 87.046 211.459 86.616 211.459 86.1627C211.459 85.5493 211.559 84.9893 211.759 84.4827C211.959 83.976 212.279 83.556 212.719 83.2227C213.166 82.8893 213.699 82.7227 214.319 82.7227C214.939 82.7227 215.469 82.8893 215.909 83.2227C216.356 83.556 216.679 83.976 216.879 84.4827C217.079 84.9893 217.179 85.5493 217.179 86.1627C217.179 86.616 217.119 87.046 216.999 87.4527C216.886 87.8527 216.713 88.216 216.479 88.5427C216.253 88.8693 215.953 89.1293 215.579 89.3227ZM213.199 86.1627C213.199 87.4493 213.573 88.0927 214.319 88.0927C215.066 88.0927 215.439 87.4493 215.439 86.1627C215.439 84.8827 215.066 84.2427 214.319 84.2427C213.573 84.2427 213.199 84.8827 213.199 86.1627ZM221.819 89.3227C221.453 89.516 221.033 89.6127 220.559 89.6127C220.086 89.6127 219.663 89.516 219.289 89.3227C218.923 89.1293 218.623 88.8693 218.389 88.5427C218.163 88.216 217.989 87.8527 217.869 87.4527C217.756 87.046 217.699 86.616 217.699 86.1627C217.699 85.5493 217.799 84.9893 217.999 84.4827C218.199 83.976 218.519 83.556 218.959 83.2227C219.406 82.8893 219.939 82.7227 220.559 82.7227C221.179 82.7227 221.709 82.8893 222.149 83.2227C222.596 83.556 222.919 83.976 223.119 84.4827C223.319 84.9893 223.419 85.5493 223.419 86.1627C223.419 86.616 223.359 87.046 223.239 87.4527C223.126 87.8527 222.953 88.216 222.719 88.5427C222.493 88.8693 222.193 89.1293 221.819 89.3227ZM219.439 86.1627C219.439 87.4493 219.813 88.0927 220.559 88.0927C221.306 88.0927 221.679 87.4493 221.679 86.1627C221.679 84.8827 221.306 84.2427 220.559 84.2427C219.813 84.2427 219.439 84.8827 219.439 86.1627ZM228.06 89.3227C227.693 89.516 227.273 89.6127 226.8 89.6127C226.326 89.6127 225.903 89.516 225.53 89.3227C225.163 89.1293 224.863 88.8693 224.63 88.5427C224.403 88.216 224.23 87.8527 224.11 87.4527C223.996 87.046 223.94 86.616 223.94 86.1627C223.94 85.5493 224.04 84.9893 224.24 84.4827C224.44 83.976 224.76 83.556 225.2 83.2227C225.646 82.8893 226.18 82.7227 226.8 82.7227C227.42 82.7227 227.95 82.8893 228.39 83.2227C228.836 83.556 229.16 83.976 229.36 84.4827C229.56 84.9893 229.66 85.5493 229.66 86.1627C229.66 86.616 229.6 87.046 229.48 87.4527C229.366 87.8527 229.193 88.216 228.96 88.5427C228.733 88.8693 228.433 89.1293 228.06 89.3227ZM225.68 86.1627C225.68 87.4493 226.053 88.0927 226.8 88.0927C227.546 88.0927 227.92 87.4493 227.92 86.1627C227.92 84.8827 227.546 84.2427 226.8 84.2427C226.053 84.2427 225.68 84.8827 225.68 86.1627ZM234.3 89.3227C233.933 89.516 233.513 89.6127 233.04 89.6127C232.567 89.6127 232.143 89.516 231.77 89.3227C231.403 89.1293 231.103 88.8693 230.87 88.5427C230.643 88.216 230.47 87.8527 230.35 87.4527C230.237 87.046 230.18 86.616 230.18 86.1627C230.18 85.5493 230.28 84.9893 230.48 84.4827C230.68 83.976 231 83.556 231.44 83.2227C231.887 82.8893 232.42 82.7227 233.04 82.7227C233.66 82.7227 234.19 82.8893 234.63 83.2227C235.077 83.556 235.4 83.976 235.6 84.4827C235.8 84.9893 235.9 85.5493 235.9 86.1627C235.9 86.616 235.84 87.046 235.72 87.4527C235.607 87.8527 235.433 88.216 235.2 88.5427C234.973 88.8693 234.673 89.1293 234.3 89.3227ZM231.92 86.1627C231.92 87.4493 232.293 88.0927 233.04 88.0927C233.787 88.0927 234.16 87.4493 234.16 86.1627C234.16 84.8827 233.787 84.2427 233.04 84.2427C232.293 84.2427 231.92 84.8827 231.92 86.1627ZM240.54 89.3227C240.173 89.516 239.753 89.6127 239.28 89.6127C238.807 89.6127 238.383 89.516 238.01 89.3227C237.643 89.1293 237.343 88.8693 237.11 88.5427C236.883 88.216 236.71 87.8527 236.59 87.4527C236.477 87.046 236.42 86.616 236.42 86.1627C236.42 85.5493 236.52 84.9893 236.72 84.4827C236.92 83.976 237.24 83.556 237.68 83.2227C238.127 82.8893 238.66 82.7227 239.28 82.7227C239.9 82.7227 240.43 82.8893 240.87 83.2227C241.317 83.556 241.64 83.976 241.84 84.4827C242.04 84.9893 242.14 85.5493 242.14 86.1627C242.14 86.616 242.08 87.046 241.96 87.4527C241.847 87.8527 241.673 88.216 241.44 88.5427C241.213 88.8693 240.913 89.1293 240.54 89.3227ZM238.16 86.1627C238.16 87.4493 238.533 88.0927 239.28 88.0927C240.027 88.0927 240.4 87.4493 240.4 86.1627C240.4 84.8827 240.027 84.2427 239.28 84.2427C238.533 84.2427 238.16 84.8827 238.16 86.1627ZM246.78 89.3227C246.414 89.516 245.994 89.6127 245.52 89.6127C245.047 89.6127 244.624 89.516 244.25 89.3227C243.884 89.1293 243.584 88.8693 243.35 88.5427C243.124 88.216 242.95 87.8527 242.83 87.4527C242.717 87.046 242.66 86.616 242.66 86.1627C242.66 85.5493 242.76 84.9893 242.96 84.4827C243.16 83.976 243.48 83.556 243.92 83.2227C244.367 82.8893 244.9 82.7227 245.52 82.7227C246.14 82.7227 246.67 82.8893 247.11 83.2227C247.557 83.556 247.88 83.976 248.08 84.4827C248.28 84.9893 248.38 85.5493 248.38 86.1627C248.38 86.616 248.32 87.046 248.2 87.4527C248.087 87.8527 247.914 88.216 247.68 88.5427C247.454 88.8693 247.154 89.1293 246.78 89.3227ZM244.4 86.1627C244.4 87.4493 244.774 88.0927 245.52 88.0927C246.267 88.0927 246.64 87.4493 246.64 86.1627C246.64 84.8827 246.267 84.2427 245.52 84.2427C244.774 84.2427 244.4 84.8827 244.4 86.1627ZM253.021 89.3227C252.654 89.516 252.234 89.6127 251.761 89.6127C251.287 89.6127 250.864 89.516 250.491 89.3227C250.124 89.1293 249.824 88.8693 249.591 88.5427C249.364 88.216 249.191 87.8527 249.071 87.4527C248.957 87.046 248.901 86.616 248.901 86.1627C248.901 85.5493 249.001 84.9893 249.201 84.4827C249.401 83.976 249.721 83.556 250.161 83.2227C250.607 82.8893 251.141 82.7227 251.761 82.7227C252.381 82.7227 252.911 82.8893 253.351 83.2227C253.797 83.556 254.121 83.976 254.321 84.4827C254.521 84.9893 254.621 85.5493 254.621 86.1627C254.621 86.616 254.561 87.046 254.441 87.4527C254.327 87.8527 254.154 88.216 253.921 88.5427C253.694 88.8693 253.394 89.1293 253.021 89.3227ZM250.641 86.1627C250.641 87.4493 251.014 88.0927 251.761 88.0927C252.507 88.0927 252.881 87.4493 252.881 86.1627C252.881 84.8827 252.507 84.2427 251.761 84.2427C251.014 84.2427 250.641 84.8827 250.641 86.1627ZM259.261 89.3227C258.894 89.516 258.474 89.6127 258.001 89.6127C257.528 89.6127 257.104 89.516 256.731 89.3227C256.364 89.1293 256.064 88.8693 255.831 88.5427C255.604 88.216 255.431 87.8527 255.311 87.4527C255.198 87.046 255.141 86.616 255.141 86.1627C255.141 85.5493 255.241 84.9893 255.441 84.4827C255.641 83.976 255.961 83.556 256.401 83.2227C256.848 82.8893 257.381 82.7227 258.001 82.7227C258.621 82.7227 259.151 82.8893 259.591 83.2227C260.038 83.556 260.361 83.976 260.561 84.4827C260.761 84.9893 260.861 85.5493 260.861 86.1627C260.861 86.616 260.801 87.046 260.681 87.4527C260.568 87.8527 260.394 88.216 260.161 88.5427C259.934 88.8693 259.634 89.1293 259.261 89.3227ZM256.881 86.1627C256.881 87.4493 257.254 88.0927 258.001 88.0927C258.748 88.0927 259.121 87.4493 259.121 86.1627C259.121 84.8827 258.748 84.2427 258.001 84.2427C257.254 84.2427 256.881 84.8827 256.881 86.1627ZM265.501 89.3227C265.134 89.516 264.714 89.6127 264.241 89.6127C263.768 89.6127 263.344 89.516 262.971 89.3227C262.604 89.1293 262.304 88.8693 262.071 88.5427C261.844 88.216 261.671 87.8527 261.551 87.4527C261.438 87.046 261.381 86.616 261.381 86.1627C261.381 85.5493 261.481 84.9893 261.681 84.4827C261.881 83.976 262.201 83.556 262.641 83.2227C263.088 82.8893 263.621 82.7227 264.241 82.7227C264.861 82.7227 265.391 82.8893 265.831 83.2227C266.278 83.556 266.601 83.976 266.801 84.4827C267.001 84.9893 267.101 85.5493 267.101 86.1627C267.101 86.616 267.041 87.046 266.921 87.4527C266.808 87.8527 266.634 88.216 266.401 88.5427C266.174 88.8693 265.874 89.1293 265.501 89.3227ZM263.121 86.1627C263.121 87.4493 263.494 88.0927 264.241 88.0927C264.988 88.0927 265.361 87.4493 265.361 86.1627C265.361 84.8827 264.988 84.2427 264.241 84.2427C263.494 84.2427 263.121 84.8827 263.121 86.1627ZM271.231 89.4927H269.511V85.0227L268.391 86.1527L267.411 85.1227L269.741 82.8227H271.231V89.4927Z" fill="white"/>
<rect x="0.476074" y="581.233" width="11.2009" height="61.8805" fill="white"/>
<rect x="15.6514" y="581.233" width="3.97452" height="61.8805" fill="white"/>
<rect x="21.7939" y="581.233" width="3.97452" height="61.8805" fill="white"/>
<rect x="27.9365" y="581.233" width="4.69716" height="61.8805" fill="white"/>
<rect x="34.8018" y="581.233" width="1.8066" height="61.8805" fill="white"/>
<rect x="38.7759" y="581.233" width="1.8066" height="61.8805" fill="white"/>
<rect x="42.7505" y="581.233" width="1.8066" height="61.8805" fill="white"/>
<rect x="55.0352" y="581.233" width="2.89056" height="61.8805" fill="white"/>
<rect x="60.0938" y="581.233" width="3.6132" height="61.8805" fill="white"/>
<rect x="65.875" y="581.233" width="4.69716" height="61.8805" fill="white"/>
<rect x="72.7402" y="581.233" width="2.16792" height="61.8805" fill="white"/>
<rect x="77.0757" y="581.233" width="2.16792" height="61.8805" fill="white"/>
<rect x="81.4116" y="581.233" width="2.16792" height="61.8805" fill="white"/>
<rect x="94.0576" y="581.233" width="5.05848" height="61.8805" fill="white"/>
<rect x="101.284" y="581.233" width="5.05848" height="61.8805" fill="white"/>
<rect x="109.233" y="581.233" width="3.6132" height="61.8805" fill="white"/>
<rect x="115.015" y="581.233" width="3.6132" height="61.8805" fill="white"/>
<rect x="120.795" y="581.233" width="5.05848" height="61.8805" fill="white"/>
<rect x="128.022" y="581.233" width="1.44528" height="61.8805" fill="white"/>
<rect x="131.635" y="581.233" width="1.44528" height="61.8805" fill="white"/>
<rect x="135.248" y="581.233" width="1.44528" height="61.8805" fill="white"/>
<rect x="46.7251" y="581.233" width="6.14243" height="72.1306" fill="white"/>
<rect x="85.7476" y="581.233" width="6.14243" height="72.1306" fill="white"/>
<rect x="140.307" y="581.233" width="6.14243" height="72.1306" fill="white"/>
<rect x="233.527" y="581.233" width="6.14243" height="72.1306" fill="white"/>
<rect x="148.617" y="581.233" width="11.2009" height="61.8805" fill="white"/>
<rect x="164.154" y="581.233" width="3.97452" height="61.8805" fill="white"/>
<rect x="170.296" y="581.233" width="3.97452" height="61.8805" fill="white"/>
<rect x="175.716" y="581.233" width="5.05848" height="61.8805" fill="white"/>
<rect x="194.866" y="581.233" width="6.14243" height="61.8805" fill="white"/>
<rect x="203.176" y="581.233" width="3.97452" height="61.8805" fill="white"/>
<rect x="209.319" y="581.233" width="3.97452" height="61.8805" fill="white"/>
<rect x="214.738" y="581.233" width="4.69716" height="61.8805" fill="white"/>
<rect x="221.604" y="581.233" width="1.8066" height="61.8805" fill="white"/>
<rect x="225.578" y="581.233" width="1.8066" height="61.8805" fill="white"/>
<rect x="229.553" y="581.233" width="1.8066" height="61.8805" fill="white"/>
<rect x="242.56" y="581.233" width="3.6132" height="61.8805" fill="white"/>
<rect x="247.619" y="581.233" width="3.6132" height="61.8805" fill="white"/>
<rect x="253.4" y="581.233" width="4.69716" height="61.8805" fill="white"/>
<rect x="260.265" y="581.233" width="2.16792" height="61.8805" fill="white"/>
<rect x="264.601" y="581.233" width="2.16792" height="61.8805" fill="white"/>
<rect x="268.937" y="581.233" width="2.16792" height="61.8805" fill="white"/>
<rect x="272.55" y="581.233" width="6.86507" height="61.8805" fill="white"/>
<rect x="182.942" y="581.233" width="1.8066" height="61.8805" fill="white"/>
<rect x="186.917" y="581.233" width="1.8066" height="61.8805" fill="white"/>
<rect x="190.892" y="581.233" width="1.8066" height="61.8805" fill="white"/>
<path d="M7.95936 654.012H6.23936V649.542L5.11936 650.672L4.13936 649.642L6.46936 647.342H7.95936V654.012Z" fill="white"/>
<path d="M35.796 654.323C35.4293 654.516 35.0093 654.613 34.536 654.613C34.0627 654.613 33.6393 654.516 33.266 654.323C32.8993 654.129 32.5993 653.869 32.366 653.543C32.1393 653.216 31.966 652.853 31.846 652.453C31.7327 652.046 31.676 651.616 31.676 651.163C31.676 650.549 31.776 649.989 31.976 649.483C32.176 648.976 32.496 648.556 32.936 648.223C33.3827 647.889 33.916 647.723 34.536 647.723C35.156 647.723 35.686 647.889 36.126 648.223C36.5727 648.556 36.896 648.976 37.096 649.483C37.296 649.989 37.396 650.549 37.396 651.163C37.396 651.616 37.336 652.046 37.216 652.453C37.1027 652.853 36.9293 653.216 36.696 653.543C36.4693 653.869 36.1693 654.129 35.796 654.323ZM33.416 651.163C33.416 652.449 33.7893 653.093 34.536 653.093C35.2827 653.093 35.656 652.449 35.656 651.163C35.656 649.883 35.2827 649.243 34.536 649.243C33.7893 649.243 33.416 649.883 33.416 651.163ZM42.0363 654.323C41.6696 654.516 41.2496 654.613 40.7763 654.613C40.3029 654.613 39.8796 654.516 39.5063 654.323C39.1396 654.129 38.8396 653.869 38.6063 653.543C38.3796 653.216 38.2063 652.853 38.0863 652.453C37.9729 652.046 37.9163 651.616 37.9163 651.163C37.9163 650.549 38.0163 649.989 38.2163 649.483C38.4163 648.976 38.7363 648.556 39.1763 648.223C39.6229 647.889 40.1563 647.723 40.7763 647.723C41.3963 647.723 41.9263 647.889 42.3663 648.223C42.8129 648.556 43.1363 648.976 43.3363 649.483C43.5363 649.989 43.6363 650.549 43.6363 651.163C43.6363 651.616 43.5763 652.046 43.4563 652.453C43.3429 652.853 43.1696 653.216 42.9362 653.543C42.7096 653.869 42.4096 654.129 42.0363 654.323ZM39.6563 651.163C39.6563 652.449 40.0296 653.093 40.7763 653.093C41.5229 653.093 41.8963 652.449 41.8963 651.163C41.8963 649.883 41.5229 649.243 40.7763 649.243C40.0296 649.243 39.6563 649.883 39.6563 651.163Z" fill="white"/>
<path d="M63.3971 654.323C63.0304 654.516 62.6104 654.613 62.1371 654.613C61.6638 654.613 61.2404 654.516 60.8671 654.323C60.5004 654.129 60.2004 653.869 59.9671 653.543C59.7404 653.216 59.5671 652.853 59.4471 652.453C59.3338 652.046 59.2771 651.616 59.2771 651.163C59.2771 650.549 59.3771 649.989 59.5771 649.483C59.7771 648.976 60.0971 648.556 60.5371 648.223C60.9838 647.889 61.5171 647.723 62.1371 647.723C62.7571 647.723 63.2871 647.889 63.7271 648.223C64.1738 648.556 64.4971 648.976 64.6971 649.483C64.8971 649.989 64.9971 650.549 64.9971 651.163C64.9971 651.616 64.9371 652.046 64.8171 652.453C64.7038 652.853 64.5304 653.216 64.2971 653.543C64.0704 653.869 63.7704 654.129 63.3971 654.323ZM61.0171 651.163C61.0171 652.449 61.3904 653.093 62.1371 653.093C62.8838 653.093 63.2571 652.449 63.2571 651.163C63.2571 649.883 62.8838 649.243 62.1371 649.243C61.3904 649.243 61.0171 649.883 61.0171 651.163ZM69.6373 654.323C69.2707 654.516 68.8507 654.613 68.3773 654.613C67.904 654.613 67.4807 654.516 67.1073 654.323C66.7407 654.129 66.4407 653.869 66.2073 653.543C65.9807 653.216 65.8073 652.853 65.6873 652.453C65.574 652.046 65.5173 651.616 65.5173 651.163C65.5173 650.549 65.6173 649.989 65.8173 649.483C66.0173 648.976 66.3373 648.556 66.7773 648.223C67.224 647.889 67.7573 647.723 68.3773 647.723C68.9973 647.723 69.5273 647.889 69.9673 648.223C70.414 648.556 70.7373 648.976 70.9373 649.483C71.1373 649.989 71.2373 650.549 71.2373 651.163C71.2373 651.616 71.1773 652.046 71.0573 652.453C70.944 652.853 70.7707 653.216 70.5373 653.543C70.3107 653.869 70.0107 654.129 69.6373 654.323ZM67.2573 651.163C67.2573 652.449 67.6307 653.093 68.3773 653.093C69.124 653.093 69.4973 652.449 69.4973 651.163C69.4973 649.883 69.124 649.243 68.3773 649.243C67.6307 649.243 67.2573 649.883 67.2573 651.163ZM75.8776 654.323C75.5109 654.516 75.0909 654.613 74.6176 654.613C74.1442 654.613 73.7209 654.516 73.3476 654.323C72.9809 654.129 72.6809 653.869 72.4476 653.543C72.2209 653.216 72.0476 652.853 71.9276 652.453C71.8142 652.046 71.7576 651.616 71.7576 651.163C71.7576 650.549 71.8576 649.989 72.0576 649.483C72.2576 648.976 72.5776 648.556 73.0176 648.223C73.4642 647.889 73.9976 647.723 74.6176 647.723C75.2376 647.723 75.7676 647.889 76.2076 648.223C76.6542 648.556 76.9776 648.976 77.1776 649.483C77.3776 649.989 77.4776 650.549 77.4776 651.163C77.4776 651.616 77.4176 652.046 77.2976 652.453C77.1842 652.853 77.0109 653.216 76.7776 653.543C76.5509 653.869 76.2509 654.129 75.8776 654.323ZM73.4976 651.163C73.4976 652.449 73.8709 653.093 74.6176 653.093C75.3642 653.093 75.7376 652.449 75.7376 651.163C75.7376 649.883 75.3642 649.243 74.6176 649.243C73.8709 649.243 73.4976 649.883 73.4976 651.163Z" fill="white"/>
<path d="M104.323 654.323C103.956 654.516 103.536 654.613 103.063 654.613C102.59 654.613 102.166 654.516 101.793 654.323C101.426 654.129 101.126 653.869 100.893 653.543C100.666 653.216 100.493 652.853 100.373 652.453C100.26 652.046 100.203 651.616 100.203 651.163C100.203 650.549 100.303 649.989 100.503 649.483C100.703 648.976 101.023 648.556 101.463 648.223C101.91 647.889 102.443 647.723 103.063 647.723C103.683 647.723 104.213 647.889 104.653 648.223C105.1 648.556 105.423 648.976 105.623 649.483C105.823 649.989 105.923 650.549 105.923 651.163C105.923 651.616 105.863 652.046 105.743 652.453C105.63 652.853 105.456 653.216 105.223 653.543C104.996 653.869 104.696 654.129 104.323 654.323ZM101.943 651.163C101.943 652.449 102.316 653.093 103.063 653.093C103.81 653.093 104.183 652.449 104.183 651.163C104.183 649.883 103.81 649.243 103.063 649.243C102.316 649.243 101.943 649.883 101.943 651.163ZM110.563 654.323C110.196 654.516 109.776 654.613 109.303 654.613C108.83 654.613 108.406 654.516 108.033 654.323C107.666 654.129 107.366 653.869 107.133 653.543C106.906 653.216 106.733 652.853 106.613 652.453C106.5 652.046 106.443 651.616 106.443 651.163C106.443 650.549 106.543 649.989 106.743 649.483C106.943 648.976 107.263 648.556 107.703 648.223C108.15 647.889 108.683 647.723 109.303 647.723C109.923 647.723 110.453 647.889 110.893 648.223C111.34 648.556 111.663 648.976 111.863 649.483C112.063 649.989 112.163 650.549 112.163 651.163C112.163 651.616 112.103 652.046 111.983 652.453C111.87 652.853 111.696 653.216 111.463 653.543C111.236 653.869 110.936 654.129 110.563 654.323ZM108.183 651.163C108.183 652.449 108.556 653.093 109.303 653.093C110.05 653.093 110.423 652.449 110.423 651.163C110.423 649.883 110.05 649.243 109.303 649.243C108.556 649.243 108.183 649.883 108.183 651.163ZM116.803 654.323C116.437 654.516 116.017 654.613 115.543 654.613C115.07 654.613 114.647 654.516 114.273 654.323C113.907 654.129 113.607 653.869 113.373 653.543C113.147 653.216 112.973 652.853 112.853 652.453C112.74 652.046 112.683 651.616 112.683 651.163C112.683 650.549 112.783 649.989 112.983 649.483C113.183 648.976 113.503 648.556 113.943 648.223C114.39 647.889 114.923 647.723 115.543 647.723C116.163 647.723 116.693 647.889 117.133 648.223C117.58 648.556 117.903 648.976 118.103 649.483C118.303 649.989 118.403 650.549 118.403 651.163C118.403 651.616 118.343 652.046 118.223 652.453C118.11 652.853 117.937 653.216 117.703 653.543C117.477 653.869 117.177 654.129 116.803 654.323ZM114.423 651.163C114.423 652.449 114.797 653.093 115.543 653.093C116.29 653.093 116.663 652.449 116.663 651.163C116.663 649.883 116.29 649.243 115.543 649.243C114.797 649.243 114.423 649.883 114.423 651.163ZM123.044 654.323C122.677 654.516 122.257 654.613 121.784 654.613C121.31 654.613 120.887 654.516 120.514 654.323C120.147 654.129 119.847 653.869 119.614 653.543C119.387 653.216 119.214 652.853 119.094 652.453C118.98 652.046 118.924 651.616 118.924 651.163C118.924 650.549 119.024 649.989 119.224 649.483C119.424 648.976 119.744 648.556 120.184 648.223C120.63 647.889 121.164 647.723 121.784 647.723C122.404 647.723 122.934 647.889 123.374 648.223C123.82 648.556 124.144 648.976 124.344 649.483C124.544 649.989 124.644 650.549 124.644 651.163C124.644 651.616 124.584 652.046 124.464 652.453C124.35 652.853 124.177 653.216 123.944 653.543C123.717 653.869 123.417 654.129 123.044 654.323ZM120.664 651.163C120.664 652.449 121.037 653.093 121.784 653.093C122.53 653.093 122.904 652.449 122.904 651.163C122.904 649.883 122.53 649.243 121.784 649.243C121.037 649.243 120.664 649.883 120.664 651.163ZM129.284 654.323C128.917 654.516 128.497 654.613 128.024 654.613C127.55 654.613 127.127 654.516 126.754 654.323C126.387 654.129 126.087 653.869 125.854 653.543C125.627 653.216 125.454 652.853 125.334 652.453C125.22 652.046 125.164 651.616 125.164 651.163C125.164 650.549 125.264 649.989 125.464 649.483C125.664 648.976 125.984 648.556 126.424 648.223C126.87 647.889 127.404 647.723 128.024 647.723C128.644 647.723 129.174 647.889 129.614 648.223C130.06 648.556 130.384 648.976 130.584 649.483C130.784 649.989 130.884 650.549 130.884 651.163C130.884 651.616 130.824 652.046 130.704 652.453C130.59 652.853 130.417 653.216 130.184 653.543C129.957 653.869 129.657 654.129 129.284 654.323ZM126.904 651.163C126.904 652.449 127.277 653.093 128.024 653.093C128.77 653.093 129.144 652.449 129.144 651.163C129.144 649.883 128.77 649.243 128.024 649.243C127.277 649.243 126.904 649.883 126.904 651.163Z" fill="white"/>
</svg>
