<svg width="658" height="309" viewBox="0 0 658 309" fill="none" xmlns="http://www.w3.org/2000/svg">
<rect x="657.458" y="134.959" width="6.50375" height="78.5844" transform="rotate(90 657.458 134.959)" fill="white"/>
<rect x="657.458" y="142.908" width="2.16792" height="78.5844" transform="rotate(90 657.458 142.908)" fill="white"/>
<rect x="657.458" y="146.521" width="3.97452" height="78.5844" transform="rotate(90 657.458 146.521)" fill="white"/>
<rect x="657.458" y="151.941" width="1.08396" height="78.5844" transform="rotate(90 657.458 151.941)" fill="white"/>
<rect x="657.458" y="164.226" width="1.08396" height="78.5844" transform="rotate(90 657.458 164.226)" fill="white"/>
<rect x="657.458" y="154.47" width="2.89056" height="78.5844" transform="rotate(90 657.458 154.47)" fill="white"/>
<rect x="657.458" y="158.806" width="3.97452" height="78.5844" transform="rotate(90 657.458 158.806)" fill="white"/>
<rect x="657.458" y="167.478" width="9.03299" height="78.5844" transform="rotate(90 657.458 167.478)" fill="white"/>
<rect x="657.458" y="178.679" width="5.41979" height="78.5844" transform="rotate(90 657.458 178.679)" fill="white"/>
<rect x="657.458" y="185.544" width="2.89056" height="78.5844" transform="rotate(90 657.458 185.544)" fill="white"/>
<rect x="657.458" y="190.603" width="1.8066" height="78.5844" transform="rotate(90 657.458 190.603)" fill="white"/>
<rect x="657.458" y="207.584" width="1.8066" height="78.5844" transform="rotate(90 657.458 207.584)" fill="white"/>
<rect x="657.458" y="210.836" width="1.8066" height="78.5844" transform="rotate(90 657.458 210.836)" fill="white"/>
<rect x="657.458" y="221.676" width="1.8066" height="78.5844" transform="rotate(90 657.458 221.676)" fill="white"/>
<rect x="657.458" y="229.986" width="1.8066" height="78.5844" transform="rotate(90 657.458 229.986)" fill="white"/>
<rect x="657.458" y="233.238" width="3.25188" height="78.5844" transform="rotate(90 657.458 233.238)" fill="white"/>
<rect x="657.458" y="237.212" width="3.97452" height="78.5844" transform="rotate(90 657.458 237.212)" fill="white"/>
<rect x="657.458" y="242.632" width="1.44528" height="78.5844" transform="rotate(90 657.458 242.632)" fill="white"/>
<rect x="657.458" y="245.523" width="10.4783" height="78.5844" transform="rotate(90 657.458 245.523)" fill="white"/>
<rect x="657.458" y="256.724" width="2.16792" height="78.5844" transform="rotate(90 657.458 256.724)" fill="white"/>
<rect x="657.458" y="261.06" width="1.44528" height="78.5844" transform="rotate(90 657.458 261.06)" fill="white"/>
<rect x="657.458" y="263.95" width="3.6132" height="78.5844" transform="rotate(90 657.458 263.95)" fill="white"/>
<rect x="657.458" y="269.009" width="2.52924" height="78.5844" transform="rotate(90 657.458 269.009)" fill="white"/>
<rect x="657.458" y="273.706" width="1.44528" height="78.5844" transform="rotate(90 657.458 273.706)" fill="white"/>
<rect x="657.458" y="276.596" width="3.6132" height="78.5844" transform="rotate(90 657.458 276.596)" fill="white"/>
<rect x="657.458" y="281.655" width="2.52924" height="78.5844" transform="rotate(90 657.458 281.655)" fill="white"/>
<rect x="657.458" y="285.629" width="5.78111" height="78.5844" transform="rotate(90 657.458 285.629)" fill="white"/>
<rect x="657.458" y="224.928" width="3.6132" height="78.5844" transform="rotate(90 657.458 224.928)" fill="white"/>
<rect x="657.458" y="214.811" width="4.69716" height="78.5844" transform="rotate(90 657.458 214.811)" fill="white"/>
<rect x="657.458" y="193.854" width="2.89056" height="78.5844" transform="rotate(90 657.458 193.854)" fill="white"/>
<rect x="657.458" y="198.19" width="3.25188" height="78.5844" transform="rotate(90 657.458 198.19)" fill="white"/>
<rect x="657.458" y="202.165" width="3.97452" height="78.5844" transform="rotate(90 657.458 202.165)" fill="white"/>
<rect x="469.917" y="238.296" width="11.5622" height="12.5279" transform="rotate(90 469.917 238.296)" fill="#F5F5F5"/>
<rect x="467.64" y="240.103" width="7.58771" height="8.35196" transform="rotate(90 467.64 240.103)" fill="#282828"/>
<rect x="465.976" y="241.493" width="5" height="5" transform="rotate(90 465.976 241.493)" fill="#F5F5F5"/>
<rect x="409.976" y="237.493" width="11.5622" height="12.5279" transform="rotate(90 409.976 237.493)" fill="#F5F5F5"/>
<rect x="407.699" y="239.299" width="7.58771" height="8.35196" transform="rotate(90 407.699 239.299)" fill="#282828"/>
<rect x="406.035" y="240.689" width="5" height="5" transform="rotate(90 406.035 240.689)" fill="#F5F5F5"/>
<rect x="410.976" y="296.493" width="11.5622" height="12.5279" transform="rotate(90 410.976 296.493)" fill="#F5F5F5"/>
<rect x="408.699" y="298.299" width="7.58771" height="8.35196" transform="rotate(90 408.699 298.299)" fill="#282828"/>
<rect x="407.035" y="299.689" width="5" height="5" transform="rotate(90 407.035 299.689)" fill="#F5F5F5"/>
<rect x="469.976" y="296.493" width="11.5622" height="12.5279" transform="rotate(90 469.976 296.493)" fill="#F5F5F5"/>
<rect x="467.699" y="298.299" width="7.58771" height="8.35196" transform="rotate(90 467.699 298.299)" fill="#282828"/>
<rect x="466.035" y="299.689" width="5" height="5" transform="rotate(90 466.035 299.689)" fill="#F5F5F5"/>
<rect x="467.64" y="254.556" width="3.25188" height="7.59269" transform="rotate(90 467.64 254.556)" fill="white"/>
<rect x="472.955" y="257.808" width="3.25188" height="5.31489" transform="rotate(90 472.955 257.808)" fill="white"/>
<rect x="467.64" y="261.06" width="2.89056" height="3.03708" transform="rotate(90 467.64 261.06)" fill="white"/>
<rect x="467.64" y="266.118" width="2.89056" height="3.03708" transform="rotate(90 467.64 266.118)" fill="white"/>
<rect x="472.955" y="269.731" width="2.89056" height="3.03708" transform="rotate(90 472.955 269.731)" fill="white"/>
<rect x="469.917" y="272.622" width="2.89056" height="3.03708" transform="rotate(90 469.917 272.622)" fill="white"/>
<rect x="460.806" y="278.403" width="2.89056" height="3.03708" transform="rotate(90 460.806 278.403)" fill="white"/>
<rect x="452.076" y="284.185" width="2.89056" height="3.03708" transform="rotate(90 452.076 284.185)" fill="white"/>
<rect x="452.455" y="293.217" width="2.89056" height="3.03708" transform="rotate(90 452.455 293.217)" fill="white"/>
<rect x="452.455" y="298.999" width="2.89056" height="3.03708" transform="rotate(90 452.455 298.999)" fill="white"/>
<rect x="446.38" y="304.418" width="4.33584" height="3.03708" transform="rotate(90 446.38 304.418)" fill="white"/>
<rect x="449.417" y="290.327" width="2.89056" height="3.03708" transform="rotate(90 449.417 290.327)" fill="white"/>
<rect x="444.863" y="285.63" width="2.89056" height="3.03708" transform="rotate(90 444.863 285.63)" fill="white"/>
<rect x="441.826" y="288.521" width="2.89056" height="3.03708" transform="rotate(90 441.826 288.521)" fill="white"/>
<rect x="433.474" y="283.823" width="2.89056" height="4.17598" transform="rotate(90 433.474 283.823)" fill="white"/>
<rect x="433.474" y="275.151" width="2.89056" height="9.8705" transform="rotate(90 433.474 275.151)" fill="white"/>
<rect x="438.787" y="291.411" width="2.89056" height="12.1483" transform="rotate(90 438.787 291.411)" fill="white"/>
<rect x="441.826" y="294.301" width="2.89056" height="3.03708" transform="rotate(90 441.826 294.301)" fill="white"/>
<rect x="438.787" y="297.192" width="2.89056" height="3.03708" transform="rotate(90 438.787 297.192)" fill="white"/>
<rect x="431.955" y="295.385" width="2.89056" height="3.03708" transform="rotate(90 431.955 295.385)" fill="white"/>
<rect x="428.917" y="305.863" width="2.89056" height="3.03708" transform="rotate(90 428.917 305.863)" fill="white"/>
<rect x="425.88" y="302.973" width="2.89056" height="3.03708" transform="rotate(90 425.88 302.973)" fill="white"/>
<rect x="422.843" y="305.863" width="2.89056" height="3.03708" transform="rotate(90 422.843 305.863)" fill="white"/>
<rect x="422.843" y="300.083" width="2.89056" height="5.69452" transform="rotate(90 422.843 300.083)" fill="white"/>
<rect x="428.917" y="298.276" width="4.69716" height="3.03708" transform="rotate(90 428.917 298.276)" fill="white"/>
<rect x="422.843" y="296.469" width="4.69716" height="3.03708" transform="rotate(90 422.843 296.469)" fill="white"/>
<rect x="421.324" y="282.739" width="11.9235" height="3.03708" transform="rotate(90 421.324 282.739)" fill="white"/>
<rect x="414.111" y="278.403" width="10.117" height="3.03708" transform="rotate(90 414.111 278.403)" fill="white"/>
<rect x="436.509" y="278.042" width="8.67167" height="3.03708" transform="rotate(90 436.509 278.042)" fill="white"/>
<rect x="436.509" y="278.042" width="8.67167" height="3.03708" transform="rotate(90 436.509 278.042)" fill="white"/>
<rect x="426.64" y="278.042" width="13.3688" height="3.03708" transform="rotate(90 426.64 278.042)" fill="white"/>
<rect x="439.546" y="302.973" width="2.89056" height="4.55562" transform="rotate(90 439.546 302.973)" fill="white"/>
<rect x="441.826" y="302.612" width="6.14243" height="3.03708" transform="rotate(90 441.826 302.612)" fill="white"/>
<rect x="434.992" y="300.083" width="8.67167" height="3.03708" transform="rotate(90 434.992 300.083)" fill="white"/>
<rect x="444.482" y="300.083" width="2.89056" height="5.69452" transform="rotate(90 444.482 300.083)" fill="white"/>
<rect x="446.38" y="293.217" width="2.89056" height="3.03708" transform="rotate(90 446.38 293.217)" fill="white"/>
<rect x="449.417" y="296.108" width="8.31035" height="3.03708" transform="rotate(90 449.417 296.108)" fill="white"/>
<rect x="442.585" y="278.042" width="3.25188" height="3.03708" transform="rotate(90 442.585 278.042)" fill="white"/>
<rect x="449.039" y="281.294" width="2.89056" height="6.45379" transform="rotate(90 449.039 281.294)" fill="white"/>
<rect x="463.843" y="283.823" width="2.89056" height="3.03708" transform="rotate(90 463.843 283.823)" fill="white"/>
<rect x="460.806" y="286.714" width="2.89056" height="8.35196" transform="rotate(90 460.806 286.714)" fill="white"/>
<rect x="457.769" y="281.294" width="2.89056" height="5.69452" transform="rotate(90 457.769 281.294)" fill="white"/>
<rect x="472.955" y="283.823" width="2.89056" height="5.31489" transform="rotate(90 472.955 283.823)" fill="white"/>
<rect x="467.64" y="280.933" width="2.89056" height="6.83343" transform="rotate(90 467.64 280.933)" fill="white"/>
<rect x="457.769" y="275.513" width="2.89056" height="3.03708" transform="rotate(90 457.769 275.513)" fill="white"/>
<rect x="445.621" y="275.151" width="2.89056" height="3.03708" transform="rotate(90 445.621 275.151)" fill="white"/>
<rect x="439.546" y="275.151" width="2.89056" height="3.03708" transform="rotate(90 439.546 275.151)" fill="white"/>
<rect x="443.724" y="268.286" width="3.97452" height="3.03708" transform="rotate(90 443.724 268.286)" fill="white"/>
<rect x="466.882" y="275.513" width="2.89056" height="6.07416" transform="rotate(90 466.882 275.513)" fill="white"/>
<rect x="464.603" y="269.009" width="2.89056" height="7.21306" transform="rotate(90 464.603 269.009)" fill="white"/>
<rect x="464.603" y="263.589" width="2.89056" height="16.3243" transform="rotate(90 464.603 263.589)" fill="white"/>
<rect x="455.871" y="272.261" width="2.89056" height="15.1854" transform="rotate(90 455.871 272.261)" fill="white"/>
<rect x="454.353" y="253.111" width="2.89056" height="3.03708" transform="rotate(90 454.353 253.111)" fill="white"/>
<rect x="451.316" y="256.001" width="7.94903" height="3.03708" transform="rotate(90 451.316 256.001)" fill="white"/>
<rect x="446.759" y="261.06" width="7.58771" height="3.03708" transform="rotate(90 446.759 261.06)" fill="white"/>
<rect x="443.724" y="254.556" width="6.50375" height="3.03708" transform="rotate(90 443.724 254.556)" fill="white"/>
<rect x="441.066" y="239.02" width="7.22639" height="3.03708" transform="rotate(90 441.066 239.02)" fill="white"/>
<rect x="438.029" y="246.246" width="19.5113" height="3.03708" transform="rotate(90 438.029 246.246)" fill="white"/>
<rect x="448.279" y="237.936" width="11.9235" height="3.03708" transform="rotate(90 448.279 237.936)" fill="white"/>
<rect x="455.871" y="266.479" width="8.31035" height="3.03708" transform="rotate(90 455.871 266.479)" fill="white"/>
<rect x="451.316" y="249.859" width="2.89056" height="3.03708" transform="rotate(90 451.316 249.859)" fill="white"/>
<rect x="444.103" y="236.129" width="2.89056" height="3.03708" transform="rotate(90 444.103 236.129)" fill="white"/>
<rect x="438.029" y="236.129" width="2.89056" height="3.03708" transform="rotate(90 438.029 236.129)" fill="white"/>
<rect x="434.992" y="243.355" width="2.89056" height="3.03708" transform="rotate(90 434.992 243.355)" fill="white"/>
<rect x="428.917" y="243.355" width="2.89056" height="3.03708" transform="rotate(90 428.917 243.355)" fill="white"/>
<rect x="425.88" y="235.045" width="8.31035" height="3.03708" transform="rotate(90 425.88 235.045)" fill="white"/>
<rect x="431.955" y="235.045" width="8.31035" height="3.03708" transform="rotate(90 431.955 235.045)" fill="white"/>
<rect x="428.158" y="249.136" width="6.14243" height="2.27781" transform="rotate(90 428.158 249.136)" fill="white"/>
<rect x="434.992" y="265.757" width="2.89056" height="3.03708" transform="rotate(90 434.992 265.757)" fill="white"/>
<rect x="425.88" y="246.246" width="2.89056" height="3.03708" transform="rotate(90 425.88 246.246)" fill="white"/>
<rect x="419.806" y="235.406" width="2.89056" height="3.03708" transform="rotate(90 419.806 235.406)" fill="white"/>
<rect x="422.843" y="249.136" width="2.89056" height="3.03708" transform="rotate(90 422.843 249.136)" fill="white"/>
<rect x="425.88" y="257.447" width="2.89056" height="3.03708" transform="rotate(90 425.88 257.447)" fill="white"/>
<rect x="422.843" y="257.447" width="2.89056" height="3.03708" transform="rotate(90 422.843 257.447)" fill="white"/>
<rect x="419.806" y="257.447" width="2.89056" height="3.03708" transform="rotate(90 419.806 257.447)" fill="white"/>
<rect x="419.806" y="254.556" width="2.89056" height="3.03708" transform="rotate(90 419.806 254.556)" fill="white"/>
<rect x="420.185" y="265.757" width="2.89056" height="3.03708" transform="rotate(90 420.185 265.757)" fill="white"/>
<rect x="404.621" y="255.64" width="7.58771" height="3.03708" transform="rotate(90 404.621 255.64)" fill="white"/>
<rect x="411.076" y="265.034" width="7.58771" height="3.03708" transform="rotate(90 411.076 265.034)" fill="white"/>
<rect x="414.111" y="252.027" width="10.8396" height="3.03708" transform="rotate(90 414.111 252.027)" fill="white"/>
<rect x="420.185" y="262.866" width="2.89056" height="6.07416" transform="rotate(90 420.185 262.866)" fill="white"/>
<rect x="408.037" y="272.622" width="2.89056" height="8.35196" transform="rotate(90 408.037 272.622)" fill="white"/>
<rect x="411.076" y="262.866" width="2.89056" height="14.0465" transform="rotate(90 411.076 262.866)" fill="white"/>
<rect x="419.806" y="253.111" width="2.89056" height="3.03708" transform="rotate(90 419.806 253.111)" fill="white"/>
<rect x="431.955" y="268.647" width="2.89056" height="3.03708" transform="rotate(90 431.955 268.647)" fill="white"/>
<rect x="411.076" y="275.513" width="2.89056" height="3.03708" transform="rotate(90 411.076 275.513)" fill="white"/>
<rect x="418.289" y="279.849" width="2.89056" height="4.55562" transform="rotate(90 418.289 279.849)" fill="white"/>
<rect x="412.593" y="281.294" width="2.89056" height="4.55562" transform="rotate(90 412.593 281.294)" fill="white"/>
<rect x="408.037" y="278.403" width="2.89056" height="3.03708" transform="rotate(90 408.037 278.403)" fill="white"/>
<rect x="401.964" y="278.403" width="2.89056" height="3.03708" transform="rotate(90 401.964 278.403)" fill="white"/>
<rect x="401.964" y="287.798" width="2.89056" height="3.03708" transform="rotate(90 401.964 287.798)" fill="white"/>
<rect x="405" y="281.294" width="6.50375" height="3.03708" transform="rotate(90 405 281.294)" fill="white"/>
<rect x="417.15" y="268.647" width="4.33584" height="3.03708" transform="rotate(90 417.15 268.647)" fill="white"/>
<rect x="402.722" y="267.925" width="4.69716" height="3.03708" transform="rotate(90 402.722 267.925)" fill="white"/>
<rect x="428.917" y="265.757" width="2.89056" height="3.03708" transform="rotate(90 428.917 265.757)" fill="white"/>
<rect x="425.88" y="261.782" width="6.86507" height="3.03708" transform="rotate(90 425.88 261.782)" fill="white"/>
<rect x="419.806" y="239.742" width="9.39431" height="3.03708" transform="rotate(90 419.806 239.742)" fill="white"/>
<rect x="431.955" y="258.169" width="7.58771" height="3.03708" transform="rotate(90 431.955 258.169)" fill="white"/>
<rect x="440.685" y="265.757" width="2.52924" height="2.65744" transform="rotate(90 440.685 265.757)" fill="white"/>
<rect x="460.048" y="257.808" width="3.25188" height="7.59269" transform="rotate(90 460.048 257.808)" fill="white"/>
<rect x="445.242" y="249.859" width="3.25188" height="7.59269" transform="rotate(90 445.242 249.859)" fill="white"/>
<rect x="437.269" y="254.195" width="3.25188" height="11.389" transform="rotate(90 437.269 254.195)" fill="white"/>
<path d="M568.146 171.97C567.953 171.603 567.856 171.183 567.856 170.71C567.856 170.237 567.953 169.813 568.146 169.44C568.339 169.073 568.599 168.773 568.926 168.54C569.253 168.313 569.616 168.14 570.016 168.02C570.423 167.907 570.853 167.85 571.306 167.85C571.919 167.85 572.479 167.95 572.986 168.15C573.493 168.35 573.913 168.67 574.246 169.11C574.579 169.557 574.746 170.09 574.746 170.71C574.746 171.33 574.579 171.86 574.246 172.3C573.913 172.747 573.493 173.07 572.986 173.27C572.479 173.47 571.919 173.57 571.306 173.57C570.853 173.57 570.423 173.51 570.016 173.39C569.616 173.277 569.253 173.103 568.926 172.87C568.599 172.643 568.339 172.343 568.146 171.97ZM571.306 169.59C570.019 169.59 569.376 169.963 569.376 170.71C569.376 171.457 570.019 171.83 571.306 171.83C572.586 171.83 573.226 171.457 573.226 170.71C573.226 169.963 572.586 169.59 571.306 169.59ZM568.146 178.21C567.953 177.843 567.856 177.423 567.856 176.95C567.856 176.477 567.953 176.053 568.146 175.68C568.339 175.313 568.599 175.013 568.926 174.78C569.253 174.553 569.616 174.38 570.016 174.26C570.423 174.147 570.853 174.09 571.306 174.09C571.919 174.09 572.479 174.19 572.986 174.39C573.493 174.59 573.913 174.91 574.246 175.35C574.579 175.797 574.746 176.33 574.746 176.95C574.746 177.57 574.579 178.1 574.246 178.54C573.913 178.987 573.493 179.31 572.986 179.51C572.479 179.71 571.919 179.81 571.306 179.81C570.853 179.81 570.423 179.75 570.016 179.63C569.616 179.517 569.253 179.343 568.926 179.11C568.599 178.883 568.339 178.583 568.146 178.21ZM571.306 175.83C570.019 175.83 569.376 176.203 569.376 176.95C569.376 177.697 570.019 178.07 571.306 178.07C572.586 178.07 573.226 177.697 573.226 176.95C573.226 176.203 572.586 175.83 571.306 175.83ZM568.146 184.45C567.953 184.084 567.856 183.664 567.856 183.19C567.856 182.717 567.953 182.294 568.146 181.92C568.339 181.554 568.599 181.254 568.926 181.02C569.253 180.794 569.616 180.62 570.016 180.5C570.423 180.387 570.853 180.33 571.306 180.33C571.919 180.33 572.479 180.43 572.986 180.63C573.493 180.83 573.913 181.15 574.246 181.59C574.579 182.037 574.746 182.57 574.746 183.19C574.746 183.81 574.579 184.34 574.246 184.78C573.913 185.227 573.493 185.55 572.986 185.75C572.479 185.95 571.919 186.05 571.306 186.05C570.853 186.05 570.423 185.99 570.016 185.87C569.616 185.757 569.253 185.584 568.926 185.35C568.599 185.124 568.339 184.824 568.146 184.45ZM571.306 182.07C570.019 182.07 569.376 182.444 569.376 183.19C569.376 183.937 570.019 184.31 571.306 184.31C572.586 184.31 573.226 183.937 573.226 183.19C573.226 182.444 572.586 182.07 571.306 182.07ZM568.146 190.691C567.953 190.324 567.856 189.904 567.856 189.431C567.856 188.957 567.953 188.534 568.146 188.161C568.339 187.794 568.599 187.494 568.926 187.261C569.253 187.034 569.616 186.861 570.016 186.741C570.423 186.627 570.853 186.571 571.306 186.571C571.919 186.571 572.479 186.671 572.986 186.871C573.493 187.071 573.913 187.391 574.246 187.831C574.579 188.277 574.746 188.811 574.746 189.431C574.746 190.051 574.579 190.581 574.246 191.021C573.913 191.467 573.493 191.791 572.986 191.991C572.479 192.191 571.919 192.291 571.306 192.291C570.853 192.291 570.423 192.231 570.016 192.111C569.616 191.997 569.253 191.824 568.926 191.591C568.599 191.364 568.339 191.064 568.146 190.691ZM571.306 188.311C570.019 188.311 569.376 188.684 569.376 189.431C569.376 190.177 570.019 190.551 571.306 190.551C572.586 190.551 573.226 190.177 573.226 189.431C573.226 188.684 572.586 188.311 571.306 188.311ZM568.146 196.931C567.953 196.564 567.856 196.144 567.856 195.671C567.856 195.197 567.953 194.774 568.146 194.401C568.339 194.034 568.599 193.734 568.926 193.501C569.253 193.274 569.616 193.101 570.016 192.981C570.423 192.867 570.853 192.811 571.306 192.811C571.919 192.811 572.479 192.911 572.986 193.111C573.493 193.311 573.913 193.631 574.246 194.071C574.579 194.517 574.746 195.051 574.746 195.671C574.746 196.291 574.579 196.821 574.246 197.261C573.913 197.707 573.493 198.031 572.986 198.231C572.479 198.431 571.919 198.531 571.306 198.531C570.853 198.531 570.423 198.471 570.016 198.351C569.616 198.237 569.253 198.064 568.926 197.831C568.599 197.604 568.339 197.304 568.146 196.931ZM571.306 194.551C570.019 194.551 569.376 194.924 569.376 195.671C569.376 196.417 570.019 196.791 571.306 196.791C572.586 196.791 573.226 196.417 573.226 195.671C573.226 194.924 572.586 194.551 571.306 194.551ZM568.146 203.171C567.953 202.804 567.856 202.384 567.856 201.911C567.856 201.438 567.953 201.014 568.146 200.641C568.339 200.274 568.599 199.974 568.926 199.741C569.253 199.514 569.616 199.341 570.016 199.221C570.423 199.108 570.853 199.051 571.306 199.051C571.919 199.051 572.479 199.151 572.986 199.351C573.493 199.551 573.913 199.871 574.246 200.311C574.579 200.758 574.746 201.291 574.746 201.911C574.746 202.531 574.579 203.061 574.246 203.501C573.913 203.948 573.493 204.271 572.986 204.471C572.479 204.671 571.919 204.771 571.306 204.771C570.853 204.771 570.423 204.711 570.016 204.591C569.616 204.478 569.253 204.304 568.926 204.071C568.599 203.844 568.339 203.544 568.146 203.171ZM571.306 200.791C570.019 200.791 569.376 201.164 569.376 201.911C569.376 202.658 570.019 203.031 571.306 203.031C572.586 203.031 573.226 202.658 573.226 201.911C573.226 201.164 572.586 200.791 571.306 200.791ZM568.146 209.411C567.953 209.045 567.856 208.625 567.856 208.151C567.856 207.678 567.953 207.255 568.146 206.881C568.339 206.515 568.599 206.215 568.926 205.981C569.253 205.755 569.616 205.581 570.016 205.461C570.423 205.348 570.853 205.291 571.306 205.291C571.919 205.291 572.479 205.391 572.986 205.591C573.493 205.791 573.913 206.111 574.246 206.551C574.579 206.998 574.746 207.531 574.746 208.151C574.746 208.771 574.579 209.301 574.246 209.741C573.913 210.188 573.493 210.511 572.986 210.711C572.479 210.911 571.919 211.011 571.306 211.011C570.853 211.011 570.423 210.951 570.016 210.831C569.616 210.718 569.253 210.545 568.926 210.311C568.599 210.085 568.339 209.785 568.146 209.411ZM571.306 207.031C570.019 207.031 569.376 207.405 569.376 208.151C569.376 208.898 570.019 209.271 571.306 209.271C572.586 209.271 573.226 208.898 573.226 208.151C573.226 207.405 572.586 207.031 571.306 207.031ZM568.146 215.651C567.953 215.285 567.856 214.865 567.856 214.391C567.856 213.918 567.953 213.495 568.146 213.121C568.339 212.755 568.599 212.455 568.926 212.221C569.253 211.995 569.616 211.821 570.016 211.701C570.423 211.588 570.853 211.531 571.306 211.531C571.919 211.531 572.479 211.631 572.986 211.831C573.493 212.031 573.913 212.351 574.246 212.791C574.579 213.238 574.746 213.771 574.746 214.391C574.746 215.011 574.579 215.541 574.246 215.981C573.913 216.428 573.493 216.751 572.986 216.951C572.479 217.151 571.919 217.251 571.306 217.251C570.853 217.251 570.423 217.191 570.016 217.071C569.616 216.958 569.253 216.785 568.926 216.551C568.599 216.325 568.339 216.025 568.146 215.651ZM571.306 213.271C570.019 213.271 569.376 213.645 569.376 214.391C569.376 215.138 570.019 215.511 571.306 215.511C572.586 215.511 573.226 215.138 573.226 214.391C573.226 213.645 572.586 213.271 571.306 213.271ZM568.146 221.892C567.953 221.525 567.856 221.105 567.856 220.632C567.856 220.158 567.953 219.735 568.146 219.362C568.339 218.995 568.599 218.695 568.926 218.462C569.253 218.235 569.616 218.062 570.016 217.942C570.423 217.828 570.853 217.772 571.306 217.772C571.919 217.772 572.479 217.872 572.986 218.072C573.493 218.272 573.913 218.592 574.246 219.032C574.579 219.478 574.746 220.012 574.746 220.632C574.746 221.252 574.579 221.782 574.246 222.222C573.913 222.668 573.493 222.992 572.986 223.192C572.479 223.392 571.919 223.492 571.306 223.492C570.853 223.492 570.423 223.432 570.016 223.312C569.616 223.198 569.253 223.025 568.926 222.792C568.599 222.565 568.339 222.265 568.146 221.892ZM571.306 219.512C570.019 219.512 569.376 219.885 569.376 220.632C569.376 221.378 570.019 221.752 571.306 221.752C572.586 221.752 573.226 221.378 573.226 220.632C573.226 219.885 572.586 219.512 571.306 219.512ZM568.146 228.132C567.953 227.765 567.856 227.345 567.856 226.872C567.856 226.399 567.953 225.975 568.146 225.602C568.339 225.235 568.599 224.935 568.926 224.702C569.253 224.475 569.616 224.302 570.016 224.182C570.423 224.069 570.853 224.012 571.306 224.012C571.919 224.012 572.479 224.112 572.986 224.312C573.493 224.512 573.913 224.832 574.246 225.272C574.579 225.719 574.746 226.252 574.746 226.872C574.746 227.492 574.579 228.022 574.246 228.462C573.913 228.909 573.493 229.232 572.986 229.432C572.479 229.632 571.919 229.732 571.306 229.732C570.853 229.732 570.423 229.672 570.016 229.552C569.616 229.439 569.253 229.265 568.926 229.032C568.599 228.805 568.339 228.505 568.146 228.132ZM571.306 225.752C570.019 225.752 569.376 226.125 569.376 226.872C569.376 227.619 570.019 227.992 571.306 227.992C572.586 227.992 573.226 227.619 573.226 226.872C573.226 226.125 572.586 225.752 571.306 225.752ZM568.146 234.372C567.953 234.006 567.856 233.586 567.856 233.112C567.856 232.639 567.953 232.216 568.146 231.842C568.339 231.476 568.599 231.176 568.926 230.942C569.253 230.716 569.616 230.542 570.016 230.422C570.423 230.309 570.853 230.252 571.306 230.252C571.919 230.252 572.479 230.352 572.986 230.552C573.493 230.752 573.913 231.072 574.246 231.512C574.579 231.959 574.746 232.492 574.746 233.112C574.746 233.732 574.579 234.262 574.246 234.702C573.913 235.149 573.493 235.472 572.986 235.672C572.479 235.872 571.919 235.972 571.306 235.972C570.853 235.972 570.423 235.912 570.016 235.792C569.616 235.679 569.253 235.506 568.926 235.272C568.599 235.046 568.339 234.746 568.146 234.372ZM571.306 231.992C570.019 231.992 569.376 232.366 569.376 233.112C569.376 233.859 570.019 234.232 571.306 234.232C572.586 234.232 573.226 233.859 573.226 233.112C573.226 232.366 572.586 231.992 571.306 231.992ZM568.146 240.612C567.953 240.246 567.856 239.826 567.856 239.352C567.856 238.879 567.953 238.456 568.146 238.082C568.339 237.716 568.599 237.416 568.926 237.182C569.253 236.956 569.616 236.782 570.016 236.662C570.423 236.549 570.853 236.492 571.306 236.492C571.919 236.492 572.479 236.592 572.986 236.792C573.493 236.992 573.913 237.312 574.246 237.752C574.579 238.199 574.746 238.732 574.746 239.352C574.746 239.972 574.579 240.502 574.246 240.942C573.913 241.389 573.493 241.712 572.986 241.912C572.479 242.112 571.919 242.212 571.306 242.212C570.853 242.212 570.423 242.152 570.016 242.032C569.616 241.919 569.253 241.746 568.926 241.512C568.599 241.286 568.339 240.986 568.146 240.612ZM571.306 238.232C570.019 238.232 569.376 238.606 569.376 239.352C569.376 240.099 570.019 240.472 571.306 240.472C572.586 240.472 573.226 240.099 573.226 239.352C573.226 238.606 572.586 238.232 571.306 238.232ZM568.146 246.853C567.953 246.486 567.856 246.066 567.856 245.593C567.856 245.119 567.953 244.696 568.146 244.323C568.339 243.956 568.599 243.656 568.926 243.423C569.253 243.196 569.616 243.023 570.016 242.903C570.423 242.789 570.853 242.733 571.306 242.733C571.919 242.733 572.479 242.833 572.986 243.033C573.493 243.233 573.913 243.553 574.246 243.993C574.579 244.439 574.746 244.973 574.746 245.593C574.746 246.213 574.579 246.743 574.246 247.183C573.913 247.629 573.493 247.953 572.986 248.153C572.479 248.353 571.919 248.453 571.306 248.453C570.853 248.453 570.423 248.393 570.016 248.273C569.616 248.159 569.253 247.986 568.926 247.753C568.599 247.526 568.339 247.226 568.146 246.853ZM571.306 244.473C570.019 244.473 569.376 244.846 569.376 245.593C569.376 246.339 570.019 246.713 571.306 246.713C572.586 246.713 573.226 246.339 573.226 245.593C573.226 244.846 572.586 244.473 571.306 244.473ZM568.146 253.093C567.953 252.726 567.856 252.306 567.856 251.833C567.856 251.36 567.953 250.936 568.146 250.563C568.339 250.196 568.599 249.896 568.926 249.663C569.253 249.436 569.616 249.263 570.016 249.143C570.423 249.03 570.853 248.973 571.306 248.973C571.919 248.973 572.479 249.073 572.986 249.273C573.493 249.473 573.913 249.793 574.246 250.233C574.579 250.68 574.746 251.213 574.746 251.833C574.746 252.453 574.579 252.983 574.246 253.423C573.913 253.87 573.493 254.193 572.986 254.393C572.479 254.593 571.919 254.693 571.306 254.693C570.853 254.693 570.423 254.633 570.016 254.513C569.616 254.4 569.253 254.226 568.926 253.993C568.599 253.766 568.339 253.466 568.146 253.093ZM571.306 250.713C570.019 250.713 569.376 251.086 569.376 251.833C569.376 252.58 570.019 252.953 571.306 252.953C572.586 252.953 573.226 252.58 573.226 251.833C573.226 251.086 572.586 250.713 571.306 250.713ZM568.146 259.333C567.953 258.966 567.856 258.546 567.856 258.073C567.856 257.6 567.953 257.176 568.146 256.803C568.339 256.436 568.599 256.136 568.926 255.903C569.253 255.676 569.616 255.503 570.016 255.383C570.423 255.27 570.853 255.213 571.306 255.213C571.919 255.213 572.479 255.313 572.986 255.513C573.493 255.713 573.913 256.033 574.246 256.473C574.579 256.92 574.746 257.453 574.746 258.073C574.746 258.693 574.579 259.223 574.246 259.663C573.913 260.11 573.493 260.433 572.986 260.633C572.479 260.833 571.919 260.933 571.306 260.933C570.853 260.933 570.423 260.873 570.016 260.753C569.616 260.64 569.253 260.466 568.926 260.233C568.599 260.006 568.339 259.706 568.146 259.333ZM571.306 256.953C570.019 256.953 569.376 257.326 569.376 258.073C569.376 258.82 570.019 259.193 571.306 259.193C572.586 259.193 573.226 258.82 573.226 258.073C573.226 257.326 572.586 256.953 571.306 256.953ZM568.146 265.573C567.953 265.207 567.856 264.787 567.856 264.313C567.856 263.84 567.953 263.417 568.146 263.043C568.339 262.677 568.599 262.377 568.926 262.143C569.253 261.917 569.616 261.743 570.016 261.623C570.423 261.51 570.853 261.453 571.306 261.453C571.919 261.453 572.479 261.553 572.986 261.753C573.493 261.953 573.913 262.273 574.246 262.713C574.579 263.16 574.746 263.693 574.746 264.313C574.746 264.933 574.579 265.463 574.246 265.903C573.913 266.35 573.493 266.673 572.986 266.873C572.479 267.073 571.919 267.173 571.306 267.173C570.853 267.173 570.423 267.113 570.016 266.993C569.616 266.88 569.253 266.707 568.926 266.473C568.599 266.247 568.339 265.947 568.146 265.573ZM571.306 263.193C570.019 263.193 569.376 263.567 569.376 264.313C569.376 265.06 570.019 265.433 571.306 265.433C572.586 265.433 573.226 265.06 573.226 264.313C573.226 263.567 572.586 263.193 571.306 263.193ZM567.976 271.304V269.584H572.446L571.316 268.464L572.346 267.484L574.646 269.814V271.304H567.976Z" fill="white"/>
<rect x="76.2358" y="0.54834" width="11.2009" height="61.8805" transform="rotate(90 76.2358 0.54834)" fill="white"/>
<rect x="76.2358" y="15.7236" width="3.97452" height="61.8805" transform="rotate(90 76.2358 15.7236)" fill="white"/>
<rect x="76.2358" y="21.8662" width="3.97452" height="61.8805" transform="rotate(90 76.2358 21.8662)" fill="white"/>
<rect x="76.2358" y="28.0088" width="4.69716" height="61.8805" transform="rotate(90 76.2358 28.0088)" fill="white"/>
<rect x="76.2358" y="34.874" width="1.8066" height="61.8805" transform="rotate(90 76.2358 34.874)" fill="white"/>
<rect x="76.2358" y="38.8481" width="1.8066" height="61.8805" transform="rotate(90 76.2358 38.8481)" fill="white"/>
<rect x="76.2358" y="42.8228" width="1.8066" height="61.8805" transform="rotate(90 76.2358 42.8228)" fill="white"/>
<rect x="76.2358" y="55.1074" width="2.89056" height="61.8805" transform="rotate(90 76.2358 55.1074)" fill="white"/>
<rect x="76.2358" y="60.166" width="3.6132" height="61.8805" transform="rotate(90 76.2358 60.166)" fill="white"/>
<rect x="76.2358" y="65.9473" width="4.69716" height="61.8805" transform="rotate(90 76.2358 65.9473)" fill="white"/>
<rect x="76.2358" y="72.8125" width="2.16792" height="61.8805" transform="rotate(90 76.2358 72.8125)" fill="white"/>
<rect x="76.2358" y="77.1479" width="2.16792" height="61.8805" transform="rotate(90 76.2358 77.1479)" fill="white"/>
<rect x="76.2358" y="81.4839" width="2.16792" height="61.8805" transform="rotate(90 76.2358 81.4839)" fill="white"/>
<rect x="76.2358" y="94.1299" width="5.05848" height="61.8805" transform="rotate(90 76.2358 94.1299)" fill="white"/>
<rect x="76.2358" y="101.356" width="5.05848" height="61.8805" transform="rotate(90 76.2358 101.356)" fill="white"/>
<rect x="76.2358" y="109.306" width="3.6132" height="61.8805" transform="rotate(90 76.2358 109.306)" fill="white"/>
<rect x="76.2358" y="115.087" width="3.6132" height="61.8805" transform="rotate(90 76.2358 115.087)" fill="white"/>
<rect x="76.2358" y="120.868" width="5.05848" height="61.8805" transform="rotate(90 76.2358 120.868)" fill="white"/>
<rect x="76.2358" y="128.094" width="1.44528" height="61.8805" transform="rotate(90 76.2358 128.094)" fill="white"/>
<rect x="76.2358" y="131.708" width="1.44528" height="61.8805" transform="rotate(90 76.2358 131.708)" fill="white"/>
<rect x="76.2358" y="135.32" width="1.44528" height="61.8805" transform="rotate(90 76.2358 135.32)" fill="white"/>
<rect x="76.2358" y="46.7974" width="6.14243" height="72.1306" transform="rotate(90 76.2358 46.7974)" fill="white"/>
<rect x="76.2358" y="85.8198" width="6.14243" height="72.1306" transform="rotate(90 76.2358 85.8198)" fill="white"/>
<rect x="76.2358" y="140.379" width="6.14243" height="72.1306" transform="rotate(90 76.2358 140.379)" fill="white"/>
<rect x="76.2358" y="233.6" width="6.14243" height="72.1306" transform="rotate(90 76.2358 233.6)" fill="white"/>
<rect x="76.2358" y="148.689" width="11.2009" height="61.8805" transform="rotate(90 76.2358 148.689)" fill="white"/>
<rect x="76.2358" y="164.226" width="3.97452" height="61.8805" transform="rotate(90 76.2358 164.226)" fill="white"/>
<rect x="76.2358" y="170.369" width="3.97452" height="61.8805" transform="rotate(90 76.2358 170.369)" fill="white"/>
<rect x="76.2358" y="175.788" width="5.05848" height="61.8805" transform="rotate(90 76.2358 175.788)" fill="white"/>
<rect x="76.2358" y="194.938" width="6.14243" height="61.8805" transform="rotate(90 76.2358 194.938)" fill="white"/>
<rect x="76.2358" y="203.249" width="3.97452" height="61.8805" transform="rotate(90 76.2358 203.249)" fill="white"/>
<rect x="76.2358" y="209.391" width="3.97452" height="61.8805" transform="rotate(90 76.2358 209.391)" fill="white"/>
<rect x="76.2358" y="214.811" width="4.69716" height="61.8805" transform="rotate(90 76.2358 214.811)" fill="white"/>
<rect x="76.2358" y="221.676" width="1.8066" height="61.8805" transform="rotate(90 76.2358 221.676)" fill="white"/>
<rect x="76.2358" y="225.65" width="1.8066" height="61.8805" transform="rotate(90 76.2358 225.65)" fill="white"/>
<rect x="76.2358" y="229.625" width="1.8066" height="61.8805" transform="rotate(90 76.2358 229.625)" fill="white"/>
<rect x="76.2358" y="242.632" width="3.6132" height="61.8805" transform="rotate(90 76.2358 242.632)" fill="white"/>
<rect x="76.2358" y="247.691" width="3.6132" height="61.8805" transform="rotate(90 76.2358 247.691)" fill="white"/>
<rect x="76.2358" y="253.472" width="4.69716" height="61.8805" transform="rotate(90 76.2358 253.472)" fill="white"/>
<rect x="76.2358" y="260.337" width="2.16792" height="61.8805" transform="rotate(90 76.2358 260.337)" fill="white"/>
<rect x="76.2358" y="264.673" width="2.16792" height="61.8805" transform="rotate(90 76.2358 264.673)" fill="white"/>
<rect x="76.2358" y="269.009" width="2.16792" height="61.8805" transform="rotate(90 76.2358 269.009)" fill="white"/>
<rect x="76.2358" y="272.622" width="6.86507" height="61.8805" transform="rotate(90 76.2358 272.622)" fill="white"/>
<rect x="76.2358" y="183.015" width="1.8066" height="61.8805" transform="rotate(90 76.2358 183.015)" fill="white"/>
<rect x="76.2358" y="186.989" width="1.8066" height="61.8805" transform="rotate(90 76.2358 186.989)" fill="white"/>
<rect x="76.2358" y="190.964" width="1.8066" height="61.8805" transform="rotate(90 76.2358 190.964)" fill="white"/>
<path d="M3.45654 8.03162V6.31162H7.92654L6.79654 5.19162L7.82654 4.21162L10.1265 6.54162V8.03162H3.45654Z" fill="white"/>
<path d="M3.14607 35.8683C2.95274 35.5016 2.85607 35.0816 2.85607 34.6083C2.85607 34.1349 2.95274 33.7116 3.14607 33.3383C3.33941 32.9716 3.59941 32.6716 3.92607 32.4383C4.25274 32.2116 4.61607 32.0383 5.01607 31.9183C5.42274 31.8049 5.85274 31.7483 6.30607 31.7483C6.91941 31.7483 7.47941 31.8483 7.98607 32.0483C8.49274 32.2483 8.91274 32.5683 9.24607 33.0083C9.57941 33.4549 9.74607 33.9883 9.74607 34.6083C9.74607 35.2283 9.57941 35.7583 9.24607 36.1983C8.91274 36.6449 8.49274 36.9683 7.98607 37.1683C7.47941 37.3683 6.91941 37.4683 6.30607 37.4683C5.85274 37.4683 5.42274 37.4083 5.01607 37.2883C4.61607 37.1749 4.25274 37.0016 3.92607 36.7683C3.59941 36.5416 3.33941 36.2416 3.14607 35.8683ZM6.30607 33.4883C5.01941 33.4883 4.37607 33.8616 4.37607 34.6083C4.37607 35.3549 5.01941 35.7283 6.30607 35.7283C7.58607 35.7283 8.22607 35.3549 8.22607 34.6083C8.22607 33.8616 7.58607 33.4883 6.30607 33.4883ZM3.14607 42.1085C2.95274 41.7418 2.85607 41.3218 2.85607 40.8485C2.85607 40.3752 2.95274 39.9518 3.14607 39.5785C3.33941 39.2118 3.59941 38.9118 3.92607 38.6785C4.25274 38.4518 4.61607 38.2785 5.01607 38.1585C5.42274 38.0452 5.85274 37.9885 6.30607 37.9885C6.91941 37.9885 7.47941 38.0885 7.98607 38.2885C8.49274 38.4885 8.91274 38.8085 9.24607 39.2485C9.57941 39.6952 9.74607 40.2285 9.74607 40.8485C9.74607 41.4685 9.57941 41.9985 9.24607 42.4385C8.91274 42.8852 8.49274 43.2085 7.98607 43.4085C7.47941 43.6085 6.91941 43.7085 6.30607 43.7085C5.85274 43.7085 5.42274 43.6485 5.01607 43.5285C4.61607 43.4152 4.25274 43.2418 3.92607 43.0085C3.59941 42.7818 3.33941 42.4818 3.14607 42.1085ZM6.30607 39.7285C5.01941 39.7285 4.37607 40.1018 4.37607 40.8485C4.37607 41.5952 5.01941 41.9685 6.30607 41.9685C7.58607 41.9685 8.22607 41.5952 8.22607 40.8485C8.22607 40.1018 7.58607 39.7285 6.30607 39.7285Z" fill="white"/>
<path d="M3.14607 63.4694C2.95274 63.1027 2.85607 62.6827 2.85607 62.2094C2.85607 61.736 2.95274 61.3127 3.14607 60.9394C3.33941 60.5727 3.59941 60.2727 3.92607 60.0394C4.25274 59.8127 4.61607 59.6394 5.01607 59.5194C5.42274 59.406 5.85274 59.3494 6.30607 59.3494C6.91941 59.3494 7.47941 59.4494 7.98607 59.6494C8.49274 59.8494 8.91274 60.1694 9.24607 60.6094C9.57941 61.056 9.74607 61.5894 9.74607 62.2094C9.74607 62.8294 9.57941 63.3594 9.24607 63.7994C8.91274 64.246 8.49274 64.5694 7.98607 64.7694C7.47941 64.9694 6.91941 65.0694 6.30607 65.0694C5.85274 65.0694 5.42274 65.0094 5.01607 64.8894C4.61607 64.776 4.25274 64.6027 3.92607 64.3694C3.59941 64.1427 3.33941 63.8427 3.14607 63.4694ZM6.30607 61.0894C5.01941 61.0894 4.37607 61.4627 4.37607 62.2094C4.37607 62.956 5.01941 63.3294 6.30607 63.3294C7.58607 63.3294 8.22607 62.956 8.22607 62.2094C8.22607 61.4627 7.58607 61.0894 6.30607 61.0894ZM3.14607 69.7096C2.95274 69.3429 2.85607 68.9229 2.85607 68.4496C2.85607 67.9763 2.95274 67.5529 3.14607 67.1796C3.33941 66.8129 3.59941 66.5129 3.92607 66.2796C4.25274 66.0529 4.61607 65.8796 5.01607 65.7596C5.42274 65.6463 5.85274 65.5896 6.30607 65.5896C6.91941 65.5896 7.47941 65.6896 7.98607 65.8896C8.49274 66.0896 8.91274 66.4096 9.24607 66.8496C9.57941 67.2963 9.74607 67.8296 9.74607 68.4496C9.74607 69.0696 9.57941 69.5996 9.24607 70.0396C8.91274 70.4863 8.49274 70.8096 7.98607 71.0096C7.47941 71.2096 6.91941 71.3096 6.30607 71.3096C5.85274 71.3096 5.42274 71.2496 5.01607 71.1296C4.61607 71.0163 4.25274 70.8429 3.92607 70.6096C3.59941 70.3829 3.33941 70.0829 3.14607 69.7096ZM6.30607 67.3296C5.01941 67.3296 4.37607 67.7029 4.37607 68.4496C4.37607 69.1963 5.01941 69.5696 6.30607 69.5696C7.58607 69.5696 8.22607 69.1963 8.22607 68.4496C8.22607 67.7029 7.58607 67.3296 6.30607 67.3296ZM3.14607 75.9498C2.95274 75.5832 2.85607 75.1632 2.85607 74.6898C2.85607 74.2165 2.95274 73.7932 3.14607 73.4198C3.33941 73.0532 3.59941 72.7532 3.92607 72.5198C4.25274 72.2932 4.61607 72.1198 5.01607 71.9998C5.42274 71.8865 5.85274 71.8298 6.30607 71.8298C6.91941 71.8298 7.47941 71.9298 7.98607 72.1298C8.49274 72.3298 8.91274 72.6498 9.24607 73.0898C9.57941 73.5365 9.74607 74.0698 9.74607 74.6898C9.74607 75.3098 9.57941 75.8398 9.24607 76.2798C8.91274 76.7265 8.49274 77.0498 7.98607 77.2498C7.47941 77.4498 6.91941 77.5498 6.30607 77.5498C5.85274 77.5498 5.42274 77.4898 5.01607 77.3698C4.61607 77.2565 4.25274 77.0832 3.92607 76.8498C3.59941 76.6232 3.33941 76.3232 3.14607 75.9498ZM6.30607 73.5698C5.01941 73.5698 4.37607 73.9432 4.37607 74.6898C4.37607 75.4365 5.01941 75.8098 6.30607 75.8098C7.58607 75.8098 8.22607 75.4365 8.22607 74.6898C8.22607 73.9432 7.58607 73.5698 6.30607 73.5698Z" fill="white"/>
<path d="M3.14607 104.395C2.95274 104.028 2.85607 103.608 2.85607 103.135C2.85607 102.662 2.95274 102.238 3.14607 101.865C3.33941 101.498 3.59941 101.198 3.92607 100.965C4.25274 100.738 4.61607 100.565 5.01607 100.445C5.42274 100.332 5.85274 100.275 6.30607 100.275C6.91941 100.275 7.47941 100.375 7.98607 100.575C8.49274 100.775 8.91274 101.095 9.24607 101.535C9.57941 101.982 9.74607 102.515 9.74607 103.135C9.74607 103.755 9.57941 104.285 9.24607 104.725C8.91274 105.172 8.49274 105.495 7.98607 105.695C7.47941 105.895 6.91941 105.995 6.30607 105.995C5.85274 105.995 5.42274 105.935 5.01607 105.815C4.61607 105.702 4.25274 105.528 3.92607 105.295C3.59941 105.068 3.33941 104.768 3.14607 104.395ZM6.30607 102.015C5.01941 102.015 4.37607 102.388 4.37607 103.135C4.37607 103.882 5.01941 104.255 6.30607 104.255C7.58607 104.255 8.22607 103.882 8.22607 103.135C8.22607 102.388 7.58607 102.015 6.30607 102.015ZM3.14607 110.635C2.95274 110.269 2.85607 109.849 2.85607 109.375C2.85607 108.902 2.95274 108.479 3.14607 108.105C3.33941 107.739 3.59941 107.439 3.92607 107.205C4.25274 106.979 4.61607 106.805 5.01607 106.685C5.42274 106.572 5.85274 106.515 6.30607 106.515C6.91941 106.515 7.47941 106.615 7.98607 106.815C8.49274 107.015 8.91274 107.335 9.24607 107.775C9.57941 108.222 9.74607 108.755 9.74607 109.375C9.74607 109.995 9.57941 110.525 9.24607 110.965C8.91274 111.412 8.49274 111.735 7.98607 111.935C7.47941 112.135 6.91941 112.235 6.30607 112.235C5.85274 112.235 5.42274 112.175 5.01607 112.055C4.61607 111.942 4.25274 111.769 3.92607 111.535C3.59941 111.309 3.33941 111.009 3.14607 110.635ZM6.30607 108.255C5.01941 108.255 4.37607 108.629 4.37607 109.375C4.37607 110.122 5.01941 110.495 6.30607 110.495C7.58607 110.495 8.22607 110.122 8.22607 109.375C8.22607 108.629 7.58607 108.255 6.30607 108.255ZM3.14607 116.876C2.95274 116.509 2.85607 116.089 2.85607 115.616C2.85607 115.142 2.95274 114.719 3.14607 114.346C3.33941 113.979 3.59941 113.679 3.92607 113.446C4.25274 113.219 4.61607 113.046 5.01607 112.926C5.42274 112.812 5.85274 112.756 6.30607 112.756C6.91941 112.756 7.47941 112.856 7.98607 113.056C8.49274 113.256 8.91274 113.576 9.24607 114.016C9.57941 114.462 9.74607 114.996 9.74607 115.616C9.74607 116.236 9.57941 116.766 9.24607 117.206C8.91274 117.652 8.49274 117.976 7.98607 118.176C7.47941 118.376 6.91941 118.476 6.30607 118.476C5.85274 118.476 5.42274 118.416 5.01607 118.296C4.61607 118.182 4.25274 118.009 3.92607 117.776C3.59941 117.549 3.33941 117.249 3.14607 116.876ZM6.30607 114.496C5.01941 114.496 4.37607 114.869 4.37607 115.616C4.37607 116.362 5.01941 116.736 6.30607 116.736C7.58607 116.736 8.22607 116.362 8.22607 115.616C8.22607 114.869 7.58607 114.496 6.30607 114.496ZM3.14607 123.116C2.95274 122.749 2.85607 122.329 2.85607 121.856C2.85607 121.383 2.95274 120.959 3.14607 120.586C3.33941 120.219 3.59941 119.919 3.92607 119.686C4.25274 119.459 4.61607 119.286 5.01607 119.166C5.42274 119.053 5.85274 118.996 6.30607 118.996C6.91941 118.996 7.47941 119.096 7.98607 119.296C8.49274 119.496 8.91274 119.816 9.24607 120.256C9.57941 120.703 9.74607 121.236 9.74607 121.856C9.74607 122.476 9.57941 123.006 9.24607 123.446C8.91274 123.893 8.49274 124.216 7.98607 124.416C7.47941 124.616 6.91941 124.716 6.30607 124.716C5.85274 124.716 5.42274 124.656 5.01607 124.536C4.61607 124.423 4.25274 124.249 3.92607 124.016C3.59941 123.789 3.33941 123.489 3.14607 123.116ZM6.30607 120.736C5.01941 120.736 4.37607 121.109 4.37607 121.856C4.37607 122.603 5.01941 122.976 6.30607 122.976C7.58607 122.976 8.22607 122.603 8.22607 121.856C8.22607 121.109 7.58607 120.736 6.30607 120.736ZM3.14607 129.356C2.95274 128.989 2.85607 128.569 2.85607 128.096C2.85607 127.623 2.95274 127.199 3.14607 126.826C3.33941 126.459 3.59941 126.159 3.92607 125.926C4.25274 125.699 4.61607 125.526 5.01607 125.406C5.42274 125.293 5.85274 125.236 6.30607 125.236C6.91941 125.236 7.47941 125.336 7.98607 125.536C8.49274 125.736 8.91274 126.056 9.24607 126.496C9.57941 126.943 9.74607 127.476 9.74607 128.096C9.74607 128.716 9.57941 129.246 9.24607 129.686C8.91274 130.133 8.49274 130.456 7.98607 130.656C7.47941 130.856 6.91941 130.956 6.30607 130.956C5.85274 130.956 5.42274 130.896 5.01607 130.776C4.61607 130.663 4.25274 130.489 3.92607 130.256C3.59941 130.029 3.33941 129.729 3.14607 129.356ZM6.30607 126.976C5.01941 126.976 4.37607 127.349 4.37607 128.096C4.37607 128.843 5.01941 129.216 6.30607 129.216C7.58607 129.216 8.22607 128.843 8.22607 128.096C8.22607 127.349 7.58607 126.976 6.30607 126.976Z" fill="white"/>
<path d="M282.92 287.537C259.165 287.537 239.92 268.38 239.92 244.765C239.92 221.15 259.165 201.993 282.92 201.993C306.676 201.993 325.92 221.15 325.92 244.765C325.92 268.38 306.676 287.537 282.92 287.537Z" stroke="white" stroke-width="3"/>
<path d="M322.022 225.925L321.687 226.305C320.898 227.198 320.463 228.349 320.463 229.54V230.065C320.463 230.592 320.322 231.11 320.055 231.565L319.918 231.797C319.211 233.001 317.695 233.456 316.442 232.841V232.841C316.166 232.706 315.916 232.524 315.702 232.304L315.505 232.101C314.494 231.058 312.807 231.102 311.851 232.197V232.197C311.599 232.486 311.417 232.83 311.319 233.201L310.77 235.299C310.516 236.267 310.388 237.265 310.388 238.266V241.703V241.703C310.073 244.249 309.1 246.67 307.565 248.725L307.269 249.121L306.365 250.747C306.033 251.345 306.041 252.073 306.385 252.664V252.664C306.886 253.527 307.961 253.867 308.868 253.452L310.446 252.729C310.725 252.601 311.023 252.516 311.327 252.477L312.256 252.358C313.065 252.254 313.845 252.704 314.161 253.457V253.457C314.355 253.921 314.349 254.444 314.143 254.903L313.156 257.099C312.832 257.82 312.394 258.484 311.859 259.065L310.614 260.418C309.746 261.362 308.977 262.392 308.32 263.493L307.269 265.252L305.83 268.549L304.707 270.533C304.266 271.311 303.601 271.939 302.798 272.333L302.649 272.406C302.137 272.657 301.575 272.788 301.006 272.788V272.788C299.684 272.788 298.462 272.088 297.792 270.949L297.654 270.713C297.274 270.067 297.074 269.331 297.074 268.582V265.252L297.09 264.933C297.318 260.452 298.078 256.013 299.353 251.711V251.711L300.842 247.423C301.047 246.832 301.152 246.211 301.152 245.585V243.141C301.152 242.547 300.82 242.003 300.292 241.73V241.73C299.51 241.326 298.548 241.635 298.148 242.42L297.31 244.066C297.153 244.373 296.951 244.654 296.711 244.901L294.435 247.237L293.689 247.853C292.691 248.679 291.968 249.789 291.618 251.036V251.036C291.341 252.021 291.306 253.058 291.515 254.06L292.045 256.598C292.118 256.948 292.128 257.309 292.074 257.662L291.955 258.443C291.857 259.081 291.41 259.609 290.797 259.809V259.809C290.292 259.974 289.74 259.896 289.302 259.596L288.219 258.857C287.577 258.418 287.063 257.817 286.731 257.113L284.959 253.36L283.718 249.625C283.35 248.517 283.223 247.343 283.346 246.182V246.182C283.461 245.091 283.793 244.034 284.324 243.074L285.101 241.669C285.565 240.831 285.931 239.943 286.194 239.021V239.021C286.489 237.987 286.915 236.995 287.461 236.069L289.277 232.99L289.964 231.979C291.381 229.892 292.029 227.377 291.796 224.865V224.865V220.862V220.862C291.796 218.616 292.76 216.478 294.443 214.991L296.594 213.091V213.091C298.651 211.382 300.339 209.271 301.553 206.888L302.231 205.555" stroke="white" stroke-width="3"/>
<path d="M293.595 202.612L292.767 204.399C292.523 204.928 292.165 205.397 291.719 205.772L291.383 206.054C290.95 206.419 290.412 206.634 289.847 206.67V206.67C288.31 206.768 287.18 208.152 287.393 209.678L287.702 211.882C287.791 212.524 287.748 213.178 287.573 213.802L286.593 217.306C286.304 218.341 285.939 219.354 285.503 220.336L283.972 223.779C283.514 224.81 282.878 225.751 282.094 226.56L279.492 229.246C278.934 229.821 278.13 230.087 277.34 229.958V229.958C276.362 229.798 275.577 229.063 275.352 228.098L275.045 226.779C274.861 225.989 274.895 225.164 275.145 224.392L275.928 221.968C276.191 221.154 276.529 220.367 276.94 219.616L278.121 217.455C278.675 216.441 279.011 215.322 279.106 214.171L279.191 213.144C279.276 212.113 279.04 211.082 278.517 210.191V210.191C277.877 209.103 276.852 208.296 275.644 207.932L275.139 207.779C274.651 207.632 274.186 207.418 273.757 207.143V207.143C272.415 206.284 271.509 204.887 271.271 203.312L271.165 202.612" stroke="white" stroke-width="3"/>
<path d="M305.11 281.736L302.88 279.547C302.38 279.056 301.742 278.727 301.051 278.603L300.442 278.495C299.827 278.385 299.194 278.549 298.711 278.945V278.945C297.904 279.605 296.739 279.588 295.951 278.905L295.802 278.775C294.887 277.981 293.522 278.002 292.632 278.824L292.156 279.264L291.605 279.745C290.662 280.567 289.279 280.634 288.261 279.908V279.908C287.683 279.495 287.29 278.871 287.169 278.171L286.411 273.788C286.323 273.281 286.16 272.79 285.927 272.332L285.542 271.576C285.097 270.702 285.061 269.676 285.444 268.773V268.773C285.822 267.883 285.793 266.873 285.365 266.006L284.12 263.486L280.282 256.421L277.969 251.882C277.754 251.458 277.454 251.084 277.088 250.781L275.597 249.546C274.671 248.779 273.275 249.054 272.709 250.114V250.114C272.562 250.39 272.485 250.697 272.485 251.009V253.94C272.485 255.04 272.618 256.137 272.882 257.205L273.006 257.707C273.298 258.888 273.709 260.035 274.233 261.132L276.203 265.252L277.707 269.582C277.903 270.145 278.003 270.737 278.003 271.334V271.334C278.003 273.059 277.169 274.678 275.765 275.68L275.216 276.072C274.444 276.623 273.563 277.003 272.632 277.186L270.012 277.7C269.131 277.873 268.34 278.355 267.783 279.059V279.059C267.255 279.725 266.967 280.55 266.967 281.401V285.033" stroke="white" stroke-width="3"/>
<path d="M245.257 222.747L246.395 223.913C247.367 224.908 247.605 226.407 246.99 227.655V227.655C246.507 228.635 246.544 229.792 247.088 230.74L247.975 232.284C248.552 233.287 248.856 234.425 248.856 235.582V237.819V240.404C248.856 241.267 249.362 242.05 250.149 242.404V242.404C251.077 242.822 252.172 242.545 252.79 241.735L253.37 240.976C253.714 240.527 253.939 239.999 254.027 239.44L254.341 237.439C254.521 236.286 254.523 235.112 254.347 233.959L254.021 231.822C253.936 231.268 253.894 230.708 253.894 230.148V230.148C253.894 227.571 254.791 225.075 256.432 223.089L257.492 221.805L259.938 219.477C260.939 218.524 261.777 217.412 262.417 216.187L263.287 214.521C263.656 213.815 264.191 213.208 264.845 212.753L265.144 212.545C266.149 211.847 267.409 211.626 268.591 211.943L268.703 211.973C269.945 212.305 270.947 213.225 271.384 214.434V214.434C271.778 215.525 271.671 216.733 271.091 217.737L270.361 219.002C270.099 219.457 269.888 219.939 269.732 220.44L268.911 223.083C268.179 225.436 267.092 227.663 265.687 229.686L263.341 233.064C262.729 233.945 262.332 234.958 262.183 236.02V236.02C262.017 237.199 262.161 238.4 262.601 239.506L262.825 240.071C263.493 241.75 263.648 243.59 263.271 245.357L263.048 246.403C262.863 247.271 262.77 248.157 262.77 249.046V249.27C262.77 251.723 263.379 254.138 264.544 256.298L264.929 257.011L267.327 261.721L268.525 264.523C268.764 265.083 268.887 265.685 268.887 266.293V266.505C268.887 268.114 267.961 269.579 266.508 270.271V270.271C265.498 270.752 264.336 270.807 263.285 270.423L261.27 269.687C260.278 269.324 259.355 268.795 258.54 268.122L257.673 267.405C256.049 266.063 254.71 264.409 253.733 262.543L252.934 261.015L252.721 260.675C251.598 258.883 250.09 257.363 248.307 256.225V256.225C246.924 255.343 245.704 254.229 244.699 252.932L243.938 251.948L243.323 251.249C242.265 250.047 240.741 249.358 239.14 249.358V249.358" stroke="white" stroke-width="3"/>
</svg>
