<svg width="552" height="194" viewBox="0 0 552 194" fill="none" xmlns="http://www.w3.org/2000/svg">
<rect x="463.378" y="169.694" width="2.99816" height="35.5984" transform="rotate(-90 463.378 169.694)" fill="white"/>
<rect x="463.378" y="166.03" width="0.999388" height="35.5984" transform="rotate(-90 463.378 166.03)" fill="white"/>
<rect x="463.378" y="164.364" width="1.83221" height="35.5984" transform="rotate(-90 463.378 164.364)" fill="white"/>
<rect x="463.378" y="161.864" width="0.499694" height="35.5984" transform="rotate(-90 463.378 161.864)" fill="white"/>
<rect x="463.378" y="156.202" width="0.499694" height="35.5984" transform="rotate(-90 463.378 156.202)" fill="white"/>
<rect x="463.378" y="160.7" width="1.33252" height="35.5984" transform="rotate(-90 463.378 160.7)" fill="white"/>
<rect x="463.378" y="158.7" width="1.83221" height="35.5984" transform="rotate(-90 463.378 158.7)" fill="white"/>
<rect x="463.378" y="154.702" width="4.16411" height="35.5984" transform="rotate(-90 463.378 154.702)" fill="white"/>
<rect x="463.378" y="149.54" width="2.49847" height="35.5984" transform="rotate(-90 463.378 149.54)" fill="white"/>
<rect x="463.378" y="146.374" width="1.33252" height="35.5984" transform="rotate(-90 463.378 146.374)" fill="white"/>
<rect x="463.378" y="144.042" width="0.832823" height="35.5984" transform="rotate(-90 463.378 144.042)" fill="white"/>
<rect x="463.378" y="136.215" width="0.832823" height="35.5984" transform="rotate(-90 463.378 136.215)" fill="white"/>
<rect x="463.378" y="134.715" width="0.832823" height="35.5984" transform="rotate(-90 463.378 134.715)" fill="white"/>
<rect x="463.378" y="129.717" width="0.832823" height="35.5984" transform="rotate(-90 463.378 129.717)" fill="white"/>
<rect x="463.378" y="125.887" width="0.832823" height="35.5984" transform="rotate(-90 463.378 125.887)" fill="white"/>
<rect x="463.378" y="124.387" width="1.49908" height="35.5984" transform="rotate(-90 463.378 124.387)" fill="white"/>
<rect x="463.378" y="122.557" width="1.83221" height="35.5984" transform="rotate(-90 463.378 122.557)" fill="white"/>
<rect x="463.378" y="120.057" width="0.666258" height="35.5984" transform="rotate(-90 463.378 120.057)" fill="white"/>
<rect x="463.378" y="118.725" width="4.83037" height="35.5984" transform="rotate(-90 463.378 118.725)" fill="white"/>
<rect x="463.378" y="113.561" width="0.999388" height="35.5984" transform="rotate(-90 463.378 113.561)" fill="white"/>
<rect x="463.378" y="111.563" width="0.666258" height="35.5984" transform="rotate(-90 463.378 111.563)" fill="white"/>
<rect x="463.378" y="110.231" width="1.66565" height="35.5984" transform="rotate(-90 463.378 110.231)" fill="white"/>
<rect x="463.378" y="107.897" width="1.16595" height="35.5984" transform="rotate(-90 463.378 107.897)" fill="white"/>
<rect x="463.378" y="105.733" width="0.666258" height="35.5984" transform="rotate(-90 463.378 105.733)" fill="white"/>
<rect x="463.378" y="104.401" width="1.66565" height="35.5984" transform="rotate(-90 463.378 104.401)" fill="white"/>
<rect x="463.378" y="102.069" width="1.16595" height="35.5984" transform="rotate(-90 463.378 102.069)" fill="white"/>
<rect x="463.378" y="100.237" width="2.66503" height="35.5984" transform="rotate(-90 463.378 100.237)" fill="white"/>
<rect x="463.378" y="128.219" width="1.66565" height="35.5984" transform="rotate(-90 463.378 128.219)" fill="white"/>
<rect x="463.378" y="132.883" width="2.16534" height="35.5984" transform="rotate(-90 463.378 132.883)" fill="white"/>
<rect x="463.378" y="142.542" width="1.33252" height="35.5984" transform="rotate(-90 463.378 142.542)" fill="white"/>
<rect x="463.378" y="140.545" width="1.49908" height="35.5984" transform="rotate(-90 463.378 140.545)" fill="white"/>
<rect x="463.378" y="138.711" width="1.83221" height="35.5984" transform="rotate(-90 463.378 138.711)" fill="white"/>
<path d="M61.2998 65.1118C62.9845 70.7261 64.8377 88.8647 64.8377 98.3659C64.8377 110.026 63.153 121.831 61.4683 129.245" stroke="white" stroke-width="5"/>
<path d="M549.361 93.184V3.5708L412.562 15.6632L76.7995 28.1874L60.7948 65.7602L3.85156 70.0789" stroke="white" stroke-width="5"/>
<path d="M549.361 92.968V190.571L412.562 178.478L76.7996 165.954L60.9633 128.597L3.51465 122.983L4.02006 68.9992" stroke="white" stroke-width="5"/>
<rect x="91.7939" y="45.8931" width="323.464" height="103.217" fill="white"/>
<line x1="81.4893" y1="32.938" x2="81.4893" y2="158.612" stroke="white" stroke-width="5"/>
<line x1="539.057" y1="3.5708" x2="539.057" y2="188.411" stroke="white" stroke-width="5"/>
<path d="M473.276 80.7231V81.9271H470.147L470.938 82.7111L470.217 83.3971L468.607 81.7661V80.7231H473.276Z" fill="white"/>
<path d="M474.811 88.7575L464.934 81.4483L474.811 74.139V88.7575Z" stroke="white" stroke-width="3"/>
<path d="M478.271 56.2005C478.271 58.6325 477.535 60.6485 476.063 62.2485C474.569 63.8485 472.596 64.6485 470.143 64.6485C467.86 64.6485 465.94 63.8805 464.383 62.3445C462.825 60.7872 462.047 58.8138 462.047 56.4245C462.047 54.0992 462.836 52.2005 464.415 50.7285C465.972 49.2565 468.052 48.5205 470.655 48.5205H471.711V59.5285C472.479 59.3792 473.129 58.9632 473.663 58.2805C474.196 57.5978 474.463 56.7232 474.463 55.6565C474.463 55.0592 474.345 54.3765 474.111 53.6085C473.855 52.8192 473.535 52.2218 473.151 51.8165L476.223 49.7365C476.884 50.4832 477.396 51.4432 477.759 52.6165C478.1 53.7685 478.271 54.9632 478.271 56.2005ZM468.511 53.2245C467.828 53.3098 467.22 53.6085 466.687 54.1205C466.132 54.6325 465.855 55.4005 465.855 56.4245C465.855 57.3845 466.121 58.1205 466.655 58.6325C467.188 59.1445 467.807 59.4645 468.511 59.5925V53.2245Z" fill="white"/>
<path d="M91.7939 149.112V46.3266L415.258 46.3266V149.112L91.7939 149.112Z" fill="#2143FF"/>
<path d="M537.568 5.08086L549.361 4.00244L549.024 189.707L537.568 188.519V5.08086Z" fill="#2143FF"/>
<line y1="-2.5" x2="49.087" y2="-2.5" transform="matrix(0.995306 -0.0967787 0.0590836 0.998253 8.56836 78.7153)" stroke="white" stroke-width="5"/>
<line y1="-2.5" x2="48.6425" y2="-2.5" transform="matrix(0.997474 -0.0710277 0.0433034 0.999062 8.90527 86.0571)" stroke="white" stroke-width="5"/>
<line y1="-2.5" x2="48.5672" y2="-2.5" transform="matrix(0.999011 -0.0444607 0.0270801 0.999633 8.90527 94.2642)" stroke="white" stroke-width="5"/>
<line y1="-2.5" x2="48.5216" y2="-2.5" transform="matrix(0.99996 -0.00890059 0.00541792 0.999985 8.90527 102.469)" stroke="white" stroke-width="5"/>
<line x1="8.90527" y1="107.743" x2="57.4249" y2="107.743" stroke="white" stroke-width="5"/>
<line y1="-2.5" x2="48.5507" y2="-2.5" transform="matrix(0.999367 0.0355812 -0.0216669 0.999765 8.90527 118.016)" stroke="white" stroke-width="5"/>
</svg>
