<svg width="552" height="194" viewBox="0 0 552 194" fill="none" xmlns="http://www.w3.org/2000/svg">
<rect x="462.81" y="169.566" width="2.99816" height="35.5984" transform="rotate(-90 462.81 169.566)" fill="white"/>
<rect x="462.81" y="165.902" width="0.999388" height="35.5984" transform="rotate(-90 462.81 165.902)" fill="white"/>
<rect x="462.81" y="164.236" width="1.83221" height="35.5984" transform="rotate(-90 462.81 164.236)" fill="white"/>
<rect x="462.81" y="161.736" width="0.499694" height="35.5984" transform="rotate(-90 462.81 161.736)" fill="white"/>
<rect x="462.81" y="156.074" width="0.499694" height="35.5984" transform="rotate(-90 462.81 156.074)" fill="white"/>
<rect x="462.81" y="160.572" width="1.33252" height="35.5984" transform="rotate(-90 462.81 160.572)" fill="white"/>
<rect x="462.81" y="158.572" width="1.83221" height="35.5984" transform="rotate(-90 462.81 158.572)" fill="white"/>
<rect x="462.81" y="154.574" width="4.16411" height="35.5984" transform="rotate(-90 462.81 154.574)" fill="white"/>
<rect x="462.81" y="149.412" width="2.49847" height="35.5984" transform="rotate(-90 462.81 149.412)" fill="white"/>
<rect x="462.81" y="146.246" width="1.33252" height="35.5984" transform="rotate(-90 462.81 146.246)" fill="white"/>
<rect x="462.81" y="143.914" width="0.832823" height="35.5984" transform="rotate(-90 462.81 143.914)" fill="white"/>
<rect x="462.81" y="136.088" width="0.832823" height="35.5984" transform="rotate(-90 462.81 136.088)" fill="white"/>
<rect x="462.81" y="134.588" width="0.832823" height="35.5984" transform="rotate(-90 462.81 134.588)" fill="white"/>
<rect x="462.81" y="129.59" width="0.832823" height="35.5984" transform="rotate(-90 462.81 129.59)" fill="white"/>
<rect x="462.81" y="125.76" width="0.832823" height="35.5984" transform="rotate(-90 462.81 125.76)" fill="white"/>
<rect x="462.81" y="124.26" width="1.49908" height="35.5984" transform="rotate(-90 462.81 124.26)" fill="white"/>
<rect x="462.81" y="122.43" width="1.83221" height="35.5984" transform="rotate(-90 462.81 122.43)" fill="white"/>
<rect x="462.81" y="119.93" width="0.666258" height="35.5984" transform="rotate(-90 462.81 119.93)" fill="white"/>
<rect x="462.81" y="118.598" width="4.83037" height="35.5984" transform="rotate(-90 462.81 118.598)" fill="white"/>
<rect x="462.81" y="113.434" width="0.999388" height="35.5984" transform="rotate(-90 462.81 113.434)" fill="white"/>
<rect x="462.81" y="111.436" width="0.666258" height="35.5984" transform="rotate(-90 462.81 111.436)" fill="white"/>
<rect x="462.81" y="110.104" width="1.66565" height="35.5984" transform="rotate(-90 462.81 110.104)" fill="white"/>
<rect x="462.81" y="107.77" width="1.16595" height="35.5984" transform="rotate(-90 462.81 107.77)" fill="white"/>
<rect x="462.81" y="105.605" width="0.666258" height="35.5984" transform="rotate(-90 462.81 105.605)" fill="white"/>
<rect x="462.81" y="104.273" width="1.66565" height="35.5984" transform="rotate(-90 462.81 104.273)" fill="white"/>
<rect x="462.81" y="101.941" width="1.16595" height="35.5984" transform="rotate(-90 462.81 101.941)" fill="white"/>
<rect x="462.81" y="100.109" width="2.66503" height="35.5984" transform="rotate(-90 462.81 100.109)" fill="white"/>
<rect x="462.81" y="128.092" width="1.66565" height="35.5984" transform="rotate(-90 462.81 128.092)" fill="white"/>
<rect x="462.81" y="132.756" width="2.16534" height="35.5984" transform="rotate(-90 462.81 132.756)" fill="white"/>
<rect x="462.81" y="142.414" width="1.33252" height="35.5984" transform="rotate(-90 462.81 142.414)" fill="white"/>
<rect x="462.81" y="140.418" width="1.49908" height="35.5984" transform="rotate(-90 462.81 140.418)" fill="white"/>
<rect x="462.81" y="138.584" width="1.83221" height="35.5984" transform="rotate(-90 462.81 138.584)" fill="white"/>
<path d="M60.7314 64.9844C62.4162 70.5987 64.2693 88.7373 64.2693 98.2384C64.2693 109.899 62.5846 121.703 60.8999 129.117" stroke="white" stroke-width="5"/>
<path d="M548.792 93.0565V3.44336L411.994 15.5357L76.2312 28.06L60.2264 65.6327L3.2832 69.9514" stroke="white" stroke-width="5"/>
<path d="M548.793 92.8406V190.443L411.994 178.351L76.2312 165.827L60.3949 128.47L2.94629 122.856L3.4517 68.8718" stroke="white" stroke-width="5"/>
<rect x="91.2256" y="45.7656" width="323.464" height="103.217" fill="white"/>
<line x1="80.9209" y1="32.8105" x2="80.9209" y2="158.485" stroke="white" stroke-width="5"/>
<line x1="538.488" y1="3.44336" x2="538.488" y2="188.284" stroke="white" stroke-width="5"/>
<path d="M472.708 80.5957V81.7997H469.579L470.37 82.5837L469.649 83.2697L468.039 81.6387V80.5957H472.708Z" fill="white"/>
<path d="M474.243 88.6301L464.365 81.3208L474.243 74.0116V88.6301Z" stroke="white" stroke-width="3"/>
<path d="M477.702 56.0731C477.702 58.5051 476.966 60.5211 475.494 62.1211C474.001 63.7211 472.028 64.5211 469.574 64.5211C467.292 64.5211 465.372 63.7531 463.814 62.2171C462.257 60.6597 461.478 58.6864 461.478 56.2971C461.478 53.9717 462.268 52.0731 463.846 50.6011C465.404 49.1291 467.484 48.3931 470.086 48.3931H471.142V59.4011C471.91 59.2517 472.561 58.8357 473.094 58.1531C473.628 57.4704 473.894 56.5957 473.894 55.5291C473.894 54.9317 473.777 54.2491 473.542 53.4811C473.286 52.6917 472.966 52.0944 472.582 51.6891L475.654 49.6091C476.316 50.3557 476.828 51.3157 477.19 52.4891C477.532 53.6411 477.702 54.8357 477.702 56.0731ZM467.942 53.0971C467.26 53.1824 466.652 53.4811 466.118 53.9931C465.564 54.5051 465.286 55.2731 465.286 56.2971C465.286 57.2571 465.553 57.9931 466.086 58.5051C466.62 59.0171 467.238 59.3371 467.942 59.4651V53.0971Z" fill="white"/>
<path d="M91.2256 148.984V46.1992L414.69 46.1992V148.984L91.2256 148.984Z" fill="#2143FF"/>
<path d="M537 4.95342L548.793 3.875L548.456 189.579L537 188.391V4.95342Z" fill="#2143FF"/>
<line y1="-2.5" x2="49.087" y2="-2.5" transform="matrix(0.995306 -0.0967787 0.0590836 0.998253 8 78.5879)" stroke="white" stroke-width="5"/>
<line y1="-2.5" x2="48.6425" y2="-2.5" transform="matrix(0.997474 -0.0710277 0.0433034 0.999062 8.33691 85.9297)" stroke="white" stroke-width="5"/>
<line y1="-2.5" x2="48.5672" y2="-2.5" transform="matrix(0.999011 -0.0444607 0.0270801 0.999633 8.33691 94.1367)" stroke="white" stroke-width="5"/>
<line y1="-2.5" x2="48.5216" y2="-2.5" transform="matrix(0.99996 -0.00890059 0.00541792 0.999985 8.33691 102.342)" stroke="white" stroke-width="5"/>
<line x1="8.33691" y1="107.615" x2="56.8566" y2="107.615" stroke="white" stroke-width="5"/>
<line y1="-2.5" x2="48.5507" y2="-2.5" transform="matrix(0.999367 0.0355812 -0.0216669 0.999765 8.33691 117.889)" stroke="white" stroke-width="5"/>
</svg>
