<svg width="552" height="193" viewBox="0 0 552 193" fill="none" xmlns="http://www.w3.org/2000/svg">
<rect x="463.378" y="169.318" width="2.99816" height="35.5984" transform="rotate(-90 463.378 169.318)" fill="white"/>
<rect x="463.378" y="165.654" width="0.999388" height="35.5984" transform="rotate(-90 463.378 165.654)" fill="white"/>
<rect x="463.378" y="163.988" width="1.83221" height="35.5984" transform="rotate(-90 463.378 163.988)" fill="white"/>
<rect x="463.378" y="161.488" width="0.499694" height="35.5984" transform="rotate(-90 463.378 161.488)" fill="white"/>
<rect x="463.378" y="155.826" width="0.499694" height="35.5984" transform="rotate(-90 463.378 155.826)" fill="white"/>
<rect x="463.378" y="160.324" width="1.33252" height="35.5984" transform="rotate(-90 463.378 160.324)" fill="white"/>
<rect x="463.378" y="158.324" width="1.83221" height="35.5984" transform="rotate(-90 463.378 158.324)" fill="white"/>
<rect x="463.378" y="154.326" width="4.16411" height="35.5984" transform="rotate(-90 463.378 154.326)" fill="white"/>
<rect x="463.378" y="149.164" width="2.49847" height="35.5984" transform="rotate(-90 463.378 149.164)" fill="white"/>
<rect x="463.378" y="145.998" width="1.33252" height="35.5984" transform="rotate(-90 463.378 145.998)" fill="white"/>
<rect x="463.378" y="143.666" width="0.832823" height="35.5984" transform="rotate(-90 463.378 143.666)" fill="white"/>
<rect x="463.378" y="135.84" width="0.832823" height="35.5984" transform="rotate(-90 463.378 135.84)" fill="white"/>
<rect x="463.378" y="134.34" width="0.832823" height="35.5984" transform="rotate(-90 463.378 134.34)" fill="white"/>
<rect x="463.378" y="129.342" width="0.832823" height="35.5984" transform="rotate(-90 463.378 129.342)" fill="white"/>
<rect x="463.378" y="125.512" width="0.832823" height="35.5984" transform="rotate(-90 463.378 125.512)" fill="white"/>
<rect x="463.378" y="124.012" width="1.49908" height="35.5984" transform="rotate(-90 463.378 124.012)" fill="white"/>
<rect x="463.378" y="122.182" width="1.83221" height="35.5984" transform="rotate(-90 463.378 122.182)" fill="white"/>
<rect x="463.378" y="119.682" width="0.666258" height="35.5984" transform="rotate(-90 463.378 119.682)" fill="white"/>
<rect x="463.378" y="118.35" width="4.83037" height="35.5984" transform="rotate(-90 463.378 118.35)" fill="white"/>
<rect x="463.378" y="113.186" width="0.999388" height="35.5984" transform="rotate(-90 463.378 113.186)" fill="white"/>
<rect x="463.378" y="111.188" width="0.666258" height="35.5984" transform="rotate(-90 463.378 111.188)" fill="white"/>
<rect x="463.378" y="109.855" width="1.66565" height="35.5984" transform="rotate(-90 463.378 109.855)" fill="white"/>
<rect x="463.378" y="107.521" width="1.16595" height="35.5984" transform="rotate(-90 463.378 107.521)" fill="white"/>
<rect x="463.378" y="105.357" width="0.666258" height="35.5984" transform="rotate(-90 463.378 105.357)" fill="white"/>
<rect x="463.378" y="104.025" width="1.66565" height="35.5984" transform="rotate(-90 463.378 104.025)" fill="white"/>
<rect x="463.378" y="101.693" width="1.16595" height="35.5984" transform="rotate(-90 463.378 101.693)" fill="white"/>
<rect x="463.378" y="99.8613" width="2.66503" height="35.5984" transform="rotate(-90 463.378 99.8613)" fill="white"/>
<rect x="463.378" y="127.844" width="1.66565" height="35.5984" transform="rotate(-90 463.378 127.844)" fill="white"/>
<rect x="463.378" y="132.508" width="2.16534" height="35.5984" transform="rotate(-90 463.378 132.508)" fill="white"/>
<rect x="463.378" y="142.166" width="1.33252" height="35.5984" transform="rotate(-90 463.378 142.166)" fill="white"/>
<rect x="463.378" y="140.17" width="1.49908" height="35.5984" transform="rotate(-90 463.378 140.17)" fill="white"/>
<rect x="463.378" y="138.336" width="1.83221" height="35.5984" transform="rotate(-90 463.378 138.336)" fill="white"/>
<path d="M61.2998 64.7363C62.9845 70.3506 64.8377 88.4892 64.8377 97.9904C64.8377 109.651 63.153 121.455 61.4683 128.869" stroke="white" stroke-width="5"/>
<path d="M549.361 92.8085V3.19531L412.562 15.2877L76.7995 27.8119L60.7948 65.3847L3.85156 69.7034" stroke="white" stroke-width="5"/>
<path d="M549.361 92.5925V190.195L412.562 178.103L76.7996 165.579L60.9633 128.222L3.51465 122.608L4.02006 68.6237" stroke="white" stroke-width="5"/>
<rect x="91.7939" y="45.5176" width="323.464" height="103.217" fill="white"/>
<line x1="81.4893" y1="32.5625" x2="81.4893" y2="158.237" stroke="white" stroke-width="5"/>
<line x1="539.057" y1="3.19531" x2="539.057" y2="188.036" stroke="white" stroke-width="5"/>
<path d="M473.276 80.3476V81.5516H470.147L470.938 82.3356L470.217 83.0216L468.607 81.3906V80.3476H473.276Z" fill="white"/>
<path d="M474.811 88.382L464.934 81.0728L474.811 73.7635V88.382Z" stroke="white" stroke-width="3"/>
<path d="M478.271 55.825C478.271 58.257 477.535 60.273 476.063 61.873C474.569 63.473 472.596 64.273 470.143 64.273C467.86 64.273 465.94 63.505 464.383 61.969C462.825 60.4117 462.047 58.4383 462.047 56.049C462.047 53.7237 462.836 51.825 464.415 50.353C465.972 48.881 468.052 48.145 470.655 48.145H471.711V59.153C472.479 59.0037 473.129 58.5877 473.663 57.905C474.196 57.2223 474.463 56.3477 474.463 55.281C474.463 54.6837 474.345 54.001 474.111 53.233C473.855 52.4437 473.535 51.8463 473.151 51.441L476.223 49.361C476.884 50.1077 477.396 51.0677 477.759 52.241C478.1 53.393 478.271 54.5877 478.271 55.825ZM468.511 52.849C467.828 52.9343 467.22 53.233 466.687 53.745C466.132 54.257 465.855 55.025 465.855 56.049C465.855 57.009 466.121 57.745 466.655 58.257C467.188 58.769 467.807 59.089 468.511 59.217V52.849Z" fill="white"/>
<path d="M91.7939 148.736V45.9511L415.258 45.9511V148.736L91.7939 148.736Z" fill="#FF8C21"/>
<path d="M537.568 4.70538L549.361 3.62695L549.024 189.331L537.568 188.143V4.70538Z" fill="#FF8C21"/>
<line y1="-2.5" x2="49.087" y2="-2.5" transform="matrix(0.995306 -0.0967787 0.0590836 0.998253 8.56836 78.3398)" stroke="white" stroke-width="5"/>
<line y1="-2.5" x2="48.6425" y2="-2.5" transform="matrix(0.997474 -0.0710277 0.0433034 0.999062 8.90527 85.6816)" stroke="white" stroke-width="5"/>
<line y1="-2.5" x2="48.5672" y2="-2.5" transform="matrix(0.999011 -0.0444607 0.0270801 0.999633 8.90527 93.8887)" stroke="white" stroke-width="5"/>
<line y1="-2.5" x2="48.5216" y2="-2.5" transform="matrix(0.99996 -0.00890059 0.00541792 0.999985 8.90527 102.094)" stroke="white" stroke-width="5"/>
<line x1="8.90527" y1="107.367" x2="57.4249" y2="107.367" stroke="white" stroke-width="5"/>
<line y1="-2.5" x2="48.5507" y2="-2.5" transform="matrix(0.999367 0.0355812 -0.0216669 0.999765 8.90527 117.641)" stroke="white" stroke-width="5"/>
</svg>
