<svg width="552" height="193" viewBox="0 0 552 193" fill="none" xmlns="http://www.w3.org/2000/svg">
<rect x="463.377" y="169.069" width="2.99816" height="35.5984" transform="rotate(-90 463.377 169.069)" fill="white"/>
<rect x="463.377" y="165.405" width="0.999388" height="35.5984" transform="rotate(-90 463.377 165.405)" fill="white"/>
<rect x="463.377" y="163.739" width="1.83221" height="35.5984" transform="rotate(-90 463.377 163.739)" fill="white"/>
<rect x="463.377" y="161.239" width="0.499694" height="35.5984" transform="rotate(-90 463.377 161.239)" fill="white"/>
<rect x="463.377" y="155.577" width="0.499694" height="35.5984" transform="rotate(-90 463.377 155.577)" fill="white"/>
<rect x="463.377" y="160.075" width="1.33252" height="35.5984" transform="rotate(-90 463.377 160.075)" fill="white"/>
<rect x="463.377" y="158.075" width="1.83221" height="35.5984" transform="rotate(-90 463.377 158.075)" fill="white"/>
<rect x="463.377" y="154.077" width="4.16411" height="35.5984" transform="rotate(-90 463.377 154.077)" fill="white"/>
<rect x="463.377" y="148.915" width="2.49847" height="35.5984" transform="rotate(-90 463.377 148.915)" fill="white"/>
<rect x="463.377" y="145.749" width="1.33252" height="35.5984" transform="rotate(-90 463.377 145.749)" fill="white"/>
<rect x="463.377" y="143.417" width="0.832823" height="35.5984" transform="rotate(-90 463.377 143.417)" fill="white"/>
<rect x="463.377" y="135.59" width="0.832823" height="35.5984" transform="rotate(-90 463.377 135.59)" fill="white"/>
<rect x="463.377" y="134.09" width="0.832823" height="35.5984" transform="rotate(-90 463.377 134.09)" fill="white"/>
<rect x="463.377" y="129.092" width="0.832823" height="35.5984" transform="rotate(-90 463.377 129.092)" fill="white"/>
<rect x="463.377" y="125.262" width="0.832823" height="35.5984" transform="rotate(-90 463.377 125.262)" fill="white"/>
<rect x="463.377" y="123.762" width="1.49908" height="35.5984" transform="rotate(-90 463.377 123.762)" fill="white"/>
<rect x="463.377" y="121.932" width="1.83221" height="35.5984" transform="rotate(-90 463.377 121.932)" fill="white"/>
<rect x="463.377" y="119.432" width="0.666258" height="35.5984" transform="rotate(-90 463.377 119.432)" fill="white"/>
<rect x="463.377" y="118.1" width="4.83037" height="35.5984" transform="rotate(-90 463.377 118.1)" fill="white"/>
<rect x="463.377" y="112.936" width="0.999388" height="35.5984" transform="rotate(-90 463.377 112.936)" fill="white"/>
<rect x="463.377" y="110.938" width="0.666258" height="35.5984" transform="rotate(-90 463.377 110.938)" fill="white"/>
<rect x="463.377" y="109.606" width="1.66565" height="35.5984" transform="rotate(-90 463.377 109.606)" fill="white"/>
<rect x="463.377" y="107.272" width="1.16595" height="35.5984" transform="rotate(-90 463.377 107.272)" fill="white"/>
<rect x="463.377" y="105.108" width="0.666258" height="35.5984" transform="rotate(-90 463.377 105.108)" fill="white"/>
<rect x="463.377" y="103.776" width="1.66565" height="35.5984" transform="rotate(-90 463.377 103.776)" fill="white"/>
<rect x="463.377" y="101.444" width="1.16595" height="35.5984" transform="rotate(-90 463.377 101.444)" fill="white"/>
<rect x="463.377" y="99.6118" width="2.66503" height="35.5984" transform="rotate(-90 463.377 99.6118)" fill="white"/>
<rect x="463.377" y="127.594" width="1.66565" height="35.5984" transform="rotate(-90 463.377 127.594)" fill="white"/>
<rect x="463.377" y="132.258" width="2.16534" height="35.5984" transform="rotate(-90 463.377 132.258)" fill="white"/>
<rect x="463.377" y="141.917" width="1.33252" height="35.5984" transform="rotate(-90 463.377 141.917)" fill="white"/>
<rect x="463.377" y="139.92" width="1.49908" height="35.5984" transform="rotate(-90 463.377 139.92)" fill="white"/>
<rect x="463.377" y="138.086" width="1.83221" height="35.5984" transform="rotate(-90 463.377 138.086)" fill="white"/>
<path d="M61.2988 64.4868C62.9835 70.1011 64.8367 88.2397 64.8367 97.7409C64.8367 109.401 63.152 121.206 61.4673 128.62" stroke="white" stroke-width="5"/>
<path d="M549.36 92.559V2.9458L412.561 15.0382L76.7985 27.5624L60.7938 65.1352L3.85059 69.4539" stroke="white" stroke-width="5"/>
<path d="M549.36 92.343V189.946L412.561 177.853L76.7986 165.329L60.9623 127.972L3.51367 122.358L4.01909 68.3742" stroke="white" stroke-width="5"/>
<rect x="91.793" y="45.2681" width="323.464" height="103.217" fill="white"/>
<line x1="81.4883" y1="32.313" x2="81.4883" y2="157.987" stroke="white" stroke-width="5"/>
<line x1="539.056" y1="2.9458" x2="539.056" y2="187.786" stroke="white" stroke-width="5"/>
<path d="M473.275 80.0981V81.3021H470.146L470.937 82.0861L470.216 82.7721L468.606 81.1411V80.0981H473.275Z" fill="white"/>
<path d="M474.81 88.1325L464.933 80.8233L474.81 73.514V88.1325Z" stroke="white" stroke-width="3"/>
<path d="M478.27 55.5755C478.27 58.0075 477.534 60.0235 476.062 61.6235C474.568 63.2235 472.595 64.0235 470.142 64.0235C467.859 64.0235 465.939 63.2555 464.382 61.7195C462.824 60.1622 462.046 58.1888 462.046 55.7995C462.046 53.4742 462.835 51.5755 464.414 50.1035C465.971 48.6315 468.051 47.8955 470.654 47.8955H471.71V58.9035C472.478 58.7542 473.128 58.3382 473.662 57.6555C474.195 56.9728 474.462 56.0982 474.462 55.0315C474.462 54.4342 474.344 53.7515 474.11 52.9835C473.854 52.1942 473.534 51.5968 473.15 51.1915L476.222 49.1115C476.883 49.8582 477.395 50.8182 477.758 51.9915C478.099 53.1435 478.27 54.3382 478.27 55.5755ZM468.51 52.5995C467.827 52.6848 467.219 52.9835 466.686 53.4955C466.131 54.0075 465.854 54.7755 465.854 55.7995C465.854 56.7595 466.12 57.4955 466.654 58.0075C467.187 58.5195 467.806 58.8395 468.51 58.9675V52.5995Z" fill="white"/>
<path d="M91.793 148.487V45.7016L415.257 45.7016V148.487L91.793 148.487Z" fill="#FF8C21"/>
<path d="M537.567 4.45586L549.36 3.37744L549.023 189.082L537.567 187.894V4.45586Z" fill="#FF8C21"/>
<line y1="-2.5" x2="49.087" y2="-2.5" transform="matrix(0.995306 -0.0967787 0.0590836 0.998253 8.56738 78.0903)" stroke="white" stroke-width="5"/>
<line y1="-2.5" x2="48.6425" y2="-2.5" transform="matrix(0.997474 -0.0710277 0.0433034 0.999062 8.9043 85.4321)" stroke="white" stroke-width="5"/>
<line y1="-2.5" x2="48.5672" y2="-2.5" transform="matrix(0.999011 -0.0444607 0.0270801 0.999633 8.9043 93.6392)" stroke="white" stroke-width="5"/>
<line y1="-2.5" x2="48.5216" y2="-2.5" transform="matrix(0.99996 -0.00890059 0.00541792 0.999985 8.9043 101.844)" stroke="white" stroke-width="5"/>
<line x1="8.9043" y1="107.118" x2="57.424" y2="107.118" stroke="white" stroke-width="5"/>
<line y1="-2.5" x2="48.5507" y2="-2.5" transform="matrix(0.999367 0.0355812 -0.0216669 0.999765 8.9043 117.391)" stroke="white" stroke-width="5"/>
</svg>
